<svg width="2819" height="6014" viewBox="0 0 2819 6014" fill="none" xmlns="http://www.w3.org/2000/svg">
<g filter="url(#filter0_f_66_2477)">
<rect width="2819" height="6013.62" fill="black"/>
<g clip-path="url(#clip0_66_2477)">
<g filter="url(#filter1_f_66_2477)">
<path d="M1396.7 84.4997C1573.21 698.57 1267.7 1411.61 714.316 1677.12C160.934 1942.63 -430.763 1660.06 -607.276 1045.99C-783.788 431.922 -478.275 -281.118 75.1081 -546.627C628.491 -812.136 1220.19 -529.571 1396.7 84.4997Z" fill="#D4218C" fill-opacity="0.4"/>
</g>
<g filter="url(#filter2_f_66_2477)">
<ellipse rx="905.138" ry="975.991" transform="matrix(0.901596 -0.432579 0.27626 0.961083 2322.7 2780.55)" fill="url(#paint0_linear_66_2477)" fill-opacity="0.4"/>
</g>
<g filter="url(#filter3_f_66_2477)">
<ellipse rx="772.287" ry="1049.15" transform="matrix(0.901596 -0.432579 0.27626 0.961083 320.128 5265.39)" fill="url(#paint1_linear_66_2477)" fill-opacity="0.4"/>
</g>
<g filter="url(#filter4_f_66_2477)">
<path d="M1530.39 3476.46C1504.59 3386.7 1458.43 3309.08 1397.94 3253.76C1337.45 3198.43 1265.45 3167.97 1191.34 3166.36C1117.24 3164.75 1044.49 3192.06 982.589 3244.72C920.692 3297.39 872.533 3372.95 844.408 3461.54C816.283 3550.13 809.501 3647.62 824.947 3741.27C840.393 3834.92 877.349 3920.37 930.985 3986.45C984.62 4052.53 1052.44 4096.16 1125.58 4111.65C1198.71 4127.14 1273.77 4113.76 1340.92 4073.26L1185.15 3642.11L1530.39 3476.46Z" fill="url(#paint2_linear_66_2477)" fill-opacity="0.4"/>
</g>
<g filter="url(#filter5_f_66_2477)">
<ellipse rx="1072.73" ry="1032.48" transform="matrix(0.901596 -0.432579 0.27626 0.961083 555.401 2711.34)" fill="url(#paint3_linear_66_2477)" fill-opacity="0.4"/>
</g>
<g filter="url(#filter6_f_66_2477)">
<ellipse rx="1171.67" ry="1289.89" transform="matrix(0.901536 -0.432704 0.276169 0.961109 1885.53 4986.71)" fill="url(#paint4_linear_66_2477)" fill-opacity="0.4"/>
</g>
<g filter="url(#filter7_f_66_2477)">
<path d="M2996.61 443.538C3142.11 949.727 2887.77 1538.7 2428.53 1759.04C1969.29 1979.38 1479.05 1747.65 1333.54 1241.46C1188.04 735.273 1442.38 146.304 1901.62 -74.0373C2360.86 -294.378 2851.1 -62.6521 2996.61 443.538Z" fill="url(#paint5_linear_66_2477)" fill-opacity="0.4"/>
</g>
</g>
</g>
<defs>
<filter id="filter0_f_66_2477" x="-14" y="-14" width="2847" height="6042" filterUnits="userSpaceOnUse" color-interpolation-filters="sRGB">
<feFlood flood-opacity="0" result="BackgroundImageFix"/>
<feBlend mode="normal" in="SourceGraphic" in2="BackgroundImageFix" result="shape"/>
<feGaussianBlur stdDeviation="2" result="effect1_foregroundBlur_66_2477"/>
</filter>
<filter id="filter1_f_66_2477" x="-1566.05" y="-1555.17" width="3921.52" height="4240.83" filterUnits="userSpaceOnUse" color-interpolation-filters="sRGB">
<feFlood flood-opacity="0" result="BackgroundImageFix"/>
<feBlend mode="normal" in="SourceGraphic" in2="BackgroundImageFix" result="shape"/>
<feGaussianBlur stdDeviation="454.375" result="effect1_foregroundBlur_66_2477"/>
</filter>
<filter id="filter2_f_66_2477" x="554.256" y="855.09" width="3536.88" height="3850.93" filterUnits="userSpaceOnUse" color-interpolation-filters="sRGB">
<feFlood flood-opacity="0" result="BackgroundImageFix"/>
<feBlend mode="normal" in="SourceGraphic" in2="BackgroundImageFix" result="shape"/>
<feGaussianBlur stdDeviation="454.375" result="effect1_foregroundBlur_66_2477"/>
</filter>
<filter id="filter3_f_66_2477" x="-1343.02" y="3294.13" width="3326.31" height="3942.52" filterUnits="userSpaceOnUse" color-interpolation-filters="sRGB">
<feFlood flood-opacity="0" result="BackgroundImageFix"/>
<feBlend mode="normal" in="SourceGraphic" in2="BackgroundImageFix" result="shape"/>
<feGaussianBlur stdDeviation="454.375" result="effect1_foregroundBlur_66_2477"/>
</filter>
<filter id="filter4_f_66_2477" x="-91.8906" y="2257.54" width="2531.03" height="2769.12" filterUnits="userSpaceOnUse" color-interpolation-filters="sRGB">
<feFlood flood-opacity="0" result="BackgroundImageFix"/>
<feBlend mode="normal" in="SourceGraphic" in2="BackgroundImageFix" result="shape"/>
<feGaussianBlur stdDeviation="454.375" result="effect1_foregroundBlur_66_2477"/>
</filter>
<filter id="filter5_f_66_2477" x="-1361.96" y="706.888" width="3834.73" height="4008.9" filterUnits="userSpaceOnUse" color-interpolation-filters="sRGB">
<feFlood flood-opacity="0" result="BackgroundImageFix"/>
<feBlend mode="normal" in="SourceGraphic" in2="BackgroundImageFix" result="shape"/>
<feGaussianBlur stdDeviation="454.375" result="effect1_foregroundBlur_66_2477"/>
</filter>
<filter id="filter6_f_66_2477" x="-138.274" y="2738.22" width="4047.61" height="4496.98" filterUnits="userSpaceOnUse" color-interpolation-filters="sRGB">
<feFlood flood-opacity="0" result="BackgroundImageFix"/>
<feBlend mode="normal" in="SourceGraphic" in2="BackgroundImageFix" result="shape"/>
<feGaussianBlur stdDeviation="454.375" result="effect1_foregroundBlur_66_2477"/>
</filter>
<filter id="filter7_f_66_2477" x="383.823" y="-1066.11" width="3562.51" height="3817.22" filterUnits="userSpaceOnUse" color-interpolation-filters="sRGB">
<feFlood flood-opacity="0" result="BackgroundImageFix"/>
<feBlend mode="normal" in="SourceGraphic" in2="BackgroundImageFix" result="shape"/>
<feGaussianBlur stdDeviation="454.375" result="effect1_foregroundBlur_66_2477"/>
</filter>
<linearGradient id="paint0_linear_66_2477" x1="1260.56" y1="-255.495" x2="-6.06805" y2="1975.4" gradientUnits="userSpaceOnUse">
<stop stop-color="#D4218C"/>
<stop offset="0.356052" stop-color="#D4218C"/>
<stop offset="1" stop-color="#3648A9"/>
</linearGradient>
<linearGradient id="paint1_linear_66_2477" x1="1075.54" y1="-274.646" x2="-425.033" y2="1823.14" gradientUnits="userSpaceOnUse">
<stop stop-color="#D4B721"/>
<stop offset="0.356052" stop-color="#D4218C"/>
<stop offset="1" stop-color="#3648A9"/>
</linearGradient>
<linearGradient id="paint2_linear_66_2477" x1="2244.72" y1="2601.43" x2="635.187" y2="3688.44" gradientUnits="userSpaceOnUse">
<stop stop-color="#D421AC"/>
<stop offset="0.356052" stop-color="#41F2FD"/>
<stop offset="1" stop-color="#3648A9"/>
</linearGradient>
<linearGradient id="paint3_linear_66_2477" x1="1493.96" y1="-270.282" x2="235.579" y2="2212.76" gradientUnits="userSpaceOnUse">
<stop stop-color="#D4218C"/>
<stop offset="0.356052" stop-color="#21C9D4" stop-opacity="0.62"/>
<stop offset="1" stop-color="#3648A9"/>
</linearGradient>
<linearGradient id="paint4_linear_66_2477" x1="988.822" y1="-1823.01" x2="-409.451" y2="2528.07" gradientUnits="userSpaceOnUse">
<stop stop-color="#21C9D4" stop-opacity="0.62"/>
<stop offset="0.356052" stop-color="#21C9D4" stop-opacity="0.62"/>
<stop offset="1" stop-color="#3648A9"/>
</linearGradient>
<linearGradient id="paint5_linear_66_2477" x1="1941.92" y1="-564.02" x2="1710.75" y2="2117.74" gradientUnits="userSpaceOnUse">
<stop stop-color="#D4B721"/>
<stop offset="0.356052" stop-color="#21C9D4" stop-opacity="0.62"/>
<stop offset="1" stop-color="#3648A9"/>
</linearGradient>
<clipPath id="clip0_66_2477">
<rect width="2819" height="6014" fill="white"/>
</clipPath>
</defs>
</svg>
