<svg width="1628" height="234" viewBox="0 0 1628 234" fill="none" xmlns="http://www.w3.org/2000/svg">
<path d="M162.086 196.76H86.5663L75.3663 231H0.806274L83.6863 4.44L165.606 4.44L248.166 231H173.286L162.086 196.76ZM144.806 143.32L124.326 80.28L103.846 143.32H144.806ZM409.586 114.84C423.24 118.04 433.8 124.653 441.266 134.68C448.946 144.493 452.786 155.907 452.786 168.92C452.786 188.76 446.173 204.12 432.946 215C419.933 225.667 401.16 231 376.626 231H257.906V4.44H373.426C396.466 4.44 414.6 9.45333 427.826 19.48C441.053 29.5067 447.666 44.12 447.666 63.32C447.666 76.5467 444.146 87.7467 437.106 96.92C430.28 105.88 421.106 111.853 409.586 114.84ZM328.946 92.76H356.466C362.866 92.76 367.56 91.48 370.546 88.92C373.746 86.36 375.346 82.4133 375.346 77.08C375.346 71.5333 373.746 67.48 370.546 64.92C367.56 62.1467 362.866 60.76 356.466 60.76H328.946V92.76ZM361.266 174.04C367.666 174.04 372.36 172.867 375.346 170.52C378.546 167.96 380.146 163.907 380.146 158.36C380.146 147.48 373.853 142.04 361.266 142.04H328.946V174.04H361.266ZM580.656 233.24C559.323 233.24 539.696 228.227 521.776 218.2C504.07 208.173 489.99 194.307 479.536 176.6C469.083 158.893 463.856 138.947 463.856 116.76C463.856 94.5733 469.083 74.6267 479.536 56.92C489.99 39.2133 504.07 25.4533 521.776 15.64C539.696 5.61332 559.323 0.599991 580.656 0.599991C601.99 0.599991 621.51 5.61332 639.216 15.64C656.923 25.4533 670.896 39.2133 681.136 56.92C691.59 74.6267 696.816 94.5733 696.816 116.76C696.816 138.947 691.59 158.893 681.136 176.6C670.896 194.307 656.816 208.173 638.896 218.2C621.19 228.227 601.776 233.24 580.656 233.24ZM580.656 167C594.736 167 605.616 162.52 613.296 153.56C620.976 144.387 624.816 132.12 624.816 116.76C624.816 101.187 620.976 88.92 613.296 79.96C605.616 70.7867 594.736 66.2 580.656 66.2C566.363 66.2 555.376 70.7867 547.696 79.96C540.016 88.92 536.176 101.187 536.176 116.76C536.176 132.12 540.016 144.387 547.696 153.56C555.376 162.52 566.363 167 580.656 167ZM785.484 4.44V132.12C785.484 142.573 787.724 150.893 792.204 157.08C796.897 163.053 804.364 166.04 814.604 166.04C824.844 166.04 832.417 163.053 837.324 157.08C842.23 150.893 844.684 142.573 844.684 132.12V4.44L915.404 4.44V132.12C915.404 153.667 910.924 172.12 901.964 187.48C893.004 202.627 880.737 214.04 865.164 221.72C849.59 229.4 832.204 233.24 813.004 233.24C793.804 233.24 776.737 229.4 761.804 221.72C747.084 214.04 735.564 202.627 727.244 187.48C718.924 172.333 714.764 153.88 714.764 132.12V4.44H785.484ZM1117.56 4.44V60.76H1057.4V231H986.364V60.76H926.844V4.44H1117.56ZM1450.73 4.44V231H1380.01V118.04L1345.13 231H1284.33L1249.45 118.04V231H1178.41V4.44L1265.45 4.44L1315.37 140.44L1364.01 4.44H1450.73ZM1547.42 61.08V88.92H1617.82V142.36H1547.42V174.36H1627.42V231H1476.38V4.44L1627.42 4.44V61.08H1547.42Z" fill="url(#paint0_linear_18_16)" fill-opacity="0.25"/>
<defs>
<linearGradient id="paint0_linear_18_16" x1="819.5" y1="-121" x2="819.5" y2="348" gradientUnits="userSpaceOnUse">
<stop stop-color="#21C9D4" stop-opacity="0.47"/>
<stop offset="1" stop-color="#D421AC" stop-opacity="0.21"/>
</linearGradient>
</defs>
</svg>
