<svg width="255" height="327" viewBox="0 0 255 327" fill="none" xmlns="http://www.w3.org/2000/svg">
<path d="M202.355 110H201.355V111V254.129V255.129H202.355H252H253V254.129V111V110H252H202.355ZM198.565 264.078C199.579 262.244 200.178 260.213 200.324 258.13L253.993 258.132C253.983 258.785 253.964 259.437 253.936 260.088C253.479 270.576 250.599 280.83 245.506 290.04C239.934 300.113 231.897 308.607 222.146 314.726C212.396 320.845 201.252 324.389 189.758 325.025C178.264 325.661 166.797 323.369 156.431 318.364C146.065 313.358 137.139 305.803 130.49 296.406C123.841 287.008 119.686 276.077 118.416 264.636C117.145 253.195 118.799 241.619 123.224 230.992C126.891 222.184 132.02 214.695 138.794 208.317V209.7C132.456 215.842 127.633 223.005 124.147 231.376C119.788 241.847 118.157 253.253 119.41 264.526C120.662 275.799 124.755 286.569 131.306 295.828C137.857 305.087 146.652 312.531 156.866 317.463C167.079 322.395 178.378 324.654 189.703 324.027C201.028 323.4 212.008 319.908 221.615 313.879C231.222 307.85 239.141 299.481 244.63 289.556C249.628 280.52 252.462 270.464 252.931 260.177L252.978 259.132L251.932 259.132L202.081 259.13L201.25 259.13L201.098 259.946C200.797 261.558 200.239 263.117 199.44 264.562C198.182 266.837 196.366 268.756 194.164 270.138C191.962 271.52 189.445 272.32 186.849 272.464C186.569 272.48 186.089 272.515 185.497 272.559L185.488 272.56C184.11 272.663 182.075 272.814 180.247 272.89C178.869 272.946 177.455 272.97 176.232 272.911C175.622 272.882 175.027 272.831 174.492 272.746C173.986 272.665 173.403 272.533 172.888 272.285L171.758 271.739V250.963H172.758V270.484V271.112L173.323 271.385C173.934 271.68 174.819 271.81 175.709 271.878C176.641 271.948 177.734 271.957 178.857 271.933C181.101 271.885 183.548 271.702 185.223 271.576L185.231 271.576C185.899 271.526 186.434 271.486 186.794 271.466C189.22 271.331 191.574 270.583 193.632 269.291C195.691 267.999 197.388 266.205 198.565 264.078ZM140.794 248.963V206.508C141.059 206.277 141.327 206.048 141.597 205.82V247.113V248.113H142.597H172.758V248.963H140.794ZM174.758 248.963V247.963H179.593H180.593V246.963V63.6062L181.593 62.0651V248.963H174.758ZM181.593 58.3909L180.593 59.932V58.0949L180.593 58.0947V57.7987L180.593 9.54672V6.48606L178.786 8.9563L161.713 32.2947L141.988 59.0807L141.794 59.3452V59.5232L140.794 60.8902V59.1965L160.91 31.6977L181.593 3.61031V58.3909ZM178.593 61.177V63.0142L143.794 116.643V114.806L178.593 61.177ZM140.794 64.2776L141.794 62.9106V114.214L140.794 115.755V64.2776ZM140.794 119.429L141.794 117.888V119.725L140.794 121.266V119.429ZM140.794 124.94L141.794 123.399V203.071C141.457 203.34 141.124 203.611 140.794 203.885V124.94ZM138.794 122.511V124.348L57.9846 248.882L1.97258 248.961L138.794 61.9305V63.6241L5.11067 246.365L3.94518 247.958L5.91917 247.955L56.8986 247.884L57.4409 247.883L57.7361 247.428L138.794 122.511ZM254 109V256.129H200.355V109H254Z" stroke="url(#paint0_linear_111_2445)" stroke-width="2"/>
<defs>
<linearGradient id="paint0_linear_111_2445" x1="188.738" y1="4.3549" x2="20.5649" y2="263.318" gradientUnits="userSpaceOnUse">
<stop stop-color="#FA17C8"/>
<stop offset="1" stop-color="#00CCFF"/>
</linearGradient>
</defs>
</svg>
