<svg width="230" height="1212" viewBox="0 0 230 1212" fill="none" xmlns="http://www.w3.org/2000/svg">
<path d="M192.76 1050.72V1126.24L227 1137.44V1212L0.439999 1129.12V1047.2L227 964.64V1039.52L192.76 1050.72ZM139.32 1068L76.28 1088.48L139.32 1108.96V1068ZM0.439999 682.58H227V753.3H114.04L227 788.18V848.98L114.04 883.86H227L227 954.9H0.439999V867.86L136.44 817.94L0.439999 769.3L0.439999 682.58ZM192.76 511.645V587.165L227 598.365V672.925L0.439999 590.045L0.439999 508.125L227 425.565V500.445L192.76 511.645ZM139.32 528.925L76.28 549.405L139.32 569.885V528.925ZM227 198.545V269.585L113.08 344.785H227L227 415.825H0.439999V344.785L116.28 269.585H0.439999V198.545H227ZM0.439999 101.81H227V172.85H0.439999L0.439999 101.81ZM229.56 40.925C229.56 53.2983 226.253 63.2183 219.64 70.685C213.027 78.1517 204.707 81.885 194.68 81.885C184.44 81.885 176.013 78.1517 169.4 70.685C162.573 63.2183 159.16 53.2983 159.16 40.925C159.16 28.765 162.573 18.9517 169.4 11.485C176.013 4.01833 184.44 0.285 194.68 0.285C204.707 0.285 213.027 4.01833 219.64 11.485C226.253 18.9517 229.56 28.765 229.56 40.925Z" fill="url(#paint0_linear_18_15)" fill-opacity="0.4"/>
<defs>
<linearGradient id="paint0_linear_18_15" x1="-125" y1="600.5" x2="344.182" y2="600.5" gradientUnits="userSpaceOnUse">
<stop stop-color="#21C9D4" stop-opacity="0.47"/>
<stop offset="1" stop-color="#D421AC" stop-opacity="0.21"/>
</linearGradient>
</defs>
</svg>
