<svg width="40" height="230" viewBox="0 0 40 230" fill="none" xmlns="http://www.w3.org/2000/svg">
<path fill-rule="evenodd" clip-rule="evenodd" d="M21.5105 0.5C22.3389 0.5 23.0105 1.17157 23.0105 2L23.0105 203.289C23.0105 204.117 22.3389 204.789 21.5105 204.789C20.6821 204.789 20.0105 204.117 20.0105 203.289L20.0105 2C20.0105 1.17157 20.6821 0.5 21.5105 0.5Z" fill="#D80EDC"/>
<path fill-rule="evenodd" clip-rule="evenodd" d="M38.3444 176.466C39.1481 176.666 39.6367 177.481 39.4358 178.285C38.9612 180.183 38.4827 182.077 38.0049 183.969C35.4066 194.255 32.8274 204.466 30.9924 214.865C30.9074 215.346 30.8204 216.001 30.7142 216.8C30.6147 217.549 30.4983 218.424 30.3509 219.404C30.0607 221.334 29.6647 223.539 29.0856 225.355C28.7971 226.261 28.4413 227.141 27.9879 227.862C27.5512 228.556 26.8956 229.306 25.9263 229.598C24.864 229.918 23.8552 229.57 23.0276 228.943C22.2303 228.338 21.4692 227.389 20.7115 226.153C17.6926 221.227 15.4542 215.74 13.4243 210.262C12.8556 208.727 12.3047 207.198 11.7581 205.68C10.3372 201.736 8.94512 197.871 7.34258 194.197C7.26531 194.02 7.09673 193.621 6.86128 193.064C6.21433 191.533 5.06245 188.808 3.91228 186.205C3.13532 184.446 2.3875 182.81 1.83985 181.729C1.71316 181.48 1.60583 181.277 1.51801 181.118C1.05302 180.864 0.737755 180.37 0.737755 179.802C0.737755 179.703 0.73867 179.386 0.895424 179.05C0.984703 178.858 1.1698 178.564 1.52761 178.358C1.91107 178.138 2.30891 178.123 2.61142 178.186C3.08036 178.284 3.37085 178.574 3.43849 178.641L3.44257 178.645C3.5567 178.758 3.64763 178.876 3.7112 178.964C3.95268 179.299 4.2351 179.82 4.51561 180.373C5.10236 181.53 5.87783 183.23 6.65636 184.992C7.82127 187.629 9.05788 190.554 9.69057 192.051C9.8955 192.536 10.0371 192.871 10.0923 192.998C11.7371 196.768 13.1803 200.775 14.6133 204.753C15.1527 206.25 15.6907 207.744 16.2374 209.219C18.2538 214.661 20.4103 219.92 23.2693 224.585C23.9458 225.689 24.4749 226.275 24.8399 226.552C24.9596 226.643 25.0398 226.685 25.087 226.705C25.1446 226.661 25.2718 226.545 25.4487 226.264C25.7108 225.847 25.9751 225.236 26.2273 224.444C26.7298 222.868 27.0981 220.861 27.3843 218.958C27.5098 218.123 27.6237 217.274 27.7262 216.51C27.8452 215.622 27.9489 214.848 28.038 214.344C29.8937 203.828 32.5039 193.495 35.1019 183.211C35.5784 181.325 36.0545 179.441 36.5254 177.557C36.7263 176.753 37.5407 176.265 38.3444 176.466ZM25.1405 226.719C25.1408 226.72 25.1338 226.72 25.1188 226.716C25.1327 226.716 25.1402 226.718 25.1405 226.719ZM1.27175 180.711C1.27174 180.711 1.27267 180.712 1.27458 180.715C1.27271 180.712 1.27176 180.711 1.27175 180.711Z" fill="#D80EDC"/>
</svg>
