<svg width="40" height="230" viewBox="0 0 40 230" fill="none" xmlns="http://www.w3.org/2000/svg">
<path fill-rule="evenodd" clip-rule="evenodd" d="M18.7078 229.5C17.8793 229.5 17.2078 228.828 17.2078 228L17.2078 26.7113C17.2078 25.8829 17.8793 25.2113 18.7078 25.2113C19.5362 25.2113 20.2078 25.8829 20.2078 26.7113L20.2078 228C20.2078 228.828 19.5362 229.5 18.7078 229.5Z" fill="#0BD1EC"/>
<path fill-rule="evenodd" clip-rule="evenodd" d="M1.87386 53.5346C1.07016 53.3336 0.581523 52.5192 0.782446 51.7156C1.25706 49.8171 1.73554 47.9228 2.21337 46.0311C4.81163 35.7448 7.39083 25.5339 9.22589 15.1352C9.31084 14.6539 9.39781 13.9995 9.5041 13.1998C9.60355 12.4515 9.71991 11.5759 9.86736 10.5958C10.1576 8.66661 10.5536 6.4615 11.1326 4.64469C11.4211 3.73939 11.7769 2.85906 12.2304 2.13836C12.667 1.44442 13.3227 0.694019 14.2919 0.401939C15.3542 0.0818322 16.363 0.430164 17.1906 1.05752C17.988 1.6619 18.7491 2.61112 19.5068 3.84741C22.5256 8.77291 24.764 14.2606 26.7939 19.7384C27.3627 21.2732 27.9135 22.8025 28.4602 24.32C29.881 28.2646 31.2731 32.1294 32.8757 35.8029C32.953 35.98 33.1215 36.3789 33.357 36.936C34.0039 38.4667 35.1558 41.1921 36.306 43.7952C37.0829 45.5537 37.8308 47.1904 38.3784 48.2707C38.5051 48.5205 38.6124 48.7231 38.7003 48.8818C39.1652 49.1366 39.4805 49.6305 39.4805 50.1982C39.4805 50.2974 39.4796 50.6141 39.3228 50.9502C39.2336 51.1417 39.0485 51.4357 38.6907 51.6417C38.3072 51.8624 37.9093 51.8768 37.6068 51.8137C37.1379 51.7158 36.8474 51.4264 36.7798 51.3591L36.7757 51.355C36.6616 51.2417 36.5706 51.1237 36.5071 51.0356C36.2656 50.7012 35.9832 50.1805 35.7027 49.6272C35.1159 48.4699 34.3404 46.7697 33.5619 45.0076C32.397 42.3712 31.1604 39.4456 30.5277 37.9488C30.3228 37.464 30.1812 37.1291 30.1259 37.0024C28.4811 33.232 27.0379 29.2255 25.605 25.2472C25.0656 23.7497 24.5276 22.2562 23.9809 20.7808C21.9645 15.3395 19.8079 10.0797 16.949 5.4151C16.2725 4.31133 15.7434 3.72496 15.3784 3.44829C15.2586 3.35752 15.1785 3.31482 15.1312 3.29549C15.0736 3.33909 14.9464 3.45495 14.7696 3.736C14.5075 4.15263 14.2432 4.76429 13.9909 5.55569C13.4884 7.13231 13.1202 9.13951 12.834 11.0421C12.7084 11.8767 12.5946 12.7257 12.4921 13.4902C12.3731 14.378 12.2693 15.1518 12.1802 15.6566C10.3245 26.1724 7.71436 36.5046 5.11632 46.7889C4.63986 48.675 4.1638 50.5595 3.69287 52.4432C3.49195 53.2469 2.67755 53.7355 1.87386 53.5346ZM15.0778 3.28121C15.0775 3.28011 15.0844 3.28005 15.0995 3.28427C15.0856 3.28441 15.0781 3.2823 15.0778 3.28121ZM38.9465 49.2891C38.9465 49.2891 38.9456 49.288 38.9437 49.2854C38.9455 49.2877 38.9465 49.289 38.9465 49.2891Z" fill="#0BD1EC"/>
</svg>
