<svg width="884" height="150" viewBox="0 0 884 150" fill="none" xmlns="http://www.w3.org/2000/svg">
<path d="M883.827 108.332C881.144 95.7 878.461 83.1971 875.778 70.5652C872.712 55.7422 874.628 38.8567 840.9 27.385C781.877 7.40604 674.179 8.30831 596.759 7.01935C504.391 5.47259 412.024 3.41025 319.273 2.37908C245.685 1.47681 126.489 -5.99917 65.1662 11.2729C28.3725 21.5846 12.2751 26.096 4.6097 43.2392C-3.05566 60.3824 0.393936 77.7834 3.84335 94.9266C6.90949 110.781 16.4912 132.564 72.8316 136.045C171.715 142.103 272.514 149.063 372.93 149.321C513.973 149.708 652.333 143.392 792.226 138.88C838.601 137.591 887.276 126.12 883.827 108.332Z" fill="#21C9D4"/>
</svg>
