<svg width="290" height="40" viewBox="0 0 290 40" fill="none" xmlns="http://www.w3.org/2000/svg">
<path d="M18.08 21.84C18.08 22.2133 17.9733 22.6 17.76 23C17.5733 23.4 17.3333 23.8 17.04 24.2C16.7467 24.6 16.4267 24.9867 16.08 25.36C15.7333 25.7067 15.4133 26.0133 15.12 26.28C14.4 26.92 13.6533 27.5333 12.88 28.12C12.1333 28.68 11.3467 29.1867 10.52 29.64C9.72 30.0933 8.88 30.4533 8 30.72C7.12 30.9867 6.2 31.12 5.24 31.12C2.33333 31.12 0.88 29.6267 0.88 26.64C0.88 26.3467 1 25.7733 1.24 24.92C1.48 24.0667 1.78667 23.0933 2.16 22C2.53333 20.9067 2.97333 19.76 3.48 18.56C3.98667 17.36 4.50667 16.2667 5.04 15.28C5.57333 14.2667 6.09333 13.44 6.6 12.8C7.13333 12.16 7.62667 11.84 8.08 11.84C8.37333 11.84 8.58667 11.9333 8.72 12.12C8.88 12.3067 8.96 12.5067 8.96 12.72C8.93333 12.88 8.74667 13.2267 8.4 13.76C8.05333 14.2667 7.69333 14.7867 7.32 15.32C7.26667 15.4 7.17333 15.5333 7.04 15.72C6.90667 15.9067 6.77333 16.0933 6.64 16.28C6.48 16.4933 6.32 16.72 6.16 16.96C6.05333 17.1467 5.81333 17.6267 5.44 18.4C5.09333 19.1467 4.72 20.0267 4.32 21.04C3.92 22.0267 3.56 23.0667 3.24 24.16C2.92 25.2267 2.76 26.16 2.76 26.96C2.76 27.4133 2.85333 27.7733 3.04 28.04C3.25333 28.3067 3.49333 28.5067 3.76 28.64C4.05333 28.7733 4.34667 28.8667 4.64 28.92C4.96 28.9467 5.24 28.96 5.48 28.96C6.46667 28.96 7.50667 28.7467 8.6 28.32C9.72 27.8667 10.7867 27.28 11.8 26.56C12.8133 25.84 13.7467 25.0133 14.6 24.08C15.4533 23.12 16.12 22.1333 16.6 21.12C16.7067 20.9333 16.8133 20.8133 16.92 20.76C17.0533 20.7067 17.1733 20.68 17.28 20.68C17.4933 20.68 17.68 20.8267 17.84 21.12C18 21.4133 18.08 21.6533 18.08 21.84ZM34.2984 23.6C34.4318 23.7333 34.4984 23.8133 34.4984 23.84C34.4984 23.8933 34.4184 24.0533 34.2584 24.32C34.1251 24.5867 33.9384 24.8667 33.6984 25.16C33.4584 25.4533 33.1918 25.72 32.8984 25.96C32.6318 26.1733 32.3651 26.28 32.0984 26.28C31.5384 26.28 31.0851 26.1733 30.7384 25.96C30.3918 25.72 30.0984 25.4267 29.8584 25.08C29.6451 24.7333 29.4718 24.36 29.3384 23.96C29.2318 23.5333 29.1384 23.1333 29.0584 22.76C29.0051 22.5733 28.9518 22.48 28.8984 22.48C28.8184 22.48 28.6584 22.7733 28.4184 23.36C28.1784 23.92 27.9118 24.5467 27.6184 25.24C27.3518 25.9067 27.0851 26.5333 26.8184 27.12C26.5784 27.68 26.4184 27.96 26.3384 27.96C25.8584 27.96 25.4451 27.76 25.0984 27.36C24.7784 26.9333 24.5118 26.4533 24.2984 25.92C24.1118 25.36 23.9651 24.8 23.8584 24.24C23.7518 23.6533 23.6851 23.2 23.6584 22.88C23.5784 22.16 23.4051 20.96 23.1384 19.28C22.8718 17.6 22.6451 15.56 22.4584 13.16C22.4051 12.6533 22.3384 12.2 22.2584 11.8C22.2051 11.3733 22.1384 10.9067 22.0584 10.4C21.9784 9.89333 21.9118 9.32 21.8584 8.68C21.8051 8.04 21.7784 7.25333 21.7784 6.32C21.7784 6.26667 21.7918 6.09333 21.8184 5.8C21.8451 5.50667 21.8851 5.18667 21.9384 4.84C21.9918 4.49333 22.0718 4.18666 22.1784 3.92C22.3118 3.65333 22.4584 3.52 22.6184 3.52C22.8051 3.52 22.9784 3.64 23.1384 3.88C23.2984 4.09333 23.4318 4.34667 23.5384 4.64C23.6718 4.93333 23.7651 5.21333 23.8184 5.48C23.8718 5.74667 23.8984 5.93333 23.8984 6.04C23.8984 6.44 23.8718 6.81333 23.8184 7.16C23.7651 7.50667 23.7384 7.82667 23.7384 8.12C23.7384 8.52 23.7651 9.02667 23.8184 9.64C23.8984 10.2533 23.9918 10.88 24.0984 11.52C24.2051 12.16 24.2984 12.7867 24.3784 13.4C24.4584 13.9867 24.5251 14.4667 24.5784 14.84C24.5784 14.8667 24.6051 15.0533 24.6584 15.4C24.7118 15.7467 24.7651 16.1867 24.8184 16.72C24.8984 17.2267 24.9651 17.7867 25.0184 18.4C25.0984 18.9867 25.1784 19.5733 25.2584 20.16C25.3384 20.72 25.4051 21.2267 25.4584 21.68C25.5384 22.1067 25.5918 22.4133 25.6184 22.6C25.6184 22.68 25.6318 22.8 25.6584 22.96C25.7118 23.0933 25.7518 23.2533 25.7784 23.44C25.8318 23.6267 25.8851 23.8 25.9384 23.96C25.9918 24.12 26.0584 24.24 26.1384 24.32C26.2984 24 26.4984 23.5067 26.7384 22.84C27.0051 22.1733 27.2718 21.4933 27.5384 20.8C27.8318 20.1067 28.0984 19.5067 28.3384 19C28.6051 18.4667 28.8318 18.2 29.0184 18.2C29.2318 18.2 29.4051 18.24 29.5384 18.32C29.6718 18.4 29.8451 18.4667 30.0584 18.52C30.3251 18.6267 30.4584 18.7733 30.4584 18.96C30.4584 19.12 30.4851 19.32 30.5384 19.56C30.5918 19.88 30.6718 20.3067 30.7784 20.84C30.9118 21.3467 31.0584 21.8533 31.2184 22.36C31.3784 22.84 31.5651 23.2533 31.7784 23.6C31.9918 23.9467 32.2051 24.12 32.4184 24.12C32.5251 24.12 32.6718 23.9867 32.8584 23.72C33.0451 23.4267 33.2984 23.2667 33.6184 23.24C33.6718 23.24 33.7651 23.28 33.8984 23.36C34.0318 23.4133 34.1651 23.4933 34.2984 23.6ZM47.97 26.8C47.9967 26.8533 48.01 26.9333 48.01 27.04C48.01 27.2 47.89 27.44 47.65 27.76C47.57 27.8667 47.3967 28.04 47.13 28.28C46.8633 28.52 46.5033 28.76 46.05 29C45.5967 29.24 45.0367 29.4533 44.37 29.64C43.73 29.8267 42.97 29.92 42.09 29.92C41.4767 29.92 40.8767 29.7867 40.29 29.52C39.7033 29.2267 39.1833 28.8133 38.73 28.28C38.2767 27.72 37.9033 27.04 37.61 26.24C37.3167 25.4133 37.17 24.4533 37.17 23.36C37.17 22.32 37.3033 21.3467 37.57 20.44C37.8367 19.5333 38.17 18.7333 38.57 18.04C38.9967 17.3467 39.4633 16.8 39.97 16.4C40.4767 16 40.97 15.8 41.45 15.8C41.8767 15.8 42.3033 15.8933 42.73 16.08C43.1833 16.24 43.5833 16.4533 43.93 16.72C44.3033 16.9867 44.5967 17.2933 44.81 17.64C45.0233 17.96 45.13 18.2933 45.13 18.64C45.13 19.04 44.9433 19.4533 44.57 19.88C44.2233 20.3067 43.7967 20.7067 43.29 21.08C42.7833 21.4267 42.2767 21.72 41.77 21.96C41.2633 22.1733 40.8633 22.28 40.57 22.28C40.41 22.28 40.2633 22.2133 40.13 22.08C40.0233 21.92 39.97 21.7333 39.97 21.52C39.97 21.1467 40.13 20.8533 40.45 20.64C40.7967 20.4267 41.17 20.24 41.57 20.08C41.97 19.8933 42.33 19.68 42.65 19.44C42.9967 19.2 43.17 18.8667 43.17 18.44C43.17 18.3867 43.1033 18.2533 42.97 18.04C42.8367 17.8267 42.4767 17.72 41.89 17.72C41.6233 17.72 41.3167 17.88 40.97 18.2C40.6233 18.4933 40.29 18.9067 39.97 19.44C39.65 19.9467 39.3833 20.56 39.17 21.28C38.9567 21.9733 38.85 22.7333 38.85 23.56C38.85 24.2533 38.97 24.88 39.21 25.44C39.4767 26 39.81 26.48 40.21 26.88C40.61 27.2533 41.0767 27.5467 41.61 27.76C42.1433 27.9733 42.69 28.08 43.25 28.08C43.65 28.08 44.0767 28 44.53 27.84C45.01 27.6533 45.45 27.4667 45.85 27.28C46.2767 27.0667 46.6367 26.88 46.93 26.72C47.25 26.5333 47.45 26.44 47.53 26.44C47.61 26.44 47.69 26.48 47.77 26.56C47.8767 26.64 47.9433 26.72 47.97 26.8ZM62.3153 23.72C62.3153 23.9867 62.2753 24.2667 62.1953 24.56C62.1153 24.8267 62.0353 25.0533 61.9553 25.24C61.902 25.32 61.6486 25.6 61.1953 26.08C60.7686 26.5333 60.222 27.0133 59.5553 27.52C58.9153 28.0267 58.182 28.4933 57.3553 28.92C56.5553 29.32 55.782 29.52 55.0353 29.52C54.582 29.52 54.1153 29.44 53.6353 29.28C53.182 29.12 52.7553 28.8667 52.3553 28.52C51.9553 28.1467 51.622 27.6933 51.3553 27.16C51.1153 26.6267 50.9953 25.9733 50.9953 25.2C50.9953 23.92 51.2086 22.76 51.6353 21.72C52.062 20.68 52.4886 19.8533 52.9153 19.24C53.102 18.9467 53.342 18.6533 53.6353 18.36C53.9553 18.04 54.262 17.76 54.5553 17.52C54.8486 17.2533 55.1153 17.04 55.3553 16.88C55.622 16.72 55.8086 16.64 55.9153 16.64C56.1553 16.64 56.3686 16.7067 56.5553 16.84C56.7686 16.9733 56.8753 17.1067 56.8753 17.24C56.8753 17.4533 56.8086 17.64 56.6753 17.8C56.5686 17.9333 56.4086 18.0933 56.1953 18.28C55.982 18.44 55.7286 18.6667 55.4353 18.96C55.142 19.2267 54.8353 19.5867 54.5153 20.04C53.8753 20.92 53.3953 21.8267 53.0753 22.76C52.782 23.6667 52.6353 24.4667 52.6353 25.16C52.6353 25.8533 52.8886 26.4133 53.3953 26.84C53.9286 27.24 54.4753 27.44 55.0353 27.44C56.0486 27.44 56.942 27.2133 57.7153 26.76C58.5153 26.3067 59.1953 25.8 59.7553 25.24C60.3153 24.68 60.7686 24.1733 61.1153 23.72C61.462 23.2667 61.7153 23.04 61.8753 23.04C62.1686 23.04 62.3153 23.2667 62.3153 23.72ZM79.7219 26.72C79.7219 26.9333 79.6952 27.0933 79.6419 27.2C79.5885 27.28 79.4552 27.3467 79.2419 27.4C79.0019 27.48 78.6952 27.5733 78.3219 27.68C77.9752 27.76 77.5885 27.8533 77.1619 27.96C76.7352 28.04 76.2952 28.12 75.8419 28.2C75.4152 28.2533 75.0152 28.28 74.6419 28.28C74.1885 28.28 73.6819 28.2533 73.1219 28.2C72.5885 28.1467 72.0685 28.0667 71.5619 27.96C71.0552 27.8267 70.5885 27.6933 70.1619 27.56C69.7619 27.4 69.4685 27.2133 69.2819 27C69.4152 27.56 69.5352 28.12 69.6419 28.68C69.7485 29.24 69.8285 29.8 69.8819 30.36C69.8819 30.4933 69.8419 30.6133 69.7619 30.72C69.7085 30.8 69.5352 30.84 69.2419 30.84C69.1085 30.84 68.9752 30.8133 68.8419 30.76C68.7352 30.68 68.6419 30.5333 68.5619 30.32C68.3219 29.7867 68.1219 29.2933 67.9619 28.84C67.8019 28.36 67.6552 27.88 67.5219 27.4C67.4152 26.92 67.2952 26.4133 67.1619 25.88C67.0285 25.3467 66.8685 24.76 66.6819 24.12C66.3885 23.08 66.0819 21.9733 65.7619 20.8C65.4419 19.6 65.1485 18.4667 64.8819 17.4C64.6152 16.3067 64.4019 15.3467 64.2419 14.52C64.0819 13.6667 64.0019 13.0667 64.0019 12.72C64.0019 12.56 64.0019 12.3467 64.0019 12.08C64.0285 11.8133 64.0685 11.56 64.1219 11.32C64.2019 11.0533 64.2952 10.84 64.4019 10.68C64.5352 10.4933 64.7085 10.4 64.9219 10.4C65.0552 10.4 65.1885 10.6133 65.3219 11.04C65.4819 11.44 65.6152 11.8933 65.7219 12.4C65.8552 12.88 65.9619 13.3467 66.0419 13.8C66.1485 14.2267 66.2019 14.4533 66.2019 14.48C66.3085 15.0667 66.4285 15.72 66.5619 16.44C66.7219 17.1333 66.8819 17.84 67.0419 18.56C67.2019 19.28 67.3752 19.9733 67.5619 20.64C67.7485 21.28 67.9485 21.8267 68.1619 22.28C68.1885 22.0133 68.2819 21.6267 68.4419 21.12C68.6019 20.6133 68.8152 20.0667 69.0819 19.48C69.3485 18.8933 69.6419 18.2933 69.9619 17.68C70.3085 17.04 70.6552 16.4667 71.0019 15.96C71.3752 15.4533 71.7352 15.04 72.0819 14.72C72.4552 14.4 72.8019 14.24 73.1219 14.24C73.6285 14.24 73.9752 14.3067 74.1619 14.44C74.3752 14.5733 74.4819 14.7333 74.4819 14.92C74.4819 15.08 74.2552 15.4 73.8019 15.88C73.3485 16.3333 72.8419 16.9467 72.2819 17.72C71.7219 18.4667 71.2152 19.36 70.7619 20.4C70.3085 21.4133 70.0819 22.5467 70.0819 23.8C70.0819 24.2533 70.2019 24.6533 70.4419 25C70.7085 25.32 71.0419 25.5867 71.4419 25.8C71.8685 26.0133 72.3352 26.1867 72.8419 26.32C73.3752 26.4267 73.8952 26.48 74.4019 26.48C74.8552 26.48 75.3485 26.4667 75.8819 26.44C76.4152 26.4133 76.9085 26.3867 77.3619 26.36C77.8419 26.3067 78.2419 26.2667 78.5619 26.24C78.9085 26.2133 79.1219 26.2 79.2019 26.2C79.3352 26.2 79.4552 26.24 79.5619 26.32C79.6685 26.4 79.7219 26.5333 79.7219 26.72ZM105.182 22.36C105.182 22.9467 105.102 23.5067 104.942 24.04C104.782 24.5733 104.569 25.04 104.302 25.44C104.035 25.84 103.715 26.16 103.342 26.4C102.995 26.6133 102.609 26.72 102.182 26.72C101.435 26.72 100.849 26.5067 100.422 26.08C99.9952 25.6533 99.6619 25.16 99.4219 24.6C99.2085 24.04 99.0619 23.48 98.9819 22.92C98.9285 22.3333 98.9019 21.8933 98.9019 21.6C98.9019 21.12 98.9685 20.5867 99.1019 20C99.2619 19.3867 99.4619 18.8267 99.7019 18.32C99.9685 17.8133 100.262 17.3867 100.582 17.04C100.902 16.6933 101.235 16.52 101.582 16.52C101.662 16.52 101.782 16.5467 101.942 16.6C102.129 16.6533 102.315 16.7333 102.502 16.84C102.689 16.9467 102.849 17.08 102.982 17.24C103.142 17.4 103.249 17.5867 103.302 17.8C103.595 17.8267 103.889 17.9333 104.182 18.12C104.475 18.3067 104.635 18.4533 104.662 18.56C104.875 19.2533 105.009 19.9467 105.062 20.64C105.142 21.3333 105.182 21.9067 105.182 22.36ZM103.382 21.64C103.382 21.24 103.342 20.8267 103.262 20.4C103.182 19.9467 103.022 19.4933 102.782 19.04C102.729 19.0667 102.662 19.08 102.582 19.08C102.475 19.08 102.382 19.0667 102.302 19.04C102.249 19.0133 102.195 19 102.142 19C101.822 19 101.569 19.0933 101.382 19.28C101.195 19.44 101.049 19.6667 100.942 19.96C100.862 20.2267 100.809 20.52 100.782 20.84C100.755 21.16 100.742 21.4667 100.742 21.76C100.742 22.0533 100.755 22.3867 100.782 22.76C100.809 23.1067 100.862 23.44 100.942 23.76C101.049 24.08 101.182 24.36 101.342 24.6C101.502 24.8133 101.715 24.92 101.982 24.92C102.249 24.92 102.475 24.7867 102.662 24.52C102.849 24.2267 102.995 23.8933 103.102 23.52C103.209 23.1467 103.275 22.7867 103.302 22.44C103.355 22.0667 103.382 21.8 103.382 21.64ZM122.393 24.36C122.393 24.6 122.233 24.8533 121.913 25.12C121.593 25.3867 121.219 25.64 120.793 25.88C120.366 26.0933 119.926 26.28 119.473 26.44C119.046 26.6 118.726 26.68 118.513 26.68C118.273 26.68 118.006 26.6133 117.713 26.48C117.446 26.3467 117.179 26.1867 116.913 26C116.673 25.8133 116.459 25.64 116.273 25.48C116.086 25.32 115.966 25.2133 115.913 25.16C115.833 25.24 115.713 25.4 115.553 25.64C115.393 25.88 115.193 26.1467 114.953 26.44C114.739 26.7067 114.499 26.9467 114.233 27.16C113.993 27.3733 113.739 27.48 113.473 27.48C112.779 27.48 112.179 27.1067 111.673 26.36C111.166 25.6133 110.739 24.76 110.393 23.8C110.073 22.84 109.819 21.92 109.633 21.04C109.473 20.1333 109.393 19.52 109.393 19.2C109.393 19.0133 109.486 18.8667 109.673 18.76C109.886 18.6267 110.046 18.56 110.153 18.56C110.526 18.56 110.779 18.6933 110.913 18.96C111.046 19.2 111.113 19.4667 111.113 19.76C111.113 20 111.179 20.4267 111.313 21.04C111.473 21.6533 111.659 22.28 111.873 22.92C112.086 23.56 112.313 24.1333 112.553 24.64C112.793 25.12 113.006 25.36 113.193 25.36C113.539 25.36 113.833 25.1467 114.073 24.72C114.339 24.2667 114.553 23.76 114.713 23.2C114.873 22.6133 114.993 22.0667 115.073 21.56C115.153 21.0267 115.193 20.68 115.193 20.52C115.193 20.4933 115.193 20.4133 115.193 20.28C115.219 20.12 115.246 19.96 115.273 19.8C115.299 19.64 115.313 19.4933 115.313 19.36C115.339 19.2267 115.353 19.1333 115.353 19.08C115.353 18.8933 115.313 18.7733 115.233 18.72C115.153 18.64 115.113 18.4933 115.113 18.28C115.113 18.12 115.193 17.9733 115.353 17.84C115.513 17.68 115.859 17.6 116.393 17.6C116.606 17.6 116.766 17.6667 116.873 17.8C117.006 17.9067 117.099 18.04 117.153 18.2C117.206 18.36 117.233 18.52 117.233 18.68C117.259 18.8133 117.273 18.9067 117.273 18.96C117.273 18.9867 117.259 19.1733 117.233 19.52C117.206 19.8667 117.179 20.2533 117.153 20.68C117.153 21.08 117.139 21.4667 117.113 21.84C117.086 22.2133 117.073 22.44 117.073 22.52C117.073 22.6 117.113 22.76 117.193 23C117.273 23.24 117.366 23.4933 117.473 23.76C117.606 24 117.753 24.2267 117.913 24.44C118.073 24.6267 118.246 24.72 118.433 24.72C118.753 24.72 119.046 24.68 119.313 24.6C119.606 24.4933 119.873 24.3867 120.113 24.28C120.379 24.1467 120.619 24.04 120.833 23.96C121.046 23.8533 121.246 23.8 121.433 23.8C121.673 23.8 121.886 23.8533 122.073 23.96C122.286 24.0667 122.393 24.2 122.393 24.36ZM134.598 12.92C134.252 13.32 133.758 13.72 133.118 14.12C132.478 14.4933 131.838 14.84 131.198 15.16C130.558 15.48 129.998 15.76 129.518 16C129.038 16.2133 128.798 16.36 128.798 16.44C128.798 16.52 128.852 16.76 128.958 17.16C129.065 17.56 129.185 18.04 129.318 18.6C129.478 19.1333 129.638 19.6933 129.798 20.28C129.958 20.8667 130.092 21.3867 130.198 21.84C130.252 22.1067 130.318 22.4533 130.398 22.88C130.478 23.3067 130.545 23.7333 130.598 24.16C130.678 24.5867 130.745 24.9733 130.798 25.32C130.852 25.64 130.878 25.8133 130.878 25.84C130.878 26.24 130.812 26.6533 130.678 27.08C130.545 27.5067 130.332 27.72 130.038 27.72C129.878 27.72 129.732 27.6533 129.598 27.52C129.465 27.3867 129.345 27.24 129.238 27.08C129.132 26.8933 129.052 26.72 128.998 26.56C128.945 26.4 128.918 26.28 128.918 26.2C128.918 26.1467 128.918 26.0667 128.918 25.96C128.945 25.8533 128.958 25.7333 128.958 25.6C128.958 25.0933 128.878 24.36 128.718 23.4C128.665 23.1067 128.558 22.6533 128.398 22.04C128.238 21.4267 128.078 20.8 127.918 20.16C127.732 19.4133 127.518 18.6 127.278 17.72C127.172 17.3467 127.105 17.16 127.078 17.16C126.892 17.16 126.572 17.28 126.118 17.52C125.692 17.7333 125.198 18.0133 124.638 18.36C124.078 18.68 123.492 19.04 122.878 19.44C122.265 19.8133 121.692 20.1733 121.158 20.52C120.625 20.84 120.172 21.12 119.798 21.36C119.398 21.5733 119.158 21.68 119.078 21.68C118.732 21.68 118.452 21.56 118.238 21.32C118.025 21.08 117.918 20.8133 117.918 20.52C117.918 20.36 118.145 20.1333 118.598 19.84C119.025 19.52 119.572 19.1733 120.238 18.8C120.878 18.4267 121.585 18.04 122.358 17.64C123.105 17.24 123.798 16.88 124.438 16.56C125.105 16.24 125.652 15.9733 126.078 15.76C126.532 15.5467 126.758 15.44 126.758 15.44C126.518 14.2133 126.318 13.12 126.158 12.16C126.025 11.3333 125.892 10.5733 125.758 9.88C125.652 9.18667 125.598 8.81333 125.598 8.76C125.598 8.41333 125.665 8.16 125.798 8C125.958 7.81333 126.132 7.72 126.318 7.72C126.612 7.72 126.798 7.92 126.878 8.32C127.172 9.76 127.438 11.04 127.678 12.16C127.945 13.28 128.198 14.1867 128.438 14.88C128.678 14.8267 129.092 14.68 129.678 14.44C130.265 14.1733 130.878 13.8933 131.518 13.6C132.158 13.3067 132.732 13.0533 133.238 12.84C133.772 12.6 134.078 12.48 134.158 12.48C134.318 12.48 134.412 12.5333 134.438 12.64C134.492 12.7467 134.545 12.84 134.598 12.92ZM171.094 27.24C171.094 27.4533 171.028 27.64 170.894 27.8C170.761 27.96 170.601 28.0933 170.414 28.2C170.228 28.28 170.028 28.3467 169.814 28.4C169.628 28.4533 169.468 28.48 169.334 28.48C168.774 28.48 168.294 28.1867 167.894 27.6C167.494 26.9867 167.161 26.32 166.894 25.6C166.628 24.8533 166.428 24.16 166.294 23.52C166.188 22.88 166.134 22.5333 166.134 22.48C165.974 22.7733 165.801 23.2667 165.614 23.96C165.454 24.6533 165.254 25.36 165.014 26.08C164.774 26.7733 164.468 27.4 164.094 27.96C163.748 28.4933 163.294 28.76 162.734 28.76C162.468 28.76 162.214 28.6 161.974 28.28C161.734 27.96 161.508 27.5467 161.294 27.04C161.081 26.5333 160.868 25.96 160.654 25.32C160.468 24.68 160.268 24.0533 160.054 23.44C159.868 22.8267 159.681 22.2533 159.494 21.72C159.308 21.16 159.121 20.72 158.934 20.4C158.774 20.8 158.628 21.3467 158.494 22.04C158.388 22.7333 158.294 23.4667 158.214 24.24C158.134 24.9867 158.068 25.7333 158.014 26.48C157.961 27.2267 157.934 27.88 157.934 28.44C157.934 28.8133 157.828 29.08 157.614 29.24C157.428 29.4 157.228 29.48 157.014 29.48C156.721 29.48 156.428 29.2933 156.134 28.92C155.841 28.52 155.548 28.0133 155.254 27.4C154.961 26.7867 154.681 26.0933 154.414 25.32C154.174 24.5467 153.948 23.7733 153.734 23C153.548 22.2267 153.401 21.4933 153.294 20.8C153.188 20.08 153.134 19.48 153.134 19C153.134 18.6533 153.148 18.3333 153.174 18.04C153.201 17.8 153.214 17.5733 153.214 17.36C153.241 17.1467 153.254 17.0267 153.254 17C153.254 16.92 153.228 16.8667 153.174 16.84C153.148 16.8133 153.134 16.7467 153.134 16.64C153.134 16.56 153.228 16.44 153.414 16.28C153.628 16.0933 153.841 16 154.054 16C154.428 16 154.668 16.08 154.774 16.24C154.908 16.4 154.974 16.5867 154.974 16.8C154.974 16.88 154.961 17 154.934 17.16C154.934 17.32 154.934 17.68 154.934 18.24C154.934 18.6133 155.001 19.1733 155.134 19.92C155.268 20.6667 155.428 21.4267 155.614 22.2C155.801 22.9733 155.988 23.6933 156.174 24.36C156.388 25 156.561 25.4 156.694 25.56C156.748 25.4533 156.774 25.3333 156.774 25.2C156.801 25.04 156.828 24.92 156.854 24.84L157.294 21.56C157.401 20.7333 157.614 19.8667 157.934 18.96C158.281 18.0267 158.641 17.3067 159.014 16.8C159.148 16.5867 159.294 16.48 159.454 16.48C159.614 16.48 159.761 16.6 159.894 16.84C160.348 17.5867 160.681 18.3333 160.894 19.08C161.134 19.8 161.334 20.52 161.494 21.24C161.681 21.9333 161.881 22.64 162.094 23.36C162.334 24.0533 162.694 24.76 163.174 25.48C163.388 25.1333 163.654 24.5733 163.974 23.8C164.294 23 164.614 22.2 164.934 21.4C165.281 20.6 165.601 19.9067 165.894 19.32C166.188 18.7067 166.414 18.4 166.574 18.4C166.654 18.4 166.788 18.4133 166.974 18.44C167.161 18.4667 167.294 18.48 167.374 18.48C167.614 18.48 167.814 18.76 167.974 19.32C168.134 19.8533 168.268 20.4933 168.374 21.24C168.508 21.96 168.628 22.6933 168.734 23.44C168.868 24.16 169.014 24.7067 169.174 25.08C169.281 25.3467 169.441 25.6 169.654 25.84C169.868 26.08 170.081 26.3067 170.294 26.52C170.561 26.76 170.828 27 171.094 27.24ZM182.671 12.28C182.324 14.12 182.004 15.8933 181.711 17.6C181.578 18.32 181.444 19.08 181.311 19.88C181.178 20.6533 181.044 21.4267 180.911 22.2C180.804 22.9467 180.698 23.6667 180.591 24.36C180.511 25.0267 180.444 25.64 180.391 26.2C180.284 27.0533 180.204 28.0267 180.151 29.12C180.098 30.2133 180.044 31.2533 179.991 32.24C179.938 33.3867 179.911 34.5467 179.911 35.72C179.911 35.96 179.884 36.2267 179.831 36.52C179.778 36.8133 179.751 37.1067 179.751 37.4C179.751 37.6667 179.684 37.8933 179.551 38.08C179.444 38.2667 179.271 38.36 179.031 38.36C178.818 38.36 178.644 38.1867 178.511 37.84C178.404 37.52 178.311 37.1333 178.231 36.68C178.151 36.2533 178.098 35.8133 178.071 35.36C178.044 34.9333 178.031 34.6267 178.031 34.44C178.031 34.2267 178.031 33.96 178.031 33.64C178.031 33.3467 178.044 32.8933 178.071 32.28C178.124 31.6933 178.191 30.92 178.271 29.96C178.351 28.9733 178.471 27.6933 178.631 26.12C178.631 26.0933 178.444 25.96 178.071 25.72C177.724 25.48 177.284 25.1867 176.751 24.84C176.244 24.4667 175.711 24.0667 175.151 23.64C174.618 23.2133 174.164 22.8 173.791 22.4C173.738 22.3467 173.658 22.2267 173.551 22.04C173.444 21.8533 173.391 21.6267 173.391 21.36C173.391 21.2267 173.458 21.0933 173.591 20.96C173.724 20.8 173.871 20.72 174.031 20.72C174.138 20.72 174.244 20.7733 174.351 20.88C174.964 21.4133 175.671 22.0133 176.471 22.68C177.271 23.32 178.058 23.9067 178.831 24.44C178.884 23.96 178.991 23.2267 179.151 22.24C179.338 21.2533 179.524 20.2 179.711 19.08C179.898 17.9333 180.071 16.8267 180.231 15.76C180.418 14.6933 180.551 13.84 180.631 13.2C180.631 13.0933 180.658 12.92 180.711 12.68C180.764 12.44 180.844 12.2 180.951 11.96C181.058 11.72 181.178 11.52 181.311 11.36C181.444 11.1733 181.591 11.08 181.751 11.08C181.831 11.08 182.004 11.16 182.271 11.32C182.538 11.4533 182.671 11.7733 182.671 12.28ZM215.003 19.44C215.003 20.1333 214.803 20.8 214.403 21.44C214.029 22.08 213.563 22.68 213.003 23.24C212.443 23.7733 211.829 24.28 211.163 24.76C210.496 25.2133 209.883 25.6133 209.323 25.96C208.789 26.3333 208.349 26.64 208.003 26.88C207.656 27.12 207.483 27.3067 207.483 27.44C207.483 27.7867 207.523 28.28 207.603 28.92C207.683 29.5333 207.776 30.2133 207.883 30.96C208.016 31.68 208.136 32.4267 208.243 33.2C208.376 33.9733 208.469 34.68 208.523 35.32C208.523 35.3467 208.536 35.4667 208.563 35.68C208.616 35.8933 208.669 36.1333 208.723 36.4C208.803 36.6667 208.856 36.9067 208.883 37.12C208.936 37.36 208.963 37.5067 208.963 37.56C208.963 37.7467 208.949 37.9467 208.923 38.16C208.923 38.4 208.883 38.6133 208.803 38.8C208.749 39.0133 208.656 39.1867 208.523 39.32C208.389 39.4533 208.216 39.52 208.003 39.52C207.709 39.52 207.496 39.3867 207.363 39.12C207.229 38.88 207.163 38.64 207.163 38.4C207.163 38.3467 207.163 38.2933 207.163 38.24C207.189 38.1867 207.203 38.12 207.203 38.04C207.203 37.7467 207.096 36.96 206.883 35.68C206.669 34.4 206.429 32.8667 206.163 31.08C205.896 29.32 205.656 27.4267 205.443 25.4C205.229 23.3467 205.123 21.4133 205.123 19.6C205.123 19.4667 205.136 19.32 205.163 19.16C205.189 18.9733 205.203 18.8133 205.203 18.68C204.936 18.7067 204.536 18.8267 204.003 19.04C203.496 19.2533 202.989 19.52 202.483 19.84C201.976 20.1333 201.523 20.4533 201.123 20.8C200.749 21.12 200.562 21.4133 200.562 21.68H200.282C200.202 21.68 200.109 21.6267 200.002 21.52C199.869 21.4133 199.762 21.2933 199.682 21.16C199.576 21.0267 199.482 20.8933 199.402 20.76C199.322 20.6267 199.282 20.5333 199.282 20.48C199.282 19.92 199.616 19.4 200.282 18.92C200.949 18.4133 201.776 17.9733 202.763 17.6C203.776 17.2 204.883 16.8933 206.083 16.68C207.283 16.44 208.416 16.32 209.483 16.32C210.523 16.32 211.389 16.44 212.083 16.68C212.803 16.92 213.376 17.2133 213.803 17.56C214.229 17.88 214.536 18.2133 214.723 18.56C214.909 18.9067 215.003 19.2 215.003 19.44ZM213.043 19.32C213.043 19.0533 212.709 18.7867 212.043 18.52C211.376 18.2267 210.589 18.08 209.683 18.08C208.883 18.08 208.296 18.1067 207.923 18.16C207.549 18.2133 207.296 18.2667 207.163 18.32C207.109 18.7467 207.069 19.2533 207.043 19.84C207.016 20.4267 207.003 21.0267 207.003 21.64C207.003 22.28 207.016 22.9067 207.043 23.52C207.096 24.1067 207.149 24.6 207.203 25C207.576 24.76 208.083 24.44 208.723 24.04C209.389 23.6133 210.043 23.1467 210.683 22.64C211.323 22.1067 211.869 21.56 212.322 21C212.803 20.4133 213.043 19.8533 213.043 19.32ZM226.681 18.8C226.681 18.9867 226.601 19.1467 226.441 19.28C226.281 19.3867 226.094 19.48 225.881 19.56C225.667 19.64 225.454 19.7067 225.241 19.76C225.027 19.7867 224.854 19.8 224.721 19.8C224.321 19.8 224.054 19.7733 223.921 19.72C223.787 19.6667 223.681 19.64 223.601 19.64C222.934 19.64 222.401 19.6933 222.001 19.8C221.601 19.9067 221.281 20.08 221.041 20.32C220.827 20.56 220.681 20.8667 220.601 21.24C220.547 21.5867 220.521 22.0133 220.521 22.52C220.521 23.3733 220.547 24.0533 220.601 24.56C220.681 25.0667 220.747 25.48 220.801 25.8C220.881 26.12 220.947 26.3733 221.001 26.56C221.081 26.72 221.121 26.88 221.121 27.04C221.121 27.2533 221.001 27.48 220.761 27.72C220.547 27.96 220.347 28.08 220.161 28.08C219.841 28.08 219.547 27.8 219.281 27.24C219.041 26.6533 218.827 25.9733 218.641 25.2C218.481 24.4 218.347 23.6133 218.241 22.84C218.134 22.0667 218.081 21.48 218.081 21.08C218.081 20.6267 218.121 20.2 218.201 19.8C218.281 19.3733 218.387 19.0133 218.521 18.72C218.654 18.4 218.801 18.1467 218.961 17.96C219.121 17.7733 219.281 17.68 219.441 17.68C219.574 17.68 219.681 17.7333 219.761 17.84C219.841 17.92 219.907 18.0267 219.961 18.16C220.014 18.2667 220.067 18.3733 220.121 18.48C220.201 18.56 220.294 18.6 220.401 18.6C220.641 18.6 221.027 18.48 221.561 18.24C222.094 18 222.747 17.88 223.521 17.88C224.241 17.88 224.774 17.9067 225.121 17.96C225.494 17.9867 225.854 18.0667 226.201 18.2C226.281 18.2267 226.374 18.2933 226.481 18.4C226.614 18.48 226.681 18.6133 226.681 18.8ZM237.057 22.36C237.057 22.9467 236.977 23.5067 236.817 24.04C236.657 24.5733 236.444 25.04 236.177 25.44C235.91 25.84 235.59 26.16 235.217 26.4C234.87 26.6133 234.484 26.72 234.057 26.72C233.31 26.72 232.724 26.5067 232.297 26.08C231.87 25.6533 231.537 25.16 231.297 24.6C231.084 24.04 230.937 23.48 230.857 22.92C230.804 22.3333 230.777 21.8933 230.777 21.6C230.777 21.12 230.844 20.5867 230.977 20C231.137 19.3867 231.337 18.8267 231.577 18.32C231.844 17.8133 232.137 17.3867 232.457 17.04C232.777 16.6933 233.11 16.52 233.457 16.52C233.537 16.52 233.657 16.5467 233.817 16.6C234.004 16.6533 234.19 16.7333 234.377 16.84C234.564 16.9467 234.724 17.08 234.857 17.24C235.017 17.4 235.124 17.5867 235.177 17.8C235.47 17.8267 235.764 17.9333 236.057 18.12C236.35 18.3067 236.51 18.4533 236.537 18.56C236.75 19.2533 236.884 19.9467 236.937 20.64C237.017 21.3333 237.057 21.9067 237.057 22.36ZM235.257 21.64C235.257 21.24 235.217 20.8267 235.137 20.4C235.057 19.9467 234.897 19.4933 234.657 19.04C234.604 19.0667 234.537 19.08 234.457 19.08C234.35 19.08 234.257 19.0667 234.177 19.04C234.124 19.0133 234.07 19 234.017 19C233.697 19 233.444 19.0933 233.257 19.28C233.07 19.44 232.924 19.6667 232.817 19.96C232.737 20.2267 232.684 20.52 232.657 20.84C232.63 21.16 232.617 21.4667 232.617 21.76C232.617 22.0533 232.63 22.3867 232.657 22.76C232.684 23.1067 232.737 23.44 232.817 23.76C232.924 24.08 233.057 24.36 233.217 24.6C233.377 24.8133 233.59 24.92 233.857 24.92C234.124 24.92 234.35 24.7867 234.537 24.52C234.724 24.2267 234.87 23.8933 234.977 23.52C235.084 23.1467 235.15 22.7867 235.177 22.44C235.23 22.0667 235.257 21.8 235.257 21.64ZM254.188 2.32C254.214 2.37333 254.228 2.46667 254.228 2.6C254.228 2.73333 254.228 2.88 254.228 3.04C254.228 3.22667 254.161 3.32 254.028 3.32C253.974 3.32 253.908 3.30667 253.828 3.28C253.748 3.25333 253.681 3.22667 253.628 3.2C253.148 2.98667 252.561 2.72 251.868 2.4C251.201 2.05333 250.441 1.88 249.588 1.88C248.628 1.88 247.854 2.24 247.268 2.96C246.681 3.68 246.228 4.52 245.908 5.48C245.614 6.41333 245.414 7.33333 245.308 8.24C245.228 9.14667 245.188 9.8 245.188 10.2C245.188 10.4933 245.228 10.96 245.308 11.6C245.414 12.2133 245.548 12.8533 245.708 13.52C245.868 14.1867 246.054 14.8 246.268 15.36C246.481 15.8933 246.694 16.2267 246.908 16.36C247.068 16.36 247.348 16.3467 247.748 16.32C248.174 16.2933 248.521 16.28 248.788 16.28C249.241 16.28 249.668 16.32 250.068 16.4C250.468 16.48 250.881 16.52 251.308 16.52C251.414 16.52 251.574 16.52 251.788 16.52C252.001 16.52 252.214 16.5333 252.428 16.56C252.668 16.5867 252.868 16.64 253.028 16.72C253.188 16.7733 253.268 16.8533 253.268 16.96C253.268 17.0933 253.174 17.2133 252.988 17.32C252.801 17.4267 252.588 17.52 252.348 17.6C252.108 17.6533 251.868 17.6933 251.628 17.72C251.388 17.7467 251.201 17.76 251.068 17.76C250.934 17.76 250.761 17.76 250.548 17.76C250.334 17.7333 250.094 17.7067 249.828 17.68C249.588 17.6533 249.348 17.64 249.108 17.64C248.894 17.6133 248.708 17.6 248.548 17.6C248.121 17.6 247.854 17.6533 247.748 17.76C247.668 17.84 247.628 18.0133 247.628 18.28C247.628 18.68 247.801 19.2267 248.148 19.92C248.521 20.5867 248.921 21.3067 249.348 22.08C249.774 22.8533 250.161 23.6533 250.508 24.48C250.881 25.3067 251.068 26.0667 251.068 26.76C251.068 26.8933 251.028 27.1467 250.948 27.52C250.894 27.8667 250.801 28.2267 250.668 28.6C250.561 28.9733 250.401 29.3067 250.188 29.6C249.974 29.8933 249.734 30.04 249.468 30.04C249.254 30.04 249.054 29.9867 248.868 29.88C248.708 29.7467 248.628 29.5333 248.628 29.24C248.628 28.8133 248.734 28.4133 248.948 28.04C249.188 27.6667 249.308 27.2667 249.308 26.84C249.308 26.6267 249.201 26.2667 248.988 25.76C248.801 25.2533 248.561 24.6933 248.268 24.08C247.974 23.44 247.654 22.7733 247.308 22.08C246.961 21.3867 246.628 20.76 246.308 20.2C246.014 19.6133 245.761 19.1333 245.548 18.76C245.334 18.3867 245.214 18.1867 245.188 18.16C244.654 18.3467 244.108 18.5333 243.548 18.72C242.988 18.9067 242.481 19.1867 242.028 19.56C241.841 19.7467 241.668 19.84 241.508 19.84C241.241 19.84 240.988 19.7333 240.748 19.52C240.534 19.3067 240.428 19.0667 240.428 18.8C240.428 18.5067 240.508 18.28 240.668 18.12C240.854 17.9333 241.028 17.8 241.188 17.72C241.428 17.5867 241.801 17.44 242.308 17.28C242.814 17.12 243.321 16.9867 243.828 16.88C244.014 16.8267 244.188 16.7867 244.348 16.76C244.508 16.7067 244.588 16.6133 244.588 16.48C244.508 16.2133 244.388 15.8667 244.228 15.44C244.094 14.9867 243.948 14.4533 243.788 13.84C243.654 13.2267 243.534 12.5467 243.428 11.8C243.321 11.0267 243.268 10.2 243.268 9.32C243.268 8.36 243.374 7.34667 243.588 6.28C243.828 5.21333 244.188 4.24 244.668 3.36C245.174 2.45333 245.801 1.72 246.548 1.16C247.294 0.573332 248.188 0.28 249.228 0.28C249.708 0.28 250.241 0.333332 250.828 0.439998C251.414 0.519998 251.948 0.653332 252.428 0.84C252.934 0.999999 253.348 1.21333 253.668 1.48C254.014 1.72 254.188 2 254.188 2.32ZM259.093 12.6C259.093 12.6533 258.999 12.76 258.813 12.92C258.626 13.08 258.399 13.2533 258.133 13.44C257.893 13.6 257.639 13.7467 257.373 13.88C257.106 14.0133 256.893 14.08 256.733 14.08C256.626 14.08 256.479 14.08 256.293 14.08C256.133 14.0533 255.959 14 255.773 13.92C255.613 13.84 255.466 13.7333 255.333 13.6C255.199 13.44 255.133 13.24 255.133 13C255.133 12.6267 255.266 12.28 255.533 11.96C255.799 11.6133 256.146 11.44 256.573 11.44C256.653 11.44 256.826 11.48 257.093 11.56C257.386 11.6133 257.679 11.6933 257.973 11.8C258.266 11.9067 258.519 12.0267 258.733 12.16C258.973 12.2933 259.093 12.44 259.093 12.6ZM260.413 27.56C260.413 27.7467 260.266 27.9067 259.973 28.04C259.706 28.1733 259.506 28.24 259.373 28.24C259.106 28.24 258.866 28.0667 258.653 27.72C258.439 27.3733 258.253 26.9733 258.093 26.52C257.933 26.0667 257.799 25.64 257.693 25.24C257.586 24.8133 257.506 24.52 257.453 24.36C257.373 24.0933 257.266 23.7733 257.133 23.4C256.999 23.0267 256.866 22.6667 256.733 22.32C256.626 21.9733 256.533 21.6667 256.453 21.4C256.373 21.1333 256.333 20.9867 256.333 20.96C256.333 20.5867 256.399 20.24 256.533 19.92C256.693 19.6 256.879 19.44 257.093 19.44C257.333 19.44 257.586 19.6267 257.853 20C258.119 20.3733 258.373 20.8533 258.613 21.44C258.879 22 259.119 22.6267 259.333 23.32C259.546 23.9867 259.733 24.6267 259.893 25.24C260.053 25.8267 260.173 26.3467 260.253 26.8C260.359 27.2267 260.413 27.48 260.413 27.56ZM268.264 29.84C268.264 30.0533 268.184 30.2133 268.024 30.32C267.864 30.4267 267.677 30.48 267.464 30.48C267.224 30.48 266.97 30.2533 266.704 29.8C266.464 29.3467 266.224 28.7733 265.984 28.08C265.744 27.3867 265.517 26.64 265.304 25.84C265.09 25.0133 264.904 24.2533 264.744 23.56C264.584 22.84 264.45 22.24 264.344 21.76C264.264 21.28 264.224 21.0133 264.224 20.96C264.224 20.8533 264.17 20.5733 264.064 20.12C263.984 19.6667 263.864 18.96 263.704 18C263.57 17.04 263.41 15.8 263.224 14.28C263.064 12.7333 262.89 10.8267 262.704 8.56C262.704 8.32 262.744 8.01333 262.824 7.64C262.904 7.26666 263.09 7.08 263.384 7.08C263.757 7.08 264.037 7.33333 264.224 7.84C264.437 8.34667 264.597 8.97333 264.704 9.72C264.837 10.4667 264.93 11.2533 264.984 12.08C265.037 12.88 265.104 13.5867 265.184 14.2C265.29 15.0533 265.384 15.8267 265.464 16.52C265.57 17.2133 265.664 17.9067 265.744 18.6C265.85 19.2667 265.97 19.9733 266.104 20.72C266.264 21.4667 266.45 22.2933 266.664 23.2L268.264 29.84ZM282.501 26.8C282.528 26.8533 282.541 26.9333 282.541 27.04C282.541 27.2 282.421 27.44 282.181 27.76C282.101 27.8667 281.928 28.04 281.661 28.28C281.395 28.52 281.035 28.76 280.581 29C280.128 29.24 279.568 29.4533 278.901 29.64C278.261 29.8267 277.501 29.92 276.621 29.92C276.008 29.92 275.408 29.7867 274.821 29.52C274.235 29.2267 273.715 28.8133 273.261 28.28C272.808 27.72 272.435 27.04 272.141 26.24C271.848 25.4133 271.701 24.4533 271.701 23.36C271.701 22.32 271.835 21.3467 272.101 20.44C272.368 19.5333 272.701 18.7333 273.101 18.04C273.528 17.3467 273.995 16.8 274.501 16.4C275.008 16 275.501 15.8 275.981 15.8C276.408 15.8 276.835 15.8933 277.261 16.08C277.715 16.24 278.115 16.4533 278.461 16.72C278.835 16.9867 279.128 17.2933 279.341 17.64C279.555 17.96 279.661 18.2933 279.661 18.64C279.661 19.04 279.475 19.4533 279.101 19.88C278.755 20.3067 278.328 20.7067 277.821 21.08C277.315 21.4267 276.808 21.72 276.301 21.96C275.795 22.1733 275.395 22.28 275.101 22.28C274.941 22.28 274.795 22.2133 274.661 22.08C274.555 21.92 274.501 21.7333 274.501 21.52C274.501 21.1467 274.661 20.8533 274.981 20.64C275.328 20.4267 275.701 20.24 276.101 20.08C276.501 19.8933 276.861 19.68 277.181 19.44C277.528 19.2 277.701 18.8667 277.701 18.44C277.701 18.3867 277.635 18.2533 277.501 18.04C277.368 17.8267 277.008 17.72 276.421 17.72C276.155 17.72 275.848 17.88 275.501 18.2C275.155 18.4933 274.821 18.9067 274.501 19.44C274.181 19.9467 273.915 20.56 273.701 21.28C273.488 21.9733 273.381 22.7333 273.381 23.56C273.381 24.2533 273.501 24.88 273.741 25.44C274.008 26 274.341 26.48 274.741 26.88C275.141 27.2533 275.608 27.5467 276.141 27.76C276.675 27.9733 277.221 28.08 277.781 28.08C278.181 28.08 278.608 28 279.061 27.84C279.541 27.6533 279.981 27.4667 280.381 27.28C280.808 27.0667 281.168 26.88 281.461 26.72C281.781 26.5333 281.981 26.44 282.061 26.44C282.141 26.44 282.221 26.48 282.301 26.56C282.408 26.64 282.475 26.72 282.501 26.8ZM288.207 24.8C288.34 24.8 288.473 24.88 288.607 25.04C288.767 25.2 288.9 25.3867 289.007 25.6C289.113 25.8133 289.193 26.0533 289.247 26.32C289.327 26.56 289.367 26.76 289.367 26.92C289.367 27.2133 289.22 27.4667 288.927 27.68C288.66 27.8933 288.18 28 287.487 28C287.273 28 287.047 27.9333 286.807 27.8C286.593 27.6667 286.487 27.4667 286.487 27.2C286.487 27.12 286.54 26.96 286.647 26.72C286.78 26.4533 286.927 26.1867 287.087 25.92C287.273 25.6267 287.46 25.3733 287.647 25.16C287.86 24.92 288.047 24.8 288.207 24.8ZM288.767 19.84C288.767 20 288.687 20.16 288.527 20.32C288.367 20.4533 288.18 20.5867 287.967 20.72C287.78 20.8267 287.593 20.92 287.407 21C287.22 21.0533 287.113 21.08 287.087 21.08C286.847 21.08 286.66 21.0267 286.527 20.92C286.42 20.7867 286.327 20.6533 286.247 20.52C286.193 20.36 286.153 20.2133 286.127 20.08C286.127 19.9467 286.127 19.8533 286.127 19.8C286.127 19.6933 286.153 19.56 286.207 19.4C286.26 19.2133 286.34 19.04 286.447 18.88C286.553 18.72 286.673 18.5867 286.807 18.48C286.967 18.3467 287.14 18.28 287.327 18.28C287.673 18.28 287.993 18.4267 288.287 18.72C288.607 19.0133 288.767 19.3867 288.767 19.84Z" fill="#11C6B0"/>
</svg>
