<svg width="290" height="41" viewBox="0 0 290 41" fill="none" xmlns="http://www.w3.org/2000/svg">
<path d="M18.08 22.4286C18.08 22.802 17.9733 23.1886 17.76 23.5886C17.5733 23.9886 17.3333 24.3886 17.04 24.7886C16.7467 25.1886 16.4267 25.5753 16.08 25.9486C15.7333 26.2953 15.4133 26.602 15.12 26.8686C14.4 27.5086 13.6533 28.122 12.88 28.7086C12.1333 29.2686 11.3467 29.7753 10.52 30.2286C9.72 30.682 8.88 31.042 8 31.3086C7.12 31.5753 6.2 31.7086 5.24 31.7086C2.33333 31.7086 0.88 30.2153 0.88 27.2286C0.88 26.9353 1 26.362 1.24 25.5086C1.48 24.6553 1.78667 23.682 2.16 22.5886C2.53333 21.4953 2.97333 20.3486 3.48 19.1486C3.98667 17.9486 4.50667 16.8553 5.04 15.8686C5.57333 14.8553 6.09333 14.0286 6.6 13.3886C7.13333 12.7486 7.62667 12.4286 8.08 12.4286C8.37333 12.4286 8.58667 12.522 8.72 12.7086C8.88 12.8953 8.96 13.0953 8.96 13.3086C8.93333 13.4686 8.74667 13.8153 8.4 14.3486C8.05333 14.8553 7.69333 15.3753 7.32 15.9086C7.26667 15.9886 7.17333 16.122 7.04 16.3086C6.90667 16.4953 6.77333 16.682 6.64 16.8686C6.48 17.082 6.32 17.3086 6.16 17.5486C6.05333 17.7353 5.81333 18.2153 5.44 18.9886C5.09333 19.7353 4.72 20.6153 4.32 21.6286C3.92 22.6153 3.56 23.6553 3.24 24.7486C2.92 25.8153 2.76 26.7486 2.76 27.5486C2.76 28.002 2.85333 28.362 3.04 28.6286C3.25333 28.8953 3.49333 29.0953 3.76 29.2286C4.05333 29.362 4.34667 29.4553 4.64 29.5086C4.96 29.5353 5.24 29.5486 5.48 29.5486C6.46667 29.5486 7.50667 29.3353 8.6 28.9086C9.72 28.4553 10.7867 27.8686 11.8 27.1486C12.8133 26.4286 13.7467 25.602 14.6 24.6686C15.4533 23.7086 16.12 22.722 16.6 21.7086C16.7067 21.522 16.8133 21.402 16.92 21.3486C17.0533 21.2953 17.1733 21.2686 17.28 21.2686C17.4933 21.2686 17.68 21.4153 17.84 21.7086C18 22.002 18.08 22.242 18.08 22.4286ZM34.2984 24.1886C34.4318 24.322 34.4984 24.402 34.4984 24.4286C34.4984 24.482 34.4184 24.642 34.2584 24.9086C34.1251 25.1753 33.9384 25.4553 33.6984 25.7486C33.4584 26.042 33.1918 26.3086 32.8984 26.5486C32.6318 26.762 32.3651 26.8686 32.0984 26.8686C31.5384 26.8686 31.0851 26.762 30.7384 26.5486C30.3918 26.3086 30.0984 26.0153 29.8584 25.6686C29.6451 25.322 29.4718 24.9486 29.3384 24.5486C29.2318 24.122 29.1384 23.722 29.0584 23.3486C29.0051 23.162 28.9518 23.0686 28.8984 23.0686C28.8184 23.0686 28.6584 23.362 28.4184 23.9486C28.1784 24.5086 27.9118 25.1353 27.6184 25.8286C27.3518 26.4953 27.0851 27.122 26.8184 27.7086C26.5784 28.2686 26.4184 28.5486 26.3384 28.5486C25.8584 28.5486 25.4451 28.3486 25.0984 27.9486C24.7784 27.522 24.5118 27.042 24.2984 26.5086C24.1118 25.9486 23.9651 25.3886 23.8584 24.8286C23.7518 24.242 23.6851 23.7886 23.6584 23.4686C23.5784 22.7486 23.4051 21.5486 23.1384 19.8686C22.8718 18.1886 22.6451 16.1486 22.4584 13.7486C22.4051 13.242 22.3384 12.7886 22.2584 12.3886C22.2051 11.962 22.1384 11.4953 22.0584 10.9886C21.9784 10.482 21.9118 9.90862 21.8584 9.26862C21.8051 8.62862 21.7784 7.84196 21.7784 6.90862C21.7784 6.85529 21.7918 6.68196 21.8184 6.38862C21.8451 6.09529 21.8851 5.77529 21.9384 5.42862C21.9918 5.08195 22.0718 4.77529 22.1784 4.50862C22.3118 4.24195 22.4584 4.10862 22.6184 4.10862C22.8051 4.10862 22.9784 4.22862 23.1384 4.46862C23.2984 4.68196 23.4318 4.93529 23.5384 5.22862C23.6718 5.52196 23.7651 5.80196 23.8184 6.06862C23.8718 6.33529 23.8984 6.52196 23.8984 6.62862C23.8984 7.02862 23.8718 7.40196 23.8184 7.74862C23.7651 8.09529 23.7384 8.41529 23.7384 8.70862C23.7384 9.10862 23.7651 9.61529 23.8184 10.2286C23.8984 10.842 23.9918 11.4686 24.0984 12.1086C24.2051 12.7486 24.2984 13.3753 24.3784 13.9886C24.4584 14.5753 24.5251 15.0553 24.5784 15.4286C24.5784 15.4553 24.6051 15.642 24.6584 15.9886C24.7118 16.3353 24.7651 16.7753 24.8184 17.3086C24.8984 17.8153 24.9651 18.3753 25.0184 18.9886C25.0984 19.5753 25.1784 20.162 25.2584 20.7486C25.3384 21.3086 25.4051 21.8153 25.4584 22.2686C25.5384 22.6953 25.5918 23.002 25.6184 23.1886C25.6184 23.2686 25.6318 23.3886 25.6584 23.5486C25.7118 23.682 25.7518 23.842 25.7784 24.0286C25.8318 24.2153 25.8851 24.3886 25.9384 24.5486C25.9918 24.7086 26.0584 24.8286 26.1384 24.9086C26.2984 24.5886 26.4984 24.0953 26.7384 23.4286C27.0051 22.762 27.2718 22.082 27.5384 21.3886C27.8318 20.6953 28.0984 20.0953 28.3384 19.5886C28.6051 19.0553 28.8318 18.7886 29.0184 18.7886C29.2318 18.7886 29.4051 18.8286 29.5384 18.9086C29.6718 18.9886 29.8451 19.0553 30.0584 19.1086C30.3251 19.2153 30.4584 19.362 30.4584 19.5486C30.4584 19.7086 30.4851 19.9086 30.5384 20.1486C30.5918 20.4686 30.6718 20.8953 30.7784 21.4286C30.9118 21.9353 31.0584 22.442 31.2184 22.9486C31.3784 23.4286 31.5651 23.842 31.7784 24.1886C31.9918 24.5353 32.2051 24.7086 32.4184 24.7086C32.5251 24.7086 32.6718 24.5753 32.8584 24.3086C33.0451 24.0153 33.2984 23.8553 33.6184 23.8286C33.6718 23.8286 33.7651 23.8686 33.8984 23.9486C34.0318 24.002 34.1651 24.082 34.2984 24.1886ZM47.97 27.3886C47.9967 27.442 48.01 27.522 48.01 27.6286C48.01 27.7886 47.89 28.0286 47.65 28.3486C47.57 28.4553 47.3967 28.6286 47.13 28.8686C46.8633 29.1086 46.5033 29.3486 46.05 29.5886C45.5967 29.8286 45.0367 30.042 44.37 30.2286C43.73 30.4153 42.97 30.5086 42.09 30.5086C41.4767 30.5086 40.8767 30.3753 40.29 30.1086C39.7033 29.8153 39.1833 29.402 38.73 28.8686C38.2767 28.3086 37.9033 27.6286 37.61 26.8286C37.3167 26.002 37.17 25.042 37.17 23.9486C37.17 22.9086 37.3033 21.9353 37.57 21.0286C37.8367 20.122 38.17 19.322 38.57 18.6286C38.9967 17.9353 39.4633 17.3886 39.97 16.9886C40.4767 16.5886 40.97 16.3886 41.45 16.3886C41.8767 16.3886 42.3033 16.482 42.73 16.6686C43.1833 16.8286 43.5833 17.042 43.93 17.3086C44.3033 17.5753 44.5967 17.882 44.81 18.2286C45.0233 18.5486 45.13 18.882 45.13 19.2286C45.13 19.6286 44.9433 20.042 44.57 20.4686C44.2233 20.8953 43.7967 21.2953 43.29 21.6686C42.7833 22.0153 42.2767 22.3086 41.77 22.5486C41.2633 22.762 40.8633 22.8686 40.57 22.8686C40.41 22.8686 40.2633 22.802 40.13 22.6686C40.0233 22.5086 39.97 22.322 39.97 22.1086C39.97 21.7353 40.13 21.442 40.45 21.2286C40.7967 21.0153 41.17 20.8286 41.57 20.6686C41.97 20.482 42.33 20.2686 42.65 20.0286C42.9967 19.7886 43.17 19.4553 43.17 19.0286C43.17 18.9753 43.1033 18.842 42.97 18.6286C42.8367 18.4153 42.4767 18.3086 41.89 18.3086C41.6233 18.3086 41.3167 18.4686 40.97 18.7886C40.6233 19.082 40.29 19.4953 39.97 20.0286C39.65 20.5353 39.3833 21.1486 39.17 21.8686C38.9567 22.562 38.85 23.322 38.85 24.1486C38.85 24.842 38.97 25.4686 39.21 26.0286C39.4767 26.5886 39.81 27.0686 40.21 27.4686C40.61 27.842 41.0767 28.1353 41.61 28.3486C42.1433 28.562 42.69 28.6686 43.25 28.6686C43.65 28.6686 44.0767 28.5886 44.53 28.4286C45.01 28.242 45.45 28.0553 45.85 27.8686C46.2767 27.6553 46.6367 27.4686 46.93 27.3086C47.25 27.122 47.45 27.0286 47.53 27.0286C47.61 27.0286 47.69 27.0686 47.77 27.1486C47.8767 27.2286 47.9433 27.3086 47.97 27.3886ZM62.3153 24.3086C62.3153 24.5753 62.2753 24.8553 62.1953 25.1486C62.1153 25.4153 62.0353 25.642 61.9553 25.8286C61.902 25.9086 61.6486 26.1886 61.1953 26.6686C60.7686 27.122 60.222 27.602 59.5553 28.1086C58.9153 28.6153 58.182 29.082 57.3553 29.5086C56.5553 29.9086 55.782 30.1086 55.0353 30.1086C54.582 30.1086 54.1153 30.0286 53.6353 29.8686C53.182 29.7086 52.7553 29.4553 52.3553 29.1086C51.9553 28.7353 51.622 28.282 51.3553 27.7486C51.1153 27.2153 50.9953 26.562 50.9953 25.7886C50.9953 24.5086 51.2086 23.3486 51.6353 22.3086C52.062 21.2686 52.4886 20.442 52.9153 19.8286C53.102 19.5353 53.342 19.242 53.6353 18.9486C53.9553 18.6286 54.262 18.3486 54.5553 18.1086C54.8486 17.842 55.1153 17.6286 55.3553 17.4686C55.622 17.3086 55.8086 17.2286 55.9153 17.2286C56.1553 17.2286 56.3686 17.2953 56.5553 17.4286C56.7686 17.562 56.8753 17.6953 56.8753 17.8286C56.8753 18.042 56.8086 18.2286 56.6753 18.3886C56.5686 18.522 56.4086 18.682 56.1953 18.8686C55.982 19.0286 55.7286 19.2553 55.4353 19.5486C55.142 19.8153 54.8353 20.1753 54.5153 20.6286C53.8753 21.5086 53.3953 22.4153 53.0753 23.3486C52.782 24.2553 52.6353 25.0553 52.6353 25.7486C52.6353 26.442 52.8886 27.002 53.3953 27.4286C53.9286 27.8286 54.4753 28.0286 55.0353 28.0286C56.0486 28.0286 56.942 27.802 57.7153 27.3486C58.5153 26.8953 59.1953 26.3886 59.7553 25.8286C60.3153 25.2686 60.7686 24.762 61.1153 24.3086C61.462 23.8553 61.7153 23.6286 61.8753 23.6286C62.1686 23.6286 62.3153 23.8553 62.3153 24.3086ZM79.7219 27.3086C79.7219 27.522 79.6952 27.682 79.6419 27.7886C79.5885 27.8686 79.4552 27.9353 79.2419 27.9886C79.0019 28.0686 78.6952 28.162 78.3219 28.2686C77.9752 28.3486 77.5885 28.442 77.1619 28.5486C76.7352 28.6286 76.2952 28.7086 75.8419 28.7886C75.4152 28.842 75.0152 28.8686 74.6419 28.8686C74.1885 28.8686 73.6819 28.842 73.1219 28.7886C72.5885 28.7353 72.0685 28.6553 71.5619 28.5486C71.0552 28.4153 70.5885 28.282 70.1619 28.1486C69.7619 27.9886 69.4685 27.802 69.2819 27.5886C69.4152 28.1486 69.5352 28.7086 69.6419 29.2686C69.7485 29.8286 69.8285 30.3886 69.8819 30.9486C69.8819 31.082 69.8419 31.202 69.7619 31.3086C69.7085 31.3886 69.5352 31.4286 69.2419 31.4286C69.1085 31.4286 68.9752 31.402 68.8419 31.3486C68.7352 31.2686 68.6419 31.122 68.5619 30.9086C68.3219 30.3753 68.1219 29.882 67.9619 29.4286C67.8019 28.9486 67.6552 28.4686 67.5219 27.9886C67.4152 27.5086 67.2952 27.002 67.1619 26.4686C67.0285 25.9353 66.8685 25.3486 66.6819 24.7086C66.3885 23.6686 66.0819 22.562 65.7619 21.3886C65.4419 20.1886 65.1485 19.0553 64.8819 17.9886C64.6152 16.8953 64.4019 15.9353 64.2419 15.1086C64.0819 14.2553 64.0019 13.6553 64.0019 13.3086C64.0019 13.1486 64.0019 12.9353 64.0019 12.6686C64.0285 12.402 64.0685 12.1486 64.1219 11.9086C64.2019 11.642 64.2952 11.4286 64.4019 11.2686C64.5352 11.082 64.7085 10.9886 64.9219 10.9886C65.0552 10.9886 65.1885 11.202 65.3219 11.6286C65.4819 12.0286 65.6152 12.482 65.7219 12.9886C65.8552 13.4686 65.9619 13.9353 66.0419 14.3886C66.1485 14.8153 66.2019 15.042 66.2019 15.0686C66.3085 15.6553 66.4285 16.3086 66.5619 17.0286C66.7219 17.722 66.8819 18.4286 67.0419 19.1486C67.2019 19.8686 67.3752 20.562 67.5619 21.2286C67.7485 21.8686 67.9485 22.4153 68.1619 22.8686C68.1885 22.602 68.2819 22.2153 68.4419 21.7086C68.6019 21.202 68.8152 20.6553 69.0819 20.0686C69.3485 19.482 69.6419 18.882 69.9619 18.2686C70.3085 17.6286 70.6552 17.0553 71.0019 16.5486C71.3752 16.042 71.7352 15.6286 72.0819 15.3086C72.4552 14.9886 72.8019 14.8286 73.1219 14.8286C73.6285 14.8286 73.9752 14.8953 74.1619 15.0286C74.3752 15.162 74.4819 15.322 74.4819 15.5086C74.4819 15.6686 74.2552 15.9886 73.8019 16.4686C73.3485 16.922 72.8419 17.5353 72.2819 18.3086C71.7219 19.0553 71.2152 19.9486 70.7619 20.9886C70.3085 22.002 70.0819 23.1353 70.0819 24.3886C70.0819 24.842 70.2019 25.242 70.4419 25.5886C70.7085 25.9086 71.0419 26.1753 71.4419 26.3886C71.8685 26.602 72.3352 26.7753 72.8419 26.9086C73.3752 27.0153 73.8952 27.0686 74.4019 27.0686C74.8552 27.0686 75.3485 27.0553 75.8819 27.0286C76.4152 27.002 76.9085 26.9753 77.3619 26.9486C77.8419 26.8953 78.2419 26.8553 78.5619 26.8286C78.9085 26.802 79.1219 26.7886 79.2019 26.7886C79.3352 26.7886 79.4552 26.8286 79.5619 26.9086C79.6685 26.9886 79.7219 27.122 79.7219 27.3086ZM105.182 22.9486C105.182 23.5353 105.102 24.0953 104.942 24.6286C104.782 25.162 104.569 25.6286 104.302 26.0286C104.035 26.4286 103.715 26.7486 103.342 26.9886C102.995 27.202 102.609 27.3086 102.182 27.3086C101.435 27.3086 100.849 27.0953 100.422 26.6686C99.9952 26.242 99.6619 25.7486 99.4219 25.1886C99.2085 24.6286 99.0619 24.0686 98.9819 23.5086C98.9285 22.922 98.9019 22.482 98.9019 22.1886C98.9019 21.7086 98.9685 21.1753 99.1019 20.5886C99.2619 19.9753 99.4619 19.4153 99.7019 18.9086C99.9685 18.402 100.262 17.9753 100.582 17.6286C100.902 17.282 101.235 17.1086 101.582 17.1086C101.662 17.1086 101.782 17.1353 101.942 17.1886C102.129 17.242 102.315 17.322 102.502 17.4286C102.689 17.5353 102.849 17.6686 102.982 17.8286C103.142 17.9886 103.249 18.1753 103.302 18.3886C103.595 18.4153 103.889 18.522 104.182 18.7086C104.475 18.8953 104.635 19.042 104.662 19.1486C104.875 19.842 105.009 20.5353 105.062 21.2286C105.142 21.922 105.182 22.4953 105.182 22.9486ZM103.382 22.2286C103.382 21.8286 103.342 21.4153 103.262 20.9886C103.182 20.5353 103.022 20.082 102.782 19.6286C102.729 19.6553 102.662 19.6686 102.582 19.6686C102.475 19.6686 102.382 19.6553 102.302 19.6286C102.249 19.602 102.195 19.5886 102.142 19.5886C101.822 19.5886 101.569 19.682 101.382 19.8686C101.195 20.0286 101.049 20.2553 100.942 20.5486C100.862 20.8153 100.809 21.1086 100.782 21.4286C100.755 21.7486 100.742 22.0553 100.742 22.3486C100.742 22.642 100.755 22.9753 100.782 23.3486C100.809 23.6953 100.862 24.0286 100.942 24.3486C101.049 24.6686 101.182 24.9486 101.342 25.1886C101.502 25.402 101.715 25.5086 101.982 25.5086C102.249 25.5086 102.475 25.3753 102.662 25.1086C102.849 24.8153 102.995 24.482 103.102 24.1086C103.209 23.7353 103.275 23.3753 103.302 23.0286C103.355 22.6553 103.382 22.3886 103.382 22.2286ZM122.393 24.9486C122.393 25.1886 122.233 25.442 121.913 25.7086C121.593 25.9753 121.219 26.2286 120.793 26.4686C120.366 26.682 119.926 26.8686 119.473 27.0286C119.046 27.1886 118.726 27.2686 118.513 27.2686C118.273 27.2686 118.006 27.202 117.713 27.0686C117.446 26.9353 117.179 26.7753 116.913 26.5886C116.673 26.402 116.459 26.2286 116.273 26.0686C116.086 25.9086 115.966 25.802 115.913 25.7486C115.833 25.8286 115.713 25.9886 115.553 26.2286C115.393 26.4686 115.193 26.7353 114.953 27.0286C114.739 27.2953 114.499 27.5353 114.233 27.7486C113.993 27.962 113.739 28.0686 113.473 28.0686C112.779 28.0686 112.179 27.6953 111.673 26.9486C111.166 26.202 110.739 25.3486 110.393 24.3886C110.073 23.4286 109.819 22.5086 109.633 21.6286C109.473 20.722 109.393 20.1086 109.393 19.7886C109.393 19.602 109.486 19.4553 109.673 19.3486C109.886 19.2153 110.046 19.1486 110.153 19.1486C110.526 19.1486 110.779 19.282 110.913 19.5486C111.046 19.7886 111.113 20.0553 111.113 20.3486C111.113 20.5886 111.179 21.0153 111.313 21.6286C111.473 22.242 111.659 22.8686 111.873 23.5086C112.086 24.1486 112.313 24.722 112.553 25.2286C112.793 25.7086 113.006 25.9486 113.193 25.9486C113.539 25.9486 113.833 25.7353 114.073 25.3086C114.339 24.8553 114.553 24.3486 114.713 23.7886C114.873 23.202 114.993 22.6553 115.073 22.1486C115.153 21.6153 115.193 21.2686 115.193 21.1086C115.193 21.082 115.193 21.002 115.193 20.8686C115.219 20.7086 115.246 20.5486 115.273 20.3886C115.299 20.2286 115.313 20.082 115.313 19.9486C115.339 19.8153 115.353 19.722 115.353 19.6686C115.353 19.482 115.313 19.362 115.233 19.3086C115.153 19.2286 115.113 19.082 115.113 18.8686C115.113 18.7086 115.193 18.562 115.353 18.4286C115.513 18.2686 115.859 18.1886 116.393 18.1886C116.606 18.1886 116.766 18.2553 116.873 18.3886C117.006 18.4953 117.099 18.6286 117.153 18.7886C117.206 18.9486 117.233 19.1086 117.233 19.2686C117.259 19.402 117.273 19.4953 117.273 19.5486C117.273 19.5753 117.259 19.762 117.233 20.1086C117.206 20.4553 117.179 20.842 117.153 21.2686C117.153 21.6686 117.139 22.0553 117.113 22.4286C117.086 22.802 117.073 23.0286 117.073 23.1086C117.073 23.1886 117.113 23.3486 117.193 23.5886C117.273 23.8286 117.366 24.082 117.473 24.3486C117.606 24.5886 117.753 24.8153 117.913 25.0286C118.073 25.2153 118.246 25.3086 118.433 25.3086C118.753 25.3086 119.046 25.2686 119.313 25.1886C119.606 25.082 119.873 24.9753 120.113 24.8686C120.379 24.7353 120.619 24.6286 120.833 24.5486C121.046 24.442 121.246 24.3886 121.433 24.3886C121.673 24.3886 121.886 24.442 122.073 24.5486C122.286 24.6553 122.393 24.7886 122.393 24.9486ZM134.598 13.5086C134.252 13.9086 133.758 14.3086 133.118 14.7086C132.478 15.082 131.838 15.4286 131.198 15.7486C130.558 16.0686 129.998 16.3486 129.518 16.5886C129.038 16.802 128.798 16.9486 128.798 17.0286C128.798 17.1086 128.852 17.3486 128.958 17.7486C129.065 18.1486 129.185 18.6286 129.318 19.1886C129.478 19.722 129.638 20.282 129.798 20.8686C129.958 21.4553 130.092 21.9753 130.198 22.4286C130.252 22.6953 130.318 23.042 130.398 23.4686C130.478 23.8953 130.545 24.322 130.598 24.7486C130.678 25.1753 130.745 25.562 130.798 25.9086C130.852 26.2286 130.878 26.402 130.878 26.4286C130.878 26.8286 130.812 27.242 130.678 27.6686C130.545 28.0953 130.332 28.3086 130.038 28.3086C129.878 28.3086 129.732 28.242 129.598 28.1086C129.465 27.9753 129.345 27.8286 129.238 27.6686C129.132 27.482 129.052 27.3086 128.998 27.1486C128.945 26.9886 128.918 26.8686 128.918 26.7886C128.918 26.7353 128.918 26.6553 128.918 26.5486C128.945 26.442 128.958 26.322 128.958 26.1886C128.958 25.682 128.878 24.9486 128.718 23.9886C128.665 23.6953 128.558 23.242 128.398 22.6286C128.238 22.0153 128.078 21.3886 127.918 20.7486C127.732 20.002 127.518 19.1886 127.278 18.3086C127.172 17.9353 127.105 17.7486 127.078 17.7486C126.892 17.7486 126.572 17.8686 126.118 18.1086C125.692 18.322 125.198 18.602 124.638 18.9486C124.078 19.2686 123.492 19.6286 122.878 20.0286C122.265 20.402 121.692 20.762 121.158 21.1086C120.625 21.4286 120.172 21.7086 119.798 21.9486C119.398 22.162 119.158 22.2686 119.078 22.2686C118.732 22.2686 118.452 22.1486 118.238 21.9086C118.025 21.6686 117.918 21.402 117.918 21.1086C117.918 20.9486 118.145 20.722 118.598 20.4286C119.025 20.1086 119.572 19.762 120.238 19.3886C120.878 19.0153 121.585 18.6286 122.358 18.2286C123.105 17.8286 123.798 17.4686 124.438 17.1486C125.105 16.8286 125.652 16.562 126.078 16.3486C126.532 16.1353 126.758 16.0286 126.758 16.0286C126.518 14.802 126.318 13.7086 126.158 12.7486C126.025 11.922 125.892 11.162 125.758 10.4686C125.652 9.77529 125.598 9.40196 125.598 9.34862C125.598 9.00196 125.665 8.74862 125.798 8.58862C125.958 8.40196 126.132 8.30862 126.318 8.30862C126.612 8.30862 126.798 8.50862 126.878 8.90862C127.172 10.3486 127.438 11.6286 127.678 12.7486C127.945 13.8686 128.198 14.7753 128.438 15.4686C128.678 15.4153 129.092 15.2686 129.678 15.0286C130.265 14.762 130.878 14.482 131.518 14.1886C132.158 13.8953 132.732 13.642 133.238 13.4286C133.772 13.1886 134.078 13.0686 134.158 13.0686C134.318 13.0686 134.412 13.122 134.438 13.2286C134.492 13.3353 134.545 13.4286 134.598 13.5086ZM171.094 27.8286C171.094 28.042 171.028 28.2286 170.894 28.3886C170.761 28.5486 170.601 28.682 170.414 28.7886C170.228 28.8686 170.028 28.9353 169.814 28.9886C169.628 29.042 169.468 29.0686 169.334 29.0686C168.774 29.0686 168.294 28.7753 167.894 28.1886C167.494 27.5753 167.161 26.9086 166.894 26.1886C166.628 25.442 166.428 24.7486 166.294 24.1086C166.188 23.4686 166.134 23.122 166.134 23.0686C165.974 23.362 165.801 23.8553 165.614 24.5486C165.454 25.242 165.254 25.9486 165.014 26.6686C164.774 27.362 164.468 27.9886 164.094 28.5486C163.748 29.082 163.294 29.3486 162.734 29.3486C162.468 29.3486 162.214 29.1886 161.974 28.8686C161.734 28.5486 161.508 28.1353 161.294 27.6286C161.081 27.122 160.868 26.5486 160.654 25.9086C160.468 25.2686 160.268 24.642 160.054 24.0286C159.868 23.4153 159.681 22.842 159.494 22.3086C159.308 21.7486 159.121 21.3086 158.934 20.9886C158.774 21.3886 158.628 21.9353 158.494 22.6286C158.388 23.322 158.294 24.0553 158.214 24.8286C158.134 25.5753 158.068 26.322 158.014 27.0686C157.961 27.8153 157.934 28.4686 157.934 29.0286C157.934 29.402 157.828 29.6686 157.614 29.8286C157.428 29.9886 157.228 30.0686 157.014 30.0686C156.721 30.0686 156.428 29.882 156.134 29.5086C155.841 29.1086 155.548 28.602 155.254 27.9886C154.961 27.3753 154.681 26.682 154.414 25.9086C154.174 25.1353 153.948 24.362 153.734 23.5886C153.548 22.8153 153.401 22.082 153.294 21.3886C153.188 20.6686 153.134 20.0686 153.134 19.5886C153.134 19.242 153.148 18.922 153.174 18.6286C153.201 18.3886 153.214 18.162 153.214 17.9486C153.241 17.7353 153.254 17.6153 153.254 17.5886C153.254 17.5086 153.228 17.4553 153.174 17.4286C153.148 17.402 153.134 17.3353 153.134 17.2286C153.134 17.1486 153.228 17.0286 153.414 16.8686C153.628 16.682 153.841 16.5886 154.054 16.5886C154.428 16.5886 154.668 16.6686 154.774 16.8286C154.908 16.9886 154.974 17.1753 154.974 17.3886C154.974 17.4686 154.961 17.5886 154.934 17.7486C154.934 17.9086 154.934 18.2686 154.934 18.8286C154.934 19.202 155.001 19.762 155.134 20.5086C155.268 21.2553 155.428 22.0153 155.614 22.7886C155.801 23.562 155.988 24.282 156.174 24.9486C156.388 25.5886 156.561 25.9886 156.694 26.1486C156.748 26.042 156.774 25.922 156.774 25.7886C156.801 25.6286 156.828 25.5086 156.854 25.4286L157.294 22.1486C157.401 21.322 157.614 20.4553 157.934 19.5486C158.281 18.6153 158.641 17.8953 159.014 17.3886C159.148 17.1753 159.294 17.0686 159.454 17.0686C159.614 17.0686 159.761 17.1886 159.894 17.4286C160.348 18.1753 160.681 18.922 160.894 19.6686C161.134 20.3886 161.334 21.1086 161.494 21.8286C161.681 22.522 161.881 23.2286 162.094 23.9486C162.334 24.642 162.694 25.3486 163.174 26.0686C163.388 25.722 163.654 25.162 163.974 24.3886C164.294 23.5886 164.614 22.7886 164.934 21.9886C165.281 21.1886 165.601 20.4953 165.894 19.9086C166.188 19.2953 166.414 18.9886 166.574 18.9886C166.654 18.9886 166.788 19.002 166.974 19.0286C167.161 19.0553 167.294 19.0686 167.374 19.0686C167.614 19.0686 167.814 19.3486 167.974 19.9086C168.134 20.442 168.268 21.082 168.374 21.8286C168.508 22.5486 168.628 23.282 168.734 24.0286C168.868 24.7486 169.014 25.2953 169.174 25.6686C169.281 25.9353 169.441 26.1886 169.654 26.4286C169.868 26.6686 170.081 26.8953 170.294 27.1086C170.561 27.3486 170.828 27.5886 171.094 27.8286ZM182.671 12.8686C182.324 14.7086 182.004 16.482 181.711 18.1886C181.578 18.9086 181.444 19.6686 181.311 20.4686C181.178 21.242 181.044 22.0153 180.911 22.7886C180.804 23.5353 180.698 24.2553 180.591 24.9486C180.511 25.6153 180.444 26.2286 180.391 26.7886C180.284 27.642 180.204 28.6153 180.151 29.7086C180.098 30.802 180.044 31.842 179.991 32.8286C179.938 33.9753 179.911 35.1353 179.911 36.3086C179.911 36.5486 179.884 36.8153 179.831 37.1086C179.778 37.402 179.751 37.6953 179.751 37.9886C179.751 38.2553 179.684 38.482 179.551 38.6686C179.444 38.8553 179.271 38.9486 179.031 38.9486C178.818 38.9486 178.644 38.7753 178.511 38.4286C178.404 38.1086 178.311 37.722 178.231 37.2686C178.151 36.842 178.098 36.402 178.071 35.9486C178.044 35.522 178.031 35.2153 178.031 35.0286C178.031 34.8153 178.031 34.5486 178.031 34.2286C178.031 33.9353 178.044 33.482 178.071 32.8686C178.124 32.282 178.191 31.5086 178.271 30.5486C178.351 29.562 178.471 28.282 178.631 26.7086C178.631 26.682 178.444 26.5486 178.071 26.3086C177.724 26.0686 177.284 25.7753 176.751 25.4286C176.244 25.0553 175.711 24.6553 175.151 24.2286C174.618 23.802 174.164 23.3886 173.791 22.9886C173.738 22.9353 173.658 22.8153 173.551 22.6286C173.444 22.442 173.391 22.2153 173.391 21.9486C173.391 21.8153 173.458 21.682 173.591 21.5486C173.724 21.3886 173.871 21.3086 174.031 21.3086C174.138 21.3086 174.244 21.362 174.351 21.4686C174.964 22.002 175.671 22.602 176.471 23.2686C177.271 23.9086 178.058 24.4953 178.831 25.0286C178.884 24.5486 178.991 23.8153 179.151 22.8286C179.338 21.842 179.524 20.7886 179.711 19.6686C179.898 18.522 180.071 17.4153 180.231 16.3486C180.418 15.282 180.551 14.4286 180.631 13.7886C180.631 13.682 180.658 13.5086 180.711 13.2686C180.764 13.0286 180.844 12.7886 180.951 12.5486C181.058 12.3086 181.178 12.1086 181.311 11.9486C181.444 11.762 181.591 11.6686 181.751 11.6686C181.831 11.6686 182.004 11.7486 182.271 11.9086C182.538 12.042 182.671 12.362 182.671 12.8686ZM215.003 20.0286C215.003 20.722 214.803 21.3886 214.403 22.0286C214.029 22.6686 213.563 23.2686 213.003 23.8286C212.443 24.362 211.829 24.8686 211.163 25.3486C210.496 25.802 209.883 26.202 209.323 26.5486C208.789 26.922 208.349 27.2286 208.003 27.4686C207.656 27.7086 207.483 27.8953 207.483 28.0286C207.483 28.3753 207.523 28.8686 207.603 29.5086C207.683 30.122 207.776 30.802 207.883 31.5486C208.016 32.2686 208.136 33.0153 208.243 33.7886C208.376 34.562 208.469 35.2686 208.523 35.9086C208.523 35.9353 208.536 36.0553 208.563 36.2686C208.616 36.482 208.669 36.722 208.723 36.9886C208.803 37.2553 208.856 37.4953 208.883 37.7086C208.936 37.9486 208.963 38.0953 208.963 38.1486C208.963 38.3353 208.949 38.5353 208.923 38.7486C208.923 38.9886 208.883 39.202 208.803 39.3886C208.749 39.602 208.656 39.7753 208.523 39.9086C208.389 40.042 208.216 40.1086 208.003 40.1086C207.709 40.1086 207.496 39.9753 207.363 39.7086C207.229 39.4686 207.163 39.2286 207.163 38.9886C207.163 38.9353 207.163 38.882 207.163 38.8286C207.189 38.7753 207.203 38.7086 207.203 38.6286C207.203 38.3353 207.096 37.5486 206.883 36.2686C206.669 34.9886 206.429 33.4553 206.163 31.6686C205.896 29.9086 205.656 28.0153 205.443 25.9886C205.229 23.9353 205.123 22.002 205.123 20.1886C205.123 20.0553 205.136 19.9086 205.163 19.7486C205.189 19.562 205.203 19.402 205.203 19.2686C204.936 19.2953 204.536 19.4153 204.003 19.6286C203.496 19.842 202.989 20.1086 202.483 20.4286C201.976 20.722 201.523 21.042 201.123 21.3886C200.749 21.7086 200.562 22.002 200.562 22.2686H200.282C200.202 22.2686 200.109 22.2153 200.002 22.1086C199.869 22.002 199.762 21.882 199.682 21.7486C199.576 21.6153 199.482 21.482 199.402 21.3486C199.322 21.2153 199.282 21.122 199.282 21.0686C199.282 20.5086 199.616 19.9886 200.282 19.5086C200.949 19.002 201.776 18.562 202.763 18.1886C203.776 17.7886 204.883 17.482 206.083 17.2686C207.283 17.0286 208.416 16.9086 209.483 16.9086C210.523 16.9086 211.389 17.0286 212.083 17.2686C212.803 17.5086 213.376 17.802 213.803 18.1486C214.229 18.4686 214.536 18.802 214.723 19.1486C214.909 19.4953 215.003 19.7886 215.003 20.0286ZM213.043 19.9086C213.043 19.642 212.709 19.3753 212.043 19.1086C211.376 18.8153 210.589 18.6686 209.683 18.6686C208.883 18.6686 208.296 18.6953 207.923 18.7486C207.549 18.802 207.296 18.8553 207.163 18.9086C207.109 19.3353 207.069 19.842 207.043 20.4286C207.016 21.0153 207.003 21.6153 207.003 22.2286C207.003 22.8686 207.016 23.4953 207.043 24.1086C207.096 24.6953 207.149 25.1886 207.203 25.5886C207.576 25.3486 208.083 25.0286 208.723 24.6286C209.389 24.202 210.043 23.7353 210.683 23.2286C211.323 22.6953 211.869 22.1486 212.322 21.5886C212.803 21.002 213.043 20.442 213.043 19.9086ZM226.681 19.3886C226.681 19.5753 226.601 19.7353 226.441 19.8686C226.281 19.9753 226.094 20.0686 225.881 20.1486C225.667 20.2286 225.454 20.2953 225.241 20.3486C225.027 20.3753 224.854 20.3886 224.721 20.3886C224.321 20.3886 224.054 20.362 223.921 20.3086C223.787 20.2553 223.681 20.2286 223.601 20.2286C222.934 20.2286 222.401 20.282 222.001 20.3886C221.601 20.4953 221.281 20.6686 221.041 20.9086C220.827 21.1486 220.681 21.4553 220.601 21.8286C220.547 22.1753 220.521 22.602 220.521 23.1086C220.521 23.962 220.547 24.642 220.601 25.1486C220.681 25.6553 220.747 26.0686 220.801 26.3886C220.881 26.7086 220.947 26.962 221.001 27.1486C221.081 27.3086 221.121 27.4686 221.121 27.6286C221.121 27.842 221.001 28.0686 220.761 28.3086C220.547 28.5486 220.347 28.6686 220.161 28.6686C219.841 28.6686 219.547 28.3886 219.281 27.8286C219.041 27.242 218.827 26.562 218.641 25.7886C218.481 24.9886 218.347 24.202 218.241 23.4286C218.134 22.6553 218.081 22.0686 218.081 21.6686C218.081 21.2153 218.121 20.7886 218.201 20.3886C218.281 19.962 218.387 19.602 218.521 19.3086C218.654 18.9886 218.801 18.7353 218.961 18.5486C219.121 18.362 219.281 18.2686 219.441 18.2686C219.574 18.2686 219.681 18.322 219.761 18.4286C219.841 18.5086 219.907 18.6153 219.961 18.7486C220.014 18.8553 220.067 18.962 220.121 19.0686C220.201 19.1486 220.294 19.1886 220.401 19.1886C220.641 19.1886 221.027 19.0686 221.561 18.8286C222.094 18.5886 222.747 18.4686 223.521 18.4686C224.241 18.4686 224.774 18.4953 225.121 18.5486C225.494 18.5753 225.854 18.6553 226.201 18.7886C226.281 18.8153 226.374 18.882 226.481 18.9886C226.614 19.0686 226.681 19.202 226.681 19.3886ZM237.057 22.9486C237.057 23.5353 236.977 24.0953 236.817 24.6286C236.657 25.162 236.444 25.6286 236.177 26.0286C235.91 26.4286 235.59 26.7486 235.217 26.9886C234.87 27.202 234.484 27.3086 234.057 27.3086C233.31 27.3086 232.724 27.0953 232.297 26.6686C231.87 26.242 231.537 25.7486 231.297 25.1886C231.084 24.6286 230.937 24.0686 230.857 23.5086C230.804 22.922 230.777 22.482 230.777 22.1886C230.777 21.7086 230.844 21.1753 230.977 20.5886C231.137 19.9753 231.337 19.4153 231.577 18.9086C231.844 18.402 232.137 17.9753 232.457 17.6286C232.777 17.282 233.11 17.1086 233.457 17.1086C233.537 17.1086 233.657 17.1353 233.817 17.1886C234.004 17.242 234.19 17.322 234.377 17.4286C234.564 17.5353 234.724 17.6686 234.857 17.8286C235.017 17.9886 235.124 18.1753 235.177 18.3886C235.47 18.4153 235.764 18.522 236.057 18.7086C236.35 18.8953 236.51 19.042 236.537 19.1486C236.75 19.842 236.884 20.5353 236.937 21.2286C237.017 21.922 237.057 22.4953 237.057 22.9486ZM235.257 22.2286C235.257 21.8286 235.217 21.4153 235.137 20.9886C235.057 20.5353 234.897 20.082 234.657 19.6286C234.604 19.6553 234.537 19.6686 234.457 19.6686C234.35 19.6686 234.257 19.6553 234.177 19.6286C234.124 19.602 234.07 19.5886 234.017 19.5886C233.697 19.5886 233.444 19.682 233.257 19.8686C233.07 20.0286 232.924 20.2553 232.817 20.5486C232.737 20.8153 232.684 21.1086 232.657 21.4286C232.63 21.7486 232.617 22.0553 232.617 22.3486C232.617 22.642 232.63 22.9753 232.657 23.3486C232.684 23.6953 232.737 24.0286 232.817 24.3486C232.924 24.6686 233.057 24.9486 233.217 25.1886C233.377 25.402 233.59 25.5086 233.857 25.5086C234.124 25.5086 234.35 25.3753 234.537 25.1086C234.724 24.8153 234.87 24.482 234.977 24.1086C235.084 23.7353 235.15 23.3753 235.177 23.0286C235.23 22.6553 235.257 22.3886 235.257 22.2286ZM254.188 2.90862C254.214 2.96196 254.228 3.05529 254.228 3.18862C254.228 3.32195 254.228 3.46862 254.228 3.62862C254.228 3.81529 254.161 3.90862 254.028 3.90862C253.974 3.90862 253.908 3.89529 253.828 3.86862C253.748 3.84196 253.681 3.81529 253.628 3.78862C253.148 3.57529 252.561 3.30862 251.868 2.98862C251.201 2.64195 250.441 2.46862 249.588 2.46862C248.628 2.46862 247.854 2.82862 247.268 3.54862C246.681 4.26862 246.228 5.10862 245.908 6.06862C245.614 7.00196 245.414 7.92196 245.308 8.82862C245.228 9.73529 245.188 10.3886 245.188 10.7886C245.188 11.082 245.228 11.5486 245.308 12.1886C245.414 12.802 245.548 13.442 245.708 14.1086C245.868 14.7753 246.054 15.3886 246.268 15.9486C246.481 16.482 246.694 16.8153 246.908 16.9486C247.068 16.9486 247.348 16.9353 247.748 16.9086C248.174 16.882 248.521 16.8686 248.788 16.8686C249.241 16.8686 249.668 16.9086 250.068 16.9886C250.468 17.0686 250.881 17.1086 251.308 17.1086C251.414 17.1086 251.574 17.1086 251.788 17.1086C252.001 17.1086 252.214 17.122 252.428 17.1486C252.668 17.1753 252.868 17.2286 253.028 17.3086C253.188 17.362 253.268 17.442 253.268 17.5486C253.268 17.682 253.174 17.802 252.988 17.9086C252.801 18.0153 252.588 18.1086 252.348 18.1886C252.108 18.242 251.868 18.282 251.628 18.3086C251.388 18.3353 251.201 18.3486 251.068 18.3486C250.934 18.3486 250.761 18.3486 250.548 18.3486C250.334 18.322 250.094 18.2953 249.828 18.2686C249.588 18.242 249.348 18.2286 249.108 18.2286C248.894 18.202 248.708 18.1886 248.548 18.1886C248.121 18.1886 247.854 18.242 247.748 18.3486C247.668 18.4286 247.628 18.602 247.628 18.8686C247.628 19.2686 247.801 19.8153 248.148 20.5086C248.521 21.1753 248.921 21.8953 249.348 22.6686C249.774 23.442 250.161 24.242 250.508 25.0686C250.881 25.8953 251.068 26.6553 251.068 27.3486C251.068 27.482 251.028 27.7353 250.948 28.1086C250.894 28.4553 250.801 28.8153 250.668 29.1886C250.561 29.562 250.401 29.8953 250.188 30.1886C249.974 30.482 249.734 30.6286 249.468 30.6286C249.254 30.6286 249.054 30.5753 248.868 30.4686C248.708 30.3353 248.628 30.122 248.628 29.8286C248.628 29.402 248.734 29.002 248.948 28.6286C249.188 28.2553 249.308 27.8553 249.308 27.4286C249.308 27.2153 249.201 26.8553 248.988 26.3486C248.801 25.842 248.561 25.282 248.268 24.6686C247.974 24.0286 247.654 23.362 247.308 22.6686C246.961 21.9753 246.628 21.3486 246.308 20.7886C246.014 20.202 245.761 19.722 245.548 19.3486C245.334 18.9753 245.214 18.7753 245.188 18.7486C244.654 18.9353 244.108 19.122 243.548 19.3086C242.988 19.4953 242.481 19.7753 242.028 20.1486C241.841 20.3353 241.668 20.4286 241.508 20.4286C241.241 20.4286 240.988 20.322 240.748 20.1086C240.534 19.8953 240.428 19.6553 240.428 19.3886C240.428 19.0953 240.508 18.8686 240.668 18.7086C240.854 18.522 241.028 18.3886 241.188 18.3086C241.428 18.1753 241.801 18.0286 242.308 17.8686C242.814 17.7086 243.321 17.5753 243.828 17.4686C244.014 17.4153 244.188 17.3753 244.348 17.3486C244.508 17.2953 244.588 17.202 244.588 17.0686C244.508 16.802 244.388 16.4553 244.228 16.0286C244.094 15.5753 243.948 15.042 243.788 14.4286C243.654 13.8153 243.534 13.1353 243.428 12.3886C243.321 11.6153 243.268 10.7886 243.268 9.90862C243.268 8.94862 243.374 7.93529 243.588 6.86862C243.828 5.80195 244.188 4.82862 244.668 3.94862C245.174 3.04196 245.801 2.30862 246.548 1.74862C247.294 1.16196 248.188 0.868623 249.228 0.868623C249.708 0.868623 250.241 0.921955 250.828 1.02862C251.414 1.10862 251.948 1.24196 252.428 1.42862C252.934 1.58862 253.348 1.80196 253.668 2.06862C254.014 2.30862 254.188 2.58862 254.188 2.90862ZM259.093 13.1886C259.093 13.242 258.999 13.3486 258.813 13.5086C258.626 13.6686 258.399 13.842 258.133 14.0286C257.893 14.1886 257.639 14.3353 257.373 14.4686C257.106 14.602 256.893 14.6686 256.733 14.6686C256.626 14.6686 256.479 14.6686 256.293 14.6686C256.133 14.642 255.959 14.5886 255.773 14.5086C255.613 14.4286 255.466 14.322 255.333 14.1886C255.199 14.0286 255.133 13.8286 255.133 13.5886C255.133 13.2153 255.266 12.8686 255.533 12.5486C255.799 12.202 256.146 12.0286 256.573 12.0286C256.653 12.0286 256.826 12.0686 257.093 12.1486C257.386 12.202 257.679 12.282 257.973 12.3886C258.266 12.4953 258.519 12.6153 258.733 12.7486C258.973 12.882 259.093 13.0286 259.093 13.1886ZM260.413 28.1486C260.413 28.3353 260.266 28.4953 259.973 28.6286C259.706 28.762 259.506 28.8286 259.373 28.8286C259.106 28.8286 258.866 28.6553 258.653 28.3086C258.439 27.962 258.253 27.562 258.093 27.1086C257.933 26.6553 257.799 26.2286 257.693 25.8286C257.586 25.402 257.506 25.1086 257.453 24.9486C257.373 24.682 257.266 24.362 257.133 23.9886C256.999 23.6153 256.866 23.2553 256.733 22.9086C256.626 22.562 256.533 22.2553 256.453 21.9886C256.373 21.722 256.333 21.5753 256.333 21.5486C256.333 21.1753 256.399 20.8286 256.533 20.5086C256.693 20.1886 256.879 20.0286 257.093 20.0286C257.333 20.0286 257.586 20.2153 257.853 20.5886C258.119 20.962 258.373 21.442 258.613 22.0286C258.879 22.5886 259.119 23.2153 259.333 23.9086C259.546 24.5753 259.733 25.2153 259.893 25.8286C260.053 26.4153 260.173 26.9353 260.253 27.3886C260.359 27.8153 260.413 28.0686 260.413 28.1486ZM268.264 30.4286C268.264 30.642 268.184 30.802 268.024 30.9086C267.864 31.0153 267.677 31.0686 267.464 31.0686C267.224 31.0686 266.97 30.842 266.704 30.3886C266.464 29.9353 266.224 29.362 265.984 28.6686C265.744 27.9753 265.517 27.2286 265.304 26.4286C265.09 25.602 264.904 24.842 264.744 24.1486C264.584 23.4286 264.45 22.8286 264.344 22.3486C264.264 21.8686 264.224 21.602 264.224 21.5486C264.224 21.442 264.17 21.162 264.064 20.7086C263.984 20.2553 263.864 19.5486 263.704 18.5886C263.57 17.6286 263.41 16.3886 263.224 14.8686C263.064 13.322 262.89 11.4153 262.704 9.14862C262.704 8.90862 262.744 8.60195 262.824 8.22862C262.904 7.85529 263.09 7.66862 263.384 7.66862C263.757 7.66862 264.037 7.92195 264.224 8.42862C264.437 8.93529 264.597 9.56196 264.704 10.3086C264.837 11.0553 264.93 11.842 264.984 12.6686C265.037 13.4686 265.104 14.1753 265.184 14.7886C265.29 15.642 265.384 16.4153 265.464 17.1086C265.57 17.802 265.664 18.4953 265.744 19.1886C265.85 19.8553 265.97 20.562 266.104 21.3086C266.264 22.0553 266.45 22.882 266.664 23.7886L268.264 30.4286ZM282.501 27.3886C282.528 27.442 282.541 27.522 282.541 27.6286C282.541 27.7886 282.421 28.0286 282.181 28.3486C282.101 28.4553 281.928 28.6286 281.661 28.8686C281.395 29.1086 281.035 29.3486 280.581 29.5886C280.128 29.8286 279.568 30.042 278.901 30.2286C278.261 30.4153 277.501 30.5086 276.621 30.5086C276.008 30.5086 275.408 30.3753 274.821 30.1086C274.235 29.8153 273.715 29.402 273.261 28.8686C272.808 28.3086 272.435 27.6286 272.141 26.8286C271.848 26.002 271.701 25.042 271.701 23.9486C271.701 22.9086 271.835 21.9353 272.101 21.0286C272.368 20.122 272.701 19.322 273.101 18.6286C273.528 17.9353 273.995 17.3886 274.501 16.9886C275.008 16.5886 275.501 16.3886 275.981 16.3886C276.408 16.3886 276.835 16.482 277.261 16.6686C277.715 16.8286 278.115 17.042 278.461 17.3086C278.835 17.5753 279.128 17.882 279.341 18.2286C279.555 18.5486 279.661 18.882 279.661 19.2286C279.661 19.6286 279.475 20.042 279.101 20.4686C278.755 20.8953 278.328 21.2953 277.821 21.6686C277.315 22.0153 276.808 22.3086 276.301 22.5486C275.795 22.762 275.395 22.8686 275.101 22.8686C274.941 22.8686 274.795 22.802 274.661 22.6686C274.555 22.5086 274.501 22.322 274.501 22.1086C274.501 21.7353 274.661 21.442 274.981 21.2286C275.328 21.0153 275.701 20.8286 276.101 20.6686C276.501 20.482 276.861 20.2686 277.181 20.0286C277.528 19.7886 277.701 19.4553 277.701 19.0286C277.701 18.9753 277.635 18.842 277.501 18.6286C277.368 18.4153 277.008 18.3086 276.421 18.3086C276.155 18.3086 275.848 18.4686 275.501 18.7886C275.155 19.082 274.821 19.4953 274.501 20.0286C274.181 20.5353 273.915 21.1486 273.701 21.8686C273.488 22.562 273.381 23.322 273.381 24.1486C273.381 24.842 273.501 25.4686 273.741 26.0286C274.008 26.5886 274.341 27.0686 274.741 27.4686C275.141 27.842 275.608 28.1353 276.141 28.3486C276.675 28.562 277.221 28.6686 277.781 28.6686C278.181 28.6686 278.608 28.5886 279.061 28.4286C279.541 28.242 279.981 28.0553 280.381 27.8686C280.808 27.6553 281.168 27.4686 281.461 27.3086C281.781 27.122 281.981 27.0286 282.061 27.0286C282.141 27.0286 282.221 27.0686 282.301 27.1486C282.408 27.2286 282.475 27.3086 282.501 27.3886ZM288.207 25.3886C288.34 25.3886 288.473 25.4686 288.607 25.6286C288.767 25.7886 288.9 25.9753 289.007 26.1886C289.113 26.402 289.193 26.642 289.247 26.9086C289.327 27.1486 289.367 27.3486 289.367 27.5086C289.367 27.802 289.22 28.0553 288.927 28.2686C288.66 28.482 288.18 28.5886 287.487 28.5886C287.273 28.5886 287.047 28.522 286.807 28.3886C286.593 28.2553 286.487 28.0553 286.487 27.7886C286.487 27.7086 286.54 27.5486 286.647 27.3086C286.78 27.042 286.927 26.7753 287.087 26.5086C287.273 26.2153 287.46 25.962 287.647 25.7486C287.86 25.5086 288.047 25.3886 288.207 25.3886ZM288.767 20.4286C288.767 20.5886 288.687 20.7486 288.527 20.9086C288.367 21.042 288.18 21.1753 287.967 21.3086C287.78 21.4153 287.593 21.5086 287.407 21.5886C287.22 21.642 287.113 21.6686 287.087 21.6686C286.847 21.6686 286.66 21.6153 286.527 21.5086C286.42 21.3753 286.327 21.242 286.247 21.1086C286.193 20.9486 286.153 20.802 286.127 20.6686C286.127 20.5353 286.127 20.442 286.127 20.3886C286.127 20.282 286.153 20.1486 286.207 19.9886C286.26 19.802 286.34 19.6286 286.447 19.4686C286.553 19.3086 286.673 19.1753 286.807 19.0686C286.967 18.9353 287.14 18.8686 287.327 18.8686C287.673 18.8686 287.993 19.0153 288.287 19.3086C288.607 19.602 288.767 19.9753 288.767 20.4286Z" fill="#E40DB5"/>
</svg>
