<svg width="399" height="238" viewBox="0 0 399 238" fill="none" xmlns="http://www.w3.org/2000/svg">
<path d="M25.7098 210.269C42.2304 214.528 58.1087 218.536 73.9522 222.613C77.1169 223.409 79.3487 223.975 83.0625 225.761C85.8376 227.052 91.6494 229.946 89.3036 233.347C87.1411 235.97 85.3565 237.567 79.6461 236.828C64.9212 234.83 50.9405 230.248 37.0355 225.794C24.7606 221.85 15.4848 218.615 4.91304 214.345C-0.0241478 212.35 -0.436251 208.455 2.83679 203.355C5.77555 198.778 8.72886 194.034 12.2807 190.043C25.029 175.587 38.004 161.514 50.9383 147.244C52.5369 145.461 53.7054 143.977 55.8301 142.122C58.4197 139.9 60.2189 138.136 62.1744 140.22C64.0543 142.176 61.8509 146.265 60.4179 148.135C48.701 164.011 24.1164 196.381 23.1047 198.386C33.2677 196.399 42.675 194.8 52.1057 192.601C117.769 176.935 182.665 156.136 244.957 118.464C294.267 88.6451 340.578 53.1275 383.2 10.2329C385.728 7.71585 388.443 5.38466 391.088 3.19169C394.642 0.165857 396.86 -0.764376 398.063 1.00911C399.873 4.76678 397.821 7.4479 396.324 9.72176C393.385 14.2986 389.653 18.369 386.046 22.3302C337.393 74.8226 282.287 114.189 223.582 146.137C163.33 178.933 101.335 195.923 38.7209 207.071C35.4195 207.517 27.221 209.491 25.7098 210.269Z" fill="white"/>
</svg>
