<svg width="184" height="122" viewBox="0 0 184 122" fill="none" xmlns="http://www.w3.org/2000/svg">
<path fill-rule="evenodd" clip-rule="evenodd" d="M183.641 55.7194L179.221 55.0953C179.382 53.9513 179.465 52.7959 179.465 51.6299C179.465 50.4638 179.382 49.3085 179.221 48.1645L183.641 47.5404C183.832 48.8896 183.929 50.2534 183.929 51.6299C183.929 53.0064 183.832 54.3702 183.641 55.7194ZM181.421 39.6721C180.377 37.2285 179.02 34.8527 177.374 32.5586L173.747 35.1603C175.219 37.2134 176.41 39.307 177.316 41.4264L181.421 39.6721ZM172.028 26.3523L168.895 29.5328C167.166 27.8302 165.237 26.1774 163.117 24.5864L165.796 21.0156C168.063 22.7166 170.146 24.4985 172.028 26.3523ZM158.981 16.4722L156.702 20.3107C154.538 19.0258 152.241 17.801 149.82 16.6437L151.745 12.6159C154.28 13.8277 156.696 15.1152 158.981 16.4722ZM144.209 9.37396L142.602 13.5387C140.203 12.6128 137.713 11.7494 135.14 10.9537L136.459 6.68863C139.126 7.51343 141.713 8.41011 144.209 9.37396ZM128.552 4.51413L127.5 8.85284C124.972 8.24006 122.379 7.69022 119.729 7.20728L120.53 2.81533C123.262 3.31333 125.938 3.88084 128.552 4.51413ZM112.425 1.56574L111.863 5.99456C109.262 5.66466 106.617 5.39794 103.932 5.19761L104.264 0.745692C107.025 0.951702 109.747 1.2261 112.425 1.56574ZM96.0685 0.340736L95.9591 4.80369C94.635 4.77123 93.3032 4.75482 91.9644 4.75482C90.6256 4.75482 89.2938 4.77123 87.9698 4.80369L87.8603 0.340736C89.2209 0.30738 90.5891 0.290527 91.9644 0.290527C93.3397 0.290527 94.7079 0.30738 96.0685 0.340736ZM79.665 0.745691L79.9972 5.19761C77.3123 5.39794 74.6666 5.66466 72.0656 5.99456L71.5038 1.56574C74.1817 1.2261 76.904 0.951701 79.665 0.745691ZM63.3992 2.81533L64.1997 7.20728C61.5498 7.69022 58.9573 8.24006 56.4287 8.85283L55.3773 4.51413C57.9905 3.88084 60.6667 3.31333 63.3992 2.81533ZM47.47 6.68863L48.7888 10.9537C46.2155 11.7494 43.7257 12.6128 41.3273 13.5387L39.7195 9.37396C42.2162 8.4101 44.8025 7.51343 47.47 6.68863ZM32.1839 12.6159L34.1091 16.6437C31.6879 17.801 29.3907 19.0258 27.227 20.3107L24.9476 16.4722C27.2327 15.1152 29.6485 13.8277 32.1839 12.6159ZM18.1326 21.0156L20.812 24.5864C18.6917 26.1774 16.7624 27.8302 15.0338 29.5328L11.901 26.3523C13.7831 24.4985 15.8658 22.7166 18.1326 21.0156ZM6.55435 32.5586L10.1822 35.1603C8.70986 37.2133 7.51861 39.307 6.61288 41.4264L2.50772 39.6721C3.55198 37.2285 4.90917 34.8527 6.55435 32.5586ZM0.287499 47.5404C0.0970366 48.8896 0 50.2534 0 51.6299C0 53.0064 0.0970363 54.3702 0.287498 55.7194L4.70796 55.0953C4.54645 53.9513 4.46429 52.7959 4.46429 51.6299C4.46429 50.4638 4.54645 49.3085 4.70796 48.1645L0.287499 47.5404ZM2.50772 63.5876L6.61288 61.8333C7.5186 63.9528 8.70986 66.0464 10.1822 68.0995L6.55434 70.7012C4.90917 68.4071 3.55197 66.0312 2.50772 63.5876ZM11.901 76.9075L15.0338 73.727C16.7624 75.4296 18.6917 77.0824 20.812 78.6733L18.1326 82.2441C15.8658 80.5432 13.7831 78.7613 11.901 76.9075ZM24.9476 86.7876C27.2327 88.1445 29.6485 89.4321 32.1839 90.6439L34.1091 86.6161C31.6879 85.4588 29.3907 84.2339 27.227 82.9491L24.9476 86.7876ZM39.7195 93.8858L41.3273 89.7211C43.7257 90.647 46.2155 91.5104 48.7888 92.3061L47.47 96.5711C44.8025 95.7463 42.2162 94.8497 39.7195 93.8858ZM55.3773 98.7457L56.4287 94.4069C58.9573 95.0197 61.5498 95.5696 64.1996 96.0525L63.3992 100.444C60.6667 99.9464 57.9905 99.3789 55.3773 98.7457ZM71.5038 101.694L72.0656 97.2652C74.6666 97.5951 77.3123 97.8618 79.9972 98.0622L79.665 102.514C76.904 102.308 74.1817 102.034 71.5038 101.694ZM87.8603 102.919L87.9698 98.4561C89.2938 98.4885 90.6256 98.505 91.9644 98.505C93.3032 98.505 94.635 98.4885 95.9591 98.4561L96.0685 102.919C94.7079 102.952 93.3397 102.969 91.9644 102.969C90.5891 102.969 89.2209 102.952 87.8603 102.919ZM104.264 102.514L103.932 98.0622C106.617 97.8618 109.262 97.5951 111.863 97.2652L112.425 101.694C109.747 102.034 107.025 102.308 104.264 102.514ZM120.53 100.444L119.729 96.0525C122.379 95.5696 124.972 95.0197 127.5 94.4069L128.552 98.7457C125.938 99.3789 123.262 99.9464 120.53 100.444ZM136.459 96.5711L135.14 92.3061C137.713 91.5104 140.203 90.647 142.602 89.7211L144.209 93.8858C141.713 94.8497 139.126 95.7463 136.459 96.5711ZM165.796 82.2442L163.117 78.6733C165.237 77.0824 167.166 75.4296 168.895 73.727L172.028 76.9075C170.146 78.7613 168.063 80.5432 165.796 82.2442ZM177.374 70.7012L173.747 68.0995C175.219 66.0464 176.41 63.9528 177.316 61.8334L181.421 63.5877C180.377 66.0313 179.02 68.4071 177.374 70.7012Z" fill="#0BD1EC"/>
<path fill-rule="evenodd" clip-rule="evenodd" d="M171.878 114.133L171.534 109.819L170.696 109.34L169.815 110.882L168.044 111.023L168.121 111.985L171.878 114.133ZM163.011 109.063L164.785 105.96L158.874 102.579L157.099 105.683L163.011 109.063ZM151.188 102.302L152.962 99.1992L147.051 95.8189L145.277 98.9221L151.188 102.302ZM169.446 83.5871L165.883 83.8707L166.423 90.6587L169.987 90.3751L169.446 83.5871ZM170.527 97.1632L166.964 97.4468L167.504 104.235L171.067 103.951L170.527 97.1632Z" fill="#0BD1EC"/>
</svg>
