<svg width="55" height="51" viewBox="0 0 55 51" fill="none" xmlns="http://www.w3.org/2000/svg">
<path fill-rule="evenodd" clip-rule="evenodd" d="M11.0001 47.8559C11.0114 46.8205 11.9246 45.9896 13.0397 46.0001C22.263 46.0871 31.4498 46.5781 40.6021 47.0672C41.767 47.1294 42.9314 47.1916 44.0952 47.253C45.2086 47.3117 46.0599 48.1974 45.9967 49.2313C45.9335 50.2651 44.9796 51.0556 43.8663 50.9969C42.6995 50.9354 41.5342 50.8732 40.3701 50.811C31.2066 50.3214 22.1197 49.8359 12.9987 49.7499C11.8836 49.7393 10.9888 48.8914 11.0001 47.8559Z" fill="#D80EDC"/>
<path fill-rule="evenodd" clip-rule="evenodd" d="M54.9414 23.5543C55.2048 24.6508 54.5557 25.7597 53.4914 26.0312C51.4829 26.5434 49.4757 27.0529 47.4702 27.562C35.749 30.5372 24.0826 33.4985 12.5344 36.9198C11.4807 37.232 10.3808 36.605 10.0778 35.5194C9.77482 34.4338 10.3834 33.3007 11.4371 32.9885C23.065 29.5436 34.8148 26.5612 46.5329 23.5869C48.5355 23.0786 50.5372 22.5705 52.5372 22.0604C53.6015 21.789 54.6779 22.4578 54.9414 23.5543Z" fill="#D80EDC"/>
<path fill-rule="evenodd" clip-rule="evenodd" d="M30.5683 0.723125C31.2416 1.56018 31.1132 2.78806 30.2815 3.46568L3.15662 25.5656C2.32493 26.2432 1.10492 26.1139 0.431651 25.2769C-0.241621 24.4398 -0.113199 23.2119 0.71849 22.5343L27.8434 0.434435C28.6751 -0.24318 29.8951 -0.113929 30.5683 0.723125Z" fill="#D80EDC"/>
</svg>
