<svg width="116" height="126" viewBox="0 0 116 126" fill="none" xmlns="http://www.w3.org/2000/svg">
<path fill-rule="evenodd" clip-rule="evenodd" d="M18.7168 3.68058C19.889 3.35459 21.1014 4.0483 21.4248 5.23003C22.4529 8.98736 22.7717 12.7952 22.9261 16.4783C22.9782 17.7226 23.0117 18.9353 23.0446 20.1294C23.1115 22.5534 23.1763 24.9007 23.3908 27.2794C23.5009 28.5002 22.6084 29.5799 21.3974 29.6908C20.1864 29.8018 19.1154 28.9021 19.0054 27.6813C18.7785 25.1654 18.7064 22.5759 18.6368 20.0725C18.6046 18.9132 18.5728 17.7722 18.5265 16.6656C18.3763 13.0822 18.0733 9.67577 17.1798 6.41057C16.8564 5.22884 17.5446 4.00658 18.7168 3.68058Z" fill="#0BD1EC"/>
<path fill-rule="evenodd" clip-rule="evenodd" d="M4.49865 4.80635C4.47007 3.59124 5.43194 2.58303 6.64705 2.55445L31.3442 1.97354C32.5593 1.94496 33.5675 2.90684 33.5961 4.12195C33.6247 5.33706 32.6628 6.34527 31.4477 6.37385L6.75055 6.95476C5.53544 6.98334 4.52723 6.02147 4.49865 4.80635Z" fill="#0BD1EC"/>
<path fill-rule="evenodd" clip-rule="evenodd" d="M41.5324 0.941811C42.6507 1.17826 43.38 2.34963 43.1612 3.55813C42.8049 5.52595 42.5163 7.50346 42.2209 9.52762C42.195 9.70479 42.1691 9.88231 42.1431 10.0602C41.8223 12.2545 41.4869 14.4996 41.0497 16.7437C40.6546 18.7718 40.1852 20.5636 39.7436 22.2498C39.6841 22.4769 39.6251 22.7021 39.5669 22.9257C39.0721 24.8253 38.6216 26.6442 38.2989 28.7364C38.1116 29.9511 37.0485 30.7717 35.9244 30.5692C34.8004 30.3668 34.041 29.218 34.2283 28.0033C34.5899 25.659 35.0922 23.6461 35.5945 21.7176C35.6544 21.4872 35.7143 21.2585 35.7739 21.0308C36.2175 19.3361 36.6473 17.6944 37.0115 15.825C37.4246 13.7046 37.7457 11.5616 38.0669 9.36431C38.0933 9.18365 38.1197 9.00256 38.1462 8.82109C38.4394 6.81165 38.7396 4.75445 39.1112 2.70188C39.33 1.49337 40.414 0.705364 41.5324 0.941811Z" fill="#0BD1EC"/>
<path fill-rule="evenodd" clip-rule="evenodd" d="M41.307 0.943983C42.4605 0.704482 43.5858 1.46492 43.8204 2.64247C44.0727 3.90869 44.6918 5.01162 45.5274 6.49997C45.6079 6.64348 45.6905 6.79057 45.775 6.94173C47.9827 10.8935 50.291 14.7057 52.8861 18.3313C53.9287 19.788 54.5563 21.2398 55.0831 22.4586C55.1236 22.5524 55.1636 22.6448 55.2031 22.7357C55.7701 24.0411 56.2651 25.1011 57.1059 26.1311C57.8595 27.0543 57.7373 28.4263 56.833 29.1955C55.9287 29.9648 54.5848 29.8401 53.8312 28.917C52.5798 27.3839 51.8863 25.8351 51.3062 24.4995C51.2756 24.4291 51.2454 24.3593 51.2154 24.2902C50.6632 23.0168 50.2064 21.9634 49.4443 20.8986C46.7222 17.0957 44.3263 13.1325 42.0721 9.09754C41.9869 8.94502 41.8978 8.78778 41.8062 8.62594C41.0199 7.2375 40.0417 5.51009 39.6432 3.50978C39.4085 2.33223 40.1535 1.18348 41.307 0.943983Z" fill="#0BD1EC"/>
<path fill-rule="evenodd" clip-rule="evenodd" d="M52.1967 18.115C52.2632 19.2297 51.2924 20.1809 50.0284 20.2396C48.0546 20.3312 46.4804 20.599 44.7732 20.8893C44.6951 20.9026 44.6168 20.9159 44.5381 20.9292C42.7407 21.2344 40.8003 21.5505 38.3436 21.5994C37.0781 21.6246 36.0291 20.7404 36.0005 19.6244C35.9719 18.5084 36.9746 17.5833 38.24 17.558C40.2881 17.5172 41.91 17.2588 43.6716 16.9597C43.7659 16.9437 43.8606 16.9276 43.9559 16.9113C45.6395 16.6246 47.49 16.3094 49.7875 16.2028C51.0515 16.1441 52.1301 17.0002 52.1967 18.115Z" fill="#0BD1EC"/>
<path fill-rule="evenodd" clip-rule="evenodd" d="M60.0486 0.0899897C61.1928 -0.25145 62.3944 0.408591 62.7325 1.56423C63.4318 3.95497 63.9193 6.38011 64.3566 8.73763C64.4587 9.28792 64.5577 9.83238 64.6558 10.3721C64.9839 12.1762 65.3024 13.9278 65.6942 15.669C66.3705 18.6744 66.8001 20.4854 67.304 22.6101C67.6019 23.8659 67.9258 25.2314 68.342 27.0179C68.6152 28.1909 67.8953 29.3655 66.7339 29.6415C65.5725 29.9175 64.4095 29.1903 64.1363 28.0174C63.7286 26.2674 63.4072 24.9121 63.1096 23.6575C62.6009 21.5124 62.1619 19.6617 61.4811 16.6361C61.0673 14.7969 60.7268 12.9239 60.3958 11.1033C60.3002 10.5776 60.2054 10.0562 60.1099 9.54125C59.6777 7.2112 59.2228 4.96747 58.589 2.80069C58.2509 1.64505 58.9044 0.431429 60.0486 0.0899897Z" fill="#0BD1EC"/>
<path fill-rule="evenodd" clip-rule="evenodd" d="M62.744 4.24996C62.0553 4.25224 61.3623 4.25455 60.6623 4.25455C59.4681 4.25455 58.5 3.30416 58.5 2.1318C58.5 0.959434 59.4681 0.00904713 60.6623 0.00904713C61.3304 0.00904713 62.0056 0.00681387 62.6851 0.00456644C64.2741 -0.000689104 65.8863 -0.00602174 67.4858 0.0169474C69.1112 0.0402879 71.2679 0.10767 73.2107 0.888638C74.6446 1.46502 75.9936 2.57925 76.924 3.84815C77.8273 5.08016 78.6193 6.86309 78.1706 8.74009C77.8095 10.2505 76.6323 11.182 75.8563 11.7018C75.4291 11.9879 74.9882 12.2353 74.6213 12.4367C74.5315 12.4859 74.4479 12.5316 74.3693 12.5745C74.098 12.7225 73.8872 12.8376 73.6963 12.9534C72.3057 13.7974 70.8762 14.5029 69.4869 15.1667C69.1069 15.3483 68.6602 15.5029 68.307 15.6218C68.1822 15.6638 68.0637 15.7031 67.9493 15.7411C67.6933 15.826 67.4574 15.9043 67.2155 15.9915C66.8748 16.1144 66.6394 16.2148 66.4912 16.2947C65.8419 17.1019 64.6727 17.3468 63.7321 16.825C62.6924 16.2484 62.3257 14.9534 62.9131 13.9327C63.33 13.2084 64.001 12.7963 64.3831 12.5878C64.8267 12.3458 65.3134 12.1546 65.7242 12.0064C66.0223 11.8989 66.3448 11.7919 66.6216 11.7001C66.7229 11.6665 66.8182 11.6349 66.9038 11.606C67.2742 11.4813 67.4841 11.402 67.5942 11.3494C68.9646 10.6946 70.2284 10.0669 71.4221 9.34238C71.7076 9.16908 72.0351 8.99058 72.3185 8.83612C72.3855 8.79962 72.45 8.76446 72.5109 8.73103C72.862 8.53832 73.1607 8.36777 73.4189 8.19481C73.8241 7.92339 73.9424 7.76666 73.9672 7.73385C73.9962 7.53012 73.9323 7.03515 73.4141 6.3284C72.8891 5.61232 72.1556 5.05211 71.572 4.81753C70.4774 4.3775 69.0904 4.28594 67.4226 4.26199C65.8634 4.2396 64.3148 4.24474 62.744 4.24996ZM66.3974 16.3519C66.3967 16.3517 66.404 16.346 66.4212 16.3352C66.4067 16.3466 66.3981 16.352 66.3974 16.3519Z" fill="#0BD1EC"/>
<path fill-rule="evenodd" clip-rule="evenodd" d="M5.09302 45.0062C6.29805 44.8474 7.40365 45.6955 7.56244 46.9006C7.91076 49.5439 8.39754 52.1706 8.89764 54.8693C9.11363 56.0348 9.3321 57.2137 9.54298 58.4131C10.2313 62.3282 10.819 66.3702 10.8377 70.4436C10.8433 71.659 9.86251 72.6488 8.64707 72.6544C7.43164 72.66 6.4418 71.6792 6.43622 70.4638C6.41926 66.7741 5.88552 63.0293 5.20794 59.1753C5.01263 58.0644 4.80351 56.9356 4.59249 55.7966C4.08311 53.0472 3.56266 50.2381 3.19864 47.4756C3.03985 46.2706 3.88799 45.165 5.09302 45.0062Z" fill="#0BD1EC"/>
<path fill-rule="evenodd" clip-rule="evenodd" d="M19.0644 62.8131C18.0089 62.4657 17.1097 62.4999 15.484 62.6301C13.2933 62.8056 11.0276 62.6359 8.98065 62.4825C8.36262 62.4362 7.76452 62.3914 7.19446 62.3581C5.98109 62.2871 5.05501 61.2459 5.12601 60.0325C5.19701 58.8191 6.2382 57.8931 7.45157 57.9641C8.18206 58.0068 8.88239 58.0589 9.56128 58.1093C11.5274 58.2555 13.3138 58.3883 15.1326 58.2426C16.736 58.1142 18.4505 57.9773 20.4402 58.6321C21.5948 59.012 22.2227 60.256 21.8428 61.4105C21.4629 62.565 20.2189 63.193 19.0644 62.8131Z" fill="#0BD1EC"/>
<path fill-rule="evenodd" clip-rule="evenodd" d="M18.8264 44.2943C20.0235 44.0838 21.1646 44.8836 21.3751 46.0806C22.3573 51.6654 23.6023 57.0802 25.3187 62.484C25.4809 62.9947 25.6614 63.5279 25.8482 64.08C26.5603 66.184 27.3651 68.5618 27.6052 71.0114C27.7238 72.2211 26.8394 73.2978 25.6297 73.4164C24.4201 73.535 23.3433 72.6505 23.2247 71.4409C23.0386 69.5428 22.4511 67.7979 21.7694 65.773C21.56 65.1514 21.3418 64.5034 21.1237 63.8164C19.3357 58.1871 18.0483 52.5758 17.0401 46.843C16.8296 45.6459 17.6294 44.5049 18.8264 44.2943Z" fill="#0BD1EC"/>
<path fill-rule="evenodd" clip-rule="evenodd" d="M30.0735 44.4248C31.2723 44.2242 32.4067 45.0334 32.6073 46.2321C33.2888 50.3042 33.76 54.3603 34.227 58.3786C34.3418 59.3671 34.4564 60.3533 34.5738 61.3368C34.6158 61.6892 34.6592 62.0451 34.703 62.4039C34.8986 64.0081 35.1013 65.6705 35.223 67.3385C35.2295 67.4273 35.2319 67.5127 35.2329 67.5812C35.4417 67.617 35.6775 67.651 35.935 67.6826C36.4387 67.7444 36.9626 67.7899 37.4304 67.8264C37.5528 67.836 37.679 67.8454 37.8028 67.8546C38.1084 67.8775 38.3996 67.8993 38.5841 67.919C41.0794 68.1859 43.5151 67.9121 45.9448 67.2018C47.1114 66.8607 48.3336 67.5299 48.6747 68.6965C49.0158 69.8632 48.3466 71.0854 47.1799 71.4264C44.2681 72.2778 41.2521 72.631 38.116 72.2956C38.0033 72.2835 37.832 72.2707 37.584 72.2522C37.4442 72.2418 37.2799 72.2296 37.0881 72.2146C36.5993 72.1765 35.9993 72.1251 35.3987 72.0514C34.8115 71.9793 34.1566 71.8781 33.5771 71.7268C33.2887 71.6514 32.959 71.5485 32.6412 71.4019C32.3645 71.2742 31.8739 71.0147 31.4862 70.5201C31.0967 70.0232 30.9713 69.4856 30.9216 69.2298C30.862 68.9231 30.843 68.6285 30.8353 68.4128C30.8276 68.1951 30.8296 67.9857 30.8309 67.8451L30.831 67.8359C30.8324 67.6907 30.8317 67.648 30.8322 67.648C30.8324 67.6479 30.8326 67.6521 30.8331 67.6586C30.72 66.1075 30.5333 64.5749 30.3386 62.977C30.2937 62.608 30.2483 62.2354 30.2033 61.8584C30.0823 60.8444 29.9653 59.8379 29.8489 58.8369C29.3831 54.8294 28.9276 50.911 28.2662 46.9586C28.0655 45.7598 28.8747 44.6254 30.0735 44.4248Z" fill="#0BD1EC"/>
<path fill-rule="evenodd" clip-rule="evenodd" d="M43.6069 57.0878C44.1238 58.1878 43.651 59.4986 42.551 60.0155C40.7904 60.8428 38.6261 60.9837 36.7928 60.9509C35.1554 60.9217 33.4981 60.7413 32.2168 60.6018C32.023 60.5807 31.8377 60.5606 31.6625 60.542C30.4538 60.414 29.5778 59.3304 29.7058 58.1217C29.8338 56.913 30.9174 56.037 32.1261 56.165C32.3186 56.1854 32.5152 56.2067 32.7153 56.2283C34.0093 56.3686 35.4499 56.5247 36.8714 56.5501C38.5646 56.5804 39.8752 56.4096 40.6791 56.0319C41.7792 55.515 43.09 55.9877 43.6069 57.0878Z" fill="#0BD1EC"/>
<path fill-rule="evenodd" clip-rule="evenodd" d="M47.695 45.9062C47.7529 47.1202 46.8157 48.1514 45.6016 48.2093C40.4205 48.4564 35.4346 48.227 30.3168 47.6379C29.1093 47.4989 28.2431 46.4074 28.3821 45.1999C28.5211 43.9924 29.6126 43.1263 30.8201 43.2653C35.7377 43.8313 40.4827 44.0469 45.3919 43.8128C46.606 43.7549 47.6371 44.6921 47.695 45.9062Z" fill="#0BD1EC"/>
<path fill-rule="evenodd" clip-rule="evenodd" d="M51.7446 43.2749C52.8972 42.8892 54.1443 43.5109 54.53 44.6635C55.7253 48.235 56.4456 52.8606 57.0435 57.3936C57.2047 58.6159 57.3571 59.8318 57.5071 61.0284C57.9255 64.3664 58.325 67.5538 58.8441 70.3085C59.0692 71.5029 58.2834 72.6536 57.0889 72.8787C55.8945 73.1038 54.7438 72.318 54.5187 71.1236C53.9723 68.2241 53.5473 64.8327 53.1235 61.4503C52.9771 60.2819 52.8308 59.1147 52.6797 57.9691C52.0782 53.4082 51.3995 49.1783 50.356 46.0604C49.9703 44.9077 50.592 43.6607 51.7446 43.2749Z" fill="#0BD1EC"/>
<path fill-rule="evenodd" clip-rule="evenodd" d="M55.099 47.5503C54.104 47.6099 53.0485 47.6468 52.1912 47.5481C50.9837 47.4091 50.1175 46.3176 50.2565 45.1101C50.3955 43.9027 51.487 43.0365 52.6945 43.1755C53.1282 43.2254 53.8364 43.2165 54.8358 43.1566C55.3912 43.1234 55.9252 43.0829 56.4891 43.0402C56.973 43.0036 57.4789 42.9652 58.0393 42.9284C59.1628 42.8544 60.3546 42.7989 61.4445 42.838C62.4806 42.8752 63.6755 43.002 64.6725 43.4406C65.6201 43.8576 66.8371 44.4115 67.7078 45.4846C68.648 46.6434 68.9415 48.0647 68.9556 49.6629C68.9737 51.7049 67.9971 53.2163 66.6742 54.2156C65.4454 55.1436 63.9258 55.6373 62.6131 55.9318C61.2695 56.2333 59.9191 56.372 58.9153 56.4652C58.7811 56.4777 58.6558 56.4891 58.5386 56.4997C58.1934 56.5311 57.9174 56.5563 57.6846 56.5836C57.565 56.5976 57.4842 56.6093 57.4328 56.6179C56.3781 56.9942 55.19 56.5144 54.7039 55.48C54.187 54.3799 54.6598 53.0691 55.7598 52.5522C56.0816 52.4011 56.3989 52.3342 56.5631 52.3025C56.7641 52.2637 56.976 52.235 57.1715 52.2121C57.4668 52.1774 57.8253 52.1448 58.1877 52.1119C58.2948 52.1021 58.4023 52.0924 58.5086 52.0825C59.495 51.991 60.6028 51.8719 61.6495 51.6371C62.7273 51.3953 63.5304 51.0741 64.0213 50.7033C64.4181 50.4037 64.5581 50.1322 64.5543 49.7018C64.5443 48.575 64.3364 48.3153 64.2899 48.2579C64.1738 48.1149 63.9184 47.9176 62.8998 47.4694C62.6983 47.3807 62.1988 47.2694 61.2867 47.2367C60.4284 47.2059 59.4184 47.2486 58.3284 47.3204C57.8859 47.3495 57.3912 47.3866 56.8937 47.4239C56.2668 47.4708 55.6356 47.5181 55.099 47.5503ZM57.3718 56.6299C57.3715 56.6298 57.3775 56.6282 57.3907 56.6256C57.3787 56.6287 57.372 56.63 57.3718 56.6299Z" fill="#0BD1EC"/>
<path fill-rule="evenodd" clip-rule="evenodd" d="M57.0403 55.0469C57.8032 54.1007 59.1887 53.9522 60.1349 54.7151C63.7601 57.6382 66.8697 60.678 69.9815 63.7199C71.4034 65.1099 72.8258 66.5004 74.2981 67.8804C75.1848 68.7116 75.2299 70.1043 74.3987 70.9911C73.5675 71.8779 72.1748 71.9229 71.288 71.0917C69.6708 69.5759 68.1775 68.1154 66.7228 66.6926C63.6941 63.7304 60.8331 60.9322 57.3721 58.1415C56.4259 57.3786 56.2774 55.9931 57.0403 55.0469Z" fill="#0BD1EC"/>
<path fill-rule="evenodd" clip-rule="evenodd" d="M78.7967 44.8067C79.9991 44.6289 81.1179 45.4596 81.2956 46.662C81.823 50.2304 82.4631 53.7909 83.121 57.3828C83.1958 57.7912 83.2708 58.2001 83.3459 58.6095C83.8289 61.241 84.3154 63.8917 84.7623 66.5521C85.7521 66.4537 87.0665 66.2486 88.4659 65.999C89.9454 65.7351 91.4614 65.4324 92.6879 65.1818C93.0211 65.1137 93.3415 65.0477 93.6372 64.9867C94.3823 64.8331 94.9711 64.7117 95.2152 64.6714C96.4145 64.4736 97.547 65.2855 97.7447 66.4848C97.9425 67.684 97.1306 68.8165 95.9314 69.0143C95.7782 69.0395 95.3564 69.1265 94.7125 69.2593C94.3863 69.3265 94.0031 69.4056 93.5689 69.4943C92.3312 69.7471 90.7727 70.0586 89.2386 70.3322C87.7195 70.6031 86.1644 70.8479 84.9531 70.955C84.3663 71.0069 83.7474 71.0376 83.22 70.9917C82.9743 70.9703 82.5832 70.9205 82.1847 70.7567C81.8425 70.616 80.885 70.1243 80.6907 68.9167C80.181 65.7483 79.6014 62.5901 79.0168 59.4043C78.9417 58.9953 78.8665 58.5858 78.7914 58.1757C78.1334 54.5829 77.481 50.9563 76.9414 47.3056C76.7637 46.1032 77.5943 44.9844 78.7967 44.8067ZM83.5754 66.6037C83.5756 66.6036 83.5817 66.6041 83.5928 66.606C83.5807 66.6048 83.5752 66.6039 83.5754 66.6037Z" fill="#0BD1EC"/>
<path fill-rule="evenodd" clip-rule="evenodd" d="M91.1752 53.5811C91.6921 54.6812 91.2194 55.992 90.1193 56.5089C89.2406 56.9218 88.2475 57.0136 87.5867 57.055C87.1747 57.0808 86.8797 57.0901 86.627 57.098C86.3316 57.1072 86.0943 57.1146 85.796 57.1446C84.1987 57.3054 83.1095 57.712 81.394 58.4432C80.2758 58.9197 78.9831 58.3996 78.5065 57.2815C78.03 56.1634 78.5501 54.8706 79.6682 54.3941C81.4814 53.6213 83.072 52.995 85.3553 52.7652C85.711 52.7294 86.0795 52.7136 86.3977 52.7016C86.4639 52.6991 86.5281 52.6967 86.5907 52.6944C86.8495 52.685 87.0804 52.6766 87.3113 52.6621C87.5934 52.6444 87.8166 52.6207 87.9939 52.5889C88.08 52.5735 88.1438 52.5581 88.189 52.5449C88.2302 52.5329 88.248 52.5249 88.2481 52.525C88.2481 52.525 88.2479 52.525 88.2475 52.5252C89.3475 52.0083 90.6583 52.4811 91.1752 53.5811Z" fill="#0BD1EC"/>
<path fill-rule="evenodd" clip-rule="evenodd" d="M89.7447 42.4902C90.7417 43.1855 90.9863 44.5573 90.291 45.5542C89.7832 46.2825 89.0567 46.6275 88.6073 46.797C88.114 46.9831 87.6002 47.0866 87.1793 47.1519C86.7465 47.219 86.3191 47.2589 85.9807 47.2882C85.8963 47.2955 85.8204 47.3019 85.7519 47.3077C85.5099 47.3282 85.36 47.3409 85.2477 47.3563C83.4808 47.5987 81.6466 47.6795 79.9318 47.755C79.2108 47.7867 78.5108 47.8175 77.8458 47.859C76.6327 47.9348 75.5879 47.0128 75.5122 45.7997C75.4364 44.5866 76.3584 43.5418 77.5715 43.4661C78.4139 43.4135 79.2102 43.3788 79.9799 43.3452C81.5928 43.2749 83.0891 43.2097 84.6496 42.9956C84.8873 42.963 85.1913 42.9375 85.4467 42.9161C85.501 42.9116 85.5531 42.9072 85.602 42.903C85.9248 42.8751 86.228 42.8453 86.505 42.8023C86.7124 42.7702 86.8611 42.737 86.9599 42.709C87.7013 41.9942 88.868 41.8788 89.7447 42.4902ZM87.0877 42.6641C87.0882 42.6643 87.081 42.6681 87.0644 42.6747C87.0788 42.6671 87.0872 42.6638 87.0877 42.6641Z" fill="#0BD1EC"/>
<path fill-rule="evenodd" clip-rule="evenodd" d="M0.173186 113.879C0.647015 112.734 1.94709 112.195 3.07699 112.675C9.47922 115.395 15.969 117.918 22.4887 120.453C23.5176 120.853 24.5472 121.253 25.5773 121.654C26.7209 122.1 27.2914 123.4 26.8515 124.559C26.4117 125.717 25.1281 126.295 23.9845 125.85C22.9601 125.45 21.9339 125.052 20.9067 124.652C14.3911 122.119 7.83121 119.569 1.36111 116.821C0.231208 116.341 -0.300642 115.024 0.173186 113.879Z" fill="#0BD1EC"/>
<path fill-rule="evenodd" clip-rule="evenodd" d="M59.5281 98.1201C60.747 97.9584 61.8691 98.7944 62.0343 99.9875C62.3155 102.017 62.7285 104.077 63.1595 106.227C63.3375 107.115 63.5186 108.018 63.6947 108.94C64.284 112.027 64.8 115.257 64.8 118.42C64.8 119.624 63.8029 120.6 62.5728 120.6C61.3428 120.6 60.3457 119.624 60.3457 118.42C60.3457 115.68 59.8961 112.779 59.3162 109.741C59.1572 108.908 58.9867 108.058 58.8145 107.199C58.3731 104.997 57.9204 102.739 57.6204 100.573C57.4552 99.3802 58.3093 98.2819 59.5281 98.1201Z" fill="#0BD1EC"/>
<path fill-rule="evenodd" clip-rule="evenodd" d="M113.696 101.825C114.867 102.227 115.483 103.484 115.073 104.632C112.855 110.831 109.937 116.386 105.703 121.573C104.927 122.523 103.513 122.677 102.544 121.917C101.574 121.157 101.417 119.771 102.193 118.821C106.058 114.085 108.751 108.989 110.831 103.175C111.242 102.026 112.524 101.422 113.696 101.825Z" fill="#0BD1EC"/>
</svg>
