<svg width="105" height="70" viewBox="0 0 105 70" fill="none" xmlns="http://www.w3.org/2000/svg">
<path fill-rule="evenodd" clip-rule="evenodd" d="M7.24076 2.23999C8.3449 2.23999 9.23999 3.13115 9.23999 4.23044C9.23999 11.2971 8.74908 17.6539 7.65701 24.6125C7.34097 26.6263 7.35214 28.6437 7.36434 30.8471C7.36674 31.2803 7.36917 31.7206 7.36917 32.1695C7.36917 33.2688 6.47409 34.16 5.36995 34.16C4.26581 34.16 3.37073 33.2688 3.37073 32.1695C3.37073 31.771 3.36813 31.3643 3.36549 30.9511C3.35141 28.7487 3.33613 26.3579 3.7065 23.9979C4.76631 17.2449 5.24154 11.0936 5.24154 4.23044C5.24154 3.13115 6.13662 2.23999 7.24076 2.23999Z" fill="#0BD1EC"/>
<path fill-rule="evenodd" clip-rule="evenodd" d="M20.6698 16.6766C21.2717 17.7047 21.0277 19.0936 20.1248 19.779C19.2032 20.4786 18.2512 20.6648 17.47 20.7084C17.0887 20.7297 16.7192 20.718 16.4103 20.7054C16.3425 20.7026 16.2781 20.6999 16.2161 20.6972C15.9744 20.6868 15.7714 20.6781 15.562 20.6781H6.16475C5.07962 20.6781 4.19995 19.6765 4.19995 18.4409C4.19995 17.2054 5.07962 16.2038 6.16475 16.2038H15.562C15.8534 16.2038 16.1487 16.2166 16.3961 16.2274C16.4502 16.2297 16.5019 16.232 16.5509 16.234C16.8473 16.246 17.0747 16.2508 17.2776 16.2395C17.665 16.2179 17.8313 16.1425 17.9451 16.0561C18.8479 15.3708 20.0678 15.6486 20.6698 16.6766Z" fill="#0BD1EC"/>
<path fill-rule="evenodd" clip-rule="evenodd" d="M18.9 3.08008C20.0598 3.08008 21 3.99076 21 5.11414V31.286C21 32.4094 20.0598 33.3201 18.9 33.3201C17.7403 33.3201 16.8 32.4094 16.8 31.286V5.11414C16.8 3.99076 17.7403 3.08008 18.9 3.08008Z" fill="#0BD1EC"/>
<path fill-rule="evenodd" clip-rule="evenodd" d="M27.9201 2.23999C28.9585 2.23999 29.8002 3.12537 29.8002 4.21755C29.8002 8.43314 29.9094 12.6732 30.0194 16.9299L30.0209 16.9872C30.1303 21.2156 30.24 25.4612 30.24 29.6624C30.24 30.7546 29.3983 31.64 28.36 31.64C27.3216 31.64 26.4799 30.7546 26.4799 29.6624C26.4799 25.5151 26.3713 21.3146 26.2614 17.0677L26.2606 17.0374C26.1508 12.7895 26.04 8.49581 26.04 4.21755C26.04 3.12537 26.8818 2.23999 27.9201 2.23999Z" fill="#0BD1EC"/>
<path fill-rule="evenodd" clip-rule="evenodd" d="M24.36 3.91999C24.36 2.99215 25.2542 2.23999 26.3573 2.23999H40.8426C41.9457 2.23999 42.84 2.99215 42.84 3.91999C42.84 4.84783 41.9457 5.59999 40.8426 5.59999H26.3573C25.2542 5.59999 24.36 4.84783 24.36 3.91999Z" fill="#0BD1EC"/>
<path fill-rule="evenodd" clip-rule="evenodd" d="M26.04 15.68C26.04 14.7522 26.941 14 28.0524 14H37.4677C38.5791 14 39.48 14.7522 39.48 15.68C39.48 16.6078 38.5791 17.36 37.4677 17.36H28.0524C26.941 17.36 26.04 16.6078 26.04 15.68Z" fill="#0BD1EC"/>
<path fill-rule="evenodd" clip-rule="evenodd" d="M34.0893 32.259C31.8212 32.3682 29.4976 32.48 27.156 32.48C26.0757 32.48 25.2 31.6383 25.2 30.5999C25.2 29.5616 26.0757 28.7199 27.156 28.7199C29.3923 28.7199 31.6271 28.6126 33.9196 28.5023L33.9405 28.5013C36.2103 28.392 38.5373 28.28 40.8839 28.28C41.9642 28.28 42.84 29.1218 42.84 30.1601C42.84 31.1985 41.9642 32.0402 40.8839 32.0402C38.6441 32.0402 36.4076 32.1474 34.1152 32.2578L34.0893 32.259Z" fill="#0BD1EC"/>
<path fill-rule="evenodd" clip-rule="evenodd" d="M45.223 2.28494C46.2788 2.05478 47.3198 2.73114 47.5481 3.79563C48.3834 7.69061 48.6264 11.7304 48.7198 15.6675C48.7545 17.1291 48.7689 18.5578 48.783 19.9633C48.8077 22.4185 48.8316 24.8032 48.962 27.1693C48.987 27.6232 48.9482 28.0999 48.9218 28.4231C48.9201 28.4444 48.9184 28.4651 48.9168 28.4851C48.9157 28.4978 48.9147 28.5104 48.9138 28.5227C51.7242 28.4371 54.5378 27.9525 57.4702 27.4474C57.9903 27.3579 58.514 27.2677 59.0422 27.1789C60.1077 26.9999 61.1155 27.7256 61.2931 28.7999C61.4707 29.8741 60.7508 30.8901 59.6853 31.0692C59.1879 31.1527 58.6835 31.2399 58.1731 31.3282C54.9619 31.8833 51.5099 32.48 48.0514 32.48C47.242 32.48 46.349 32.2269 45.7035 31.4601C45.1303 30.7791 45.0117 29.9853 44.9798 29.5077C44.9478 29.0293 44.9879 28.5339 45.0148 28.202L45.0177 28.1655C45.0503 27.7616 45.0649 27.5465 45.0562 27.3881C44.9216 24.9457 44.8953 22.3884 44.8693 19.8629C44.855 18.4783 44.8409 17.1032 44.809 15.7619C44.7173 11.8963 44.4805 8.15396 43.7246 4.62911C43.4963 3.56462 44.1672 2.5151 45.223 2.28494ZM48.8895 29.3006C48.8893 29.301 48.8879 29.2949 48.8863 29.2812C48.889 29.2935 48.8898 29.3003 48.8895 29.3006Z" fill="#0BD1EC"/>
<path fill-rule="evenodd" clip-rule="evenodd" d="M63.047 2.25965C64.1439 2.10612 65.1578 2.86844 65.3118 3.96235C65.4674 5.06802 65.6319 6.19552 65.7989 7.33938C66.703 13.5338 67.6771 20.208 67.6771 26.492C67.6771 26.6366 67.6685 26.7896 67.661 26.9079C67.6562 26.9838 67.6499 27.0743 67.6438 27.1615C67.6404 27.2107 67.637 27.2589 67.634 27.3027C67.6263 27.4168 67.6193 27.5283 67.6139 27.6364C67.6959 27.634 67.782 27.6303 67.8721 27.6254C68.1998 27.6076 68.537 27.5761 68.8744 27.5427C68.9132 27.5389 68.9528 27.535 68.9931 27.531C69.2745 27.5029 69.5845 27.472 69.8365 27.4583C73.1089 27.2794 76.3445 26.7974 79.6919 26.2987C80.0798 26.2409 80.4692 26.1829 80.8603 26.1251C81.956 25.9633 82.9758 26.7178 83.1381 27.8105C83.3004 28.9032 82.5438 29.9203 81.4481 30.0821C81.0595 30.1396 80.6693 30.1978 80.2776 30.2562C76.9554 30.7516 73.5282 31.2627 70.056 31.4525C69.9006 31.461 69.6916 31.4817 69.3883 31.5117C69.3503 31.5155 69.3107 31.5194 69.2696 31.5235C68.9282 31.5572 68.5144 31.5966 68.0907 31.6197C67.6712 31.6425 67.1973 31.6521 66.7329 31.6159C66.295 31.5818 65.7174 31.4973 65.17 31.2454C64.1525 30.777 63.8411 29.8173 63.7408 29.4285C63.6172 28.949 63.5937 28.4555 63.5917 28.0896C63.5895 27.702 63.6126 27.3208 63.6322 27.0328C63.6366 26.9678 63.6405 26.9116 63.6441 26.8602C63.6493 26.7859 63.6538 26.7218 63.658 26.6563C63.6612 26.6058 63.6633 26.5665 63.6647 26.5358C63.6661 26.5037 63.6661 26.4911 63.6661 26.492C63.6661 20.5249 62.743 14.1888 61.8392 7.9854C61.6699 6.82397 61.5014 5.66718 61.3397 4.51833C61.1858 3.42443 61.9502 2.41318 63.047 2.25965Z" fill="#0BD1EC"/>
<path fill-rule="evenodd" clip-rule="evenodd" d="M103.322 27.4401C104.261 27.4553 105.013 28.3626 105 29.4667L105 29.4894C104.974 31.655 104.948 33.8894 104.066 36.3076C103.696 37.3226 102.696 37.7927 101.832 37.3578C100.968 36.9228 100.568 35.7474 100.938 34.7324C101.524 33.1253 101.571 31.6376 101.597 29.412C101.61 28.3078 102.382 27.425 103.322 27.4401Z" fill="#0BD1EC"/>
<path fill-rule="evenodd" clip-rule="evenodd" d="M91.6008 1.20512C89.732 0.6121 87.1265 0.000343859 84.609 1.47842C83.8019 1.95224 83.3118 2.68894 83.0254 3.28116C82.7284 3.89538 82.5532 4.55315 82.481 5.12862C82.3584 6.10565 82.2445 7.18933 82.1334 8.24639C82.0436 9.10066 81.9556 9.93754 81.8664 10.6867C81.6712 12.3251 81.5479 13.9976 81.5373 15.6772C81.5354 15.9797 81.5238 16.2946 81.5108 16.6522C81.5094 16.6898 81.508 16.7279 81.5066 16.7666C81.4923 17.1582 81.4777 17.5943 81.4803 18.0373C81.4854 18.9106 81.5554 19.9458 81.8984 20.9596C82.3493 22.2925 82.974 23.627 83.6269 24.8053C83.8508 25.2095 84.0392 25.6231 84.2647 26.1182C84.3074 26.2119 84.3514 26.3086 84.3973 26.4086C84.669 27.0017 84.9965 27.6937 85.4331 28.3695C86.2845 29.6871 87.4653 30.5029 88.8441 30.7333C90.1531 30.9522 91.4048 30.6051 92.4262 30.0928C94.4119 29.0969 96.1819 27.1482 96.9049 25.2895C97.5889 23.531 97.9595 21.6885 98.1074 19.8735C98.3332 17.1026 98.4598 13.7204 97.6852 10.6951C97.5133 10.0237 97.3855 9.39494 97.2534 8.74461C97.2072 8.51707 97.1604 8.28689 97.111 8.05131C96.9304 7.18981 96.7141 6.25523 96.3602 5.37873C95.9956 4.47566 95.4683 3.58844 94.6399 2.83138C93.8257 2.08729 92.8162 1.55607 91.6008 1.20512ZM90.9325 5.15584C91.4463 5.34676 91.7785 5.56554 92.0094 5.77657C92.2995 6.04167 92.5275 6.38378 92.7277 6.87958C92.9387 7.40196 93.0967 8.03582 93.2726 8.87471C93.3119 9.06236 93.3524 9.26194 93.3949 9.47085C93.5313 10.1431 93.6874 10.9119 93.8867 11.6903C94.4836 14.0214 94.4185 16.8277 94.1968 19.5474C94.0747 21.0468 93.7736 22.4993 93.2536 23.8363C92.9065 24.7285 91.8462 25.9535 90.6832 26.5368C90.1303 26.8141 89.728 26.8581 89.4839 26.8173C89.3094 26.7881 89.0378 26.6935 88.7176 26.1979C88.4482 25.7811 88.2208 25.3147 87.9573 24.7396C87.9204 24.6591 87.8824 24.5754 87.8431 24.4891C87.6194 23.9967 87.3568 23.4189 87.0498 22.8648C86.4843 21.8442 85.9681 20.7308 85.6108 19.6745C85.4705 19.2598 85.4082 18.7251 85.404 18.0138C85.402 17.6645 85.4135 17.3045 85.4277 16.9124C85.4291 16.8736 85.4306 16.8343 85.432 16.7947C85.4448 16.4476 85.4587 16.0699 85.461 15.7025C85.4705 14.2007 85.581 12.6807 85.762 11.1615C85.873 10.2292 85.9606 9.38704 86.0465 8.56098C86.1463 7.60051 86.2439 6.66177 86.3735 5.62829C86.3968 5.44301 86.4601 5.21139 86.5501 5.02519C86.585 4.95312 86.6152 4.90589 86.6347 4.87918C87.6933 4.28917 88.9163 4.49017 90.8589 5.13306C90.8834 5.14117 90.908 5.14876 90.9325 5.15584Z" fill="#0BD1EC"/>
<path fill-rule="evenodd" clip-rule="evenodd" d="M25.711 40.8801C26.8206 40.8801 27.72 41.7856 27.72 42.9027C27.72 44.3116 27.352 45.5551 27.0538 46.5626C27.0353 46.6252 27.017 46.6869 26.9991 46.7477C26.3585 48.9244 26.1962 51.0714 26.0125 53.5013C25.9647 54.1339 25.9154 54.7856 25.8559 55.4621C25.8204 55.8657 25.38 58.6191 24.9627 61.1069C24.7483 62.3853 24.5304 63.6504 24.3574 64.5942C24.2715 65.0628 24.1937 65.4692 24.1312 65.7627C24.1015 65.9024 24.0678 66.0526 24.0328 66.1802C24.0196 66.2283 23.9845 66.3554 23.9269 66.4946L23.9252 66.4987C23.9057 66.5461 23.8179 66.7596 23.6435 66.9833C23.5669 67.0815 23.3129 67.3968 22.8526 67.5959C22.2262 67.8668 21.4578 67.8133 20.8512 67.3552C19.5278 66.356 18.6947 64.7575 18.1558 63.425C17.5908 62.0279 17.2147 60.5713 16.971 59.5534C16.7828 58.7669 16.6133 58.0037 16.4469 57.2546C16.1237 55.7991 15.8122 54.3965 15.3976 52.9782C15.1652 52.1828 14.9092 51.4191 14.6169 50.6912C14.4215 51.3777 14.2355 52.0697 14.0727 52.6839C14.0283 52.8511 13.9847 53.0167 13.9424 53.177C13.7826 53.7831 13.6425 54.3147 13.5597 54.5786C12.7109 57.2846 12.4428 60.4937 12.1761 63.6858C12.1441 64.0684 12.1121 64.4508 12.0792 64.832C12.0448 65.2305 11.9918 65.7412 11.8505 66.1545C11.8088 66.2763 11.733 66.4717 11.5985 66.6806C11.4721 66.877 11.1969 67.2369 10.7003 67.4636C9.40664 68.0541 8.4637 67.1308 8.31835 66.9767C8.08526 66.7296 7.9431 66.4639 7.88621 66.3559C7.81047 66.2119 7.74243 66.0616 7.68764 65.9364C7.63676 65.8201 7.58288 65.6921 7.53226 65.5718L7.51646 65.5342C7.45895 65.3976 7.40163 65.2619 7.34066 65.1228C6.88514 64.0833 6.37917 63.0676 5.84701 61.9993C5.80282 61.9106 5.75845 61.8215 5.71391 61.732C5.14186 60.5828 4.54587 59.3732 4.01957 58.1097C2.24589 53.8516 0.740778 48.9153 0.0245592 44.3185C-0.14738 43.215 0.601809 42.1801 1.69792 42.007C2.79403 41.8339 3.82199 42.5881 3.99392 43.6917C4.65107 47.9093 6.05207 52.5295 7.72485 56.5454C8.00833 57.2259 8.31817 57.8975 8.64602 58.5776C8.88049 56.7998 9.21111 55.0094 9.72833 53.3605C9.78033 53.1947 9.88224 52.8085 10.0332 52.2363C10.0808 52.0559 10.1333 51.8571 10.1906 51.6409C10.4171 50.7865 10.6994 49.7395 10.9956 48.7498C11.284 47.7862 11.614 46.7788 11.9444 46.049C12.0845 45.7395 12.3322 45.2273 12.7146 44.8337C12.8903 44.653 13.3793 44.1952 14.1598 44.1345C15.1219 44.0595 15.7675 44.6163 16.0687 45.0235C17.634 47.1396 18.5736 49.5148 19.2521 51.8364C19.7029 53.3788 20.0671 55.0149 20.4082 56.5478C20.5674 57.2629 20.7215 57.9556 20.8771 58.6058C20.9534 58.9244 21.039 59.269 21.1354 59.6273C21.3008 58.6299 21.4585 57.6591 21.5851 56.8634C21.6654 56.3583 21.7327 55.9268 21.7812 55.6051C21.8272 55.3002 21.8475 55.1505 21.8524 55.114C21.8533 55.1073 21.8537 55.1044 21.8537 55.105C21.9027 54.5475 21.9453 53.9747 21.9888 53.3901C22.1727 50.9156 22.3723 48.2301 23.1468 45.5985C23.4895 44.4339 23.7021 43.7053 23.7021 42.9027C23.7021 41.7856 24.6015 40.8801 25.711 40.8801ZM11.4366 64.462C11.4356 64.4602 11.4343 64.4578 11.4328 64.4546C11.4436 64.4735 11.4448 64.4778 11.4366 64.462Z" fill="#0BD1EC"/>
<path fill-rule="evenodd" clip-rule="evenodd" d="M52.08 40.04C53.0079 40.04 53.76 40.9463 53.76 42.0642V65.7358C53.76 66.8538 53.0079 67.76 52.08 67.76C51.1522 67.76 50.4 66.8538 50.4 65.7358V42.0642C50.4 40.9463 51.1522 40.04 52.08 40.04Z" fill="#0BD1EC"/>
<path fill-rule="evenodd" clip-rule="evenodd" d="M49.5627 41.9868C49.62 40.8551 50.5723 39.9847 51.6896 40.0428C52.3705 40.0781 53.1303 40.0733 54.0063 40.0677C54.4 40.0652 54.8171 40.0625 55.2611 40.0633C56.6257 40.0656 58.1588 40.1034 59.6372 40.3255C62.5254 40.7593 65.9228 42.0335 66.9941 45.9269C67.2739 46.944 67.3974 48.2647 66.5011 49.3995C65.7876 50.3029 64.6732 50.6891 64.0027 50.919C60.2108 52.2188 56.2736 52.4343 52.6727 52.6313L52.5691 52.637C51.4518 52.6982 50.4972 51.8304 50.4368 50.6989C50.3764 49.5673 51.2331 48.6005 52.3504 48.5393C56.0719 48.3355 59.4879 48.1343 62.7037 47.0319C62.8386 46.9857 62.9543 46.944 63.0548 46.9053C62.616 45.5119 61.3927 44.7377 59.0428 44.3848C57.868 44.2083 56.5769 44.1692 55.2542 44.1669C54.9 44.1663 54.5345 44.1686 54.1671 44.1709C53.2323 44.1768 52.2854 44.1828 51.4821 44.1411C50.3648 44.083 49.5054 43.1186 49.5627 41.9868Z" fill="#0BD1EC"/>
<path fill-rule="evenodd" clip-rule="evenodd" d="M51.5882 50.9727C52.2074 50.0781 53.4401 49.8511 54.3415 50.4657C58.2417 53.125 62.1801 55.8199 65.8651 58.9813C66.3291 59.3794 66.7875 59.8009 67.2164 60.1952C67.309 60.2803 67.4002 60.3642 67.4897 60.4463C68.0097 60.9227 68.4921 61.3554 68.9768 61.7402C69.8307 62.4182 69.9692 63.6549 69.286 64.5025C68.6028 65.35 67.3568 65.4874 66.5028 64.8094C65.9005 64.3312 65.3304 63.8171 64.8033 63.3342C64.7027 63.2419 64.6039 63.1512 64.5067 63.0618C64.0802 62.6698 63.6827 62.3044 63.2753 61.9548C59.7817 58.9577 56.0217 56.3799 52.0991 53.7054C51.1977 53.0908 50.969 51.8674 51.5882 50.9727Z" fill="#0BD1EC"/>
<path fill-rule="evenodd" clip-rule="evenodd" d="M72.5695 39.2004C73.6954 39.1844 74.6215 40.0663 74.6378 41.1702C74.6568 42.4563 74.8108 43.7449 74.9799 45.1593L74.9825 45.1809C75.1484 46.5695 75.3283 48.0803 75.3415 49.6322C75.3755 53.6139 75.4238 57.5657 75.6983 61.4676C75.7036 61.5421 75.7085 61.6226 75.7137 61.7077C75.7205 61.8182 75.7278 61.9367 75.7369 62.0605C75.9341 62.048 76.1334 62.0315 76.3263 62.015C76.3482 62.0132 76.3704 62.0113 76.3927 62.0093C76.5054 61.9997 76.621 61.9897 76.7213 61.9821C76.8274 61.9741 76.9856 61.9629 77.1332 61.9629H82.801C83.9271 61.9629 84.84 62.8578 84.84 63.9618C84.84 65.0658 83.9271 65.9608 82.801 65.9608H77.1451C77.1451 65.961 77.1151 65.9621 77.0363 65.9681C76.9584 65.974 76.8681 65.9818 76.7555 65.9915C76.7316 65.9935 76.7067 65.9956 76.6808 65.9979C76.3992 66.0219 76.0253 66.0531 75.6445 66.0692C75.2778 66.0846 74.8243 66.0902 74.3953 66.0423C74.1813 66.0183 73.9072 65.9743 73.6235 65.8811C73.3678 65.7971 72.9078 65.6108 72.5213 65.1845C72.0809 64.6988 71.9339 64.1019 71.8853 63.9045L71.8846 63.9014C71.8095 63.5964 71.7626 63.2762 71.7312 63.0085C71.681 62.5807 71.653 62.1178 71.6382 61.8734C71.6348 61.8172 71.6321 61.7726 71.63 61.7426C71.3459 57.7047 71.2976 53.6404 71.2637 49.6657C71.2525 48.3636 71.1015 47.0625 70.9322 45.6462C70.9278 45.6097 70.9234 45.573 70.919 45.5363C70.7574 44.1847 70.5823 42.7209 70.5602 41.2281C70.5439 40.1243 71.4435 39.2164 72.5695 39.2004ZM74.8294 62.0663C74.8294 62.0662 74.8308 62.0665 74.8334 62.067L74.8294 62.0663Z" fill="#0BD1EC"/>
<path fill-rule="evenodd" clip-rule="evenodd" d="M86.7411 38.3602C87.8028 38.3481 88.673 39.2229 88.6848 40.3141C88.7005 41.7677 88.8858 43.2493 89.1267 44.8187C89.1921 45.2444 89.2627 45.6828 89.3346 46.1293C89.52 47.2808 89.7142 48.4864 89.8497 49.6679C90.2519 53.1766 90.6394 56.8192 90.8284 60.4125C90.8384 60.6032 90.8605 60.7035 90.8905 60.811C90.9109 60.8842 90.9346 60.9584 90.9758 61.0881L90.9798 61.1006C91.0207 61.2289 91.0727 61.3934 91.1266 61.5872C91.2433 62.0069 91.3461 62.7069 91.4063 63.1164C91.4117 63.1526 91.4166 63.1866 91.4213 63.2178C91.423 63.2293 91.4247 63.2406 91.4263 63.2517C91.5126 63.4762 91.56 63.7209 91.56 63.977C91.56 64.0319 91.5592 64.1168 91.5528 64.2081C91.5499 64.2501 91.5429 64.3379 91.5241 64.4442C91.5147 64.4972 91.4964 64.5897 91.4618 64.7008C91.4353 64.7858 91.3577 65.023 91.1752 65.2768C90.9954 65.527 90.4841 66.0889 89.6077 66.08C88.8154 66.0719 88.3438 65.5909 88.2083 65.4391C87.9369 65.1354 87.8271 64.8105 87.8183 64.7844C87.818 64.7836 87.8179 64.7831 87.8178 64.7829C87.7638 64.6343 87.7354 64.5005 87.7277 64.4644L87.727 64.4611C87.6914 64.2941 87.6533 64.0362 87.6245 63.8422L87.6117 63.7554C87.5789 63.5337 87.5449 63.3047 87.51 63.0938C87.4911 62.9804 87.4737 62.8823 87.4578 62.8021C87.45 62.7624 87.4433 62.7309 87.4378 62.7069C87.4328 62.6848 87.43 62.6742 87.4296 62.673C87.4296 62.6728 87.4296 62.6728 87.4296 62.673C87.412 62.6095 87.3869 62.532 87.3575 62.4411C87.2332 62.0573 87.0317 61.4351 86.9891 60.6258C86.8071 57.1658 86.4322 53.6285 86.0312 50.1304C85.9068 49.0462 85.7357 47.9839 85.5562 46.8692C85.4809 46.4021 85.4042 45.9257 85.3288 45.4347C85.0805 43.8177 84.859 42.107 84.8401 40.358C84.8283 39.2668 85.6794 38.3724 86.7411 38.3602Z" fill="#0BD1EC"/>
<path fill-rule="evenodd" clip-rule="evenodd" d="M85.7272 42.3729C85.5655 42.3733 85.3998 42.3737 85.2296 42.3737C84.0866 42.3737 83.16 41.4759 83.16 40.3685C83.16 39.261 84.0866 38.3632 85.2296 38.3632C85.3823 38.3632 85.5404 38.3625 85.7031 38.3617C86.9121 38.3561 88.377 38.3494 89.8123 38.6326C90.514 38.7712 91.0365 39.1112 91.3231 39.3114C91.554 39.4728 91.6445 39.5438 91.7026 39.5894C91.7543 39.6299 91.7803 39.6504 91.8566 39.6963C92.054 39.8152 92.2913 39.9493 92.5522 40.0968C93.2443 40.4879 94.1022 40.9728 94.8202 41.5155C97.6742 43.6724 100.78 46.8054 102.088 50.6053C102.949 53.1083 102.278 55.281 101.181 57.0174C100.268 58.4634 98.9604 59.7506 97.9273 60.7676C97.7908 60.902 97.659 61.0317 97.5336 61.1564C96.0415 62.6402 93.8373 63.7223 92.3451 64.4453C91.2677 64.9673 90.1233 65.2401 88.9049 65.2401C87.7619 65.2401 86.8354 64.3423 86.8354 63.2349C86.8354 62.1274 87.7619 61.2296 88.9049 61.2296C89.4581 61.2296 89.9708 61.1117 90.494 60.8582C92.0981 60.0811 93.6465 59.275 94.5691 58.3576C94.7076 58.2199 94.8444 58.0845 94.9793 57.9512C96.0545 56.8879 97.0031 55.9497 97.6513 54.9237C98.3181 53.8682 98.5258 52.9341 98.1609 51.8735C97.2286 49.1634 94.8583 46.6304 92.2746 44.6777C91.78 44.304 91.3274 44.0496 90.7603 43.731C90.4425 43.5524 90.0887 43.3537 89.6715 43.1023C89.4748 42.9839 89.3033 42.8595 89.1852 42.7724C89.1365 42.7365 89.0976 42.7075 89.0642 42.6826C88.9997 42.6346 88.9559 42.6019 88.9021 42.5643C88.8884 42.5548 88.8764 42.5466 88.866 42.5397C87.9151 42.3675 86.9337 42.3699 85.7272 42.3729Z" fill="#0BD1EC"/>
<path fill-rule="evenodd" clip-rule="evenodd" d="M40.3602 40.666C38.4991 40.0912 35.8969 39.4955 33.3802 40.9334C32.5677 41.3976 32.0737 42.12 31.7851 42.7007C31.4861 43.3025 31.3096 43.9469 31.2368 44.5114C31.115 45.4567 31.0013 46.5091 30.8905 47.5347C30.801 48.3625 30.7135 49.1728 30.6251 49.8951C30.4306 51.4841 30.3076 53.1068 30.297 54.7368C30.2951 55.0286 30.2837 55.3325 30.2707 55.6791C30.2693 55.7155 30.2679 55.7523 30.2665 55.7897C30.2523 56.1691 30.2377 56.5928 30.2403 57.0235C30.2454 57.8725 30.3153 58.8841 30.6602 59.8763C31.1106 61.1719 31.7342 62.468 32.3854 63.6117C32.607 64.0009 32.7933 64.3989 33.0177 64.8784C33.0602 64.9693 33.1042 65.0631 33.1499 65.1603C33.4206 65.7352 33.7481 66.4088 34.1852 67.0672C35.0407 68.3557 36.226 69.1508 37.6052 69.3751C38.9141 69.588 40.1651 69.2504 41.1858 68.7522C43.1685 67.7845 44.9405 65.8893 45.6665 64.0729C46.3501 62.3626 46.7202 60.5713 46.8679 58.8075C47.0928 56.1228 47.2199 52.8365 46.4457 49.894C46.2751 49.2455 46.1484 48.639 46.017 48.0096C45.971 47.7889 45.9243 47.5654 45.8749 47.3363C45.6951 46.5014 45.4788 45.5911 45.1241 44.7362C44.7582 43.8545 44.2288 42.9877 43.3978 42.2487C42.5818 41.523 41.5722 41.0067 40.3602 40.666ZM39.68 44.6012C40.1879 44.7849 40.5141 44.9947 40.7391 45.1948C41.0213 45.4457 41.2437 45.7696 41.44 46.2428C41.6475 46.7428 41.8037 47.3516 41.9787 48.1636C42.0176 48.3445 42.0579 48.5373 42.1 48.7393C42.2359 49.3906 42.3918 50.1378 42.5907 50.8936C43.1815 53.1391 43.1178 55.8466 42.8973 58.4798C42.7761 59.9262 42.4778 61.3262 41.963 62.614C41.624 63.4622 40.5789 64.6407 39.4278 65.2026C38.8816 65.4692 38.4865 65.5103 38.2495 65.4717C38.0828 65.4446 37.8224 65.3579 37.5119 64.8903C37.2464 64.4904 37.0216 64.0421 36.7595 63.4855C36.7229 63.4078 36.6852 63.3269 36.6462 63.2434C36.4235 62.7666 36.1609 62.2044 35.854 61.6654C35.2926 60.6792 34.7807 59.6044 34.4266 58.586C34.2906 58.1948 34.2287 57.6858 34.2246 57C34.2226 56.6633 34.234 56.3161 34.2482 55.9362C34.2496 55.8987 34.251 55.8607 34.2524 55.8222C34.2651 55.4862 34.279 55.1193 34.2813 54.7622C34.2907 53.3109 34.4005 51.8415 34.5804 50.3722C34.6913 49.4659 34.7784 48.6503 34.8638 47.8508C34.963 46.9223 35.0598 46.0155 35.189 45.0135C35.2112 44.8411 35.2721 44.6241 35.3584 44.4506C35.388 44.391 35.4136 44.3507 35.431 44.3265C36.4711 43.7667 37.6778 43.9578 39.6068 44.5791C39.6311 44.5869 39.6556 44.5943 39.68 44.6012Z" fill="#0BD1EC"/>
</svg>
