<svg width="157" height="137" viewBox="0 0 157 137" fill="none" xmlns="http://www.w3.org/2000/svg">
<path fill-rule="evenodd" clip-rule="evenodd" d="M4.35149 42.1875H0V37.1875H4.35149V42.1875ZM21.7574 42.1875H13.0545V37.1875H21.7574V42.1875ZM39.1634 42.1875H30.4604V37.1875H39.1634V42.1875ZM56.5693 42.1875H47.8664V37.1875H56.5693V42.1875ZM73.9753 42.1875H65.2723V37.1875H73.9753V42.1875ZM91.3812 42.1875H82.6782V37.1875H91.3812V42.1875ZM108.787 42.1875H100.084V37.1875H108.787V42.1875ZM126.193 42.1875H117.49V37.1875H126.193V42.1875ZM143.599 42.1875H134.896V37.1875H143.599V42.1875ZM156.654 42.1875H152.302V37.1875H156.654V42.1875Z" fill="#0BD1EC"/>
<path fill-rule="evenodd" clip-rule="evenodd" d="M117.508 4.21889L118.486 0.000124365L123.357 1.12891L122.379 5.34767L117.508 4.21889ZM113.598 21.094L115.553 12.6564L120.424 13.7852L118.469 22.2227L113.598 21.094ZM109.687 37.969L111.642 29.5315L116.513 30.6603L114.558 39.0978L109.687 37.969ZM105.777 54.8441L107.732 46.4066L112.603 47.5353L110.647 55.9729L105.777 54.8441ZM101.866 71.7192L103.821 63.2816L108.692 64.4104L106.737 72.8479L101.866 71.7192ZM97.9553 88.5942L99.9106 80.1567L104.782 81.2855L102.826 89.723L97.9553 88.5942ZM94.0447 105.469L96 97.0318L100.871 98.1606L98.9156 106.598L94.0447 105.469ZM90.1341 122.344L92.0894 113.907L96.9603 115.036L95.005 123.473L90.1341 122.344ZM87.2011 135.001L88.1788 130.782L93.0497 131.911L92.072 136.129L87.2011 135.001Z" fill="#0BD1EC"/>
<path fill-rule="evenodd" clip-rule="evenodd" d="M67.5601 4.21889L68.5378 0.000124365L73.4087 1.12891L72.431 5.34767L67.5601 4.21889ZM63.6495 21.094L65.6048 12.6564L70.4757 13.7852L68.5204 22.2227L63.6495 21.094ZM59.7389 37.969L61.6942 29.5315L66.5651 30.6603L64.6098 39.0978L59.7389 37.969ZM55.8283 54.8441L57.7836 46.4066L62.6545 47.5353L60.6992 55.9729L55.8283 54.8441ZM51.9177 71.7192L53.873 63.2816L58.7439 64.4104L56.7886 72.8479L51.9177 71.7192ZM48.0071 88.5942L49.9624 80.1567L54.8333 81.2855L52.878 89.723L48.0071 88.5942ZM44.0964 105.469L46.0518 97.0318L50.9227 98.1606L48.9674 106.598L44.0964 105.469ZM40.1858 122.344L42.1411 113.907L47.0121 115.036L45.0568 123.473L40.1858 122.344ZM37.2529 135.001L38.2305 130.782L43.1015 131.911L42.1238 136.129L37.2529 135.001Z" fill="#0BD1EC"/>
<path fill-rule="evenodd" clip-rule="evenodd" d="M4.35149 94.4053H0V89.4053H4.35149V94.4053ZM21.7574 94.4053H13.0545V89.4053H21.7574V94.4053ZM39.1634 94.4053H30.4604V89.4053H39.1634V94.4053ZM56.5693 94.4053H47.8664V89.4053H56.5693V94.4053ZM73.9753 94.4053H65.2723V89.4053H73.9753V94.4053ZM91.3812 94.4053H82.6782V89.4053H91.3812V94.4053ZM108.787 94.4053H100.084V89.4053H108.787V94.4053ZM126.193 94.4053H117.49V89.4053H126.193V94.4053ZM143.599 94.4053H134.896V89.4053H143.599V94.4053ZM156.654 94.4053H152.302V89.4053H156.654V94.4053Z" fill="#0BD1EC"/>
</svg>
