<svg width="270" height="248" viewBox="0 0 270 248" fill="none" xmlns="http://www.w3.org/2000/svg">
<path d="M0 0V8H270V0H0Z" fill="white"/>
<path d="M270 20H0V28H270V20Z" fill="white"/>
<path d="M270 40H0V48H270V40Z" fill="white"/>
<path d="M270 60H0V68H270V60Z" fill="white"/>
<path d="M270 80H0V88H270V80Z" fill="white"/>
<path d="M270 100H0V108H270V100Z" fill="white"/>
<path d="M270 120H0V128H270V120Z" fill="white"/>
<path d="M270 140H0V148H270V140Z" fill="white"/>
<path d="M270 160H0V168H270V160Z" fill="white"/>
<path d="M270 180H0V188H270V180Z" fill="white"/>
<path d="M270 200H0V208H270V200Z" fill="white"/>
<path d="M270 220H0V228H270V220Z" fill="white"/>
<path d="M270 240H0V248H270V240Z" fill="white"/>
</svg>
