<svg width="234" height="1610" viewBox="0 0 234 1610" fill="none" xmlns="http://www.w3.org/2000/svg">
<path d="M151.8 185.649C137.507 185.649 124.493 182.342 112.76 175.729C101.24 169.115 92.0667 159.302 85.24 146.289C78.4133 133.489 75 117.915 75 99.5688V71.4088H3V0.368775H229.56V99.5688C229.56 127.302 222.52 148.529 208.44 163.249C194.36 178.182 175.48 185.649 151.8 185.649ZM131 91.5688C131 106.289 137.933 113.649 151.8 113.649C165.667 113.649 172.6 106.289 172.6 91.5688V71.4088H131V91.5688ZM3 315.701L84.28 273.141V272.821H3V201.781H229.56V307.381C229.56 325.728 226.253 341.408 219.64 354.421C213.24 367.435 204.387 377.141 193.08 383.541C181.987 390.155 169.4 393.461 155.32 393.461C140.173 393.461 126.733 389.195 115 380.661C103.267 372.341 94.84 360.288 89.72 344.501L3 393.781V315.701ZM131.64 272.821V300.981C131.64 307.808 133.133 312.928 136.12 316.341C139.32 319.755 144.227 321.461 150.84 321.461C156.813 321.461 161.507 319.648 164.92 316.021C168.333 312.608 170.04 307.595 170.04 300.981V272.821H131.64ZM0.76 520.156C0.76 498.823 5.77333 479.196 15.8 461.276C25.8267 443.57 39.6933 429.49 57.4 419.036C75.1067 408.583 95.0533 403.356 117.24 403.356C139.427 403.356 159.373 408.583 177.08 419.036C194.787 429.49 208.547 443.57 218.36 461.276C228.387 479.196 233.4 498.823 233.4 520.156C233.4 541.49 228.387 561.01 218.36 578.716C208.547 596.423 194.787 610.396 177.08 620.636C159.373 631.09 139.427 636.316 117.24 636.316C95.0533 636.316 75.1067 631.09 57.4 620.636C39.6933 610.396 25.8267 596.316 15.8 578.396C5.77333 560.69 0.76 541.276 0.76 520.156ZM67 520.156C67 534.236 71.48 545.116 80.44 552.796C89.6133 560.476 101.88 564.316 117.24 564.316C132.813 564.316 145.08 560.476 154.04 552.796C163.213 545.116 167.8 534.236 167.8 520.156C167.8 505.863 163.213 494.876 154.04 487.196C145.08 479.516 132.813 475.676 117.24 475.676C101.88 475.676 89.6133 479.516 80.44 487.196C71.48 494.876 67 505.863 67 520.156ZM229.56 813.624H83.32C56.2267 813.624 35.64 806.477 21.56 792.184C7.69333 778.104 0.76 758.264 0.76 732.664C0.76 705.144 8.33333 683.277 23.48 667.064C38.6267 650.85 60.7067 642.744 89.72 642.744V712.824C80.5467 712.824 74.04 714.317 70.2 717.304C66.5733 720.29 64.76 724.344 64.76 729.464C64.76 733.73 66.1467 737.037 68.92 739.384C71.6933 741.73 76.4933 742.904 83.32 742.904H229.56V813.624ZM172.92 908.934H145.08V979.334H91.64V908.934H59.64V988.934H3V837.894H229.56V988.934H172.92V908.934ZM116.6 1002.91C139 1002.91 158.947 1007.39 176.44 1016.35C193.933 1025.52 207.48 1038.53 217.08 1055.39C226.893 1072.24 231.8 1092.08 231.8 1114.91C231.8 1134.53 228.067 1152.03 220.6 1167.39C213.347 1182.96 203 1195.55 189.56 1205.15C176.12 1214.96 160.44 1221.47 142.52 1224.67V1149.79C149.987 1146.37 155.747 1141.47 159.8 1135.07C164.067 1128.88 166.2 1121.73 166.2 1113.63C166.2 1101.68 161.72 1092.19 152.76 1085.15C143.8 1078.32 131.747 1074.91 116.6 1074.91C101.453 1074.91 89.4 1078.32 80.44 1085.15C71.48 1092.19 67 1101.68 67 1113.63C67 1121.73 69.0267 1128.88 73.08 1135.07C77.3467 1141.47 83.2133 1146.37 90.68 1149.79V1224.67C72.76 1221.47 57.08 1214.96 43.64 1205.15C30.2 1195.55 19.7467 1182.96 12.28 1167.39C5.02667 1152.03 1.4 1134.53 1.4 1114.91C1.4 1092.08 6.2 1072.24 15.8 1055.39C25.6133 1038.53 39.2667 1025.52 56.76 1016.35C74.2533 1007.39 94.2 1002.91 116.6 1002.91ZM229.56 1421.76H173.24V1361.6H3V1290.56H173.24V1231.04H229.56V1421.76ZM0.76 1523.27C0.76 1496.18 7.05333 1473.78 19.64 1456.07C32.44 1438.58 51.1067 1429.08 75.64 1427.59V1503.11C62.6267 1504.18 56.12 1509.94 56.12 1520.39C56.12 1524.23 56.9733 1527.43 58.68 1529.99C60.6 1532.76 63.48 1534.15 67.32 1534.15C72.6533 1534.15 76.92 1531.27 80.12 1525.51C83.5333 1519.75 87.3733 1510.79 91.64 1498.63C96.76 1484.12 101.773 1472.07 106.68 1462.47C111.587 1453.08 118.733 1444.98 128.12 1438.15C137.507 1431.32 149.56 1428.02 164.28 1428.23C179 1428.23 191.48 1431.96 201.72 1439.43C212.173 1447.11 220.067 1457.46 225.4 1470.47C230.733 1483.7 233.4 1498.52 233.4 1514.95C233.4 1542.68 227 1564.66 214.2 1580.87C201.4 1597.3 183.373 1605.94 160.12 1606.79V1530.31C166.52 1530.1 171.107 1528.5 173.88 1525.51C176.653 1522.52 178.04 1518.9 178.04 1514.63C178.04 1511.64 176.973 1509.19 174.84 1507.27C172.92 1505.35 170.147 1504.39 166.52 1504.39C161.4 1504.39 157.133 1507.16 153.72 1512.71C150.52 1518.47 146.573 1527.54 141.88 1539.91C136.547 1554.2 131.427 1565.94 126.52 1575.11C121.613 1584.5 114.787 1592.6 106.04 1599.43C97.2933 1606.26 86.3067 1609.67 73.08 1609.67C59.2133 1609.67 46.7333 1606.26 35.64 1599.43C24.76 1592.6 16.2267 1582.68 10.04 1569.67C3.85333 1556.66 0.76 1541.19 0.76 1523.27Z" fill="url(#paint0_linear_18_100)" fill-opacity="0.3"/>
<defs>
<linearGradient id="paint0_linear_18_100" x1="355" y1="801.5" x2="-169" y2="801.5" gradientUnits="userSpaceOnUse">
<stop stop-color="#21C9D4" stop-opacity="0.47"/>
<stop offset="1" stop-color="#D421AC" stop-opacity="0.21"/>
</linearGradient>
</defs>
</svg>
