<svg width="140" height="140" viewBox="0 0 140 140" fill="none" xmlns="http://www.w3.org/2000/svg">
<path fill-rule="evenodd" clip-rule="evenodd" d="M0 0H4.11765V2.91667H2.91667V4.11765H0V0ZM0 135.882V140H4.11765V137.083H2.91667V135.882H0ZM135.882 140H140V135.882H137.083V137.083H135.882V140ZM140 4.11765V0H135.882V2.91667H137.083V4.11765H140ZM8.75 0V4.11765H14.5833V0H8.75ZM20.4167 0V4.11765H26.25V0H20.4167ZM32.0833 0V4.11765H37.9167V0H32.0833ZM43.75 0V4.11765H49.5833V0H43.75ZM55.4167 0V4.11765H61.25V0H55.4167ZM67.0833 0V4.11765H72.9167V0H67.0833ZM78.75 0V4.11765H84.5833V0H78.75ZM90.4167 0V4.11765H96.25V0H90.4167ZM102.083 0V4.11765H107.917V0H102.083ZM113.75 0V4.11765H119.583V0H113.75ZM125.417 0V4.11765H131.25V0H125.417ZM140 8.75H135.882V14.5833H140V8.75ZM140 20.4167H135.882V26.25H140V20.4167ZM140 32.0833H135.882V37.9167H140V32.0833ZM140 43.75H135.882V49.5833H140V43.75ZM140 55.4167H135.882V61.25H140V55.4167ZM140 67.0833H135.882V72.9167H140V67.0833ZM140 78.75H135.882V84.5833H140V78.75ZM140 90.4167H135.882V96.25H140V90.4167ZM140 102.083H135.882V107.917H140V102.083ZM140 113.75H135.882V119.583H140V113.75ZM140 125.417H135.882V131.25H140V125.417ZM131.25 140V135.882H125.417V140H131.25ZM119.583 140V135.882H113.75V140H119.583ZM107.917 140V135.882H102.083V140H107.917ZM96.25 140V135.882H90.4167V140H96.25ZM84.5833 140V135.882H78.75V140H84.5833ZM72.9167 140V135.882H67.0833V140H72.9167ZM61.25 140V135.882H55.4167V140H61.25ZM49.5833 140V135.882H43.75V140H49.5833ZM37.9167 140V135.882H32.0833V140H37.9167ZM26.25 140V135.882H20.4167V140H26.25ZM14.5833 140V135.882H8.75V140H14.5833ZM0 131.25H4.11765V125.417H0V131.25ZM0 119.583H4.11765V113.75H0V119.583ZM0 107.917H4.11765V102.083H0V107.917ZM0 96.25H4.11765V90.4167H0V96.25ZM0 84.5833H4.11765V78.75H0V84.5833ZM0 72.9167H4.11765V67.0833H0V72.9167ZM0 61.25H4.11765V55.4167H0V61.25ZM0 49.5833H4.11765V43.75H0V49.5833ZM0 37.9167H4.11765V32.0833H0V37.9167ZM0 26.25H4.11765V20.4167H0V26.25ZM0 14.5833H4.11765V8.75H0V14.5833Z" fill="#D80EDC"/>
</svg>
