<svg width="217" height="275" viewBox="0 0 217 275" fill="none" xmlns="http://www.w3.org/2000/svg">
<path fill-rule="evenodd" clip-rule="evenodd" d="M214.063 35.0783C212.598 34.0199 212.258 33.631 212.61 33.4179C212.928 33.2251 212.792 32.9595 212.168 32.555C211.142 31.8901 211.253 31.3619 212.38 31.5414C212.95 31.6322 213.222 31.3955 213.475 30.588C213.789 29.591 213.39 28.6923 212.942 29.3842C212.832 29.5525 212.633 29.5074 212.499 29.2837C212.364 29.0597 211.872 28.8094 211.405 28.727C210.753 28.6121 210.537 28.3817 210.476 27.7338C210.432 27.2575 209.991 26.6264 209.463 26.2842C208.695 25.7867 208.636 25.6017 209.133 25.2513C209.597 24.9233 209.578 24.7787 209.051 24.6273C208.546 24.4817 208.459 24.1547 208.721 23.3836C208.962 22.6733 208.863 22.199 208.412 21.9068C208.046 21.67 207.686 21.0679 207.611 20.5687C207.536 20.0698 207.297 19.6785 207.08 19.6988C206.863 19.7193 206.939 19.5826 207.249 19.3952C207.662 19.1448 207.624 18.9318 207.104 18.5951C206.715 18.3427 206.387 17.6772 206.376 17.1162C206.365 16.5537 205.941 15.7114 205.43 15.2384C204.719 14.5797 204.61 14.2156 204.962 13.673C205.283 13.1775 205.191 12.6959 204.656 12.065C204.236 11.5698 203.975 10.8505 204.075 10.4666C204.221 9.90733 203.947 9.56713 202.701 8.75939C201.115 7.73143 199.678 7.60114 199.756 8.49281C199.779 8.75257 200.164 9.09021 200.612 9.24289C201.393 9.50949 201.469 10.0059 200.739 10.075C200.113 10.1345 198.893 12.0414 199.306 12.3155C199.524 12.4609 199.389 12.5446 199.004 12.5018C198.515 12.4476 198.225 12.1159 198.036 11.3944C197.888 10.828 197.697 10.4718 197.612 10.6028C197.527 10.7341 197.573 11.2474 197.714 11.7433C198.031 12.8578 197.217 13.4201 196.221 12.7743C195.692 12.4317 195.356 12.4828 195.051 12.9523C194.816 13.3147 194.128 13.6214 193.522 13.6339C192.841 13.6479 192.35 13.916 192.241 14.3333C192.129 14.7642 191.878 14.889 191.55 14.6766C191.268 14.4935 190.91 14.5388 190.755 14.7775C190.601 15.0161 190.312 15.106 190.113 14.9772C189.334 14.4728 187.611 14.8252 187.115 15.5903C186.6 16.3849 184.745 16.8383 183.996 16.3528C183.783 16.215 183.629 16.3285 183.653 16.605C183.678 16.8814 183.591 16.9298 183.46 16.712C183.162 16.2154 182.494 16.1699 181.492 16.5782C180.868 16.8323 180.256 16.6232 178.412 15.5261C176.881 14.6153 176.032 14.2778 175.876 14.5179C175.744 14.7209 175.213 14.593 174.662 14.225C173.933 13.7385 173.737 13.3441 173.897 12.6834C174.015 12.195 173.99 11.9476 173.841 12.1336C173.483 12.5799 171.673 11.3956 171.982 10.9178C172.114 10.7145 172.718 10.538 173.325 10.5255C173.972 10.5122 174.497 10.2381 174.595 9.86337C174.705 9.44248 175.103 9.30298 175.757 9.45537C176.307 9.5832 177.189 9.35511 177.73 8.94464C178.331 8.48878 179.171 8.30212 179.91 8.4609C180.571 8.60261 181.58 8.4713 182.153 8.16884C182.726 7.86637 183.408 7.75739 183.669 7.9267C183.931 8.09602 184.21 8.04588 184.29 7.81567C184.419 7.44728 185.628 6.79053 188.168 5.70819C189.742 5.03822 191.753 3.91307 191.825 3.66245C191.866 3.51953 192.165 3.57503 192.491 3.78579C192.928 4.06948 193.16 3.94544 193.384 3.30654C193.592 2.71596 194.035 2.42365 194.791 2.37771C195.548 2.332 196.155 1.93181 196.719 1.10542C197.383 0.13267 197.753 -0.0574547 198.638 0.119545C199.24 0.240202 199.926 0.272353 200.161 0.191136C200.547 0.0576071 202.129 0.941509 204.849 2.80917C205.552 3.29238 205.803 3.78303 205.752 4.57599C205.712 5.17968 205.921 5.74297 206.216 5.82766C206.511 5.9126 206.919 6.47362 207.122 7.07489C207.325 7.67564 207.645 8.26698 207.833 8.38846C208.02 8.50994 208.106 8.95105 208.024 9.36903C207.908 9.96485 208.097 10.2168 208.901 10.5368C209.777 10.8856 209.84 11.0053 209.337 11.36C208.885 11.6794 208.95 12.0334 209.62 12.8937C210.099 13.5093 210.394 14.3662 210.277 14.7981C210.144 15.2847 210.341 15.7639 210.794 16.0573C211.4 16.4499 211.4 16.6337 210.793 17.1332C210.124 17.6839 210.149 17.7701 211.08 18.1411C211.952 18.4881 212.055 18.6874 211.793 19.521C211.555 20.2776 211.755 20.7885 212.687 21.8085C213.346 22.5305 213.774 23.296 213.635 23.5092C213.497 23.7223 213.631 24.0566 213.932 24.252C214.234 24.4473 214.354 24.8024 214.199 25.041C214.045 25.2797 214.083 25.5815 214.284 25.7117C214.485 25.842 214.523 26.1426 214.369 26.3801C214.216 26.6173 214.313 27.1871 214.587 27.6462C214.86 28.1054 214.916 28.7443 214.712 29.0661C214.508 29.3876 214.24 30.2752 214.117 31.0389C213.934 32.1677 214.026 32.4193 214.61 32.3853C215.191 32.3516 215.223 32.4121 214.775 32.7041C214.369 32.9682 214.414 33.189 214.941 33.5305C215.336 33.7869 215.576 34.1269 215.473 34.286C215.37 34.4451 215.513 34.7227 215.791 34.9027C216.069 35.0829 216.224 35.5074 216.136 35.8453C215.996 36.3856 215.743 36.2923 214.063 35.0783ZM159.051 109.028C158.4 108.607 157.648 109.055 157.716 109.824C157.789 110.656 157.298 110.728 156.554 109.993C155.762 109.211 155.383 109.712 155.948 110.793C156.546 111.937 156.124 113.175 155.105 113.271C154.351 113.343 154.248 113.264 154.116 112.52C153.987 111.797 154.073 111.74 154.789 112.083C155.575 112.459 155.582 112.437 154.958 111.567C154.511 110.943 154.46 110.343 154.798 109.651C155.1 109.028 155.087 108.513 154.763 108.303C153.972 107.791 154.528 107.284 155.477 107.653C155.933 107.83 156.422 107.795 156.565 107.575C156.707 107.355 157.071 107.334 157.372 107.53C158.366 108.174 158.251 107.424 157.183 106.294C156.341 105.403 155.967 105.2 155.287 105.265C154.527 105.337 154.523 105.223 155.249 104.144C155.694 103.483 156.413 102.909 156.849 102.867C157.283 102.826 157.712 102.604 157.8 102.374C157.889 102.144 158.32 101.68 158.759 101.343C159.344 100.894 159.788 100.881 160.43 101.297C161.467 101.969 161.511 101.926 161.505 100.246C161.502 99.3826 161.657 98.9978 161.968 99.0997C162.239 99.1886 162.571 98.8555 162.757 98.3077C162.937 97.7778 163.311 97.3904 163.608 97.4261C163.899 97.4614 164.292 97.2527 164.48 96.9625C164.879 96.3456 166.322 96.7942 166.602 97.6228C166.709 97.9363 166.525 98.5817 166.195 99.0566C165.865 99.5317 165.617 99.7034 165.644 99.4391C165.672 99.1743 165.526 98.8491 165.32 98.7157C165.115 98.5824 164.914 98.7298 164.875 99.0435C164.827 99.4312 164.575 99.4646 164.085 99.1475C163.552 98.8023 163.238 98.8783 162.874 99.4397C162.48 100.049 162.523 100.198 163.095 100.194C164.244 100.187 164.234 101.266 163.072 102.667C162.506 103.349 161.99 104.326 161.924 104.836C161.816 105.683 161.728 105.704 160.921 105.075C160.434 104.696 160.016 104.161 159.992 103.887C159.916 103.027 158.309 103.436 157.969 104.402C157.747 105.035 157.895 105.404 158.54 105.822C159.018 106.132 159.495 106.256 159.598 106.097C159.701 105.938 159.621 105.701 159.42 105.571C159.219 105.441 159.137 105.207 159.238 105.051C159.35 104.879 159.696 105.129 160.121 105.689C160.906 106.722 160.873 106.953 159.932 107.043C159.433 107.09 159.343 107.322 159.547 108.037C159.87 109.173 159.724 109.464 159.051 109.028ZM166.666 96.6307C165.779 96.7149 164.491 95.8623 165.02 95.5416C165.247 95.4045 165.314 94.979 165.17 94.5955C164.951 94.0117 164.785 94.0885 164.151 95.0671C163.735 95.7095 163.217 96.1207 163.001 95.9808C162.785 95.8406 162.422 96.1134 162.195 96.5875C161.692 97.6325 160.395 98.2119 160.007 97.5647C159.851 97.3061 160.096 96.5205 160.551 95.8188C161.195 94.8252 161.471 94.6543 161.802 95.0465C162.159 95.4697 162.25 95.3642 162.378 94.3804C162.463 93.738 162.426 93.1437 162.297 93.0598C162.168 92.9762 162.351 92.6333 162.705 92.2979C163.137 91.8891 163.185 91.5799 162.852 91.3601C162.435 91.0845 162.461 91.0435 163.013 91.1046C163.471 91.1551 163.586 91.0378 163.393 90.7172C163.049 90.1437 163.344 89.6314 163.835 89.9497C164.036 90.0799 164.078 90.3754 163.929 90.6059C163.779 90.8367 163.812 91.2737 164.001 91.5771C164.191 91.8808 164.313 92.3848 164.272 92.6973C164.214 93.1497 164.272 93.1662 164.556 92.7782C164.976 92.2044 165.765 92.576 165.382 93.1672C165.239 93.3888 165.319 93.8049 165.561 94.092C166.067 94.6904 166.377 94.4262 166.107 93.6276C165.981 93.2562 166.222 92.9543 166.874 92.6666C167.646 92.3259 167.862 92.3725 168.025 92.9146C168.136 93.2817 167.945 94.0174 167.6 94.549C167.256 95.0807 167.054 95.7524 167.152 96.0418C167.27 96.3926 167.109 96.5888 166.666 96.6307ZM153.004 116.064C152.675 116.027 152.179 115.804 151.903 115.57C151.626 115.336 151.023 115.273 150.562 115.43C150.067 115.599 149.875 115.814 150.092 115.955C150.654 116.319 149.835 117.313 149.138 117.113C148.611 116.961 148.522 116.222 148.897 115.112C148.938 114.988 148.913 114.712 148.841 114.497C148.594 113.769 150.02 113.855 151.233 114.641C151.969 115.118 152.589 115.295 152.822 115.094C153.141 114.819 153.235 114.877 153.403 115.449C153.562 115.994 153.481 116.119 153.004 116.064ZM148.95 121.753C148.399 121.933 147.24 120.364 147.559 119.871C147.718 119.626 148.161 119.632 148.553 119.886C149.049 120.207 149.451 120.132 149.903 119.632C150.404 119.077 150.408 119.221 149.923 120.279C149.58 121.027 149.142 121.69 148.95 121.753ZM151.652 117.89C151.474 117.908 151.155 117.508 150.941 117.004C150.661 116.341 150.712 116.105 151.128 116.155C152.06 116.268 152.525 117.808 151.652 117.89ZM114.765 171.678C114.198 171.453 113.619 171.445 113.478 171.662C113.136 172.19 111.134 171.275 111.214 170.628C111.248 170.358 111.771 169.98 112.377 169.79C113.249 169.516 113.775 169.636 114.898 170.364C116.537 171.426 116.444 172.346 114.765 171.678ZM116.736 169.501C116.448 169.314 115.804 169.199 115.307 169.247C114.628 169.311 114.352 169.182 114.199 168.731C114.046 168.28 114.232 168.108 114.939 168.041C115.53 167.984 115.798 168.082 115.656 168.302C115.273 168.893 116.075 169.128 116.607 168.58L117.106 168.066L117.183 168.954C117.248 169.689 117.171 169.783 116.736 169.501ZM118.922 166.571C118.587 166.531 118.265 166.356 118.206 166.182C118.047 165.711 118.71 165.741 119.15 166.224C119.457 166.562 119.413 166.63 118.922 166.571ZM119.545 165.161C119.207 164.941 119.131 164.541 119.361 164.186C119.818 163.481 120.607 164.134 120.315 164.975C120.2 165.305 119.886 165.381 119.545 165.161ZM125.699 156.006C125.498 155.875 125.184 155.995 125.001 156.272C124.817 156.548 124.366 156.856 123.998 156.957C123.404 157.119 123.377 157.102 123.762 156.804C123.999 156.619 124.033 156.149 123.836 155.759C123.514 155.122 123.587 155.035 124.561 154.894C125.825 154.712 126.75 155.186 126.346 155.809C126.191 156.047 125.9 156.136 125.699 156.006ZM127.337 153.781C127.149 153.66 126.883 153.117 126.745 152.576C126.607 152.035 126.631 151.681 126.8 151.79C126.967 151.899 127.234 152.441 127.391 152.995C127.549 153.549 127.524 153.902 127.337 153.781ZM152.043 113.799C149.989 113.198 150.132 111.955 152.199 112.437C153.157 112.66 153.41 112.831 153.456 113.288C153.544 114.16 153.426 114.203 152.043 113.799ZM166.847 91.3631C166.451 91.3756 166.085 91.2589 166.032 91.1032C165.868 90.6166 166.831 90.2483 167.365 90.594C168.002 91.0073 167.783 91.3326 166.847 91.3631ZM113.097 173.452C112.855 173.165 112.69 172.879 112.73 172.817C112.771 172.754 113.051 172.863 113.352 173.058C113.653 173.254 113.818 173.539 113.718 173.694C113.619 173.848 113.339 173.739 113.097 173.452ZM148.447 117.699C147.945 117.374 147.782 117.175 148.085 117.257C148.388 117.34 148.799 117.606 148.999 117.849C149.198 118.092 148.95 118.025 148.447 117.699ZM159.803 99.7574C159.14 99.1696 159.109 98.9945 159.649 98.8925C160.62 98.7091 161.392 99.3243 160.983 99.9554C160.711 100.375 160.451 100.331 159.803 99.7574ZM111.823 173.483C111.573 173.453 111.351 173.243 111.331 173.016C111.311 172.789 111.5 172.628 111.751 172.658C112.002 172.689 112.223 172.899 112.243 173.126C112.263 173.353 112.074 173.514 111.823 173.483ZM115.934 167.338C115.962 167.017 115.873 166.53 115.737 166.255C115.578 165.934 115.658 165.925 115.961 166.229C116.22 166.49 116.309 166.977 116.158 167.312C115.965 167.741 115.899 167.748 115.934 167.338ZM168.298 86.1131C167.982 86.0752 167.759 85.8488 167.802 85.6107C167.904 85.0366 167.011 84.4783 166.504 84.7997C166.203 84.9909 165.985 84.8644 165.624 84.2903C165.106 83.4672 165.653 81.6809 166.295 82.0972C166.509 82.236 166.596 82.4865 166.488 82.6537C166.238 83.0392 168.171 85.4739 168.786 85.5483C169.039 85.5789 169.161 85.7339 169.058 85.893C168.955 86.0521 168.613 86.1511 168.298 86.1131ZM120.414 159.358C120.277 159.129 120.202 158.885 120.247 158.814C120.293 158.744 120.494 158.793 120.695 158.924C120.896 159.054 120.971 159.298 120.862 159.467C120.753 159.635 120.551 159.586 120.414 159.358ZM121.504 157.942C121.302 157.961 120.731 157.714 120.236 157.394C119.383 156.841 119.391 156.746 120.376 155.616C121.696 154.1 122.005 154.085 122.35 155.523C122.628 156.679 122.21 157.875 121.504 157.942ZM107.285 177.417C105.265 176.591 105.139 174.808 107.125 175.157C107.777 175.272 107.963 175.383 107.672 175.484C107.429 175.567 107.459 176.019 107.737 176.487C108.358 177.531 108.226 177.801 107.285 177.417ZM109.504 174.775C108.937 175.284 108.252 174.922 108.643 174.319C108.798 174.081 108.775 173.789 108.593 173.671C108.411 173.553 108.517 173.252 108.828 173.001C110.04 172.028 110.683 173.717 109.504 174.775ZM118.971 160.271C118.688 160.087 118.372 158.567 118.552 158.253C118.799 157.824 119.698 158.693 119.624 159.29C119.528 160.068 119.266 160.462 118.971 160.271ZM121.281 156.018C120.977 155.82 120.566 155.92 120.358 156.241C120.15 156.562 120.227 156.977 120.531 157.175C120.836 157.372 121.246 157.273 121.455 156.951C121.663 156.63 121.586 156.215 121.281 156.018ZM115.824 163.888C115.627 163.67 115.5 163.295 115.543 163.055C115.591 162.785 115.8 162.829 116.086 163.168C116.619 163.8 116.37 164.487 115.824 163.888ZM165.337 86.302C164.692 86.6751 164.361 86.2783 164.78 85.633C164.986 85.3148 165.366 85.1914 165.624 85.3588C166.112 85.6752 166.046 85.8913 165.337 86.302ZM86.9496 203.592C86.6295 203.385 86.1669 203.829 85.4037 205.077C84.6683 206.279 84.055 206.882 83.5152 206.934C83.0753 206.975 82.8805 207.116 83.0823 207.247C83.633 207.604 83.2349 209.008 82.5648 209.071C82.154 209.11 81.8868 208.914 81.6656 208.412C81.4929 208.019 81.0854 207.665 80.7606 207.626C80.3398 207.575 80.3369 207.743 80.7492 208.209C81.0681 208.569 81.2672 208.989 81.1916 209.144C81.1165 209.298 81.0334 209.737 81.0076 210.119C80.9816 210.501 80.6728 211.087 80.3213 211.42C79.9699 211.753 79.8336 212.124 80.0189 212.244C80.2038 212.364 80.1692 212.526 79.9418 212.605C79.7145 212.683 79.2095 212.541 78.8193 212.288C78.429 212.035 78.1943 211.698 78.2974 211.539C78.4005 211.38 78.2382 211.09 77.9367 210.895C77.6352 210.699 77.5151 210.344 77.6697 210.106C77.8244 209.867 77.7042 209.512 77.4028 209.316C76.6752 208.845 76.3965 209.332 76.9907 210.036C77.2682 210.365 77.2534 210.719 76.9544 210.9C76.5977 211.116 76.7219 211.516 77.3721 212.248L78.297 213.289L77.1846 213.394C76.2906 213.479 76.0868 213.655 76.1461 214.292C76.1871 214.728 76.031 215.102 75.7999 215.124C75.217 215.18 74.5194 213.923 74.5719 212.913C74.6567 211.305 72.1126 209.862 71.8944 211.394C71.8577 211.653 71.5807 211.704 71.2793 211.509C70.8802 211.251 70.9328 210.894 71.4734 210.197C71.8817 209.671 72.3575 209.333 72.5311 209.445C72.7043 209.558 72.91 209.325 72.9877 208.928C73.1679 208.009 74.0767 207.646 75.4846 207.93C76.9094 208.218 77.9275 207.402 76.6766 206.975C75.6236 206.616 75.4891 205.786 76.4547 205.604C76.9578 205.509 77.0481 205.39 76.759 205.203C76.5336 205.057 76.5655 204.603 76.8302 204.195C77.2257 203.584 77.4201 203.569 77.9216 204.107C78.381 204.601 78.5487 204.622 78.6022 204.191C78.6414 203.877 78.3944 203.54 78.0533 203.442C77.6772 203.334 77.5518 203.081 77.7348 202.799C77.9005 202.543 78.2004 202.44 78.4014 202.571C78.6024 202.701 79.0435 202.386 79.3815 201.871C80.3177 200.445 80.9787 200.36 81.9974 201.533C82.4658 202.072 82.5725 202.348 82.2341 202.147C81.4964 201.708 80.7213 202.096 80.7894 202.87C80.827 203.297 80.9982 203.363 81.5238 203.153C81.9861 202.968 82.2232 203.039 82.2524 203.371C82.2762 203.641 82.6547 204.098 83.0935 204.385C83.7419 204.811 83.7546 204.895 83.1614 204.834C82.5377 204.77 82.5239 204.82 83.0682 205.178C83.4564 205.433 83.846 205.379 84.0664 205.039C84.4452 204.454 84.1165 202.988 83.5201 202.602C83.3283 202.478 83.2264 201.95 83.293 201.428C83.3596 200.906 83.1827 200.33 82.8995 200.146C82.317 199.769 82.5022 198.565 83.1783 198.332C83.4238 198.247 84.0389 197.33 84.5452 196.295C85.0513 195.26 85.7293 194.307 86.0515 194.178C86.7056 193.917 87.8233 194.511 88.0926 195.263C88.1997 195.562 88.5931 195.707 89.1051 195.635C89.848 195.531 89.8591 195.494 89.2041 195.306C88.7917 195.187 88.3514 194.755 88.2061 194.327C88.0638 193.905 87.7709 193.446 87.5553 193.306C86.7341 192.774 87.9364 191.885 89.0431 192.206C90.4846 192.625 90.5306 192.661 90.2219 193.138C89.9201 193.603 91.238 195.044 91.6897 194.742C92.1829 194.414 92.6904 194.933 92.3654 195.435C92.2012 195.688 91.6937 195.751 91.2379 195.573C90.2262 195.18 89.9551 195.52 90.3501 196.686C90.6295 197.513 90.6035 197.549 89.9451 197.252C89.5294 197.065 89.2143 197.155 89.175 197.472C89.1352 197.791 88.8801 197.861 88.5454 197.644C87.7937 197.157 86.2904 197.293 86.7566 197.806C87.0083 198.083 86.8659 198.284 86.224 198.556C85.7421 198.761 85.3939 199.064 85.4502 199.23C85.6189 199.729 87.673 199.473 88.0392 198.908C88.514 198.175 89.1203 199.027 89.0635 200.348C89.0237 201.289 88.8991 201.433 88.156 201.395C87.3535 201.355 87.3372 201.379 87.9131 201.752C88.356 202.039 88.3719 202.398 87.9687 203.02C87.6439 203.522 87.2134 203.763 86.9496 203.592ZM85.5489 201.452C85.0632 201.138 84.9872 201.2 85.1296 201.797C85.2252 202.198 85.3655 202.566 85.4411 202.615C85.5171 202.664 85.7058 202.509 85.8604 202.27C86.015 202.032 85.8748 201.664 85.5489 201.452ZM74.1351 218.311C73.724 218.313 73.4069 218.259 73.4303 218.19C73.8729 216.889 74.0757 216.607 74.4119 216.825C74.6333 216.968 74.8481 216.815 74.889 216.483C74.9359 216.104 75.1024 216.034 75.3379 216.293C75.8721 216.881 75.0228 218.305 74.1351 218.311ZM194.417 32.3471C194.153 32.3152 194.025 32.1511 194.135 31.9828C194.244 31.8144 194.498 31.783 194.699 31.9132C194.899 32.0435 195.027 32.2073 194.981 32.2776C194.936 32.3479 194.682 32.379 194.417 32.3471ZM195.114 31.5119C194.166 31.6019 193.38 27.5466 194.283 27.2242C194.449 27.165 194.464 26.7998 194.317 26.4131C194.096 25.8344 193.997 25.7886 193.76 26.1551C193.601 26.3998 193.34 26.515 193.179 26.4108C192.773 26.1477 192.422 25.0175 192.641 24.6791C192.74 24.5255 192.873 24.5491 192.934 24.7316C192.996 24.9144 193.452 25.1353 193.947 25.2222C194.584 25.3345 194.932 25.575 195.139 26.0449C195.3 26.41 195.663 26.7366 195.946 26.7708C196.228 26.8051 196.367 26.9247 196.253 27.0373C195.522 27.7598 195.36 28.6453 195.894 28.9915C196.438 29.3438 196.395 29.3984 195.462 29.5333C194.585 29.6602 194.513 29.7395 194.992 30.0497C195.577 30.4288 195.663 31.4596 195.114 31.5119ZM84.2392 198.967C83.8888 198.737 83.5182 198.678 83.4151 198.837C83.312 198.997 83.7636 199.471 84.4181 199.892C85.3215 200.472 85.5201 200.504 85.2422 200.021C85.0406 199.672 84.5894 199.198 84.2392 198.967ZM186.916 43.3757C186.946 43.0987 187.121 42.8576 187.304 42.8402C187.488 42.8228 187.463 43.0493 187.25 43.344C187.014 43.6696 186.883 43.6821 186.916 43.3757ZM70.0855 222.03C69.7806 222.285 69.2616 222.547 68.9324 222.613C68.6027 222.679 68.3029 222.977 68.2657 223.276C68.2208 223.639 67.6861 223.679 66.6657 223.398C64.7751 222.876 62.0796 220.536 62.5614 219.834C62.9726 219.234 64.3797 218.95 64.9959 219.342C65.4044 219.601 65.4325 219.54 65.1364 219.037C64.6412 218.196 66.5417 215.26 68.0904 214.474C69.3814 213.819 69.7289 213.921 70.1173 215.069C70.2641 215.503 70.6251 216.014 70.9192 216.204C71.3475 216.482 71.4507 216.379 71.437 215.686C71.4278 215.211 71.1715 214.751 70.8675 214.664C70.0934 214.441 69.5771 213.467 70.1314 213.276C70.3843 213.188 70.8456 213.282 71.157 213.483C71.5787 213.757 71.7843 213.628 71.9625 212.979C72.1724 212.214 72.3204 212.184 73.162 212.729C74.0262 213.289 74.0459 213.415 73.3572 213.985C72.9368 214.334 72.412 214.564 72.1917 214.496C71.9713 214.429 71.7079 214.501 71.6063 214.658C71.3756 215.014 73.1534 215.657 73.8072 215.453C74.1492 215.347 74.2229 215.404 74.0671 215.653C73.9472 215.844 73.614 215.973 73.3261 215.938C73.0384 215.903 72.7232 216.179 72.6259 216.551C72.5159 216.972 71.9451 217.275 71.113 217.354C69.5346 217.504 69.1688 217.886 70.0389 218.478C71.7472 219.64 71.8594 219.806 71.1392 220.112C70.6684 220.312 70.5617 220.491 70.8153 220.655C71.2078 220.909 71.0307 221.243 70.0855 222.03ZM75.6755 212.222C75.3205 212.256 75.0893 212.458 75.1618 212.671C75.2341 212.885 75.5613 212.967 75.889 212.853C76.6609 212.586 76.5108 212.143 75.6755 212.222ZM190.791 34.9137C190.464 34.8196 190.063 35.0715 189.899 35.4753C189.726 35.8984 189.162 36.229 188.562 36.2588C187.561 36.3084 187.527 36.2658 187.559 35.0213C187.582 34.1415 187.742 33.7815 188.065 33.8877C188.325 33.9729 188.626 33.7096 188.732 33.3024C188.876 32.7532 189.01 32.7029 189.253 33.1071C189.48 33.4855 189.566 33.4833 189.532 33.1008C189.466 32.3534 190.644 32.5348 191.202 33.358C191.445 33.7179 191.749 34.003 191.876 33.9907C192.003 33.9789 191.943 34.2199 191.745 34.5265C191.546 34.8331 191.117 35.0074 190.791 34.9137ZM197.358 24.7428C196.138 24.7999 195.214 24.2282 195.308 23.4741C195.347 23.159 195.072 22.4966 194.697 22.0028C194.119 21.2411 194.145 20.9126 194.87 19.8385C195.37 19.0989 195.746 18.8026 195.775 19.1267C195.801 19.4312 195.986 19.6656 196.185 19.6467C196.897 19.5789 196.441 18.5931 195.502 18.1685C194.976 17.9306 194.615 17.6285 194.701 17.4971C194.904 17.1839 196.77 17.5158 196.895 17.8872C197.038 18.3086 198.699 18.5341 198.938 18.1647C199.071 17.9594 198.603 17.5887 197.603 17.1065C195.815 16.245 195.591 15.3519 197.155 15.3195C197.936 15.3035 198.108 15.3969 198.056 15.8115C198.018 16.1155 198.339 16.4578 198.847 16.6554C199.428 16.8812 199.611 17.1255 199.421 17.4196C199.267 17.6574 199.279 18.1666 199.448 18.551C199.77 19.2814 198.618 21.31 198.079 20.9612C197.911 20.852 197.647 20.958 197.492 21.1966C197.128 21.7584 197.41 21.9219 198.556 21.8129C199.425 21.7307 199.472 21.7613 199.288 22.2867C199.085 22.8687 197.696 23.1772 197.079 22.7772C196.885 22.6517 196.506 22.6828 196.235 22.8464C195.69 23.1761 196.17 23.6572 196.82 23.4327C197.046 23.3545 197.638 23.3624 198.136 23.45C198.884 23.5816 198.98 23.7042 198.689 24.1534C198.495 24.4524 197.897 24.7178 197.358 24.7428ZM67.0043 225.69C66.6146 225.837 66.1784 225.762 66.0345 225.523C65.8703 225.25 65.722 225.352 65.6344 225.8C65.5309 226.327 64.7744 226.588 62.6992 226.811C61.1612 226.977 59.8114 227.255 59.6991 227.428C59.5869 227.601 59.6678 227.764 59.879 227.789C60.0902 227.815 60.4229 228.112 60.6186 228.45C60.9111 228.955 60.8594 229.052 60.3247 228.997C59.9672 228.96 59.6206 229.058 59.5541 229.216C59.4879 229.374 59.0709 229.327 58.6283 229.112C57.8735 228.746 56.9319 229.319 57.589 229.745C57.7552 229.853 57.5654 230.284 57.1677 230.704C56.77 231.124 56.2304 231.329 55.9684 231.159C55.7064 230.989 55.3589 230.936 55.1959 231.04C55.0331 231.145 54.701 230.838 54.4586 230.357C54.0746 229.598 54.0974 229.536 54.6353 229.885C54.9752 230.105 55.3115 230.184 55.3821 230.06C55.6153 229.655 55.2049 228.2 54.7799 227.925C54.2332 227.57 54.0118 227.95 54.2719 228.797C54.4402 229.345 54.391 229.382 54.017 228.99C53.2443 228.178 54.0137 226.994 55.0515 227.397C55.8952 227.726 56.0108 227.619 57.0225 225.584C58.3035 223.008 59.8424 221.759 60.8955 222.441C61.6801 222.95 61.9959 222.723 61.7043 221.862C61.4324 221.058 62.1145 221.273 63.25 222.349C64.0146 223.073 64.0391 223.159 63.37 222.764C62.3103 222.138 61.9384 222.604 62.8731 223.386L63.5692 223.968L62.3421 224.124C60.6056 224.346 61.0158 224.926 62.7894 224.758C63.5961 224.681 64.3711 224.693 64.5125 224.785C64.654 224.877 65.2138 224.731 65.757 224.462C66.2999 224.193 66.7149 224.174 66.679 224.42C66.6431 224.667 66.896 224.95 67.2415 225.049C67.9776 225.261 67.9514 225.332 67.0043 225.69ZM195.692 25.5751C195.01 25.133 194.963 24.9928 195.479 24.9439C195.995 24.8949 196.19 25.0214 196.356 25.5122C196.522 26.003 196.375 26.0172 195.692 25.5751ZM68.8088 220.176C68.5073 219.981 68.3872 219.626 68.5418 219.387C68.6965 219.148 68.6527 218.843 68.4448 218.708C68.1883 218.542 68.0716 218.731 68.0827 219.295C68.0917 219.753 67.9494 220.03 67.7663 219.911C67.5836 219.793 67.2221 219.974 66.963 220.315C66.7043 220.656 66.242 221.234 65.9356 221.6C65.5699 222.038 65.5632 222.385 65.9162 222.614C66.5929 223.053 68.1522 222.363 68.836 221.323C69.1741 220.81 69.1644 220.407 68.8088 220.176ZM192.491 29.4196C192.246 29.1296 191.839 29.1446 191.449 29.4582C191.097 29.7411 190.752 29.8051 190.682 29.6002C190.503 29.0691 192.375 28.3537 192.957 28.731C193.224 28.9043 193.319 29.2374 193.168 29.4711C193.012 29.7117 192.718 29.6896 192.491 29.4196ZM198.102 18.7856C197.152 18.4161 196.742 18.8856 197.391 19.5999C197.59 19.8178 197.885 19.7895 198.048 19.5376C198.212 19.2856 198.537 19.204 198.771 19.356C199.006 19.5078 199.161 19.5232 199.116 19.3901C199.071 19.2567 198.614 18.9849 198.102 18.7856ZM81.0682 200.003C80.7861 199.969 80.5167 199.829 80.4701 199.691C80.4235 199.553 80.689 199.527 81.0604 199.634C81.831 199.856 81.8363 200.096 81.0682 200.003ZM185.863 38.612C185.89 38.3471 186.101 38.0217 186.332 37.8888C186.562 37.7554 186.539 37.972 186.282 38.3697C186.024 38.7675 185.836 38.8763 185.863 38.612ZM192.043 27.9503C191.761 27.9165 191.487 27.7622 191.435 27.6079C191.307 27.2309 192.134 26.9657 192.565 27.2452C193.032 27.5478 192.678 28.0269 192.043 27.9503ZM197.054 20.2965C196.859 20.1705 196.668 20.3238 196.629 20.6373C196.59 20.951 196.623 21.2495 196.702 21.3006C196.781 21.3518 196.972 21.1985 197.127 20.9598C197.281 20.7212 197.248 20.4227 197.054 20.2965ZM74.1378 208.844C74.0607 208.794 73.7117 209.024 73.362 209.355C73.0124 209.687 72.9118 209.98 73.1381 210.007C73.537 210.056 74.4202 209.027 74.1378 208.844ZM65.0859 220.557C64.7309 220.59 64.4998 220.792 64.5722 221.006C64.6445 221.219 64.9717 221.301 65.2994 221.188C66.0713 220.921 65.9212 220.477 65.0859 220.557ZM193.496 23.0501C193.07 22.9279 193.052 22.7453 193.434 22.4381C194.061 21.9348 194.753 22.2206 194.363 22.8217C194.22 23.0433 193.83 23.146 193.496 23.0501ZM200.07 13.2152C199.869 13.0849 199.789 12.8482 199.892 12.6891C199.995 12.53 200.244 12.5064 200.445 12.6366C200.646 12.7669 200.726 13.0036 200.623 13.1627C200.52 13.3218 200.271 13.3454 200.07 13.2152ZM66.2796 217.527C65.8069 217.572 65.4642 217.739 65.5184 217.899C65.6536 218.299 67.1971 218.181 67.1652 217.773C67.1511 217.593 66.7527 217.482 66.2796 217.527ZM60.5697 224.492C60.4285 224.257 60.2919 224.333 60.2497 224.671C60.168 225.329 60.3706 225.591 60.6402 225.175C60.7373 225.025 60.7055 224.718 60.5697 224.492ZM203.164 4.13063C203.087 4.08066 202.769 4.24438 202.457 4.49436C202.146 4.74458 202.04 5.04562 202.223 5.16378C202.405 5.28171 202.723 5.11802 202.929 4.79984C203.135 4.48165 203.24 4.18036 203.164 4.13063ZM201.578 3.73676C201.45 3.52383 201.157 3.41538 200.926 3.49515C200.695 3.57516 200.762 3.80655 201.075 4.00949C201.717 4.42556 201.924 4.31309 201.578 3.73676ZM197.569 6.66569C197.368 6.53544 197.119 6.55903 197.016 6.71813C196.913 6.87722 196.993 7.11396 197.194 7.2442C197.395 7.37444 197.643 7.35082 197.747 7.19173C197.85 7.03264 197.77 6.79593 197.569 6.66569ZM190.477 12.5868C190.693 12.5662 190.523 12.4499 190.1 12.3278C189.145 12.0535 188.967 12.7455 189.801 13.4878C190.311 13.9419 190.392 13.9142 190.253 13.332C190.16 12.9429 190.261 12.6073 190.477 12.5868ZM37.4702 248.036C37.0805 248.185 36.0811 249.195 35.2494 250.28C34.4172 251.364 33.4923 252.275 33.1932 252.304C32.8941 252.332 32.4578 252.651 32.2239 253.012C31.9043 253.505 31.6775 253.524 31.3103 253.089C30.9491 252.661 30.8355 252.666 30.8743 253.107C30.941 253.864 30.2241 255.139 29.7627 255.083C29.5697 255.06 28.9228 255.554 28.3244 256.18C27.7264 256.807 27.0455 257.296 26.8117 257.268C26.5773 257.24 26.1929 257.514 25.9573 257.878C25.7217 258.241 25.028 258.562 24.4159 258.591C23.5818 258.63 23.2196 258.89 22.9676 259.631C22.7553 260.256 22.3321 260.665 21.8169 260.743C21.3686 260.811 20.7348 261.156 20.4084 261.509C19.9334 262.023 19.5671 262.016 18.5689 261.472C17.1839 260.718 16.7763 260.975 17.1692 262.355C17.378 263.089 17.3255 263.21 16.9117 262.953C16.5425 262.722 16.5131 262.876 16.8104 263.482C17.1578 264.19 17.0416 264.531 16.1262 265.49C15.3611 266.291 14.8496 266.532 14.4553 266.276C14.0329 266.003 13.8043 266.143 13.5652 266.824C13.1782 267.924 11.8172 268.658 11.742 267.807C11.7147 267.493 11.4319 267.225 11.0854 267.183C10.6244 267.128 10.5794 267.309 10.8985 267.936C11.2984 268.721 11.2797 268.736 10.5185 268.243C9.58445 267.638 9.1697 267.988 9.85647 268.802C10.1902 269.197 10.1336 269.507 9.66482 269.851C9.29887 270.119 8.60609 270.823 8.12538 271.416C7.64504 272.008 7.16201 272.594 7.05307 272.718C6.94357 272.842 6.398 272.567 5.8404 272.106C4.70972 271.172 4.40616 271.299 4.82299 272.532C5.07752 273.284 5.04998 273.324 4.52158 272.982C4.07247 272.691 3.87858 272.822 3.66736 273.558L3.39417 274.51L2.93494 273.013C2.5456 271.743 2.33728 271.5 1.56443 271.409C0.821905 271.323 0.705438 271.222 0.935803 270.867C1.09119 270.627 1.46988 270.594 1.77757 270.793C2.2212 271.081 2.51829 270.829 3.21842 269.571L4.10017 267.986L5.65559 268.788C7.02235 269.494 7.28203 269.5 7.79518 268.84C8.18033 268.345 8.20029 267.973 7.85387 267.748C7.56481 267.561 7.20186 267.603 7.04722 267.842C6.89258 268.08 6.60161 268.169 6.40063 268.039C6.19964 267.909 6.21683 267.522 6.43876 267.179C6.83708 266.565 6.82665 266.559 5.6161 266.749L4.39025 266.941L5.65411 265.361C6.41025 264.416 7.19394 263.81 7.60378 263.852C8.19049 263.913 8.23779 263.835 7.93171 263.306C7.62527 262.777 7.72725 262.666 8.64204 262.534C9.22952 262.449 9.93096 262.523 10.2014 262.698C10.9063 263.155 11.3793 262.209 10.9085 261.284C10.4477 260.38 10.6477 260.312 12.0737 260.886C12.6396 261.114 12.85 261.242 12.5415 261.171C12.1387 261.079 11.9849 261.263 11.9958 261.825C12.014 262.752 13.2255 263.243 13.5344 262.45C13.6725 262.094 13.9434 262.084 14.337 262.421C14.8065 262.823 14.9943 262.753 15.2375 262.087C15.4064 261.624 15.5267 261.043 15.5049 260.796C15.4483 260.154 14.5168 260.124 14.4374 260.761C14.3287 261.639 12.9606 260.48 12.9413 259.495C12.917 258.252 14.247 257.166 15.76 257.193C16.6941 257.21 17.0455 257.031 17.0519 256.532C17.0568 256.156 17.5159 255.312 18.0727 254.656C18.629 254 19.3201 253.108 19.6081 252.673C19.99 252.098 20.3158 252.002 20.8106 252.323C21.1837 252.565 21.6153 252.567 21.77 252.329C21.9246 252.09 21.8045 251.735 21.503 251.54C21.1986 251.342 21.1215 250.927 21.3297 250.606C21.538 250.284 21.9484 250.185 22.2528 250.383C22.589 250.6 22.9762 250.467 23.254 250.039C23.5031 249.654 24.4165 248.952 25.2837 248.479C26.1513 248.006 26.7023 247.516 26.5082 247.39C25.9195 247.009 26.5928 246.394 27.824 246.189C28.4636 246.083 29.1125 245.802 29.2658 245.566C29.419 245.329 29.9318 245.155 30.4048 245.179C31.1323 245.216 31.2363 245.102 31.079 244.441C30.9442 243.876 31.0132 243.738 31.3275 243.942C31.5895 244.111 31.8165 243.946 31.8991 243.525C32.1055 242.473 33.3952 241.586 34.0817 242.024C34.5673 242.333 34.6187 242.295 34.3448 241.829C33.782 240.871 34.828 240.787 35.4719 241.739C35.8964 242.366 36.0076 242.424 35.9705 242.003C35.9347 241.599 36.1375 241.669 36.7661 242.28C37.4012 242.897 37.6797 242.991 37.8941 242.66C38.076 242.379 38.5231 242.444 39.1319 242.838C39.9786 243.387 40.0031 243.524 39.3523 244.06C38.7627 244.545 38.7517 244.701 39.297 244.858C39.7955 245.002 39.8542 245.24 39.5185 245.758C39.1682 246.299 38.9372 246.329 38.5277 245.886C38.1994 245.531 38.0898 245.505 38.2428 245.817C38.6356 246.618 38.2452 247.739 37.4702 248.036ZM35.0517 246.896C34.7006 246.799 34.7428 246.924 35.1596 247.214C35.5367 247.476 35.7965 247.547 35.7374 247.373C35.6783 247.198 35.3697 246.983 35.0517 246.896ZM31.689 248.833C31.3856 248.75 31.5488 248.949 32.0513 249.274C32.5537 249.6 32.8017 249.667 32.6025 249.425C32.4032 249.181 31.9921 248.915 31.689 248.833ZM30.6447 250.43C30.1014 250.484 30.1221 250.544 30.7444 250.725C31.1752 250.85 31.4828 250.819 31.4279 250.657C31.3735 250.496 31.021 250.393 30.6447 250.43ZM35.8036 240.681C35.5021 240.486 35.382 240.131 35.5366 239.892C35.6913 239.654 36.0644 239.618 36.3659 239.814C36.6674 240.009 36.7875 240.364 36.6329 240.603C36.4783 240.841 36.1051 240.877 35.8036 240.681ZM19.1896 258.666C19.0003 258.543 18.7614 258.573 18.6583 258.732C18.5552 258.891 18.7274 259.187 19.0405 259.39C19.3537 259.593 19.593 259.564 19.5718 259.324C19.5507 259.084 19.3789 258.788 19.1896 258.666ZM24.9187 250.673C24.7814 250.444 24.5797 250.395 24.4706 250.563C24.3615 250.732 24.4365 250.976 24.6375 251.106C24.8385 251.237 25.04 251.286 25.0856 251.216C25.1311 251.145 25.0559 250.901 24.9187 250.673ZM19.4806 257.063C19.1796 256.706 18.9214 256.724 18.6639 257.122C18.3484 257.609 18.4133 257.698 19.0636 257.676C20.0306 257.642 20.0036 257.682 19.4806 257.063ZM16.3625 258.271C16.2253 258.042 16.0286 257.986 15.9255 258.145C15.8224 258.304 15.8504 258.621 15.9877 258.85C16.1249 259.078 16.3216 259.135 16.4247 258.976C16.5278 258.817 16.4998 258.5 16.3625 258.271ZM175.301 11.8018C174.94 11.6981 174.612 11.6644 174.571 11.7269C174.531 11.7894 174.744 12.0004 175.046 12.1957C175.347 12.3911 175.676 12.4248 175.776 12.2707C175.875 12.1168 175.662 11.9057 175.301 11.8018ZM15.1604 256.876C14.9478 256.738 14.9594 256.561 15.1867 256.482C15.4141 256.404 15.6724 256.386 15.7612 256.444C15.85 256.501 15.838 256.678 15.7349 256.837C15.6318 256.997 15.3731 257.014 15.1604 256.876Z" fill="white"/>
</svg>
