<svg width="1710" height="334" viewBox="0 0 1710 234" fill="none" xmlns="http://www.w3.org/2000/svg">
<path d="M96.2837 233.24C69.1904 233.24 46.7904 226.947 29.0837 214.36C11.5904 201.56 2.09707 182.893 0.603738 158.36H76.1237C77.1904 171.373 82.9504 177.88 93.4037 177.88C97.2437 177.88 100.444 177.027 103.004 175.32C105.777 173.4 107.164 170.52 107.164 166.68C107.164 161.347 104.284 157.08 98.5237 153.88C92.7637 150.467 83.8037 146.627 71.6437 142.36C57.1371 137.24 45.0837 132.227 35.4837 127.32C26.0971 122.413 17.9904 115.267 11.1637 105.88C4.33707 96.4933 1.0304 84.44 1.24374 69.72C1.24374 55 4.97707 42.52 12.4437 32.28C20.1237 21.8267 30.4704 13.9333 43.4837 8.59998C56.7104 3.26665 71.5371 0.599991 87.9637 0.599991C115.697 0.599991 137.67 6.99999 153.884 19.8C170.31 32.6 178.95 50.6267 179.804 73.88H103.324C103.11 67.48 101.51 62.8933 98.5237 60.12C95.5371 57.3467 91.9104 55.96 87.6437 55.96C84.6571 55.96 82.2037 57.0267 80.2837 59.16C78.3637 61.08 77.4037 63.8533 77.4037 67.48C77.4037 72.6 80.1771 76.8667 85.7237 80.28C91.4837 83.48 100.55 87.4267 112.924 92.12C127.217 97.4533 138.95 102.573 148.124 107.48C157.51 112.387 165.617 119.213 172.444 127.96C179.27 136.707 182.684 147.693 182.684 160.92C182.684 174.787 179.27 187.267 172.444 198.36C165.617 209.24 155.697 217.773 142.684 223.96C129.67 230.147 114.204 233.24 96.2837 233.24ZM346.524 196.76H271.004L259.804 231H185.244L268.124 4.44L350.044 4.44L432.604 231H357.724L346.524 196.76ZM329.244 143.32L308.764 80.28L288.284 143.32H329.244ZM659.944 4.44L578.664 162.2V231H507.624V162.2L426.344 4.44L507.624 4.44L543.784 84.76L579.944 4.44L659.944 4.44ZM975.244 4.44V231H904.204V142.68H836.684V231L765.644 231V4.44H836.684V86.04L904.204 86.04V4.44L975.244 4.44ZM1071.85 61.08V88.92H1142.25V142.36H1071.85V174.36H1151.85V231H1000.81V4.44L1151.85 4.44V61.08H1071.85ZM1243.26 177.24H1311.74V231H1172.22V4.44L1243.26 4.44V177.24ZM1398.73 177.24H1467.21V231H1327.69V4.44L1398.73 4.44V177.24ZM1593.57 233.24C1572.24 233.24 1552.61 228.227 1534.69 218.2C1516.98 208.173 1502.9 194.307 1492.45 176.6C1482 158.893 1476.77 138.947 1476.77 116.76C1476.77 94.5733 1482 74.6267 1492.45 56.92C1502.9 39.2133 1516.98 25.4533 1534.69 15.64C1552.61 5.61332 1572.24 0.599991 1593.57 0.599991C1614.9 0.599991 1634.42 5.61332 1652.13 15.64C1669.84 25.4533 1683.81 39.2133 1694.05 56.92C1704.5 74.6267 1709.73 94.5733 1709.73 116.76C1709.73 138.947 1704.5 158.893 1694.05 176.6C1683.81 194.307 1669.73 208.173 1651.81 218.2C1634.1 228.227 1614.69 233.24 1593.57 233.24ZM1593.57 167C1607.65 167 1618.53 162.52 1626.21 153.56C1633.89 144.387 1637.73 132.12 1637.73 116.76C1637.73 101.187 1633.89 88.92 1626.21 79.96C1618.53 70.7867 1607.65 66.2 1593.57 66.2C1579.28 66.2 1568.29 70.7867 1560.61 79.96C1552.93 88.92 1549.09 101.187 1549.09 116.76C1549.09 132.12 1552.93 144.387 1560.61 153.56C1568.29 162.52 1579.28 167 1593.57 167Z" fill="url(#paint0_linear_29_2444)" fill-opacity="0.3"/>
<defs>
<linearGradient id="paint0_linear_29_2444" x1="855.5" y1="-121" x2="855.5" y2="403" gradientUnits="userSpaceOnUse">
<stop stop-color="#21C9D4" stop-opacity="0.47"/>
<stop offset="1" stop-color="#D421AC" stop-opacity="0.21"/>
</linearGradient>
</defs>
</svg>
