<svg width="201" height="203" viewBox="0 0 201 203" fill="none" xmlns="http://www.w3.org/2000/svg">
<path fill-rule="evenodd" clip-rule="evenodd" d="M16.1941 2.83278C14.7654 5.13881 13.4718 7.53131 12.6193 10.0203C9.69127 18.8293 1.97029 48.8473 1.00704 55.0122C0.603054 56.8592 0.592595 59.0201 1.2534 60.9292C2.43765 64.3191 7.09479 65.5654 10.2736 63.3576C11.4432 62.5887 12.3164 61.4135 12.8837 60.2284C14.4885 56.7654 15.9462 53.2703 17.1098 49.7109C20.5391 38.9623 23.9068 28.1433 26.9686 17.3143C27.9853 13.7227 28.2787 9.91602 28.4867 6.14759C28.6397 3.33486 26.0773 0.611282 23.2483 0.163283C19.8928 -0.342939 17.4899 0.782302 16.1941 2.83278ZM102.206 94.9912L102.206 94.9909C103.051 93.5074 103.81 92.175 104.767 90.9124C118.887 72.1417 138.314 56.9228 159.671 43.0936C162.181 41.4795 165.182 40.0865 168.334 39.4098C170.032 39.0412 173.095 39.8251 174.705 40.9172C175.91 41.7499 176.402 44.0776 175.846 45.2084C174.833 47.3775 173.219 49.4724 171.224 51.1991C158.097 62.6159 144.909 73.9624 131.585 85.2224C127.671 88.5094 123.63 91.7335 119.595 94.9517L119.595 94.9518C118.475 95.8458 117.355 96.7393 116.238 97.6336C114.546 99.0283 112.72 100.337 110.843 101.52C108.772 102.889 105.974 103.358 103.65 101.654C103.504 101.546 103.356 101.439 103.208 101.333L103.208 101.332C101.816 100.329 100.457 99.3492 100.93 97.1886C101.394 96.4172 101.809 95.6876 102.206 94.9912ZM187.328 200.848C186.18 200.444 184.964 200.039 183.711 199.621C181.215 198.789 178.57 197.907 176.022 196.895L176.016 196.892C160.93 190.861 145.845 184.829 130.857 178.705C127.606 177.368 124.524 175.612 121.772 173.758C118.073 171.298 117.164 168.765 118.36 166.466C119.556 164.166 122.535 163.223 127.178 164.182C130.351 164.819 133.721 165.613 136.616 166.815C155.582 174.835 174.525 182.962 193.382 191.128C195.492 192.045 197.605 193.304 199.058 194.761C202.739 198.355 200.501 202.249 194.836 202.091C193.436 202.037 191.966 201.74 190.341 201.411L190.34 201.411C189.394 201.22 188.396 201.018 187.328 200.848Z" fill="white" fill-opacity="0.4"/>
</svg>
