<svg width="821" height="504" viewBox="0 0 821 504" fill="none" xmlns="http://www.w3.org/2000/svg">
<path d="M48.0996 25.8969L39.6818 0L31.264 25.8969L0 32.8696L31.264 39.8423L39.6818 65.7391L48.0996 39.8423L79.3636 32.8696L48.0996 25.8969Z" fill="white" fill-opacity="0.1"/>
<path d="M153.918 25.8969L145.5 0L137.082 25.8969L105.818 32.8696L137.082 39.8423L145.5 65.7391L153.918 39.8423L185.182 32.8696L153.918 25.8969Z" fill="white" fill-opacity="0.1"/>
<path d="M251.318 0L259.736 25.8969L291 32.8696L259.736 39.8423L251.318 65.7391L242.9 39.8423L211.636 32.8696L242.9 25.8969L251.318 0Z" fill="white" fill-opacity="0.1"/>
<path d="M365.554 25.8969L357.136 0L348.718 25.8969L317.454 32.8696L348.718 39.8423L357.136 65.7391L365.554 39.8423L396.818 32.8696L365.554 25.8969Z" fill="white" fill-opacity="0.1"/>
<path d="M462.954 0L471.372 25.8969L502.636 32.8696L471.372 39.8423L462.954 65.7391L454.536 39.8423L423.272 32.8696L454.536 25.8969L462.954 0Z" fill="white" fill-opacity="0.1"/>
<path d="M577.19 25.8969L568.772 0L560.355 25.8969L529.091 32.8696L560.355 39.8423L568.772 65.7391L577.19 39.8423L608.454 32.8696L577.19 25.8969Z" fill="white" fill-opacity="0.1"/>
<path d="M674.591 0L683.008 25.8969L714.272 32.8696L683.008 39.8423L674.591 65.7391L666.173 39.8423L634.909 32.8696L666.173 25.8969L674.591 0Z" fill="white" fill-opacity="0.1"/>
<path d="M788.826 25.8969L780.409 0L771.991 25.8969L740.727 32.8696L771.991 39.8423L780.409 65.7391L788.826 39.8423L820.09 32.8696L788.826 25.8969Z" fill="white" fill-opacity="0.1"/>
<path d="M39.6818 87.6522L48.0996 113.549L79.3636 120.522L48.0996 127.494L39.6818 153.391L31.264 127.494L0 120.522L31.264 113.549L39.6818 87.6522Z" fill="white" fill-opacity="0.1"/>
<path d="M153.918 113.549L145.5 87.6522L137.082 113.549L105.818 120.522L137.082 127.494L145.5 153.391L153.918 127.494L185.182 120.522L153.918 113.549Z" fill="white" fill-opacity="0.1"/>
<path d="M251.318 87.6522L259.736 113.549L291 120.522L259.736 127.494L251.318 153.391L242.9 127.494L211.636 120.522L242.9 113.549L251.318 87.6522Z" fill="white" fill-opacity="0.1"/>
<path d="M365.554 113.549L357.136 87.6522L348.718 113.549L317.454 120.522L348.718 127.494L357.136 153.391L365.554 127.494L396.818 120.522L365.554 113.549Z" fill="white" fill-opacity="0.1"/>
<path d="M462.954 87.6522L471.372 113.549L502.636 120.522L471.372 127.494L462.954 153.391L454.536 127.494L423.272 120.522L454.536 113.549L462.954 87.6522Z" fill="white" fill-opacity="0.1"/>
<path d="M577.19 113.549L568.772 87.6522L560.355 113.549L529.091 120.522L560.355 127.494L568.772 153.391L577.19 127.494L608.454 120.522L577.19 113.549Z" fill="white" fill-opacity="0.1"/>
<path d="M674.591 87.6522L683.008 113.549L714.272 120.522L683.008 127.494L674.591 153.391L666.173 127.494L634.909 120.522L666.173 113.549L674.591 87.6522Z" fill="white" fill-opacity="0.1"/>
<path d="M788.826 113.549L780.409 87.6522L771.991 113.549L740.727 120.522L771.991 127.494L780.409 153.391L788.826 127.494L820.09 120.522L788.826 113.549Z" fill="white" fill-opacity="0.1"/>
<path d="M39.6818 175.304L48.0996 201.201L79.3636 208.174L48.0996 215.147L39.6818 241.043L31.264 215.147L0 208.174L31.264 201.201L39.6818 175.304Z" fill="white" fill-opacity="0.1"/>
<path d="M153.918 201.201L145.5 175.304L137.082 201.201L105.818 208.174L137.082 215.147L145.5 241.043L153.918 215.147L185.182 208.174L153.918 201.201Z" fill="white" fill-opacity="0.1"/>
<path d="M251.318 175.304L259.736 201.201L291 208.174L259.736 215.147L251.318 241.043L242.9 215.147L211.636 208.174L242.9 201.201L251.318 175.304Z" fill="white" fill-opacity="0.1"/>
<path d="M365.554 201.201L357.136 175.304L348.718 201.201L317.454 208.174L348.718 215.147L357.136 241.043L365.554 215.147L396.818 208.174L365.554 201.201Z" fill="white" fill-opacity="0.1"/>
<path d="M462.954 175.304L471.372 201.201L502.636 208.174L471.372 215.147L462.954 241.043L454.536 215.147L423.272 208.174L454.536 201.201L462.954 175.304Z" fill="white" fill-opacity="0.1"/>
<path d="M577.19 201.201L568.772 175.304L560.355 201.201L529.091 208.174L560.355 215.147L568.772 241.043L577.19 215.147L608.454 208.174L577.19 201.201Z" fill="white" fill-opacity="0.1"/>
<path d="M674.591 175.304L683.008 201.201L714.272 208.174L683.008 215.147L674.591 241.043L666.173 215.147L634.909 208.174L666.173 201.201L674.591 175.304Z" fill="white" fill-opacity="0.1"/>
<path d="M788.826 201.201L780.409 175.304L771.991 201.201L740.727 208.174L771.991 215.147L780.409 241.043L788.826 215.147L820.09 208.174L788.826 201.201Z" fill="white" fill-opacity="0.1"/>
<path d="M39.6818 262.957L48.0996 288.853L79.3636 295.826L48.0996 302.799L39.6818 328.696L31.264 302.799L0 295.826L31.264 288.853L39.6818 262.957Z" fill="white" fill-opacity="0.1"/>
<path d="M153.918 288.853L145.5 262.957L137.082 288.853L105.818 295.826L137.082 302.799L145.5 328.696L153.918 302.799L185.182 295.826L153.918 288.853Z" fill="white" fill-opacity="0.1"/>
<path d="M251.318 262.957L259.736 288.853L291 295.826L259.736 302.799L251.318 328.696L242.9 302.799L211.636 295.826L242.9 288.853L251.318 262.957Z" fill="white" fill-opacity="0.1"/>
<path d="M365.554 288.853L357.136 262.957L348.718 288.853L317.454 295.826L348.718 302.799L357.136 328.696L365.554 302.799L396.818 295.826L365.554 288.853Z" fill="white" fill-opacity="0.1"/>
<path d="M462.954 262.957L471.372 288.853L502.636 295.826L471.372 302.799L462.954 328.696L454.536 302.799L423.272 295.826L454.536 288.853L462.954 262.957Z" fill="white" fill-opacity="0.1"/>
<path d="M577.19 288.853L568.772 262.957L560.355 288.853L529.091 295.826L560.355 302.799L568.772 328.696L577.19 302.799L608.454 295.826L577.19 288.853Z" fill="white" fill-opacity="0.1"/>
<path d="M674.591 262.957L683.008 288.853L714.272 295.826L683.008 302.799L674.591 328.696L666.173 302.799L634.909 295.826L666.173 288.853L674.591 262.957Z" fill="white" fill-opacity="0.1"/>
<path d="M788.826 288.853L780.409 262.957L771.991 288.853L740.727 295.826L771.991 302.799L780.409 328.696L788.826 302.799L820.09 295.826L788.826 288.853Z" fill="white" fill-opacity="0.1"/>
<path d="M39.6818 350.609L48.0996 376.506L79.3636 383.478L48.0996 390.451L39.6818 416.348L31.264 390.451L0 383.478L31.264 376.506L39.6818 350.609Z" fill="white" fill-opacity="0.1"/>
<path d="M153.918 376.506L145.5 350.609L137.082 376.506L105.818 383.478L137.082 390.451L145.5 416.348L153.918 390.451L185.182 383.478L153.918 376.506Z" fill="white" fill-opacity="0.1"/>
<path d="M251.318 350.609L259.736 376.506L291 383.478L259.736 390.451L251.318 416.348L242.9 390.451L211.636 383.478L242.9 376.506L251.318 350.609Z" fill="white" fill-opacity="0.1"/>
<path d="M365.554 376.506L357.136 350.609L348.718 376.506L317.454 383.478L348.718 390.451L357.136 416.348L365.554 390.451L396.818 383.478L365.554 376.506Z" fill="white" fill-opacity="0.1"/>
<path d="M462.954 350.609L471.372 376.506L502.636 383.478L471.372 390.451L462.954 416.348L454.536 390.451L423.272 383.478L454.536 376.506L462.954 350.609Z" fill="white" fill-opacity="0.1"/>
<path d="M577.19 376.506L568.772 350.609L560.355 376.506L529.091 383.478L560.355 390.451L568.772 416.348L577.19 390.451L608.454 383.478L577.19 376.506Z" fill="white" fill-opacity="0.1"/>
<path d="M674.591 350.609L683.008 376.506L714.272 383.478L683.008 390.451L674.591 416.348L666.173 390.451L634.909 383.478L666.173 376.506L674.591 350.609Z" fill="white" fill-opacity="0.1"/>
<path d="M788.826 376.506L780.409 350.609L771.991 376.506L740.727 383.478L771.991 390.451L780.409 416.348L788.826 390.451L820.09 383.478L788.826 376.506Z" fill="white" fill-opacity="0.1"/>
<path d="M39.6818 438.261L48.0996 464.158L79.3636 471.13L48.0996 478.103L39.6818 504L31.264 478.103L0 471.13L31.264 464.158L39.6818 438.261Z" fill="white" fill-opacity="0.1"/>
<path d="M153.918 464.158L145.5 438.261L137.082 464.158L105.818 471.13L137.082 478.103L145.5 504L153.918 478.103L185.182 471.13L153.918 464.158Z" fill="white" fill-opacity="0.1"/>
<path d="M251.318 438.261L259.736 464.158L291 471.13L259.736 478.103L251.318 504L242.9 478.103L211.636 471.13L242.9 464.158L251.318 438.261Z" fill="white" fill-opacity="0.1"/>
<path d="M365.554 464.158L357.136 438.261L348.718 464.158L317.454 471.13L348.718 478.103L357.136 504L365.554 478.103L396.818 471.13L365.554 464.158Z" fill="white" fill-opacity="0.1"/>
<path d="M462.954 438.261L471.372 464.158L502.636 471.13L471.372 478.103L462.954 504L454.536 478.103L423.272 471.13L454.536 464.158L462.954 438.261Z" fill="white" fill-opacity="0.1"/>
<path d="M577.19 464.158L568.772 438.261L560.355 464.158L529.091 471.13L560.355 478.103L568.772 504L577.19 478.103L608.454 471.13L577.19 464.158Z" fill="white" fill-opacity="0.1"/>
<path d="M674.591 438.261L683.008 464.158L714.272 471.13L683.008 478.103L674.591 504L666.173 478.103L634.909 471.13L666.173 464.158L674.591 438.261Z" fill="white" fill-opacity="0.1"/>
<path d="M788.826 464.158L780.409 438.261L771.991 464.158L740.727 471.13L771.991 478.103L780.409 504L788.826 478.103L820.09 471.13L788.826 464.158Z" fill="white" fill-opacity="0.1"/>
</svg>
