<svg width="827" height="1536" viewBox="0 0 827 1536" fill="none" xmlns="http://www.w3.org/2000/svg">
<path d="M48.0996 25.8969L39.6818 0L31.264 25.8969L0 32.8696L31.264 39.8423L39.6818 65.7391L48.0996 39.8423L79.3636 32.8696L48.0996 25.8969Z" fill="white" fill-opacity="0.1"/>
<path d="M153.918 25.8969L145.5 0L137.082 25.8969L105.818 32.8696L137.082 39.8423L145.5 65.7391L153.918 39.8423L185.182 32.8696L153.918 25.8969Z" fill="white" fill-opacity="0.1"/>
<path d="M251.318 0L259.736 25.8969L291 32.8696L259.736 39.8423L251.318 65.7391L242.9 39.8423L211.636 32.8696L242.9 25.8969L251.318 0Z" fill="white" fill-opacity="0.1"/>
<path d="M365.554 25.8969L357.136 0L348.718 25.8969L317.454 32.8696L348.718 39.8423L357.136 65.7391L365.554 39.8423L396.818 32.8696L365.554 25.8969Z" fill="white" fill-opacity="0.1"/>
<path d="M462.954 0L471.372 25.8969L502.636 32.8696L471.372 39.8423L462.954 65.7391L454.536 39.8423L423.272 32.8696L454.536 25.8969L462.954 0Z" fill="white" fill-opacity="0.1"/>
<path d="M577.19 25.8969L568.772 0L560.355 25.8969L529.091 32.8696L560.355 39.8423L568.772 65.7391L577.19 39.8423L608.454 32.8696L577.19 25.8969Z" fill="white" fill-opacity="0.1"/>
<path d="M674.591 0L683.008 25.8969L714.272 32.8696L683.008 39.8423L674.591 65.7391L666.173 39.8423L634.909 32.8696L666.173 25.8969L674.591 0Z" fill="white" fill-opacity="0.1"/>
<path d="M788.826 25.8969L780.409 0L771.991 25.8969L740.727 32.8696L771.991 39.8423L780.409 65.7391L788.826 39.8423L820.09 32.8696L788.826 25.8969Z" fill="white" fill-opacity="0.1"/>
<path d="M39.6818 87.6522L48.0996 113.549L79.3636 120.522L48.0996 127.494L39.6818 153.391L31.264 127.494L0 120.522L31.264 113.549L39.6818 87.6522Z" fill="white" fill-opacity="0.1"/>
<path d="M153.918 113.549L145.5 87.6522L137.082 113.549L105.818 120.522L137.082 127.494L145.5 153.391L153.918 127.494L185.182 120.522L153.918 113.549Z" fill="white" fill-opacity="0.1"/>
<path d="M251.318 87.6522L259.736 113.549L291 120.522L259.736 127.494L251.318 153.391L242.9 127.494L211.636 120.522L242.9 113.549L251.318 87.6522Z" fill="white" fill-opacity="0.1"/>
<path d="M365.554 113.549L357.136 87.6522L348.718 113.549L317.454 120.522L348.718 127.494L357.136 153.391L365.554 127.494L396.818 120.522L365.554 113.549Z" fill="white" fill-opacity="0.1"/>
<path d="M462.954 87.6522L471.372 113.549L502.636 120.522L471.372 127.494L462.954 153.391L454.536 127.494L423.272 120.522L454.536 113.549L462.954 87.6522Z" fill="white" fill-opacity="0.1"/>
<path d="M577.19 113.549L568.772 87.6522L560.355 113.549L529.091 120.522L560.355 127.494L568.772 153.391L577.19 127.494L608.454 120.522L577.19 113.549Z" fill="white" fill-opacity="0.1"/>
<path d="M674.591 87.6522L683.008 113.549L714.272 120.522L683.008 127.494L674.591 153.391L666.173 127.494L634.909 120.522L666.173 113.549L674.591 87.6522Z" fill="white" fill-opacity="0.1"/>
<path d="M788.826 113.549L780.409 87.6522L771.991 113.549L740.727 120.522L771.991 127.494L780.409 153.391L788.826 127.494L820.09 120.522L788.826 113.549Z" fill="white" fill-opacity="0.1"/>
<path d="M39.6818 175.304L48.0996 201.201L79.3636 208.174L48.0996 215.147L39.6818 241.043L31.264 215.147L0 208.174L31.264 201.201L39.6818 175.304Z" fill="white" fill-opacity="0.1"/>
<path d="M153.918 201.201L145.5 175.304L137.082 201.201L105.818 208.174L137.082 215.147L145.5 241.043L153.918 215.147L185.182 208.174L153.918 201.201Z" fill="white" fill-opacity="0.1"/>
<path d="M251.318 175.304L259.736 201.201L291 208.174L259.736 215.147L251.318 241.043L242.9 215.147L211.636 208.174L242.9 201.201L251.318 175.304Z" fill="white" fill-opacity="0.1"/>
<path d="M365.554 201.201L357.136 175.304L348.718 201.201L317.454 208.174L348.718 215.147L357.136 241.043L365.554 215.147L396.818 208.174L365.554 201.201Z" fill="white" fill-opacity="0.1"/>
<path d="M462.954 175.304L471.372 201.201L502.636 208.174L471.372 215.147L462.954 241.043L454.536 215.147L423.272 208.174L454.536 201.201L462.954 175.304Z" fill="white" fill-opacity="0.1"/>
<path d="M577.19 201.201L568.772 175.304L560.355 201.201L529.091 208.174L560.355 215.147L568.772 241.043L577.19 215.147L608.454 208.174L577.19 201.201Z" fill="white" fill-opacity="0.1"/>
<path d="M674.591 175.304L683.008 201.201L714.272 208.174L683.008 215.147L674.591 241.043L666.173 215.147L634.909 208.174L666.173 201.201L674.591 175.304Z" fill="white" fill-opacity="0.1"/>
<path d="M788.826 201.201L780.409 175.304L771.991 201.201L740.727 208.174L771.991 215.147L780.409 241.043L788.826 215.147L820.09 208.174L788.826 201.201Z" fill="white" fill-opacity="0.1"/>
<path d="M39.6818 262.957L48.0996 288.853L79.3636 295.826L48.0996 302.799L39.6818 328.696L31.264 302.799L0 295.826L31.264 288.853L39.6818 262.957Z" fill="white" fill-opacity="0.1"/>
<path d="M153.918 288.853L145.5 262.957L137.082 288.853L105.818 295.826L137.082 302.799L145.5 328.696L153.918 302.799L185.182 295.826L153.918 288.853Z" fill="white" fill-opacity="0.1"/>
<path d="M251.318 262.957L259.736 288.853L291 295.826L259.736 302.799L251.318 328.696L242.9 302.799L211.636 295.826L242.9 288.853L251.318 262.957Z" fill="white" fill-opacity="0.1"/>
<path d="M365.554 288.853L357.136 262.957L348.718 288.853L317.454 295.826L348.718 302.799L357.136 328.696L365.554 302.799L396.818 295.826L365.554 288.853Z" fill="white" fill-opacity="0.1"/>
<path d="M462.954 262.957L471.372 288.853L502.636 295.826L471.372 302.799L462.954 328.696L454.536 302.799L423.272 295.826L454.536 288.853L462.954 262.957Z" fill="white" fill-opacity="0.1"/>
<path d="M577.19 288.853L568.772 262.957L560.355 288.853L529.091 295.826L560.355 302.799L568.772 328.696L577.19 302.799L608.454 295.826L577.19 288.853Z" fill="white" fill-opacity="0.1"/>
<path d="M674.591 262.957L683.008 288.853L714.272 295.826L683.008 302.799L674.591 328.696L666.173 302.799L634.909 295.826L666.173 288.853L674.591 262.957Z" fill="white" fill-opacity="0.1"/>
<path d="M788.826 288.853L780.409 262.957L771.991 288.853L740.727 295.826L771.991 302.799L780.409 328.696L788.826 302.799L820.09 295.826L788.826 288.853Z" fill="white" fill-opacity="0.1"/>
<path d="M39.6818 350.609L48.0996 376.506L79.3636 383.478L48.0996 390.451L39.6818 416.348L31.264 390.451L0 383.478L31.264 376.506L39.6818 350.609Z" fill="white" fill-opacity="0.1"/>
<path d="M153.918 376.506L145.5 350.609L137.082 376.506L105.818 383.478L137.082 390.451L145.5 416.348L153.918 390.451L185.182 383.478L153.918 376.506Z" fill="white" fill-opacity="0.1"/>
<path d="M251.318 350.609L259.736 376.506L291 383.478L259.736 390.451L251.318 416.348L242.9 390.451L211.636 383.478L242.9 376.506L251.318 350.609Z" fill="white" fill-opacity="0.1"/>
<path d="M365.554 376.506L357.136 350.609L348.718 376.506L317.454 383.478L348.718 390.451L357.136 416.348L365.554 390.451L396.818 383.478L365.554 376.506Z" fill="white" fill-opacity="0.1"/>
<path d="M462.954 350.609L471.372 376.506L502.636 383.478L471.372 390.451L462.954 416.348L454.536 390.451L423.272 383.478L454.536 376.506L462.954 350.609Z" fill="white" fill-opacity="0.1"/>
<path d="M577.19 376.506L568.772 350.609L560.355 376.506L529.091 383.478L560.355 390.451L568.772 416.348L577.19 390.451L608.454 383.478L577.19 376.506Z" fill="white" fill-opacity="0.1"/>
<path d="M674.591 350.609L683.008 376.506L714.272 383.478L683.008 390.451L674.591 416.348L666.173 390.451L634.909 383.478L666.173 376.506L674.591 350.609Z" fill="white" fill-opacity="0.1"/>
<path d="M788.826 376.506L780.409 350.609L771.991 376.506L740.727 383.478L771.991 390.451L780.409 416.348L788.826 390.451L820.09 383.478L788.826 376.506Z" fill="white" fill-opacity="0.1"/>
<path d="M39.6818 438.261L48.0996 464.158L79.3636 471.13L48.0996 478.103L39.6818 504L31.264 478.103L0 471.13L31.264 464.158L39.6818 438.261Z" fill="white" fill-opacity="0.1"/>
<path d="M153.918 464.158L145.5 438.261L137.082 464.158L105.818 471.13L137.082 478.103L145.5 504L153.918 478.103L185.182 471.13L153.918 464.158Z" fill="white" fill-opacity="0.1"/>
<path d="M251.318 438.261L259.736 464.158L291 471.13L259.736 478.103L251.318 504L242.9 478.103L211.636 471.13L242.9 464.158L251.318 438.261Z" fill="white" fill-opacity="0.1"/>
<path d="M365.554 464.158L357.136 438.261L348.718 464.158L317.454 471.13L348.718 478.103L357.136 504L365.554 478.103L396.818 471.13L365.554 464.158Z" fill="white" fill-opacity="0.1"/>
<path d="M462.954 438.261L471.372 464.158L502.636 471.13L471.372 478.103L462.954 504L454.536 478.103L423.272 471.13L454.536 464.158L462.954 438.261Z" fill="white" fill-opacity="0.1"/>
<path d="M577.19 464.158L568.772 438.261L560.355 464.158L529.091 471.13L560.355 478.103L568.772 504L577.19 478.103L608.454 471.13L577.19 464.158Z" fill="white" fill-opacity="0.1"/>
<path d="M674.591 438.261L683.008 464.158L714.272 471.13L683.008 478.103L674.591 504L666.173 478.103L634.909 471.13L666.173 464.158L674.591 438.261Z" fill="white" fill-opacity="0.1"/>
<path d="M788.826 464.158L780.409 438.261L771.991 464.158L740.727 471.13L771.991 478.103L780.409 504L788.826 478.103L820.09 471.13L788.826 464.158Z" fill="white" fill-opacity="0.1"/>
<path d="M54.0996 1057.9L45.6818 1032L37.264 1057.9L6 1064.87L37.264 1071.84L45.6818 1097.74L54.0996 1071.84L85.3636 1064.87L54.0996 1057.9Z" fill="white" fill-opacity="0.1"/>
<path d="M159.918 1057.9L151.5 1032L143.082 1057.9L111.818 1064.87L143.082 1071.84L151.5 1097.74L159.918 1071.84L191.182 1064.87L159.918 1057.9Z" fill="white" fill-opacity="0.1"/>
<path d="M257.318 1032L265.736 1057.9L297 1064.87L265.736 1071.84L257.318 1097.74L248.9 1071.84L217.636 1064.87L248.9 1057.9L257.318 1032Z" fill="white" fill-opacity="0.1"/>
<path d="M371.554 1057.9L363.136 1032L354.718 1057.9L323.454 1064.87L354.718 1071.84L363.136 1097.74L371.554 1071.84L402.818 1064.87L371.554 1057.9Z" fill="white" fill-opacity="0.1"/>
<path d="M468.954 1032L477.372 1057.9L508.636 1064.87L477.372 1071.84L468.954 1097.74L460.536 1071.84L429.272 1064.87L460.536 1057.9L468.954 1032Z" fill="white" fill-opacity="0.1"/>
<path d="M583.19 1057.9L574.772 1032L566.355 1057.9L535.091 1064.87L566.355 1071.84L574.772 1097.74L583.19 1071.84L614.454 1064.87L583.19 1057.9Z" fill="white" fill-opacity="0.1"/>
<path d="M680.591 1032L689.008 1057.9L720.272 1064.87L689.008 1071.84L680.591 1097.74L672.173 1071.84L640.909 1064.87L672.173 1057.9L680.591 1032Z" fill="white" fill-opacity="0.1"/>
<path d="M794.826 1057.9L786.409 1032L777.991 1057.9L746.727 1064.87L777.991 1071.84L786.409 1097.74L794.826 1071.84L826.09 1064.87L794.826 1057.9Z" fill="white" fill-opacity="0.1"/>
<path d="M45.6818 1119.65L54.0996 1145.55L85.3636 1152.52L54.0996 1159.49L45.6818 1185.39L37.264 1159.49L6 1152.52L37.264 1145.55L45.6818 1119.65Z" fill="white" fill-opacity="0.1"/>
<path d="M159.918 1145.55L151.5 1119.65L143.082 1145.55L111.818 1152.52L143.082 1159.49L151.5 1185.39L159.918 1159.49L191.182 1152.52L159.918 1145.55Z" fill="white" fill-opacity="0.1"/>
<path d="M257.318 1119.65L265.736 1145.55L297 1152.52L265.736 1159.49L257.318 1185.39L248.9 1159.49L217.636 1152.52L248.9 1145.55L257.318 1119.65Z" fill="white" fill-opacity="0.1"/>
<path d="M371.554 1145.55L363.136 1119.65L354.718 1145.55L323.454 1152.52L354.718 1159.49L363.136 1185.39L371.554 1159.49L402.818 1152.52L371.554 1145.55Z" fill="white" fill-opacity="0.1"/>
<path d="M468.954 1119.65L477.372 1145.55L508.636 1152.52L477.372 1159.49L468.954 1185.39L460.536 1159.49L429.272 1152.52L460.536 1145.55L468.954 1119.65Z" fill="white" fill-opacity="0.1"/>
<path d="M583.19 1145.55L574.772 1119.65L566.355 1145.55L535.091 1152.52L566.355 1159.49L574.772 1185.39L583.19 1159.49L614.454 1152.52L583.19 1145.55Z" fill="white" fill-opacity="0.1"/>
<path d="M680.591 1119.65L689.008 1145.55L720.272 1152.52L689.008 1159.49L680.591 1185.39L672.173 1159.49L640.909 1152.52L672.173 1145.55L680.591 1119.65Z" fill="white" fill-opacity="0.1"/>
<path d="M794.826 1145.55L786.409 1119.65L777.991 1145.55L746.727 1152.52L777.991 1159.49L786.409 1185.39L794.826 1159.49L826.09 1152.52L794.826 1145.55Z" fill="white" fill-opacity="0.1"/>
<path d="M45.6818 1207.3L54.0996 1233.2L85.3636 1240.17L54.0996 1247.15L45.6818 1273.04L37.264 1247.15L6 1240.17L37.264 1233.2L45.6818 1207.3Z" fill="white" fill-opacity="0.1"/>
<path d="M159.918 1233.2L151.5 1207.3L143.082 1233.2L111.818 1240.17L143.082 1247.15L151.5 1273.04L159.918 1247.15L191.182 1240.17L159.918 1233.2Z" fill="white" fill-opacity="0.1"/>
<path d="M257.318 1207.3L265.736 1233.2L297 1240.17L265.736 1247.15L257.318 1273.04L248.9 1247.15L217.636 1240.17L248.9 1233.2L257.318 1207.3Z" fill="white" fill-opacity="0.1"/>
<path d="M371.554 1233.2L363.136 1207.3L354.718 1233.2L323.454 1240.17L354.718 1247.15L363.136 1273.04L371.554 1247.15L402.818 1240.17L371.554 1233.2Z" fill="white" fill-opacity="0.1"/>
<path d="M468.954 1207.3L477.372 1233.2L508.636 1240.17L477.372 1247.15L468.954 1273.04L460.536 1247.15L429.272 1240.17L460.536 1233.2L468.954 1207.3Z" fill="white" fill-opacity="0.1"/>
<path d="M583.19 1233.2L574.772 1207.3L566.355 1233.2L535.091 1240.17L566.355 1247.15L574.772 1273.04L583.19 1247.15L614.454 1240.17L583.19 1233.2Z" fill="white" fill-opacity="0.1"/>
<path d="M680.591 1207.3L689.008 1233.2L720.272 1240.17L689.008 1247.15L680.591 1273.04L672.173 1247.15L640.909 1240.17L672.173 1233.2L680.591 1207.3Z" fill="white" fill-opacity="0.1"/>
<path d="M794.826 1233.2L786.409 1207.3L777.991 1233.2L746.727 1240.17L777.991 1247.15L786.409 1273.04L794.826 1247.15L826.09 1240.17L794.826 1233.2Z" fill="white" fill-opacity="0.1"/>
<path d="M45.6818 1294.96L54.0996 1320.85L85.3636 1327.83L54.0996 1334.8L45.6818 1360.7L37.264 1334.8L6 1327.83L37.264 1320.85L45.6818 1294.96Z" fill="white" fill-opacity="0.1"/>
<path d="M159.918 1320.85L151.5 1294.96L143.082 1320.85L111.818 1327.83L143.082 1334.8L151.5 1360.7L159.918 1334.8L191.182 1327.83L159.918 1320.85Z" fill="white" fill-opacity="0.1"/>
<path d="M257.318 1294.96L265.736 1320.85L297 1327.83L265.736 1334.8L257.318 1360.7L248.9 1334.8L217.636 1327.83L248.9 1320.85L257.318 1294.96Z" fill="white" fill-opacity="0.1"/>
<path d="M371.554 1320.85L363.136 1294.96L354.718 1320.85L323.454 1327.83L354.718 1334.8L363.136 1360.7L371.554 1334.8L402.818 1327.83L371.554 1320.85Z" fill="white" fill-opacity="0.1"/>
<path d="M468.954 1294.96L477.372 1320.85L508.636 1327.83L477.372 1334.8L468.954 1360.7L460.536 1334.8L429.272 1327.83L460.536 1320.85L468.954 1294.96Z" fill="white" fill-opacity="0.1"/>
<path d="M583.19 1320.85L574.772 1294.96L566.355 1320.85L535.091 1327.83L566.355 1334.8L574.772 1360.7L583.19 1334.8L614.454 1327.83L583.19 1320.85Z" fill="white" fill-opacity="0.1"/>
<path d="M680.591 1294.96L689.008 1320.85L720.272 1327.83L689.008 1334.8L680.591 1360.7L672.173 1334.8L640.909 1327.83L672.173 1320.85L680.591 1294.96Z" fill="white" fill-opacity="0.1"/>
<path d="M794.826 1320.85L786.409 1294.96L777.991 1320.85L746.727 1327.83L777.991 1334.8L786.409 1360.7L794.826 1334.8L826.09 1327.83L794.826 1320.85Z" fill="white" fill-opacity="0.1"/>
<path d="M45.6818 1382.61L54.0996 1408.51L85.3636 1415.48L54.0996 1422.45L45.6818 1448.35L37.264 1422.45L6 1415.48L37.264 1408.51L45.6818 1382.61Z" fill="white" fill-opacity="0.1"/>
<path d="M159.918 1408.51L151.5 1382.61L143.082 1408.51L111.818 1415.48L143.082 1422.45L151.5 1448.35L159.918 1422.45L191.182 1415.48L159.918 1408.51Z" fill="white" fill-opacity="0.1"/>
<path d="M257.318 1382.61L265.736 1408.51L297 1415.48L265.736 1422.45L257.318 1448.35L248.9 1422.45L217.636 1415.48L248.9 1408.51L257.318 1382.61Z" fill="white" fill-opacity="0.1"/>
<path d="M371.554 1408.51L363.136 1382.61L354.718 1408.51L323.454 1415.48L354.718 1422.45L363.136 1448.35L371.554 1422.45L402.818 1415.48L371.554 1408.51Z" fill="white" fill-opacity="0.1"/>
<path d="M468.954 1382.61L477.372 1408.51L508.636 1415.48L477.372 1422.45L468.954 1448.35L460.536 1422.45L429.272 1415.48L460.536 1408.51L468.954 1382.61Z" fill="white" fill-opacity="0.1"/>
<path d="M583.19 1408.51L574.772 1382.61L566.355 1408.51L535.091 1415.48L566.355 1422.45L574.772 1448.35L583.19 1422.45L614.454 1415.48L583.19 1408.51Z" fill="white" fill-opacity="0.1"/>
<path d="M680.591 1382.61L689.008 1408.51L720.272 1415.48L689.008 1422.45L680.591 1448.35L672.173 1422.45L640.909 1415.48L672.173 1408.51L680.591 1382.61Z" fill="white" fill-opacity="0.1"/>
<path d="M794.826 1408.51L786.409 1382.61L777.991 1408.51L746.727 1415.48L777.991 1422.45L786.409 1448.35L794.826 1422.45L826.09 1415.48L794.826 1408.51Z" fill="white" fill-opacity="0.1"/>
<path d="M45.6818 1470.26L54.0996 1496.16L85.3636 1503.13L54.0996 1510.1L45.6818 1536L37.264 1510.1L6 1503.13L37.264 1496.16L45.6818 1470.26Z" fill="white" fill-opacity="0.1"/>
<path d="M159.918 1496.16L151.5 1470.26L143.082 1496.16L111.818 1503.13L143.082 1510.1L151.5 1536L159.918 1510.1L191.182 1503.13L159.918 1496.16Z" fill="white" fill-opacity="0.1"/>
<path d="M257.318 1470.26L265.736 1496.16L297 1503.13L265.736 1510.1L257.318 1536L248.9 1510.1L217.636 1503.13L248.9 1496.16L257.318 1470.26Z" fill="white" fill-opacity="0.1"/>
<path d="M371.554 1496.16L363.136 1470.26L354.718 1496.16L323.454 1503.13L354.718 1510.1L363.136 1536L371.554 1510.1L402.818 1503.13L371.554 1496.16Z" fill="white" fill-opacity="0.1"/>
<path d="M468.954 1470.26L477.372 1496.16L508.636 1503.13L477.372 1510.1L468.954 1536L460.536 1510.1L429.272 1503.13L460.536 1496.16L468.954 1470.26Z" fill="white" fill-opacity="0.1"/>
<path d="M583.19 1496.16L574.772 1470.26L566.355 1496.16L535.091 1503.13L566.355 1510.1L574.772 1536L583.19 1510.1L614.454 1503.13L583.19 1496.16Z" fill="white" fill-opacity="0.1"/>
<path d="M680.591 1470.26L689.008 1496.16L720.272 1503.13L689.008 1510.1L680.591 1536L672.173 1510.1L640.909 1503.13L672.173 1496.16L680.591 1470.26Z" fill="white" fill-opacity="0.1"/>
<path d="M794.826 1496.16L786.409 1470.26L777.991 1496.16L746.727 1503.13L777.991 1510.1L786.409 1536L794.826 1510.1L826.09 1503.13L794.826 1496.16Z" fill="white" fill-opacity="0.1"/>
<path d="M54.0996 546.897L45.6818 521L37.264 546.897L6 553.87L37.264 560.842L45.6818 586.739L54.0996 560.842L85.3636 553.87L54.0996 546.897Z" fill="white" fill-opacity="0.1"/>
<path d="M159.918 546.897L151.5 521L143.082 546.897L111.818 553.87L143.082 560.842L151.5 586.739L159.918 560.842L191.182 553.87L159.918 546.897Z" fill="white" fill-opacity="0.1"/>
<path d="M257.318 521L265.736 546.897L297 553.87L265.736 560.842L257.318 586.739L248.9 560.842L217.636 553.87L248.9 546.897L257.318 521Z" fill="white" fill-opacity="0.1"/>
<path d="M371.554 546.897L363.136 521L354.718 546.897L323.454 553.87L354.718 560.842L363.136 586.739L371.554 560.842L402.818 553.87L371.554 546.897Z" fill="white" fill-opacity="0.1"/>
<path d="M468.954 521L477.372 546.897L508.636 553.87L477.372 560.842L468.954 586.739L460.536 560.842L429.272 553.87L460.536 546.897L468.954 521Z" fill="white" fill-opacity="0.1"/>
<path d="M583.19 546.897L574.772 521L566.355 546.897L535.091 553.87L566.355 560.842L574.772 586.739L583.19 560.842L614.454 553.87L583.19 546.897Z" fill="white" fill-opacity="0.1"/>
<path d="M680.591 521L689.008 546.897L720.272 553.87L689.008 560.842L680.591 586.739L672.173 560.842L640.909 553.87L672.173 546.897L680.591 521Z" fill="white" fill-opacity="0.1"/>
<path d="M794.826 546.897L786.409 521L777.991 546.897L746.727 553.87L777.991 560.842L786.409 586.739L794.826 560.842L826.09 553.87L794.826 546.897Z" fill="white" fill-opacity="0.1"/>
<path d="M45.6818 608.652L54.0996 634.549L85.3636 641.522L54.0996 648.494L45.6818 674.391L37.264 648.494L6 641.522L37.264 634.549L45.6818 608.652Z" fill="white" fill-opacity="0.1"/>
<path d="M159.918 634.549L151.5 608.652L143.082 634.549L111.818 641.522L143.082 648.494L151.5 674.391L159.918 648.494L191.182 641.522L159.918 634.549Z" fill="white" fill-opacity="0.1"/>
<path d="M257.318 608.652L265.736 634.549L297 641.522L265.736 648.494L257.318 674.391L248.9 648.494L217.636 641.522L248.9 634.549L257.318 608.652Z" fill="white" fill-opacity="0.1"/>
<path d="M371.554 634.549L363.136 608.652L354.718 634.549L323.454 641.522L354.718 648.494L363.136 674.391L371.554 648.494L402.818 641.522L371.554 634.549Z" fill="white" fill-opacity="0.1"/>
<path d="M468.954 608.652L477.372 634.549L508.636 641.522L477.372 648.494L468.954 674.391L460.536 648.494L429.272 641.522L460.536 634.549L468.954 608.652Z" fill="white" fill-opacity="0.1"/>
<path d="M583.19 634.549L574.772 608.652L566.355 634.549L535.091 641.522L566.355 648.494L574.772 674.391L583.19 648.494L614.454 641.522L583.19 634.549Z" fill="white" fill-opacity="0.1"/>
<path d="M680.591 608.652L689.008 634.549L720.272 641.522L689.008 648.494L680.591 674.391L672.173 648.494L640.909 641.522L672.173 634.549L680.591 608.652Z" fill="white" fill-opacity="0.1"/>
<path d="M794.826 634.549L786.409 608.652L777.991 634.549L746.727 641.522L777.991 648.494L786.409 674.391L794.826 648.494L826.09 641.522L794.826 634.549Z" fill="white" fill-opacity="0.1"/>
<path d="M45.6818 696.304L54.0996 722.201L85.3636 729.174L54.0996 736.147L45.6818 762.043L37.264 736.147L6 729.174L37.264 722.201L45.6818 696.304Z" fill="white" fill-opacity="0.1"/>
<path d="M159.918 722.201L151.5 696.304L143.082 722.201L111.818 729.174L143.082 736.147L151.5 762.043L159.918 736.147L191.182 729.174L159.918 722.201Z" fill="white" fill-opacity="0.1"/>
<path d="M257.318 696.304L265.736 722.201L297 729.174L265.736 736.147L257.318 762.043L248.9 736.147L217.636 729.174L248.9 722.201L257.318 696.304Z" fill="white" fill-opacity="0.1"/>
<path d="M371.554 722.201L363.136 696.304L354.718 722.201L323.454 729.174L354.718 736.147L363.136 762.043L371.554 736.147L402.818 729.174L371.554 722.201Z" fill="white" fill-opacity="0.1"/>
<path d="M468.954 696.304L477.372 722.201L508.636 729.174L477.372 736.147L468.954 762.043L460.536 736.147L429.272 729.174L460.536 722.201L468.954 696.304Z" fill="white" fill-opacity="0.1"/>
<path d="M583.19 722.201L574.772 696.304L566.355 722.201L535.091 729.174L566.355 736.147L574.772 762.043L583.19 736.147L614.454 729.174L583.19 722.201Z" fill="white" fill-opacity="0.1"/>
<path d="M680.591 696.304L689.008 722.201L720.272 729.174L689.008 736.147L680.591 762.043L672.173 736.147L640.909 729.174L672.173 722.201L680.591 696.304Z" fill="white" fill-opacity="0.1"/>
<path d="M794.826 722.201L786.409 696.304L777.991 722.201L746.727 729.174L777.991 736.147L786.409 762.043L794.826 736.147L826.09 729.174L794.826 722.201Z" fill="white" fill-opacity="0.1"/>
<path d="M45.6818 783.957L54.0996 809.853L85.3636 816.826L54.0996 823.799L45.6818 849.696L37.264 823.799L6 816.826L37.264 809.853L45.6818 783.957Z" fill="white" fill-opacity="0.1"/>
<path d="M159.918 809.853L151.5 783.957L143.082 809.853L111.818 816.826L143.082 823.799L151.5 849.696L159.918 823.799L191.182 816.826L159.918 809.853Z" fill="white" fill-opacity="0.1"/>
<path d="M257.318 783.957L265.736 809.853L297 816.826L265.736 823.799L257.318 849.696L248.9 823.799L217.636 816.826L248.9 809.853L257.318 783.957Z" fill="white" fill-opacity="0.1"/>
<path d="M371.554 809.853L363.136 783.957L354.718 809.853L323.454 816.826L354.718 823.799L363.136 849.696L371.554 823.799L402.818 816.826L371.554 809.853Z" fill="white" fill-opacity="0.1"/>
<path d="M468.954 783.957L477.372 809.853L508.636 816.826L477.372 823.799L468.954 849.696L460.536 823.799L429.272 816.826L460.536 809.853L468.954 783.957Z" fill="white" fill-opacity="0.1"/>
<path d="M583.19 809.853L574.772 783.957L566.355 809.853L535.091 816.826L566.355 823.799L574.772 849.696L583.19 823.799L614.454 816.826L583.19 809.853Z" fill="white" fill-opacity="0.1"/>
<path d="M680.591 783.957L689.008 809.853L720.272 816.826L689.008 823.799L680.591 849.696L672.173 823.799L640.909 816.826L672.173 809.853L680.591 783.957Z" fill="white" fill-opacity="0.1"/>
<path d="M794.826 809.853L786.409 783.957L777.991 809.853L746.727 816.826L777.991 823.799L786.409 849.696L794.826 823.799L826.09 816.826L794.826 809.853Z" fill="white" fill-opacity="0.1"/>
<path d="M45.6818 871.609L54.0996 897.506L85.3636 904.478L54.0996 911.451L45.6818 937.348L37.264 911.451L6 904.478L37.264 897.506L45.6818 871.609Z" fill="white" fill-opacity="0.1"/>
<path d="M159.918 897.506L151.5 871.609L143.082 897.506L111.818 904.478L143.082 911.451L151.5 937.348L159.918 911.451L191.182 904.478L159.918 897.506Z" fill="white" fill-opacity="0.1"/>
<path d="M257.318 871.609L265.736 897.506L297 904.478L265.736 911.451L257.318 937.348L248.9 911.451L217.636 904.478L248.9 897.506L257.318 871.609Z" fill="white" fill-opacity="0.1"/>
<path d="M371.554 897.506L363.136 871.609L354.718 897.506L323.454 904.478L354.718 911.451L363.136 937.348L371.554 911.451L402.818 904.478L371.554 897.506Z" fill="white" fill-opacity="0.1"/>
<path d="M468.954 871.609L477.372 897.506L508.636 904.478L477.372 911.451L468.954 937.348L460.536 911.451L429.272 904.478L460.536 897.506L468.954 871.609Z" fill="white" fill-opacity="0.1"/>
<path d="M583.19 897.506L574.772 871.609L566.355 897.506L535.091 904.478L566.355 911.451L574.772 937.348L583.19 911.451L614.454 904.478L583.19 897.506Z" fill="white" fill-opacity="0.1"/>
<path d="M680.591 871.609L689.008 897.506L720.272 904.478L689.008 911.451L680.591 937.348L672.173 911.451L640.909 904.478L672.173 897.506L680.591 871.609Z" fill="white" fill-opacity="0.1"/>
<path d="M794.826 897.506L786.409 871.609L777.991 897.506L746.727 904.478L777.991 911.451L786.409 937.348L794.826 911.451L826.09 904.478L794.826 897.506Z" fill="white" fill-opacity="0.1"/>
<path d="M45.6818 959.261L54.0996 985.158L85.3636 992.13L54.0996 999.103L45.6818 1025L37.264 999.103L6 992.13L37.264 985.158L45.6818 959.261Z" fill="white" fill-opacity="0.1"/>
<path d="M159.918 985.158L151.5 959.261L143.082 985.158L111.818 992.13L143.082 999.103L151.5 1025L159.918 999.103L191.182 992.13L159.918 985.158Z" fill="white" fill-opacity="0.1"/>
<path d="M257.318 959.261L265.736 985.158L297 992.13L265.736 999.103L257.318 1025L248.9 999.103L217.636 992.13L248.9 985.158L257.318 959.261Z" fill="white" fill-opacity="0.1"/>
<path d="M371.554 985.158L363.136 959.261L354.718 985.158L323.454 992.13L354.718 999.103L363.136 1025L371.554 999.103L402.818 992.13L371.554 985.158Z" fill="white" fill-opacity="0.1"/>
<path d="M468.954 959.261L477.372 985.158L508.636 992.13L477.372 999.103L468.954 1025L460.536 999.103L429.272 992.13L460.536 985.158L468.954 959.261Z" fill="white" fill-opacity="0.1"/>
<path d="M583.19 985.158L574.772 959.261L566.355 985.158L535.091 992.13L566.355 999.103L574.772 1025L583.19 999.103L614.454 992.13L583.19 985.158Z" fill="white" fill-opacity="0.1"/>
<path d="M680.591 959.261L689.008 985.158L720.272 992.13L689.008 999.103L680.591 1025L672.173 999.103L640.909 992.13L672.173 985.158L680.591 959.261Z" fill="white" fill-opacity="0.1"/>
<path d="M794.826 985.158L786.409 959.261L777.991 985.158L746.727 992.13L777.991 999.103L786.409 1025L794.826 999.103L826.09 992.13L794.826 985.158Z" fill="white" fill-opacity="0.1"/>
</svg>
