<svg width="63" height="100" viewBox="0 0 63 100" fill="none" xmlns="http://www.w3.org/2000/svg">
<path fill-rule="evenodd" clip-rule="evenodd" d="M11.3691 0.197003C10.9201 0.291173 10.3161 0.466041 10.027 0.585565C9.73775 0.705089 9.11449 0.924724 8.64188 1.07366C7.98161 1.28156 7.85256 1.40224 8.08444 1.59391C8.2505 1.73111 8.60094 2.11924 8.86361 2.45637C9.28185 2.99343 9.28185 3.05921 8.86296 2.98807C8.29799 2.89216 8.53085 3.11209 9.49866 3.58787C9.85893 3.76491 10.175 4.05828 10.2009 4.23982C10.2782 4.78369 10.735 5.69511 11.2113 6.25565C11.4575 6.5454 11.5755 6.81936 11.4733 6.86457C11.1369 7.01336 11.6796 7.65487 12.5125 8.09255C13.1829 8.44504 13.2422 8.53805 12.84 8.60629C12.2472 8.70683 12.1814 9.13335 12.7584 9.13335C13.007 9.13335 13.1583 9.31836 13.1436 9.6042C13.1302 9.8631 13.3987 10.286 13.7407 10.544C14.0826 10.8019 14.3191 11.1605 14.2663 11.3409C14.2136 11.5211 14.2912 11.7545 14.4389 11.8595C14.5866 11.9644 14.6201 12.0887 14.5136 12.1359C14.4072 12.183 14.4841 12.3091 14.6846 12.416C14.9528 12.559 14.9522 12.6104 14.6816 12.6104C14.2188 12.6104 14.1936 13.4378 14.6544 13.5058C14.8798 13.5389 14.8457 13.751 14.5536 14.1335C14.3112 14.4512 14.1465 14.9393 14.1881 15.2182C14.2297 15.4971 14.2752 15.8138 14.2889 15.922C14.3066 16.0608 14.5798 16.0924 15.2148 16.029L16.1155 15.9391L15.1329 16.3167C14.5283 16.5491 14.3011 16.7205 14.5421 16.7625C14.9181 16.8281 14.8588 18.1726 14.4579 18.6801C14.3702 18.7912 14.5578 19.0089 14.8752 19.164C15.4264 19.4334 15.4248 19.4546 14.8365 19.6448C13.9663 19.9263 14.0243 20.8719 14.9417 21.3609C15.301 21.5524 15.3019 21.6328 14.9476 21.8217C14.4357 22.0945 14.2418 24.8881 14.7255 25.0204C14.9217 25.074 14.9148 25.14 14.7075 25.1968C14.4098 25.2781 14.1982 26.0265 14.2824 26.6998C14.2997 26.8393 14.5352 26.9533 14.8054 26.9533C15.0756 26.9533 15.2967 27.0511 15.2967 27.1706C15.2967 27.2902 15.0756 27.3879 14.8054 27.3879C14.1903 27.3879 14.1517 27.9491 14.7599 28.0522C15.4375 28.1672 15.5014 30.1406 14.8277 30.1406C14.5241 30.1406 14.4072 30.2241 14.5231 30.3579C14.6269 30.4775 14.5532 30.5753 14.3593 30.5753C13.9539 30.5753 14.2552 31.0228 14.7815 31.202C15.0258 31.2852 15.0078 31.3441 14.7235 31.3951C14.2087 31.4876 14.1835 31.8792 14.6924 31.8792C14.9148 31.8792 14.8411 31.9914 14.5133 32.1517C14.0112 32.397 14.006 32.4465 14.4596 32.6472C14.7802 32.789 14.8329 32.8892 14.605 32.9229C14.3616 32.9588 14.4131 33.1521 14.7642 33.5241C15.2129 33.9989 15.2204 34.1146 14.8225 34.3883C14.5696 34.5621 14.2617 34.9488 14.1383 35.2476C13.9369 35.7352 13.9847 35.7909 14.6053 35.7909C15.3619 35.7909 15.45 35.8939 14.9761 36.2255C14.754 36.3809 14.8136 36.4657 15.185 36.5234C15.6563 36.5965 15.655 36.6258 15.1706 36.8401C14.8768 36.97 14.7714 37.1132 14.9358 37.1581C15.3753 37.2782 14.9692 37.8191 14.4396 37.8191C13.8677 37.8191 13.8717 37.8477 14.5264 38.455C15.0278 38.9201 15.0278 38.9729 14.527 39.1943C14.1026 39.3822 14.0643 39.4961 14.3476 39.7301C14.6214 39.9565 14.6135 40.0017 14.3142 39.9199C14.0112 39.837 14.0079 39.8841 14.2997 40.1252C14.5077 40.2971 14.5729 40.5821 14.4445 40.7584C14.3161 40.9346 14.175 41.2723 14.1314 41.5087C14.0875 41.7452 13.8897 41.9625 13.6915 41.9916C13.1754 42.0678 13.2474 42.3189 13.8736 42.6249C14.3783 42.8716 14.3777 42.8899 13.8674 42.8899C13.4462 42.8899 13.3666 42.9738 13.5245 43.2521C13.6513 43.4752 13.5907 43.6143 13.367 43.6143C13.1675 43.6143 13.0041 43.8098 13.0041 44.0489C13.0041 44.2879 13.1289 44.4835 13.2812 44.4835C13.4338 44.4835 13.2913 44.8259 12.9648 45.2441C12.3527 46.0286 12.4316 46.9144 13.1331 47.1303C13.3804 47.2064 13.3083 47.305 12.9071 47.4409C12.4879 47.5829 12.3792 47.7462 12.5285 48.0094C12.6438 48.2125 12.6278 48.4578 12.4928 48.5544C12.3579 48.6509 12.2177 49.1242 12.1814 49.6061C12.1434 50.11 11.9564 50.5055 11.7409 50.5374C11.5348 50.5677 11.3665 50.7463 11.3665 50.9341C11.3665 51.122 11.2293 51.3132 11.0619 51.359C10.7291 51.45 10.7802 52.0044 11.1454 52.2659C11.2715 52.3562 11.1903 52.6091 10.965 52.8279C10.6348 53.1485 10.6368 53.2376 10.9745 53.2875C11.2915 53.3341 11.303 53.3977 11.0213 53.5478C10.8163 53.657 10.5903 54.0582 10.5189 54.4392C10.3145 55.5278 10.1452 55.9712 9.77247 56.3948C9.50161 56.7024 9.53174 56.8351 9.9097 57.0023C10.3184 57.1831 10.323 57.2342 9.93819 57.3332C9.20292 57.5222 9.09877 58.5314 9.73612 59.2899C10.285 59.9428 10.2841 59.9805 9.71221 60.2094C8.92584 60.5242 8.30519 61.2893 8.83643 61.2893C9.04702 61.2893 8.8921 61.3909 8.49188 61.5149C7.6626 61.7718 7.52046 62.1586 8.25508 62.1586C8.88031 62.1586 8.87573 62.4078 8.24002 62.9469C7.95377 63.1898 7.72188 63.7818 7.70092 64.3232C7.67472 65.0115 7.52013 65.321 7.14087 65.4456C6.66859 65.601 6.68038 65.6384 7.26369 65.8295C7.80835 66.008 7.85093 66.0946 7.53487 66.3816C6.91456 66.9449 6.72394 67.5191 7.15725 67.5191C7.37079 67.5191 7.44841 67.562 7.32985 67.6144C7.21129 67.6669 7.29185 67.8043 7.50867 67.9198C7.82276 68.0873 7.78902 68.1668 7.34196 68.3113C7.03377 68.4111 6.78125 68.5958 6.78125 68.7217C6.78125 68.8478 6.65876 68.9842 6.50942 69.0251C6.19729 69.1104 6.27 70.1427 6.63223 70.7652C6.80778 71.0673 6.73999 71.2311 6.39216 71.3447C5.73844 71.5584 5.40208 72.5355 5.90154 72.7699C6.36924 72.9891 6.49762 73.4591 6.08987 73.4591C5.92971 73.4591 5.7987 73.5569 5.7987 73.6764C5.7987 73.7959 5.57403 73.8937 5.29957 73.8937C4.87314 73.8937 4.8191 74.1472 4.92816 75.6357C4.99792 76.5939 4.94749 77.4073 4.8155 77.4434C4.4418 77.5456 4.1002 78.7541 4.00194 80.3215C3.94103 81.2945 3.77792 81.7877 3.49069 81.8662C3.21263 81.9421 3.08883 82.2698 3.12682 82.8272C3.15891 83.2944 2.99286 83.8351 2.75574 84.0351C2.45835 84.2864 2.41676 84.5305 2.61982 84.832C2.78096 85.071 3.03348 85.446 3.18119 85.665C3.3361 85.8954 3.323 86.0634 3.15007 86.0634C2.98566 86.0634 2.85105 86.2511 2.85105 86.4804C2.85105 86.7096 2.61229 86.9849 2.3208 87.0919C1.89666 87.2477 1.82985 87.4543 1.98804 88.1237C2.14951 88.8068 2.09645 88.961 1.69982 88.961C1.15287 88.961 1.03726 89.3304 1.54098 89.4681C2.05584 89.6089 1.92352 90.1197 1.34709 90.2177C0.933761 90.2878 0.868914 90.4345 1.03529 90.9247C1.15877 91.2886 1.10866 91.5802 0.91411 91.6336C0.696966 91.693 0.691727 91.8497 0.898391 92.0905C1.29665 92.5535 1.30025 92.7687 0.908543 92.6616C0.296741 92.4943 0.261369 92.8439 0.859088 93.1488C1.44043 93.4453 1.45353 94.0317 0.879065 94.0317C0.563011 94.0317 0.886601 95.2343 1.22951 95.3356C1.36445 95.3755 1.52657 95.571 1.58978 95.7702C1.67461 96.0374 1.87668 96.1213 2.35977 96.0901C2.8933 96.0558 2.92441 96.0748 2.52648 96.1927C2.10103 96.3189 2.12003 96.3987 2.67386 96.8145C3.02365 97.0768 3.57486 97.4178 3.8991 97.5724C4.22334 97.7268 4.48863 97.901 4.48863 97.9592C4.48863 98.0176 4.94061 98.1092 5.49346 98.1629C6.04598 98.2165 6.57754 98.3521 6.67481 98.4641C6.78453 98.5909 7.33312 98.6678 8.12637 98.6678C8.82758 98.6678 9.40139 98.733 9.40139 98.8127C9.40139 99.0067 10.9427 98.9987 11.2158 98.8033C11.3586 98.7011 11.6262 98.7268 12.0068 98.8792C12.332 99.0094 12.821 99.0688 13.1328 99.0159C13.458 98.9607 13.9562 99.0316 14.3495 99.1891C15.0563 99.472 16.0844 99.5369 16.9962 99.3561C17.3005 99.2958 17.6407 99.3119 17.7524 99.3918C18.0678 99.6176 18.7098 99.5643 19.4752 99.2489C20.1299 98.9791 21.192 98.9822 21.192 99.2538C21.192 99.32 21.4498 99.3793 21.7652 99.3857C28.252 99.5149 30.4568 99.5221 30.0818 99.4129C29.8083 99.3332 29.7635 99.249 29.9655 99.1938C30.1463 99.1444 30.3759 99.1986 30.4761 99.3142C30.596 99.4525 31.141 99.525 32.0662 99.5262C36.5552 99.5316 37.3488 99.5526 37.8879 99.6801C38.3192 99.7823 38.595 99.7603 38.896 99.5998C39.1239 99.4784 39.5035 99.4118 39.7396 99.4519C39.9758 99.492 40.3943 99.4251 40.6698 99.3032C40.9452 99.1814 41.1715 99.1353 41.1725 99.2008C41.1738 99.2662 41.6258 99.4333 42.1767 99.572C43.1068 99.8063 43.2526 99.8076 44.2014 99.5904C44.9819 99.4119 45.3615 99.3945 45.8046 99.5169C46.1236 99.6052 46.5969 99.6412 46.8559 99.5973C47.115 99.5533 47.4245 99.5869 47.5434 99.6721C47.7825 99.8432 50.6935 99.8574 51.9786 99.6937C52.4522 99.6334 53.4878 99.6798 54.435 99.8036C55.8031 99.9826 57.8468 100.033 61.5687 99.98C63.5433 99.9519 61.3984 98.7688 59.0749 98.6045C58.3623 98.5541 57.3725 98.3847 56.8753 98.2281C55.8872 97.9169 55.2538 97.8623 55.2538 98.0883C55.2538 98.2963 54.492 98.2669 53.4079 98.0167C52.8921 97.8978 52.2364 97.8 51.9515 97.7994C51.6662 97.799 51.3223 97.7497 51.187 97.6899C51.0521 97.6302 50.5484 97.5666 50.0682 97.5488C49.5878 97.5309 48.5685 97.4752 47.8028 97.4249C46.6227 97.3474 46.4108 97.3716 46.4108 97.5837C46.4108 97.7641 46.2962 97.7938 46.0014 97.6903C44.6216 97.2058 40.843 97.1377 40.843 97.5973C40.843 97.8646 40.5123 97.852 40.0406 97.5666C39.8297 97.4389 39.192 97.3184 38.6235 97.2986C38.0549 97.2787 37.3527 97.1756 37.0625 97.0691C36.7232 96.9445 36.4566 96.9275 36.3148 97.0216C36.1933 97.102 35.836 97.2098 35.5209 97.2613C35.2055 97.3128 34.9477 97.4546 34.9477 97.5767C34.9477 97.6987 34.8004 97.7985 34.6202 97.7985C34.4401 97.7985 34.2927 97.603 34.2927 97.3639C34.2927 96.8661 33.8938 96.8226 32.382 97.1563C31.8163 97.2812 31.1957 97.3401 31.0031 97.2876C30.5348 97.1595 29.0806 97.0569 28.0699 97.0805C27.6195 97.0911 27.03 97.0953 26.7598 97.0898C26.0995 97.0766 21.2094 97.106 20.3185 97.1286C19.5443 97.1482 18.844 97.3639 19.5544 97.3639C19.7945 97.3639 19.9088 97.4004 19.8079 97.4449C19.7071 97.4895 19.0582 97.3917 18.3662 97.2276C16.7388 96.8418 16.1512 96.8416 16.3791 97.2273C16.5121 97.4523 16.4558 97.4888 16.1499 97.3767C15.9272 97.2948 14.8703 97.1831 13.8013 97.1283C12.7322 97.0737 11.5407 96.9381 11.1536 96.827C10.5841 96.6639 10.4206 96.6612 10.2994 96.8134C10.1838 96.959 9.91101 96.941 9.09778 96.7341C8.51939 96.5868 7.95901 96.5049 7.85224 96.552C7.74579 96.5991 7.45299 96.5077 7.20146 96.3489C6.94993 96.19 6.56837 96.058 6.35319 96.0555C5.78102 96.0488 4.95404 95.4799 4.70742 94.9234C4.52728 94.5171 4.59802 94.4265 5.14563 94.3632C5.96082 94.2689 5.9605 94.168 5.14367 93.5246C4.7834 93.241 4.49911 92.9292 4.51156 92.8321C4.52433 92.7349 4.66124 92.7858 4.81615 92.9451L5.09749 93.2349L5.17053 92.9451C5.21048 92.7858 5.26157 92.5902 5.28417 92.5105C5.30644 92.4308 5.46725 92.2678 5.64117 92.1483C5.81508 92.0288 5.98604 91.605 6.02076 91.2066C6.0558 90.8082 6.18157 90.2455 6.30046 89.956C6.43409 89.6306 6.37939 89.3924 6.15766 89.3317C5.67064 89.1986 5.70307 88.961 6.2081 88.9609C6.50614 88.9607 6.64075 88.5198 6.70265 87.3408C6.76881 86.0791 6.90702 85.6627 7.32657 85.4576C7.71042 85.2699 7.74416 85.1942 7.44415 85.1942C7.01576 85.1942 7.02918 85.1167 7.71501 83.642C7.89711 83.2504 7.88139 83.0142 7.67079 82.9832C7.45922 82.9519 7.47526 82.8248 7.71566 82.6262C7.92101 82.4564 7.99929 82.2143 7.8899 82.088C7.78018 81.9617 7.84765 81.7746 8.03925 81.6723C8.23117 81.5701 8.39067 81.3591 8.39362 81.2034C8.40181 80.7832 8.79581 79.927 9.05717 79.7613C9.42432 79.5283 9.43873 78.7021 9.07748 78.6032C8.89538 78.5534 8.74636 78.2558 8.74636 77.9417C8.74636 77.6276 8.59013 77.3708 8.39952 77.3708C8.2089 77.3708 8.14536 77.3046 8.25836 77.2236C8.37168 77.1426 8.60127 77.1138 8.76896 77.1597C9.4289 77.3401 9.02868 76.7937 8.3458 76.5822C7.60398 76.3523 7.84077 76.2884 9.19833 76.3523C9.69911 76.3757 9.77575 76.3142 9.61002 76.0218C9.46755 75.7706 9.55827 75.6366 9.91134 75.5766C10.2919 75.512 10.399 75.3028 10.3446 74.7285C10.3053 74.3092 10.1137 73.9182 9.91887 73.8597C9.67913 73.7877 9.69714 73.7526 9.97455 73.751C10.1999 73.7498 10.3839 73.5858 10.3839 73.3866C10.3839 73.1874 10.2366 73.0244 10.0564 73.0244C9.87629 73.0244 9.72891 72.9197 9.72891 72.7916C9.72891 72.6566 9.9133 72.5901 10.1675 72.6333C10.5002 72.6898 10.6237 72.494 10.6784 71.8241C10.718 71.3382 10.848 70.8717 10.9673 70.7874C11.359 70.5105 11.4205 70.2203 11.4775 68.3884C11.5149 67.1851 11.6809 66.4628 11.9718 66.2359C12.2767 65.9982 12.3055 65.8482 12.0671 65.7427C11.8326 65.639 11.8299 65.5043 12.0595 65.3146C12.2436 65.1625 12.3527 64.8627 12.3019 64.6486C12.2511 64.4343 12.3294 64.1734 12.4758 64.0685C12.6222 63.9636 12.6549 63.8393 12.5485 63.7921C12.4421 63.745 12.5046 63.6267 12.6877 63.529C12.9212 63.4046 12.8836 63.3282 12.5619 63.2736C12.1895 63.2104 12.1722 63.0979 12.4699 62.6771C12.6717 62.392 12.9481 62.1586 13.0843 62.1586C13.5163 62.1586 13.3513 61.857 12.7817 61.605C12.2672 61.3773 12.2672 61.3587 12.7817 61.315C13.0843 61.2892 13.3316 61.1445 13.3316 60.9935C13.3316 60.8089 13.1705 60.7462 12.8403 60.8023C12.5701 60.8482 12.349 60.8453 12.349 60.7957C12.349 60.6678 13.0955 60.104 13.5648 59.8775C13.8474 59.7412 13.8691 59.5778 13.6398 59.311C13.4403 59.0791 13.4338 58.8736 13.6221 58.7725C14.0119 58.5632 14.3783 57.1295 14.062 57.0504C13.9306 57.0175 14.0236 57.0131 14.2686 57.0408C14.5997 57.0782 14.658 56.9917 14.4953 56.7048C14.3528 56.4535 14.4258 56.2758 14.7046 56.1962C14.999 56.112 15.0229 56.0397 14.7815 55.9651C14.5323 55.888 14.5464 55.5032 14.8297 54.6421C15.2057 53.5 15.2243 53.1184 14.9286 52.5967C14.8608 52.4771 14.9843 52.3949 15.203 52.4138C15.433 52.4338 15.5217 52.3573 15.4136 52.2327C15.3108 52.1142 15.3897 52.0172 15.5892 52.0172C15.8129 52.0172 15.9517 51.6934 15.9517 51.1721C15.9517 50.7072 16.0621 50.2781 16.1974 50.2182C16.3323 50.1585 16.4758 49.6749 16.5161 49.1438C16.556 48.6125 16.6513 47.5423 16.7276 46.7653C16.8039 45.9884 16.7378 45.3528 16.5809 45.3528C16.2829 45.3528 16.8085 44.6177 17.2006 44.4864C18.132 44.1745 18.3007 43.3791 17.5284 42.9401C17.344 42.8354 17.3922 42.7409 17.6574 42.6866C17.9918 42.6182 17.9948 42.5824 17.6712 42.5156C17.1197 42.4018 17.1541 42.0236 17.7416 41.7365C18.1566 41.5335 18.1592 41.4489 17.7609 41.1093C17.5078 40.8933 17.4393 40.7167 17.6086 40.7167C18.0141 40.7167 18.0092 39.0206 17.6037 38.9096C17.2487 38.8126 17.5307 38.3776 18.0475 38.2254C18.2571 38.1635 18.1658 38.0864 17.8117 38.0263C17.272 37.9348 17.2697 37.9106 17.7776 37.6622C18.4193 37.3487 18.173 36.6601 17.4193 36.6601C17.1524 36.6601 16.9343 36.597 16.9343 36.5197C16.9343 36.4427 17.1364 36.4138 17.3833 36.4557C17.6303 36.4976 17.9204 36.4303 18.0282 36.3062C18.1504 36.1651 18.0436 36.0806 17.7429 36.0806C17.1475 36.0806 17.1468 35.9425 17.741 35.5956C18.0259 35.4294 18.1061 35.2163 17.9529 35.033C17.8173 34.8709 17.8153 34.4371 17.9483 34.0693C18.0813 33.7014 18.1127 33.2538 18.018 33.0744C17.9234 32.895 17.9938 32.7484 18.1743 32.7484C18.3845 32.7484 18.4039 32.554 18.2277 32.2088C18.0354 31.8313 18.0701 31.636 18.3442 31.5591C18.6407 31.4757 18.6348 31.4484 18.32 31.4467C18.0462 31.4452 17.9712 31.3267 18.1003 31.0991C18.208 30.9093 18.1448 30.5115 17.9601 30.2152C17.7295 29.8461 17.7305 29.4215 17.9627 28.8656C18.262 28.1499 18.2332 28.0324 17.719 27.8662C17.385 27.7581 17.31 27.6777 17.5428 27.6777C17.8215 27.6777 17.926 27.4527 17.8756 26.9626C17.835 26.5694 17.9594 26.1618 18.1527 26.0571C18.5329 25.8508 18.4409 24.7504 17.9991 24.2222C17.8468 24.0403 17.8644 23.522 18.039 23.0555C18.4445 21.9702 18.2034 21.6744 17.0201 21.8058L16.1296 21.9048L17.0624 21.5223C18.4491 20.9539 18.6554 20.3227 17.7216 19.5079C17.1154 18.9785 17.0561 18.8402 17.4367 18.8402C17.9968 18.8402 18.079 18.3903 17.5608 18.1611C17.3044 18.0477 17.3044 17.9764 17.5608 17.9063C18.0803 17.7642 17.9958 17.3021 17.4023 17.0395C16.9343 16.8326 16.9343 16.8119 17.4023 16.8119C17.965 16.8119 18.1189 16.4311 17.5877 16.3529C17.4059 16.3261 17.2608 15.8187 17.2634 15.2179C17.2661 14.6205 17.2585 14.0338 17.2467 13.9143C17.0915 12.3472 16.953 11.8571 16.5033 11.2801C16.2128 10.9071 15.9187 10.3143 15.8505 9.96278C15.7821 9.6113 15.6419 9.26331 15.5387 9.18942C15.4356 9.11568 15.3514 8.74088 15.3514 8.35666C15.3514 7.51188 14.755 6.81618 14.0289 6.81313C13.7122 6.81183 13.6329 6.76764 13.8337 6.70448C14.4874 6.4989 14.1959 5.67599 13.3801 5.42318C12.8043 5.24483 12.7162 5.15544 13.0316 5.06924C13.3748 4.97536 13.3742 4.91176 13.027 4.72675C12.7925 4.60187 12.5662 4.28719 12.5243 4.02757C12.4729 3.71145 12.2223 3.50978 11.7651 3.41677C11.2171 3.30521 11.1209 3.19105 11.2764 2.83725C11.3832 2.59487 11.5941 2.3748 11.7454 2.34829C11.8967 2.32178 11.9298 2.14054 11.8191 1.94553C11.6243 1.60203 11.6603 1.59391 12.9661 1.6862C14.1039 1.76675 14.3142 1.74299 14.3142 1.53364C14.3142 1.39731 14.1301 1.31488 13.9048 1.35037C13.4777 1.41789 11.694 1.07627 11.694 0.927187C11.694 0.880101 12.0422 0.870974 12.4676 0.906904C13.2707 0.974851 13.9866 0.653657 13.9866 0.225399C13.9866 -0.0395828 12.5695 -0.0549397 11.3691 0.197003ZM14.3941 0.537031C14.5149 1.33719 15.9033 1.95017 16.3909 1.41861C16.5197 1.27808 16.6267 1.2817 16.8698 1.43498C17.1337 1.60174 17.2084 1.60174 17.3483 1.43498C17.475 1.28417 17.6299 1.30416 18.0033 1.51916C18.4628 1.78385 18.5417 1.7866 19.3068 1.56494C19.9343 1.38297 20.2101 1.36819 20.5091 1.50047C21.025 1.72865 23.1044 1.72474 23.3035 1.49511C23.4116 1.37037 23.7342 1.426 24.3391 1.67418C25.3806 2.10113 25.6456 2.11968 25.8657 1.78081C25.9564 1.64129 26.13 1.42093 26.2515 1.29097C26.5243 0.999191 25.0675 0.729428 22.6658 0.626709C21.7652 0.588172 20.8881 0.498059 20.7171 0.426344C20.5462 0.354485 20.0965 0.295809 19.7182 0.295809C19.3399 0.295809 18.8535 0.217575 18.6374 0.121956C18.3318 -0.0132152 18.2398 0.0269165 18.2237 0.303053L18.2028 0.658004L17.9067 0.332029C17.5952 -0.0104624 16.2088 -0.135782 16.3038 0.187151C16.5141 0.903571 15.6586 1.11886 15.2967 0.440687C14.9784 -0.15563 14.3004 -0.0833358 14.3941 0.537031ZM25.4497 0.580493C25.4497 0.657279 25.7445 0.789987 26.1048 0.87532C26.6599 1.00672 26.7598 0.985428 26.7598 0.735514C26.7598 0.537321 26.5453 0.440687 26.1048 0.440687C25.7445 0.440687 25.4497 0.503563 25.4497 0.580493ZM27.3339 0.706827C27.2455 0.856486 27.3084 1.08612 27.4738 1.21694C27.6962 1.39253 27.6418 1.45483 27.2675 1.45483C26.674 1.45483 26.6445 1.5235 27.0831 1.88599C27.3962 2.14474 28.3646 2.1488 29.2162 1.89483C29.8172 1.71561 31.345 1.74111 31.345 1.93032C31.345 2.16575 35.3037 2.51432 35.7475 2.31801C36.2234 2.10751 37.4365 2.15198 37.8954 2.39654C38.4407 2.68716 38.8756 2.67122 38.8884 2.36032C38.8982 2.11881 38.9195 2.11881 39.3338 2.36032C39.5913 2.51027 40.2037 2.61385 40.8335 2.61385H41.8983L41.125 2.31309C40.6996 2.14764 40.5286 2.05173 40.7448 2.09983C41.1738 2.19545 41.9612 1.66911 41.6851 1.47135C41.4093 1.27402 39.2981 1.17348 38.2422 1.30749C37.037 1.46034 35.9195 1.34603 36.1396 1.09235C36.3361 0.865758 34.0428 0.83968 33.392 1.0612C33.1248 1.15218 32.8277 1.14378 32.5369 1.037C32.2919 0.947034 31.255 0.847214 30.2325 0.815196C29.21 0.783323 28.1757 0.684516 27.9343 0.595851C27.5966 0.471836 27.4577 0.497624 27.3339 0.706827ZM17.3748 0.953989C17.268 1.07699 17.1105 1.14653 17.0247 1.10857C16.9389 1.07062 16.9657 0.969926 17.0846 0.885027C17.4076 0.653802 17.5962 0.698714 17.3748 0.953989ZM20.2095 1.0202C20.2095 1.09988 20.1479 1.16508 20.0726 1.16508C19.9972 1.16508 19.7008 1.20492 19.4136 1.2536C19.0317 1.3185 18.9462 1.27967 19.0946 1.10872C19.3144 0.855327 20.2095 0.784192 20.2095 1.0202ZM30.3625 1.0202C30.3625 1.09988 30.2976 1.16508 30.2181 1.16508C30.1385 1.16508 29.9826 1.09988 29.8712 1.0202C29.7599 0.940515 29.825 0.87532 30.0157 0.87532C30.2063 0.87532 30.3625 0.940515 30.3625 1.0202ZM45.1008 1.70489C44.8306 1.75009 44.4995 1.86918 44.3645 1.96973C44.0783 2.18328 42.819 2.07694 42.7852 1.83629C42.7639 1.68606 42.2294 2.13127 42.176 2.34337C42.1384 2.49418 43.5166 2.63935 45.3271 2.67528C46.2618 2.69383 47.2198 2.77829 47.4559 2.86304C48.1991 3.1302 50.5546 3.05747 51.4697 2.73903C52.7332 2.29932 52.5528 2.04535 50.9961 2.07273C50.2755 2.08548 49.686 2.16169 49.686 2.24224C49.686 2.32279 49.4505 2.23992 49.163 2.0581C48.7519 1.79863 48.4428 1.7469 47.7203 1.81703C47.2031 1.8673 46.7069 1.83934 46.5864 1.75313C46.3565 1.58855 45.8868 1.5732 45.1008 1.70489ZM53.368 2.32178C52.7676 2.74714 52.8357 3.24567 53.4793 3.13643C53.7643 3.08804 54.1009 3.04849 54.2274 3.04849C54.5889 3.04849 54.4737 2.13692 54.1049 2.0823C53.9234 2.05549 53.5917 2.16328 53.368 2.32178ZM55.4176 2.3241C55.3062 2.40378 55.4451 2.46898 55.7258 2.46898C56.0064 2.46898 56.2364 2.53417 56.2364 2.61385C56.2364 2.69354 56.4732 2.75873 56.7627 2.75873C57.1082 2.75873 57.2205 2.67992 57.0902 2.52953C56.9808 2.40349 56.8914 2.2731 56.8914 2.23978C56.8914 2.11287 55.6105 2.18603 55.4176 2.3241ZM62.3128 2.45666C62.2073 2.53214 62.2607 2.63196 62.4314 2.67861C62.602 2.72526 62.8276 2.70165 62.9331 2.62617C63.0386 2.55069 62.9852 2.45087 62.8145 2.40422C62.6439 2.35756 62.4183 2.38118 62.3128 2.45666ZM57.8739 2.65862C57.8739 2.76293 58.0921 2.97474 58.359 3.12947C58.7615 3.36273 58.8958 3.37591 59.1477 3.20626C59.3412 3.07601 59.315 2.90535 59.0753 2.7354C58.6413 2.42812 57.8739 2.37901 57.8739 2.65862ZM60.8216 2.90361C60.8216 2.98329 60.9778 3.04849 61.1684 3.04849C61.3591 3.04849 61.4242 2.98329 61.3129 2.90361C61.2015 2.82393 61.0456 2.75873 60.966 2.75873C60.8865 2.75873 60.8216 2.82393 60.8216 2.90361ZM15.788 47.6708C15.8993 47.7505 15.8342 47.8157 15.6435 47.8157C15.4529 47.8157 15.2967 47.7505 15.2967 47.6708C15.2967 47.5911 15.3615 47.526 15.4411 47.526C15.5207 47.526 15.6766 47.5911 15.788 47.6708ZM12.349 53.1847C12.349 53.2598 12.2017 53.3211 12.0215 53.3211C11.8414 53.3211 11.694 53.2194 11.694 53.0952C11.694 52.971 11.8414 52.9096 12.0215 52.9589C12.2017 53.0081 12.349 53.1097 12.349 53.1847ZM5.83932 86.8265C5.51573 86.9685 5.47839 86.9518 5.65591 86.7454C5.77905 86.6025 5.96213 86.5221 6.06301 86.5667C6.16388 86.6112 6.06334 86.7281 5.83932 86.8265ZM1.8685 94.82C1.8685 94.8552 1.72111 94.9242 1.54098 94.9734C1.36084 95.0227 1.21346 94.9939 1.21346 94.9095C1.21346 94.8252 1.36084 94.7561 1.54098 94.7561C1.72111 94.7561 1.8685 94.7848 1.8685 94.82ZM2.52353 95.2546C2.52353 95.2898 2.37615 95.3588 2.19601 95.4081C2.01588 95.4573 1.8685 95.4285 1.8685 95.3442C1.8685 95.2598 2.01588 95.1907 2.19601 95.1907C2.37615 95.1907 2.52353 95.2194 2.52353 95.2546Z" fill="white" fill-opacity="0.4"/>
</svg>
