<svg width="64" height="100" viewBox="0 0 64 100" fill="none" xmlns="http://www.w3.org/2000/svg">
<path fill-rule="evenodd" clip-rule="evenodd" d="M52.1299 99.803C52.5789 99.7088 53.1829 99.534 53.4721 99.4144C53.7613 99.2949 54.3845 99.0753 54.8571 98.9263C55.5174 98.7184 55.6465 98.5978 55.4146 98.4061C55.2485 98.2689 54.8981 97.8808 54.6354 97.5436C54.2172 97.0066 54.2172 96.9408 54.6361 97.0119C55.201 97.1078 54.9682 96.8879 54.0004 96.4121C53.6401 96.2351 53.324 95.9417 53.2982 95.7602C53.2209 95.2163 52.764 94.3049 52.2878 93.7444C52.0415 93.4546 51.9236 93.1806 52.0258 93.1354C52.3621 92.9866 51.8194 92.3451 50.9865 91.9074C50.3161 91.555 50.2568 91.462 50.659 91.3937C51.2518 91.2932 51.3177 90.8666 50.7406 90.8666C50.492 90.8666 50.3407 90.6816 50.3554 90.3958C50.3688 90.1369 50.1003 89.714 49.7584 89.456C49.4164 89.1981 49.18 88.8395 49.2327 88.6591C49.2854 88.4789 49.2078 88.2455 49.0601 88.1405C48.9124 88.0356 48.879 87.9113 48.9854 87.8641C49.0919 87.817 49.0149 87.6909 48.8145 87.584C48.5462 87.441 48.5469 87.3896 48.8174 87.3896C49.2802 87.3896 49.3054 86.5622 48.8446 86.4942C48.6192 86.4611 48.6533 86.249 48.9455 85.8665C49.1878 85.5488 49.3526 85.0607 49.311 84.7818C49.2694 84.5029 49.2238 84.1862 49.2101 84.078C49.1924 83.9392 48.9193 83.9076 48.2842 83.971L47.3835 84.0609L48.3661 83.6833C48.9707 83.4509 49.198 83.2795 48.9569 83.2375C48.5809 83.1719 48.6402 81.8274 49.0411 81.3199C49.1289 81.2088 48.9412 80.9911 48.6238 80.836C48.0726 80.5666 48.0743 80.5454 48.6625 80.3552C49.5327 80.0737 49.4747 79.1281 48.5573 78.6391C48.1981 78.4476 48.1971 78.3672 48.5515 78.1783C49.0634 77.9055 49.2573 75.1119 48.7735 74.9796C48.5773 74.926 48.5842 74.86 48.7915 74.8032C49.0892 74.7219 49.3008 73.9735 49.2166 73.3002C49.1993 73.1607 48.9638 73.0467 48.6936 73.0467C48.4234 73.0467 48.2023 72.9489 48.2023 72.8294C48.2023 72.7098 48.4234 72.6121 48.6936 72.6121C49.3087 72.6121 49.3473 72.0509 48.7391 71.9478C48.0615 71.8328 47.9976 69.8594 48.6713 69.8594C48.9749 69.8594 49.0919 69.7759 48.9759 69.6421C48.8721 69.5225 48.9458 69.4247 49.1397 69.4247C49.5451 69.4247 49.2438 68.9772 48.7175 68.798C48.4732 68.7148 48.4912 68.6559 48.7755 68.6049C49.2903 68.5124 49.3156 68.1208 48.8066 68.1208C48.5842 68.1208 48.6579 68.0086 48.9857 67.8483C49.4878 67.603 49.4931 67.5535 49.0395 67.3528C48.7188 67.211 48.6661 67.1108 48.894 67.0771C49.1374 67.0412 49.086 66.8479 48.7349 66.4759C48.2862 66.0011 48.2786 65.8854 48.6766 65.6117C48.9294 65.4379 49.2373 65.0512 49.3607 64.7524C49.5622 64.2648 49.5144 64.2091 48.8937 64.2091C48.1371 64.2091 48.049 64.1061 48.523 63.7745C48.745 63.6191 48.6854 63.5343 48.314 63.4766C47.8427 63.4035 47.844 63.3742 48.3284 63.1599C48.6222 63.03 48.7277 62.8868 48.5632 62.8419C48.1237 62.7218 48.5298 62.1809 49.0594 62.1809C49.6313 62.1809 49.6273 62.1523 48.9726 61.545C48.4712 61.0799 48.4712 61.0271 48.972 60.8057C49.3965 60.6178 49.4348 60.5039 49.1515 60.2699C48.8777 60.0435 48.8855 59.9983 49.1849 60.0801C49.4878 60.163 49.4911 60.1159 49.1993 59.8748C48.9913 59.7029 48.9261 59.4179 49.0545 59.2416C49.1829 59.0654 49.3241 58.7277 49.3676 58.4913C49.4115 58.2548 49.6093 58.0375 49.8075 58.0084C50.3236 57.9322 50.2516 57.6811 49.6254 57.3751C49.1207 57.1284 49.1213 57.1101 49.6316 57.1101C50.0528 57.1101 50.1324 57.0262 49.9745 56.7479C49.8478 56.5248 49.9084 56.3857 50.1321 56.3857C50.3315 56.3857 50.4949 56.1902 50.4949 55.9511C50.4949 55.7121 50.3702 55.5165 50.2179 55.5165C50.0652 55.5165 50.2077 55.1741 50.5342 54.7559C51.1464 53.9714 51.0674 53.0856 50.3659 52.8697C50.1186 52.7936 50.1907 52.695 50.5919 52.5591C51.0111 52.4171 51.1198 52.2538 50.9705 51.9906C50.8552 51.7875 50.8713 51.5422 51.0062 51.4456C51.1411 51.3491 51.2813 50.8758 51.3177 50.3939C51.3557 49.89 51.5427 49.4945 51.7582 49.4626C51.9642 49.4323 52.1325 49.2537 52.1325 49.0659C52.1325 48.878 52.2698 48.6868 52.4371 48.641C52.7699 48.55 52.7188 47.9956 52.3536 47.7341C52.2275 47.6438 52.3087 47.3909 52.5341 47.1721C52.8642 46.8515 52.8622 46.7624 52.5246 46.7125C52.2075 46.6659 52.1961 46.6023 52.4777 46.4522C52.6828 46.343 52.9087 45.9418 52.9801 45.5608C53.1845 44.4722 53.3538 44.0288 53.7266 43.6052C53.9974 43.2976 53.9673 43.1649 53.5893 42.9977C53.1806 42.8169 53.176 42.7658 53.5608 42.6668C54.2961 42.4778 54.4003 41.4686 53.7629 40.7101C53.214 40.0572 53.215 40.0195 53.7868 39.7906C54.5732 39.4758 55.1938 38.7107 54.6626 38.7107C54.452 38.7107 54.6069 38.6091 55.0071 38.4851C55.8364 38.2282 55.9786 37.8414 55.2439 37.8414C54.6187 37.8414 54.6233 37.5922 55.259 37.0531C55.5453 36.8102 55.7771 36.2182 55.7981 35.6768C55.8243 34.9885 55.9789 34.679 56.3582 34.5544C56.8304 34.399 56.8186 34.3616 56.2353 34.1705C55.6907 33.992 55.6481 33.9054 55.9642 33.6184C56.5845 33.0551 56.7751 32.4809 56.3418 32.4809C56.1282 32.4809 56.0506 32.438 56.1692 32.3856C56.2877 32.3331 56.2072 32.1957 55.9904 32.0802C55.6763 31.9127 55.71 31.8332 56.1571 31.6887C56.4653 31.5889 56.7178 31.4042 56.7178 31.2783C56.7178 31.1522 56.8403 31.0158 56.9896 30.9749C57.3017 30.8896 57.229 29.8573 56.8668 29.2348C56.6912 28.9327 56.759 28.7689 57.1069 28.6553C57.7606 28.4416 58.0969 27.4645 57.5975 27.2301C57.1298 27.0109 57.0014 26.5409 57.4092 26.5409C57.5693 26.5409 57.7003 26.4431 57.7003 26.3236C57.7003 26.2041 57.925 26.1063 58.1995 26.1063C58.6259 26.1063 58.6799 25.8528 58.5709 24.3643C58.5011 23.4061 58.5515 22.5927 58.6835 22.5566C59.0572 22.4544 59.3988 21.2459 59.4971 19.6785C59.558 18.7055 59.7211 18.2123 60.0083 18.1338C60.2864 18.0579 60.4102 17.7302 60.3722 17.1728C60.3401 16.7056 60.5062 16.1649 60.7433 15.9649C61.0407 15.7136 61.0823 15.4695 60.8792 15.168C60.7181 14.929 60.4655 14.554 60.3178 14.335C60.1629 14.1046 60.176 13.9366 60.349 13.9366C60.5134 13.9366 60.648 13.7489 60.648 13.5196C60.648 13.2904 60.8867 13.0151 61.1782 12.9081C61.6024 12.7523 61.6692 12.5457 61.511 11.8763C61.3495 11.1932 61.4026 11.039 61.7992 11.039C62.3462 11.039 62.4618 10.6696 61.958 10.5319C61.4432 10.3911 61.5755 9.88027 62.1519 9.78233C62.5653 9.71221 62.6301 9.56545 62.4637 9.07533C62.3403 8.7114 62.3904 8.41976 62.5849 8.36644C62.8021 8.30704 62.8073 8.15028 62.6006 7.9095C62.2024 7.44647 62.1988 7.23132 62.5905 7.33839C63.2023 7.50572 63.2377 7.15614 62.6399 6.85117C62.0586 6.55475 62.0455 5.96828 62.62 5.96828C62.936 5.96828 62.6124 4.76566 62.2695 4.66438C62.1346 4.62454 61.9725 4.42896 61.9092 4.22975C61.8244 3.9626 61.6223 3.87872 61.1393 3.90986C60.6057 3.9442 60.5746 3.92522 60.9725 3.80729C61.398 3.6811 61.379 3.60127 60.8252 3.18547C60.4754 2.92324 59.9242 2.5822 59.5999 2.42761C59.2757 2.27318 59.0104 2.09904 59.0104 2.04079C59.0104 1.98241 58.5584 1.89085 58.0056 1.8371C57.453 1.78349 56.9215 1.64789 56.8242 1.5359C56.7145 1.40913 56.1659 1.3322 55.3727 1.3322C54.6714 1.3322 54.0976 1.26701 54.0976 1.18732C54.0976 0.993332 52.5563 1.0013 52.2832 1.19674C52.1404 1.29887 51.8728 1.27323 51.4922 1.12083C51.167 0.990578 50.678 0.931175 50.3662 0.984055C50.041 1.03925 49.5428 0.968407 49.1495 0.810921C48.4427 0.527977 47.4146 0.463081 46.5028 0.643883C46.1986 0.704155 45.8583 0.688072 45.7466 0.608238C45.4312 0.382378 44.7893 0.435699 44.0239 0.751091C43.3692 1.02086 42.307 1.01781 42.307 0.74617C42.307 0.679962 42.0493 0.620697 41.7339 0.614326C35.247 0.485092 33.0422 0.477852 33.4172 0.58709C33.6907 0.666771 33.7356 0.750954 33.5335 0.806152C33.3527 0.855553 33.1231 0.801369 33.0229 0.685753C32.903 0.547546 32.358 0.47496 31.4328 0.473801C26.9438 0.468437 26.1503 0.447426 25.6112 0.319939C25.1798 0.217651 24.9041 0.239677 24.6031 0.4002C24.3751 0.521606 23.9955 0.588249 23.7594 0.548119C23.5232 0.507988 23.1047 0.574921 22.8292 0.696762C22.5538 0.818611 22.3275 0.864677 22.3265 0.799187C22.3252 0.733849 21.8732 0.566658 21.3223 0.428009C20.3922 0.193741 20.2464 0.192444 19.2976 0.409622C18.5171 0.588104 18.1375 0.605484 17.6944 0.483063C17.3754 0.394836 16.9022 0.358765 16.6431 0.402657C16.384 0.446701 16.0745 0.413094 15.9556 0.327904C15.7165 0.156807 12.8056 0.142609 11.5204 0.30632C11.0468 0.366585 10.0112 0.320221 9.06401 0.19635C7.69597 0.0174255 5.65226 -0.0331345 1.93036 0.0200348C-0.0442467 0.0481415 2.10067 1.23122 4.42408 1.39551C5.13675 1.44593 6.12651 1.61529 6.62368 1.7719C7.6118 2.08309 8.24522 2.13772 8.24522 1.91171C8.24522 1.70367 9.00702 1.73308 10.0911 1.98328C10.6069 2.10223 11.2626 2.20002 11.5476 2.2006C11.8328 2.20103 12.1767 2.25029 12.312 2.31012C12.4469 2.36981 12.9507 2.43341 13.4308 2.45123C13.9113 2.46906 14.9305 2.52483 15.6962 2.5751C16.8763 2.65261 17.0882 2.62842 17.0882 2.41631C17.0882 2.23594 17.2028 2.20625 17.4976 2.30969C18.8774 2.79416 22.656 2.86225 22.656 2.40269C22.656 2.1354 22.9868 2.148 23.4584 2.43342C23.6693 2.56105 24.307 2.68159 24.8756 2.70144C25.4441 2.72128 26.1463 2.82443 26.4365 2.93092C26.7758 3.05551 27.0424 3.07246 27.1842 2.97844C27.3057 2.89803 27.6631 2.79025 27.9781 2.73867C28.2935 2.68724 28.5513 2.5454 28.5513 2.42327C28.5513 2.30128 28.6987 2.20146 28.8788 2.20146C29.0589 2.20146 29.2063 2.39705 29.2063 2.6361C29.2063 3.1339 29.6052 3.17736 31.1171 2.8437C31.6827 2.71882 32.3033 2.65985 32.4959 2.71245C32.9643 2.84052 34.4184 2.94309 35.4291 2.91948C35.8795 2.9089 36.469 2.9047 36.7392 2.91021C37.3995 2.92339 42.2897 2.89398 43.1805 2.87138C43.9548 2.85182 44.655 2.6361 43.9446 2.6361C43.7045 2.6361 43.5902 2.59959 43.6911 2.55511C43.792 2.51048 44.4408 2.60828 45.1328 2.77242C46.7603 3.15823 47.3478 3.15838 47.1199 2.77271C46.9869 2.54772 47.0432 2.51121 47.3491 2.62334C47.5719 2.7052 48.6287 2.8169 49.6978 2.87167C50.7668 2.92628 51.9583 3.06189 52.3454 3.17301C52.915 3.33614 53.0784 3.33875 53.1996 3.18663C53.3152 3.04103 53.588 3.05899 54.4012 3.26588C54.9796 3.41322 55.54 3.49508 55.6468 3.44799C55.7532 3.40091 56.046 3.49232 56.2976 3.65111C56.5491 3.81004 56.9307 3.94202 57.1458 3.94449C57.718 3.95116 58.545 4.52008 58.7916 5.07656C58.9717 5.48294 58.901 5.57349 58.3534 5.6368C57.5382 5.73112 57.5385 5.83195 58.3554 6.47536C58.7156 6.75903 58.9999 7.07081 58.9875 7.16788C58.9747 7.26509 58.8378 7.21423 58.6829 7.05487L58.4015 6.76511L58.3285 7.05487C58.2885 7.21423 58.2374 7.40982 58.2148 7.4895C58.1926 7.56918 58.0318 7.73217 57.8579 7.85169C57.6839 7.97122 57.513 8.39499 57.4783 8.7934C57.4432 9.19182 57.3175 9.75452 57.1986 10.044C57.0649 10.3694 57.1196 10.6076 57.3414 10.6683C57.8284 10.8014 57.796 11.039 57.2909 11.0391C56.9929 11.0393 56.8583 11.4802 56.7964 12.6592C56.7302 13.9209 56.592 14.3373 56.1725 14.5424C55.7886 14.7301 55.7549 14.8058 56.0549 14.8058C56.4833 14.8058 56.4698 14.8833 55.784 16.358C55.6019 16.7496 55.6176 16.9858 55.8282 17.0168C56.0398 17.0481 56.0238 17.1752 55.7834 17.3738C55.578 17.5436 55.4997 17.7857 55.6091 17.912C55.7188 18.0383 55.6514 18.2254 55.4598 18.3277C55.2678 18.4299 55.1083 18.6409 55.1054 18.7966C55.0972 19.2168 54.7032 20.073 54.4419 20.2387C54.0747 20.4717 54.0603 21.2979 54.4215 21.3968C54.6036 21.4466 54.7527 21.7442 54.7527 22.0583C54.7527 22.3724 54.9089 22.6292 55.0995 22.6292C55.2901 22.6292 55.3537 22.6954 55.2407 22.7764C55.1273 22.8574 54.8978 22.8862 54.7301 22.8403C54.0701 22.6599 54.4703 23.2063 55.1532 23.4178C55.895 23.6477 55.6583 23.7116 54.3007 23.6477C53.7999 23.6243 53.7233 23.6858 53.889 23.9782C54.0315 24.2294 53.9408 24.3634 53.5877 24.4234C53.2071 24.488 53.1 24.6972 53.1544 25.2715C53.1937 25.6908 53.3853 26.0818 53.5802 26.1403C53.8199 26.2123 53.8019 26.2474 53.5245 26.249C53.2991 26.2502 53.1151 26.4142 53.1151 26.6134C53.1151 26.8126 53.2625 26.9756 53.4426 26.9756C53.6227 26.9756 53.7701 27.0803 53.7701 27.2084C53.7701 27.3434 53.5857 27.4099 53.3316 27.3667C52.9988 27.3102 52.8753 27.506 52.8206 28.1759C52.781 28.6618 52.651 29.1283 52.5318 29.2126C52.1401 29.4895 52.0785 29.7797 52.0215 31.6116C51.9842 32.8149 51.8181 33.5372 51.5273 33.7641C51.2224 34.0018 51.1935 34.1518 51.432 34.2573C51.6665 34.361 51.6691 34.4957 51.4395 34.6854C51.2554 34.8375 51.1464 35.1373 51.1971 35.3514C51.2479 35.5657 51.1696 35.8266 51.0232 35.9315C50.8768 36.0364 50.8441 36.1607 50.9505 36.2079C51.057 36.255 50.9944 36.3733 50.8113 36.471C50.5778 36.5954 50.6155 36.6718 50.9371 36.7264C51.3095 36.7896 51.3268 36.9021 51.0291 37.3229C50.8274 37.608 50.5509 37.8414 50.4147 37.8414C49.9827 37.8414 50.1478 38.143 50.7173 38.395C51.2319 38.6227 51.2319 38.6413 50.7173 38.685C50.4147 38.7108 50.1674 38.8555 50.1674 39.0065C50.1674 39.1911 50.3286 39.2538 50.6587 39.1977C50.9289 39.1518 51.15 39.1547 51.15 39.2043C51.15 39.3322 50.4036 39.896 49.9342 40.1225C49.6516 40.2588 49.63 40.4222 49.8592 40.689C50.0587 40.9209 50.0652 41.1264 49.8769 41.2275C49.4872 41.4368 49.1207 42.8705 49.4371 42.9496C49.5684 42.9825 49.4754 42.9869 49.2304 42.9592C48.8993 42.9218 48.841 43.0083 49.0038 43.2952C49.1462 43.5465 49.0732 43.7242 48.7945 43.8038C48.5 43.888 48.4761 43.9603 48.7175 44.0349C48.9667 44.112 48.9527 44.4968 48.6694 45.3579C48.2934 46.5 48.2747 46.8816 48.5704 47.4033C48.6382 47.5229 48.5148 47.6051 48.296 47.5862C48.0661 47.5662 47.9773 47.6427 48.0854 47.7673C48.1882 47.8858 48.1093 47.9828 47.9098 47.9828C47.6862 47.9828 47.5473 48.3066 47.5473 48.8279C47.5473 49.2928 47.4369 49.7219 47.3016 49.7818C47.1667 49.8415 47.0233 50.3251 46.983 50.8562C46.943 51.3875 46.8477 52.4577 46.7714 53.2347C46.6951 54.0116 46.7612 54.6472 46.9181 54.6472C47.2162 54.6472 46.6905 55.3823 46.2985 55.5136C45.367 55.8255 45.1983 56.6209 45.9706 57.0599C46.155 57.1646 46.1069 57.2591 45.8416 57.3134C45.5072 57.3818 45.5042 57.4176 45.8278 57.4844C46.3794 57.5982 46.345 57.9764 45.7574 58.2635C45.3424 58.4665 45.3398 58.5511 45.7381 58.8907C45.9913 59.1067 46.0597 59.2833 45.8904 59.2833C45.4849 59.2833 45.4898 60.9794 45.8953 61.0904C46.2503 61.1874 45.9683 61.6224 45.4515 61.7746C45.2419 61.8365 45.3333 61.9136 45.6873 61.9737C46.2271 62.0652 46.2294 62.0894 45.7214 62.3378C45.0798 62.6513 45.3261 63.3399 46.0797 63.3399C46.3466 63.3399 46.5647 63.403 46.5647 63.4803C46.5647 63.5573 46.3627 63.5862 46.1157 63.5443C45.8688 63.5024 45.5786 63.5697 45.4708 63.6938C45.3487 63.8349 45.4554 63.9194 45.7561 63.9194C46.3515 63.9194 46.3522 64.0575 45.7581 64.4044C45.4731 64.5706 45.3929 64.7837 45.5462 64.967C45.6817 65.1291 45.6837 65.5629 45.5507 65.9307C45.4178 66.2986 45.3863 66.7462 45.481 66.9256C45.5756 67.105 45.5052 67.2516 45.3248 67.2516C45.1145 67.2516 45.0952 67.446 45.2714 67.7912C45.4636 68.1687 45.4289 68.364 45.1548 68.4409C44.8584 68.5243 44.8643 68.5516 45.179 68.5533C45.4528 68.5548 45.5278 68.6733 45.3988 68.9009C45.291 69.0907 45.3542 69.4885 45.5389 69.7848C45.7695 70.1539 45.7685 70.5785 45.5363 71.1344C45.237 71.8501 45.2658 71.9676 45.78 72.1338C46.1141 72.2419 46.1891 72.3223 45.9562 72.3223C45.6775 72.3223 45.573 72.5473 45.6235 73.0374C45.6641 73.4306 45.5396 73.8382 45.3464 73.9429C44.9661 74.1492 45.0582 75.2496 45.5 75.7778C45.6523 75.9597 45.6346 76.478 45.46 76.9445C45.0546 78.0298 45.2956 78.3256 46.4789 78.1942L47.3694 78.0952L46.4367 78.4777C45.05 79.0461 44.8436 79.6773 45.7774 80.4921C46.3836 81.0215 46.4429 81.1598 46.0623 81.1598C45.5023 81.1598 45.4201 81.6097 45.9382 81.8389C46.1946 81.9523 46.1946 82.0236 45.9382 82.0937C45.4188 82.2358 45.5033 82.6979 46.0967 82.9605C46.5647 83.1674 46.5647 83.1881 46.0967 83.1881C45.534 83.1881 45.3801 83.5689 45.9113 83.6471C46.0931 83.6739 46.2382 84.1813 46.2356 84.7821C46.233 85.3795 46.2405 85.9662 46.2523 86.0857C46.4075 87.6528 46.5461 88.1429 46.9957 88.7199C47.2863 89.0929 47.5804 89.6857 47.6485 90.0372C47.7169 90.3887 47.8571 90.7367 47.9603 90.8106C48.0635 90.8843 48.1476 91.2591 48.1476 91.6433C48.1476 92.4881 48.744 93.1838 49.4701 93.1869C49.7868 93.1882 49.8661 93.2324 49.6653 93.2955C49.0116 93.5011 49.3031 94.324 50.119 94.5768C50.6947 94.7552 50.7828 94.8446 50.4674 94.9308C50.1242 95.0246 50.1248 95.0882 50.472 95.2732C50.7065 95.3981 50.9328 95.7128 50.9748 95.9724C51.0262 96.2886 51.2767 96.4902 51.7339 96.5832C52.2819 96.6948 52.3782 96.809 52.2226 97.1627C52.1158 97.4051 51.9049 97.6252 51.7536 97.6517C51.6023 97.6782 51.5692 97.8595 51.6799 98.0545C51.8748 98.398 51.8387 98.4061 50.5329 98.3138C49.3951 98.2332 49.1849 98.257 49.1849 98.4664C49.1849 98.6027 49.3689 98.6851 49.5943 98.6496C50.0214 98.5821 51.805 98.9237 51.805 99.0728C51.805 99.1199 51.4569 99.129 51.0314 99.0931C50.2283 99.0251 49.5124 99.3463 49.5124 99.7746C49.5124 100.04 50.9296 100.055 52.1299 99.803ZM49.105 99.463C48.9841 98.6628 47.5958 98.0498 47.1081 98.5814C46.9794 98.7219 46.8723 98.7183 46.6293 98.565C46.3653 98.3983 46.2906 98.3983 46.1507 98.565C46.024 98.7158 45.8691 98.6958 45.4957 98.4808C45.0362 98.2162 44.9573 98.2134 44.1922 98.4351C43.5647 98.617 43.2889 98.6318 42.9899 98.4995C42.474 98.2713 40.3946 98.2753 40.1955 98.5049C40.0874 98.6296 39.7648 98.574 39.1599 98.3258C38.1184 97.8989 37.8534 97.8803 37.6333 98.2192C37.5426 98.3587 37.369 98.5791 37.2475 98.709C36.9747 99.0008 38.4315 99.2706 40.8332 99.3733C41.7339 99.4118 42.6109 99.5019 42.7819 99.5737C42.9529 99.6455 43.4026 99.7042 43.7808 99.7042C44.1591 99.7042 44.6455 99.7824 44.8616 99.878C45.1672 100.013 45.2593 99.9731 45.2753 99.6969L45.2963 99.342L45.5923 99.668C45.9038 100.01 47.2902 100.136 47.1952 99.8128C46.9849 99.0964 47.8404 98.8811 48.2023 99.5593C48.5207 100.156 49.1986 100.083 49.105 99.463ZM38.0493 99.4195C38.0493 99.3427 37.7545 99.21 37.3943 99.1247C36.8391 98.9933 36.7392 99.0146 36.7392 99.2645C36.7392 99.4627 36.9537 99.5593 37.3943 99.5593C37.7545 99.5593 38.0493 99.4964 38.0493 99.4195ZM36.1651 99.2932C36.2535 99.1435 36.1906 98.9139 36.0252 98.7831C35.8028 98.6075 35.8572 98.5452 36.2316 98.5452C36.825 98.5452 36.8545 98.4765 36.416 98.114C36.1029 97.8553 35.1344 97.8512 34.2828 98.1052C33.6818 98.2844 32.154 98.2589 32.154 98.0697C32.154 97.8343 28.1953 97.4857 27.7515 97.682C27.2756 97.8925 26.0625 97.848 25.6036 97.6035C25.0583 97.3128 24.6234 97.3288 24.6106 97.6397C24.6008 97.8812 24.5795 97.8812 24.1652 97.6397C23.9077 97.4897 23.2953 97.3861 22.6655 97.3861H21.6007L22.374 97.6869C22.7994 97.8524 22.9704 97.9483 22.7542 97.9002C22.3252 97.8046 21.5378 98.3309 21.8139 98.5287C22.0897 98.726 24.2009 98.8265 25.2568 98.6925C26.4621 98.5397 27.5795 98.654 27.3594 98.9077C27.1629 99.1342 29.4562 99.1603 30.107 98.9388C30.3742 98.8478 30.6713 98.8562 30.9621 98.963C31.2071 99.053 32.244 99.1528 33.2666 99.1848C34.2891 99.2167 35.3234 99.3155 35.5647 99.4041C35.9024 99.5282 36.0413 99.5024 36.1651 99.2932ZM46.1242 99.046C46.231 98.923 46.3885 98.8535 46.4743 98.8914C46.5601 98.9294 46.5333 99.0301 46.4144 99.115C46.0915 99.3462 45.9028 99.3013 46.1242 99.046ZM43.2896 98.9798C43.2896 98.9001 43.3511 98.8349 43.4265 98.8349C43.5018 98.8349 43.7982 98.7951 44.0854 98.7464C44.4673 98.6815 44.5528 98.7203 44.4044 98.8913C44.1847 99.1447 43.2896 99.2158 43.2896 98.9798ZM33.1365 98.9798C33.1365 98.9001 33.2014 98.8349 33.281 98.8349C33.3605 98.8349 33.5164 98.9001 33.6278 98.9798C33.7392 99.0595 33.674 99.1247 33.4834 99.1247C33.2928 99.1247 33.1365 99.0595 33.1365 98.9798ZM18.3983 98.2951C18.6685 98.2499 18.9996 98.1308 19.1345 98.0303C19.4208 97.8167 20.6801 97.9231 20.7138 98.1637C20.7351 98.3139 21.2696 97.8687 21.323 97.6566C21.3606 97.5058 19.9825 97.3606 18.1719 97.3247C17.2372 97.3062 16.2792 97.2217 16.0431 97.137C15.2999 96.8698 12.9444 96.9425 12.0294 97.261C10.7658 97.7007 10.9463 97.9546 12.5029 97.9273C13.2235 97.9145 13.813 97.8383 13.813 97.7578C13.813 97.6772 14.0485 97.7601 14.3361 97.9419C14.7471 98.2014 15.0563 98.2531 15.7788 98.183C16.2959 98.1327 16.7921 98.1607 16.9126 98.2469C17.1426 98.4114 17.6122 98.4268 18.3983 98.2951ZM10.1311 97.6782C10.7314 97.2529 10.6633 96.7543 10.0197 96.8636C9.73476 96.912 9.39808 96.9515 9.27166 96.9515C8.91008 96.9515 9.02536 97.8631 9.39415 97.9177C9.57559 97.9445 9.90736 97.8367 10.1311 97.6782ZM8.08146 97.6759C8.19281 97.5962 8.05394 97.531 7.77326 97.531C7.49258 97.531 7.26266 97.4658 7.26266 97.3861C7.26266 97.3065 7.02587 97.2413 6.73635 97.2413C6.39082 97.2413 6.27848 97.3201 6.40883 97.4705C6.51822 97.5965 6.60763 97.7269 6.60763 97.7602C6.60763 97.8871 7.88855 97.814 8.08146 97.6759ZM1.18623 97.5433C1.29169 97.4679 1.23831 97.368 1.06767 97.3214C0.897038 97.2747 0.671383 97.2984 0.565922 97.3738C0.460461 97.4493 0.513847 97.5491 0.684483 97.5958C0.855118 97.6424 1.08077 97.6188 1.18623 97.5433ZM5.62508 97.3414C5.62508 97.2371 5.40696 97.0253 5.14003 96.8705C4.73751 96.6373 4.60322 96.6241 4.35136 96.7937C4.1578 96.924 4.184 97.0947 4.42374 97.2646C4.8577 97.5719 5.62508 97.621 5.62508 97.3414ZM2.67742 97.0964C2.67742 97.0167 2.5212 96.9515 2.33059 96.9515C2.13997 96.9515 2.07479 97.0167 2.18615 97.0964C2.2975 97.1761 2.4534 97.2413 2.53299 97.2413C2.61257 97.2413 2.67742 97.1761 2.67742 97.0964ZM47.711 52.3292C47.5997 52.2495 47.6649 52.1843 47.8555 52.1843C48.0461 52.1843 48.2023 52.2495 48.2023 52.3292C48.2023 52.4089 48.1375 52.474 48.0579 52.474C47.9783 52.474 47.8224 52.4089 47.711 52.3292ZM51.15 46.8153C51.15 46.7402 51.2974 46.6789 51.4775 46.6789C51.6576 46.6789 51.805 46.7806 51.805 46.9048C51.805 47.029 51.6576 47.0904 51.4775 47.0411C51.2974 46.9919 51.15 46.8903 51.15 46.8153ZM57.6597 13.1735C57.9833 13.0315 58.0206 13.0482 57.8431 13.2546C57.72 13.3975 57.5369 13.4779 57.436 13.4333C57.3351 13.3888 57.4357 13.2719 57.6597 13.1735ZM61.6305 5.18001C61.6305 5.14481 61.7779 5.07584 61.958 5.02658C62.1382 4.97732 62.2856 5.00615 62.2856 5.09047C62.2856 5.17479 62.1382 5.2439 61.958 5.2439C61.7779 5.2439 61.6305 5.21521 61.6305 5.18001ZM60.9755 4.74538C60.9755 4.71017 61.1229 4.6412 61.303 4.59195C61.4831 4.54269 61.6305 4.57152 61.6305 4.65584C61.6305 4.74015 61.4831 4.80927 61.303 4.80927C61.1229 4.80927 60.9755 4.78058 60.9755 4.74538Z" fill="white" fill-opacity="0.4"/>
</svg>
