<svg width="81" height="81" viewBox="0 0 81 81" fill="none" xmlns="http://www.w3.org/2000/svg">
<path d="M71.1702 79.38H80.4202L71.1702 70.13V79.38Z" fill="#DA5077"/>
<path d="M57.3 65.52H66.56L57.3 56.27V65.52Z" fill="#DA5077"/>
<path d="M43.4402 51.65H52.6902L43.4402 42.4V51.65Z" fill="#DA5077"/>
<path d="M29.5701 37.78H38.8201L29.5701 28.53V37.78Z" fill="#DA5077"/>
<path d="M15.7101 23.92H24.9601L15.7101 14.67V23.92Z" fill="#DA5077"/>
<path d="M1.84009 10.05H11.0901L1.84009 0.800018V10.05Z" fill="#DA5077"/>
<path d="M43.1401 79.68H52.4001L43.1401 70.43V79.68Z" fill="#DA5077"/>
<path d="M29.2802 65.81H38.5302L29.2802 56.56V65.81Z" fill="#DA5077"/>
<path d="M15.4102 51.94H24.6602L15.4102 42.69V51.94Z" fill="#DA5077"/>
<path d="M1.55017 38.08H10.8002L1.55017 28.83V38.08Z" fill="#DA5077"/>
<path d="M15.1201 79.97H24.3701L15.1201 70.72V79.97Z" fill="#DA5077"/>
<path d="M1.25012 66.1H10.5001L1.25012 56.85V66.1Z" fill="#DA5077"/>
<path d="M56.7502 79.93H66.0002L56.7502 70.68V79.93Z" fill="#DA5077"/>
<path d="M42.8901 66.07H52.1401L42.8901 56.82V66.07Z" fill="#DA5077"/>
<path d="M29.0201 52.2H38.2701L29.0201 42.95V52.2Z" fill="#DA5077"/>
<path d="M15.1602 38.34H24.4102L15.1602 29.08V38.34Z" fill="#DA5077"/>
<path d="M1.29016 24.47H10.5402L1.29016 15.22V24.47Z" fill="#DA5077"/>
<path d="M29.1301 79.82H38.3801L29.1301 70.57V79.82Z" fill="#DA5077"/>
<path d="M15.2701 65.96H24.5201L15.2701 56.71V65.96Z" fill="#DA5077"/>
<path d="M1.40015 52.09H10.6501L1.40015 42.84V52.09Z" fill="#DA5077"/>
<path d="M0.620117 80.61H9.87012L0.620117 71.35V80.61Z" fill="#DA5077"/>
</svg>
