<svg width="606" height="42" viewBox="0 0 606 42" fill="none" xmlns="http://www.w3.org/2000/svg">
<g opacity="0.55" clip-path="url(#clip0_7_87)">
<path d="M13.641 17.089C18.3782 17.089 23.341 16.911 28.0781 16.733C30.1084 16.733 31.913 16.555 33.9432 16.555C42.5152 16.199 51.0873 15.8429 59.6593 15.4869C70.036 15.1309 80.1871 14.5969 90.5638 14.2408C105.226 13.5288 119.889 12.9948 134.552 12.2827C137.936 12.1047 141.319 12.1047 144.703 11.9267C153.275 11.5707 161.847 11.2147 170.419 11.0366C178.991 10.6806 187.563 10.3246 196.135 10.1466C199.519 9.96859 202.903 9.79058 206.286 9.79058C219.821 9.43455 233.581 9.07853 247.116 8.72251C255.463 8.5445 263.809 8.36649 272.381 8.01047C275.765 8.01047 278.923 7.83246 282.307 7.83246C295.39 7.65445 308.699 7.47644 321.783 7.29843C334.867 7.12042 347.725 6.94241 360.808 6.7644C364.192 6.7644 367.576 6.7644 371.185 6.7644C379.757 6.7644 388.104 6.7644 396.676 6.7644C409.985 6.7644 423.068 6.7644 436.378 6.58639C440.664 6.58639 444.95 6.58639 449.236 6.58639C458.259 6.58639 467.282 6.58639 476.305 6.58639C476.982 6.58639 477.884 6.58639 478.561 6.58639C458.259 6.7644 437.731 6.94241 417.429 7.29843C408.857 7.47644 400.51 7.47644 391.938 7.65445C388.329 7.65445 384.494 7.65445 380.885 7.83246C368.478 8.01047 356.297 8.36649 343.89 8.5445C329.678 8.90052 315.467 9.07853 301.255 9.43455C298.774 9.43455 296.518 9.61256 294.037 9.61256C286.367 9.96859 278.923 10.1466 271.253 10.5026C255.914 11.0366 240.574 11.5707 225.235 12.1047C222.979 12.1047 220.723 12.2827 218.468 12.4607C211.023 12.8168 203.354 13.3508 195.91 13.7068C182.375 14.4188 169.066 15.1309 155.531 15.8429C151.921 16.0209 148.087 16.377 144.477 16.555C135.905 17.089 127.333 17.623 118.761 18.3351C107.933 19.0471 96.88 19.7592 86.0522 20.4712C70.9383 21.5393 55.5989 22.6073 40.485 23.6754C36.8757 23.8534 33.2665 24.2094 29.4316 24.3874C22.8898 24.9215 16.348 25.4555 9.80617 25.9895C9.12943 25.9895 8.45269 26.3455 8.45269 27.0576C8.45269 27.5916 9.12943 28.1257 9.80617 28.1257C12.2875 28.1257 14.5433 28.3037 17.0247 28.3037C16.5736 29.1937 16.348 29.7277 16.348 30.2618C16.348 32.2199 18.3782 34 21.0852 34C39.8083 33.1099 58.3058 32.0419 77.029 31.3298C93.2707 30.7958 109.512 30.0838 125.754 29.5497C143.575 28.8377 161.621 28.1257 179.442 27.5916C185.082 27.4136 190.721 27.2356 196.361 26.8796C197.94 26.8796 199.519 26.7016 201.323 26.7016C230.198 26.1675 259.072 25.4555 287.946 24.9215C303.286 24.5654 318.851 24.2094 334.19 24.0314C339.829 23.8534 345.243 23.8534 350.883 23.6754C380.434 23.3194 409.985 22.9634 439.536 22.6073C452.168 22.4293 464.801 22.2513 477.433 22.0733C488.261 21.8953 499.089 21.8953 509.917 21.5393C518.94 21.3613 527.737 21.0052 536.761 20.8272C541.272 20.6492 545.784 20.6492 550.07 20.4712C560.221 19.9372 570.372 19.4031 580.523 18.8691C579.846 19.5812 579.846 20.6492 580.072 21.3613C580.298 22.2513 580.974 22.9633 582.102 23.3194C583.005 23.6754 584.358 24.0314 585.26 23.6754C587.516 22.9634 589.772 22.2513 591.802 21.5393C591.802 21.5393 591.802 21.5393 591.577 21.5393C591.802 21.5393 591.802 21.3613 592.028 21.3613C592.253 21.3613 592.479 21.1832 592.479 21.1832H592.253C593.381 20.8272 594.509 20.4712 595.863 19.9372C596.991 19.5812 598.344 19.0471 599.472 18.6911C600.825 18.1571 601.953 17.623 603.307 17.089C604.66 16.555 605.563 15.1309 605.563 13.8848C605.563 13.1728 605.337 12.6387 604.886 11.9267C604.435 11.2147 603.307 10.3246 602.179 10.1466C601.051 9.96859 599.923 9.79058 598.795 9.79058C598.57 9.79058 598.344 9.79058 598.118 9.79058C597.442 9.79058 596.539 9.79058 595.863 9.96859C594.058 10.1466 592.479 10.3246 590.674 10.3246C589.321 10.3246 587.967 10.5026 586.388 10.5026C582.553 10.6806 578.944 10.8586 575.109 11.2147C574.207 11.2147 573.079 11.3927 572.177 11.3927C572.628 11.0366 572.853 10.6806 572.853 10.3246C573.079 9.96859 573.079 9.61257 573.079 9.25654C573.079 9.07853 573.079 8.72251 573.305 8.5445C573.305 8.18848 573.305 7.83246 573.079 7.65445C573.079 7.65445 573.305 7.65445 573.305 7.47644C573.981 7.12042 574.658 6.7644 575.109 6.05236C575.56 5.51832 575.786 4.80628 575.786 4.09424C575.786 3.3822 575.56 2.84817 575.109 2.13613C574.884 1.95812 574.658 1.60209 574.433 1.42408C573.756 0.890052 573.079 0.712042 572.402 0.534031C571.049 0.17801 569.47 0 567.891 0C566.537 0 565.409 0 564.056 0C562.251 0 560.447 0 558.642 0C556.161 0 553.454 0 550.972 0C544.205 0 537.437 0 530.67 0C524.354 0 517.812 0 511.496 0C505.631 0 499.991 0 494.126 0C470.891 0 447.882 0.17801 424.648 0.356021C407.278 0.534031 389.908 0.712042 372.539 0.712042C364.869 0.712042 356.974 0.890052 349.304 1.06806C331.934 1.42408 314.565 1.60209 297.195 1.95812C292.232 1.95812 287.269 2.13613 282.307 2.13613C279.374 2.13613 276.667 2.31414 273.735 2.31414C256.591 2.84817 239.446 3.3822 222.302 3.91623C217.114 4.09424 211.926 4.27225 206.512 4.45026C203.579 4.45026 200.647 4.62827 197.714 4.80628C180.57 5.51832 163.652 6.23037 146.508 6.94241C137.71 7.29843 128.912 7.65445 120.115 8.18848C105.001 8.90052 89.887 9.61256 74.9987 10.5026C61.9151 11.2147 48.8315 11.7487 35.7479 12.2827C33.7176 12.4607 31.6874 12.4607 29.4316 12.6387C26.0479 12.8168 22.6642 12.8168 19.2805 12.9948C16.348 13.7068 13.1899 13.7068 10.2573 13.7068C10.0317 12.9948 9.12943 12.4607 8.45269 12.6387C6.42247 12.6387 4.61783 12.8168 2.58761 12.9948C1.68529 13.1728 0.782972 13.5288 0.557393 14.2408C0.331813 15.1309 1.00855 16.0209 1.91087 16.199C2.81319 16.377 3.71551 16.555 4.61783 16.733C5.52015 16.911 6.19689 16.911 7.09921 16.911C9.35501 17.089 11.3852 17.089 13.641 17.089ZM541.498 11.3927C544.205 11.3927 547.137 11.3927 549.844 11.3927C550.07 11.9267 550.521 12.2827 550.972 12.6387C549.844 12.6387 548.716 12.8168 547.814 12.8168C545.784 12.8168 543.754 12.9948 541.723 12.9948C532.7 13.1728 523.903 13.5288 514.879 13.7068C510.819 13.8848 506.759 14.0628 502.698 14.0628C496.382 14.0628 489.84 14.2408 483.524 14.2408C468.861 14.4188 454.424 14.5969 439.761 14.7749C411.338 15.1309 383.141 15.4869 354.718 15.8429C334.416 16.0209 314.113 16.555 293.811 17.089C263.358 17.801 232.679 18.3351 202.226 19.0471C196.135 19.2251 190.044 19.4031 183.954 19.7592C166.584 20.4712 149.215 21.0052 131.845 21.7173C114.926 22.4293 97.7823 22.9634 80.8638 23.6754C79.2848 23.6754 77.7057 23.8534 76.1266 23.8534C80.6382 23.4974 85.3754 23.3194 89.887 22.9633C105.903 22.0733 121.919 21.0052 137.936 20.1152C143.575 19.7592 149.215 19.4031 154.628 19.0471C157.561 18.8691 160.493 18.6911 163.2 18.6911C180.119 17.9791 196.812 17.089 213.505 16.377C216.663 16.199 220.047 16.0209 223.205 15.8429C227.942 15.6649 232.679 15.4869 237.191 15.4869C254.335 14.9529 271.479 14.4188 288.623 13.8848C292.458 13.7068 296.293 13.7068 299.902 13.5288C300.804 13.5288 301.932 13.5288 302.834 13.5288C305.541 13.5288 308.248 13.5288 310.73 13.3508C327.874 12.9948 345.243 12.8168 362.387 12.4607C370.283 12.2827 378.178 12.1047 386.073 12.1047C411.564 11.9267 437.28 11.7487 462.771 11.5707C489.389 11.5707 515.556 11.3927 541.498 11.3927Z" fill="white"/>
<path d="M47.4357 42C48.1177 42 48.6705 41.5523 48.6705 41C48.6705 40.4477 48.1177 40 47.4357 40C46.7538 40 46.2009 40.4477 46.2009 41C46.2009 41.5523 46.7538 42 47.4357 42Z" fill="white"/>
</g>
<defs>
<clipPath id="clip0_7_87">
<rect width="605.049" height="42" fill="white" transform="translate(0.513672)"/>
</clipPath>
</defs>
</svg>
