<svg width="444" height="17" viewBox="0 0 444 17" fill="none" xmlns="http://www.w3.org/2000/svg">
<path fill-rule="evenodd" clip-rule="evenodd" d="M304.158 2.72077C304.251 2.52538 304.304 2.30667 304.304 2.07577C304.304 1.24734 303.632 0.575766 302.804 0.575766C282.888 0.575766 262.971 0.55883 243.053 0.541894C203.214 0.508019 163.372 0.474141 123.533 0.575771C120.365 0.583852 117.163 0.561464 113.94 0.538931C102.54 0.459219 90.8789 0.377687 79.5478 1.6367C78.6819 1.73291 78.0032 1.82432 77.5082 1.91295C77.2634 1.9568 77.0343 2.00506 76.8377 2.06077C76.7396 2.08856 76.6255 2.1249 76.51 2.17313C76.4147 2.21293 76.2194 2.3005 76.0266 2.46401C75.8573 2.60759 75.3866 3.07971 75.4822 3.84285C75.5685 4.53151 76.0568 4.8726 76.1868 4.9576C76.4886 5.15501 76.8253 5.22694 76.9483 5.25322L76.9515 5.25391C77.3069 5.32987 77.7971 5.383 78.3403 5.42549C80.5558 5.5988 84.9066 5.68069 90.0444 5.71596C96.6051 5.76099 104.576 5.72998 111.267 5.70395C115.081 5.68911 118.479 5.67589 120.964 5.67929C152.429 5.72227 183.895 5.73899 215.361 5.74149C187.181 6.439 159.004 7.29192 130.836 8.38804C98.2922 8.54092 67.5851 8.68397 42.5526 8.80058C26.285 8.87636 12.4139 8.94097 1.99296 8.98987C1.16454 8.99375 0.49613 9.66847 0.500017 10.4969C0.503904 11.3253 1.17862 11.9937 2.00704 11.9898C12.4277 11.9409 26.2986 11.8763 42.5661 11.8005C48.0586 11.775 53.8243 11.7481 59.8227 11.7201C58.6728 11.7842 57.5229 11.8487 56.3731 11.9138C46.5697 12.4687 41.5646 12.7862 39.8001 12.9426C39.5774 12.9624 39.3931 12.9807 39.2513 12.9978C39.1813 13.0062 39.1092 13.0159 39.0419 13.027L39.0374 13.0278C38.9984 13.0342 38.8544 13.0579 38.703 13.1128C38.6564 13.1297 38.5613 13.1663 38.4511 13.2304C38.3824 13.2705 38.0895 13.4412 37.8884 13.8065C37.8025 13.9911 37.7061 14.4211 37.7076 14.6601C37.7457 14.8908 37.904 15.2835 38.0101 15.4427C38.2442 15.7495 38.5291 15.876 38.5986 15.9069C38.7792 15.987 38.9392 16.0137 38.975 16.0196L38.9783 16.0202C39.0397 16.0305 39.0933 16.0361 39.1279 16.0393C39.2539 16.0508 39.4089 16.0541 39.547 16.0554C40.1361 16.0613 41.3321 16.0347 42.9001 15.9882C47.2453 15.8596 54.7155 15.5696 61.1259 15.3208C64.0241 15.2083 66.7057 15.1042 68.7839 15.0272C128.696 12.8083 188.665 11.5617 248.638 10.8271C285.922 10.6461 319.354 10.4791 342.545 10.3538C374.899 10.1789 392.122 10.0657 399.573 9.99532C401.435 9.97772 402.691 9.96276 403.422 9.9501C403.779 9.94391 404.032 9.93795 404.168 9.9316C404.198 9.93018 404.25 9.92753 404.304 9.92226L404.305 9.92215C404.317 9.92101 404.411 9.91235 404.52 9.88624C404.614 9.86051 404.964 9.70052 405.194 9.52459C405.648 8.69284 405.223 7.35629 404.819 7.07299C404.692 7.0193 404.504 6.96312 404.445 6.95087C404.411 6.94495 404.357 6.93698 404.335 6.93422C404.293 6.92937 404.257 6.92691 404.239 6.92575C404.198 6.92315 404.156 6.9215 404.12 6.92033C403.597 6.9031 401.297 6.89545 397.949 6.89352C384.48 6.88578 353.379 6.97303 347.554 7.00321C320.719 7.14225 293.877 7.33314 267.033 7.61716C281.613 7.3375 296.194 7.08507 310.775 6.84771C347.552 6.24901 367.078 6.0269 402.964 5.79612C411.373 5.74204 419.782 5.71799 428.193 5.69392C429.87 5.68912 431.547 5.68432 433.224 5.67929H441.87C442.226 5.67929 442.414 5.67916 442.454 5.6789L442.471 5.67873C442.471 5.67871 442.486 5.67854 442.503 5.67793C442.517 5.67737 442.572 5.67387 442.614 5.66989C443.691 5.02088 443.42 3.03452 442.606 2.68705C442.568 2.68353 442.517 2.68034 442.504 2.67981L442.482 2.67919L442.467 2.67892L442.453 2.67879L442.393 2.67855L442.142 2.67807C441.691 2.67739 440.79 2.67658 439.708 2.67604C437.548 2.67496 434.665 2.67496 433.22 2.67929H429.95C395.617 2.67929 361.285 2.69492 326.953 2.71055C319.354 2.71401 311.756 2.71747 304.158 2.72077ZM39.5404 15.9854C39.5231 15.9888 39.5193 15.9889 39.5342 15.9864C39.5353 15.9862 39.5373 15.9859 39.5404 15.9854ZM77.5329 2.30864C77.5336 2.30841 77.5439 2.31079 77.5617 2.31645C77.5411 2.3117 77.5322 2.30887 77.5329 2.30864Z" fill="#D80EDC"/>
</svg>
