<svg width="521" height="46" viewBox="0 0 521 46" fill="none" xmlns="http://www.w3.org/2000/svg">
<path fill-rule="evenodd" clip-rule="evenodd" d="M185.692 5.32322C262.037 1.93281 338.462 0.155125 414.891 0.555695C430.248 0.636184 445.55 0.899088 460.84 1.16181C479.167 1.4767 497.478 1.79132 515.853 1.79132C517.195 1.79132 518.133 1.7877 518.696 1.78456C518.977 1.78299 519.165 1.78155 519.262 1.78073L519.286 1.7807L519.317 1.7805L519.329 1.78019L519.332 1.78017L519.334 1.78013L519.335 1.78012L519.336 1.78011L519.345 1.78001L519.351 1.77997L519.375 1.78007C520.854 3.1944 519.471 4.77559 519.396 4.77944L519.381 4.77977L519.377 4.77982L519.374 4.77986L519.367 4.77993L519.366 4.77994L519.364 4.77999L519.345 4.78012L519.322 4.78048C519.016 4.78419 517.325 4.80614 514.48 4.87909C479.364 5.7795 444.262 7.70886 409.166 9.83729C432.691 9.74728 456.195 9.73478 479.666 9.73478C496.411 9.73478 504.824 9.75942 506.423 9.80361C506.524 9.8064 506.618 9.80974 506.691 9.81437C506.716 9.81592 506.79 9.82048 506.871 9.83276C506.931 9.84311 507.144 9.89981 507.294 9.96089C507.947 10.555 507.891 12.1719 507.272 12.6873C507.132 12.7423 506.933 12.7946 506.875 12.8047C506.843 12.8095 506.792 12.8156 506.767 12.8181C506.721 12.8224 506.675 12.8252 506.639 12.8272C506.563 12.8313 506.465 12.835 506.353 12.8383C505.904 12.8519 505.056 12.8662 503.847 12.8813C501.42 12.9116 497.488 12.9457 492.249 12.983C471.294 13.1319 429.386 13.3305 379.1 13.5291C368.694 13.5702 357.928 13.6113 346.915 13.652C251.066 19.3581 155.199 23.8175 59.2862 27.8486C51.1876 28.7012 43.0947 29.6018 35.0082 30.5531C34.7637 30.5819 34.4918 30.6157 34.1972 30.654C40.4642 30.6917 46.7339 30.6088 53.0202 30.5258C58.0063 30.4599 63.003 30.3939 68.0171 30.3878C74.0074 30.3804 79.9977 30.3765 85.9878 30.3726C143.828 30.3346 201.658 30.2967 259.376 27.2125C273.261 26.4706 287.147 25.7793 301.032 25.101C306.186 24.7325 311.322 24.3808 316.435 24.0308C317.267 23.9739 318.099 23.9169 318.93 23.86C320.33 23.764 333.175 23.2263 341.531 22.9158C343.625 22.838 345.444 22.7741 346.738 22.7349C347.383 22.7153 347.904 22.7016 348.265 22.6954C348.443 22.6924 348.594 22.691 348.706 22.6921C348.756 22.6926 348.825 22.6937 348.891 22.6982L348.893 22.6983C348.916 22.6998 348.999 22.7053 349.097 22.724C349.12 22.7284 349.293 22.7583 349.489 22.8553C349.612 22.924 349.917 23.1737 350.075 23.3731C350.252 23.7421 350.282 24.5504 350.134 24.9302C349.995 25.1381 349.714 25.4079 349.598 25.4858C349.525 25.5271 349.4 25.5861 349.349 25.6065C349.253 25.6426 349.174 25.6611 349.145 25.6677C349.118 25.6739 349.092 25.679 349.07 25.6831C349.035 25.6894 349.007 25.6934 348.991 25.6956C348.96 25.7 348.928 25.7039 348.896 25.7073C348.865 25.7108 348.834 25.7138 348.805 25.7165C348.683 25.7279 348.512 25.7409 348.297 25.7556C347.864 25.7853 347.207 25.8248 346.302 25.8753C344.489 25.9764 341.654 26.1229 337.552 26.3251C330.181 26.6884 322.812 27.0461 315.443 27.4037C310.705 27.6337 305.966 27.8636 301.229 28.095C266.765 30.5608 231.781 33.7657 198.509 42.2248C205.307 41.7 212.097 40.8276 218.913 39.952C223.329 39.3847 227.755 38.816 232.2 38.3398C233.024 38.2515 233.763 38.8477 233.852 39.6714C233.94 40.4951 233.344 41.2344 232.52 41.3227C228.211 41.7844 223.857 42.3434 219.477 42.9057C209.961 44.1275 200.322 45.3651 190.747 45.6553C189.348 45.6977 188.331 45.6802 187.722 45.5595C187.565 45.5283 187.327 45.471 187.091 45.3481C186.901 45.2497 186.325 44.9056 186.213 44.145C186.103 43.3957 186.543 42.9047 186.683 42.7635C186.864 42.5816 187.06 42.4613 187.183 42.3919C187.654 42.1265 188.406 41.8767 189.109 41.6619C189.862 41.4313 190.755 41.1851 191.618 40.9472L191.626 40.9448C207.454 36.5784 223.695 33.4714 240.088 31.1365C188.748 33.3054 137.34 33.339 85.997 33.3726C80.0039 33.3765 74.0118 33.3804 68.0208 33.3878C63.0846 33.3938 58.1286 33.4591 53.1622 33.5246C42.696 33.6627 32.1832 33.8013 21.711 33.3866C21.4085 33.3746 21.1233 33.3528 20.8806 33.311C20.7617 33.2905 20.6052 33.2575 20.4428 33.1979C20.3296 33.1564 19.9708 33.0197 19.6903 32.6608C19.5254 32.4498 19.3826 32.1535 19.3625 31.7903C19.3429 31.4353 19.4475 31.1441 19.559 30.9445C19.753 30.5969 20.0306 30.4108 20.1267 30.3484C20.3638 30.1943 20.6346 30.0923 20.82 30.028C21.4442 29.8117 22.4873 29.5691 23.6915 29.3264C16.4815 29.6224 9.27134 29.9165 2.06085 30.2091C1.2331 30.2427 0.534849 29.5989 0.501257 28.7712C0.467665 27.9435 1.11145 27.2452 1.9392 27.2116C20.984 26.4387 40.0263 25.6554 59.0664 24.8552C107.753 19.7323 156.646 16.3434 205.621 14.1023C155.039 14.2361 108.829 14.3235 77.3746 14.3235C75.1084 14.3235 73.3958 14.3063 72.1906 14.2731C71.5892 14.2566 71.1013 14.2357 70.7283 14.2099C70.4127 14.188 70.0303 14.155 69.7448 14.0727C69.675 14.0525 69.4844 13.9956 69.2832 13.8646C69.1515 13.7789 68.4373 13.2687 68.6092 12.3163C68.6803 11.922 68.8855 11.6602 69.0155 11.526C69.148 11.3892 69.2788 11.3051 69.3553 11.2605C69.5071 11.172 69.6471 11.1238 69.7163 11.1015C69.9794 11.0165 70.3332 10.9621 70.6437 10.9204C71.3401 10.8271 72.4337 10.7254 73.8455 10.6159C79.5126 10.1766 90.8258 9.57594 104.371 8.92631C123.372 8.01498 146.821 7.00486 165.368 6.20594C173.275 5.8653 180.292 5.56305 185.692 5.32322ZM122.894 22.1004C174.332 18.1762 225.947 15.8941 277.602 14.568C226.043 17.34 174.476 19.8083 122.894 22.1004ZM354.026 10.2209C340.987 10.3597 327.946 10.5379 314.904 10.7664C246.3 11.004 172.555 11.2104 118.061 11.2893C133.92 10.5634 151.161 9.82069 165.485 9.20366C173.396 8.86286 180.418 8.5604 185.825 8.32027C262.128 4.93172 338.503 3.15538 414.875 3.55565C429.065 3.63002 443.302 3.8625 457.551 4.10606C432.908 5.34762 408.277 6.87507 383.669 8.40111C374.505 8.9694 365.345 9.53749 356.188 10.0905C355.467 10.1341 354.746 10.1775 354.026 10.2209ZM188.657 45.0051C188.657 45.0047 188.658 45.0043 188.659 45.0039C188.649 45.0099 188.647 45.0102 188.657 45.0051ZM21.38 30.3527C21.38 30.3526 21.3816 30.3529 21.3847 30.3536C21.3815 30.353 21.38 30.3527 21.38 30.3527Z" fill="#D80EDC"/>
</svg>
