<svg width="531" height="33" viewBox="0 0 531 33" fill="none" xmlns="http://www.w3.org/2000/svg">
<path fill-rule="evenodd" clip-rule="evenodd" d="M94.45 2.48915C94.4552 1.66074 95.1309 0.993384 95.9593 0.998565C130.443 1.21426 164.927 1.50424 199.411 1.79422C220.348 1.97029 241.285 2.14635 262.221 2.30579C294.067 1.63181 322.575 1.21425 343.156 1.21425C353.285 1.21425 373.511 1.64624 388.666 2.0777C396.241 2.29337 402.571 2.50949 405.746 2.67227C406.536 2.71278 407.153 2.75105 407.549 2.78674C407.72 2.80213 407.937 2.82394 408.108 2.86118C408.151 2.87056 408.254 2.89401 408.373 2.94086C408.425 2.96103 408.531 3.00522 408.653 3.08429C415.436 3.01654 422.219 2.9677 429.003 2.93995C444.772 2.87546 476.305 2.87546 499.952 2.89158C511.776 2.89964 521.63 2.91173 526.557 2.92181C527.789 2.92433 528.714 2.92672 529.285 2.9289C529.569 2.92999 529.77 2.93103 529.877 2.93204L529.947 2.9329L529.982 2.9337L530.015 2.93501C530.034 2.93604 530.104 2.94195 530.156 2.94846C530.973 3.34143 531.174 5.29293 530.166 5.91701C530.109 5.92438 530.034 5.93088 530.014 5.93195C529.989 5.93314 529.968 5.93358 529.961 5.93371L529.96 5.93372C529.941 5.93411 529.917 5.93438 529.893 5.93459C529.515 5.93794 527.534 5.93994 523.598 5.93994C489.542 5.93994 455.527 6.0538 421.511 7.23331C354.306 9.56369 287.186 13.7013 220.237 19.8957C294.303 18.3881 368.484 18.0362 442.47 22.3565C450.23 22.8097 465.857 23.9924 475.178 25.3906C475.261 25.4031 475.405 25.4106 475.685 25.4206L475.718 25.4218C475.949 25.43 476.265 25.4412 476.561 25.4771C476.824 25.5089 477.321 25.5833 477.76 25.8619C478.01 26.0201 478.304 26.2845 478.481 26.6983C478.663 27.122 478.653 27.543 478.568 27.8849C478.403 28.5439 478.084 29.1267 477.593 29.5812C477.109 30.0288 476.54 30.2772 475.984 30.4071C474.928 30.654 473.731 30.5153 472.685 30.3208C471.901 30.175 471.054 29.9655 470.265 29.7702C469.982 29.7001 469.706 29.6319 469.443 29.569C468.383 29.3158 467.509 29.1436 466.833 29.1286C453.96 28.8425 441.097 28.3358 428.247 27.8171L425.93 27.7235C413.85 27.2352 401.782 26.7474 389.71 26.432C332.728 24.9437 275.713 25.5109 218.748 27.7257C205.93 28.2241 193.076 29.1743 180.183 30.1274C177.259 30.3435 174.333 30.5598 171.406 30.771C155.582 31.9124 139.713 32.9039 123.885 32.9039C122.639 32.9039 121.666 32.8756 120.956 32.8171C120.604 32.7881 120.282 32.749 120.008 32.6928C119.82 32.6542 119.362 32.5576 118.988 32.253C118.76 32.0675 118.397 31.6638 118.387 31.0333C118.378 30.4438 118.687 30.0513 118.846 29.885C119.142 29.5762 119.523 29.4119 119.704 29.337C120.168 29.145 120.833 28.9611 121.595 28.7819C124.69 28.0536 130.832 27.0771 138.119 26.0473C141.5 25.5695 145.144 25.0781 148.869 24.5922C110.876 25.5725 76.2775 26.6395 38.5145 27.9416C31.1769 28.1947 23.8464 28.4479 16.5197 28.7622C16.4759 28.799 16.4375 28.8268 16.409 28.8466C16.3106 28.9147 16.2235 28.9576 16.171 28.9815C16.0671 29.0287 15.9788 29.0546 15.9379 29.0661C15.8887 29.0798 15.8456 29.0895 15.8146 29.096C15.7046 29.1189 15.5834 29.1346 15.4853 29.146C15.2697 29.1712 14.9514 29.1997 14.526 29.2324C14.2484 29.2537 13.9827 29.1981 13.7498 29.0835C12.7259 29.0973 11.4192 29.1261 10.2611 29.1516C10.1192 29.1548 9.97948 29.1578 9.84279 29.1608C9.06251 29.178 8.3777 29.1924 7.95452 29.1973C7.76903 29.1994 7.5673 29.201 7.4477 29.1941C7.42731 29.193 7.38904 29.1905 7.34336 29.1853C7.3207 29.1826 7.28182 29.1777 7.23442 29.1688C7.20211 29.1628 7.09446 29.1424 6.96479 29.0921C6.8936 29.0624 6.71814 28.9694 6.61715 28.9012C6.46191 28.7699 6.15257 28.3398 6.04413 28.0295C6.00659 27.6426 6.18144 26.988 6.3439 26.7436C6.46301 26.614 6.68351 26.4376 6.77497 26.3821C6.93048 26.2952 7.06673 26.2568 7.10072 26.2473L7.1024 26.2468C7.15659 26.2315 7.20103 26.2222 7.22531 26.2175C7.30563 26.2017 7.37888 26.1941 7.40264 26.1917L7.4043 26.1915C7.44193 26.1876 7.48217 26.1842 7.52155 26.1811C8.08778 26.1367 10.329 26.0292 15.4241 25.8068C23.0879 25.4723 30.7535 25.2075 38.4111 24.9434C77.4894 23.5959 113.182 22.5002 152.752 21.4916C162.03 21.2552 171.311 21.0201 180.594 20.7933C181.111 20.7381 181.606 20.6857 182.079 20.6364C241.372 14.4493 300.81 9.91452 360.333 6.85823C317.799 7.76958 275.266 9.22074 232.725 10.6722C230.575 10.7455 228.426 10.8189 226.277 10.8921C158.695 13.1957 91.0898 15.4313 23.4708 15.4313C16.8025 15.4313 11.7899 15.3874 8.28267 15.3049C6.53015 15.2636 5.14265 15.2124 4.10742 15.1514C3.12208 15.0933 2.33237 15.0208 1.8641 14.9064C1.75209 14.879 1.53715 14.8219 1.3214 14.7025C1.2174 14.6449 1.00107 14.5129 0.813913 14.2661C0.593247 13.9752 0.417124 13.5173 0.539749 12.989C0.64441 12.5381 0.916617 12.2689 1.04946 12.1554C1.19608 12.0302 1.33811 11.9544 1.42234 11.9135C1.59363 11.8305 1.76513 11.779 1.8844 11.7469C2.35469 11.6202 3.12741 11.5106 4.0754 11.4053C6.03646 11.1874 9.187 10.9446 13.3492 10.6816C30.0151 9.62848 63.3314 8.22574 103.29 6.82367C125.187 6.05538 149.085 5.28703 173.343 4.57632C147.539 4.36285 121.738 4.15987 95.9406 3.99851C95.1122 3.99332 94.4448 3.31756 94.45 2.48915ZM262.242 5.30602C211.583 6.37845 152.468 8.09999 103.395 9.82183C78.0701 10.7104 55.43 11.5988 38.0131 12.3976C100.726 12.1104 163.436 10.0324 226.174 7.89386C228.329 7.82041 230.484 7.74689 232.639 7.67337C254.038 6.94327 275.44 6.21307 296.845 5.55155C285.31 5.47661 273.776 5.39384 262.242 5.30602ZM529.895 5.93246C529.9 5.93254 529.898 5.93253 529.892 5.93236L529.895 5.93246ZM2.57637 11.9922C2.5605 11.9883 2.5628 11.988 2.57873 11.9927C2.57793 11.9925 2.57715 11.9924 2.57637 11.9922ZM2.64615 14.6488C2.64257 14.65 2.64065 14.6506 2.64059 14.6506C2.64053 14.6506 2.64232 14.65 2.64615 14.6488ZM7.71193 29.1757C7.71251 29.1756 7.71337 29.1756 7.71452 29.1754C7.70655 29.1764 7.70496 29.1764 7.71193 29.1757ZM180.791 23.7894C170.601 24.8804 152.362 27.0642 138.539 29.0178C136.663 29.2829 134.873 29.5431 133.199 29.7951C145.83 29.5091 158.498 28.6943 171.19 27.7787C174.105 27.5684 177.023 27.3527 179.941 27.137C192.838 26.1836 205.756 25.2286 218.632 24.728C275.654 22.5109 332.734 21.9428 389.788 23.4331C401.883 23.749 413.971 24.2376 426.046 24.7257L428.368 24.8195C433.248 25.0165 438.126 25.2116 443.003 25.3935C442.76 25.3788 442.525 25.3648 442.296 25.3514C355.275 20.27 267.968 21.6606 180.791 23.7894ZM120.537 29.7353C120.538 29.7349 120.55 29.7378 120.57 29.7449C120.547 29.7392 120.536 29.7356 120.537 29.7353ZM120.802 32.1306C120.789 32.138 120.782 32.1415 120.781 32.1415C120.78 32.1415 120.787 32.1377 120.802 32.1306Z" fill="#0BD1EC"/>
</svg>
