<svg width="424" height="91" viewBox="0 0 424 91" fill="none" xmlns="http://www.w3.org/2000/svg">
<path d="M423.819 28.8501C423.624 25.3264 423.234 21.8955 422.746 18.3718C422.162 14.57 421.869 10.6754 419.822 7.33719C414.851 -0.822893 405.396 0.011658 396.818 0.104386C341.16 1.1244 285.502 0.568027 229.845 0.568027C173.894 0.568027 117.457 -0.637436 61.7012 1.30986C50.2967 1.68077 12.964 -4.62475 6.14082 7.52264C5.65344 8.44992 5.26359 9.46994 4.97117 10.49C2.04694 11.6027 0 14.3845 0 17.4446C0.0974744 32.1883 0.38985 46.8394 0.682273 61.5832C0.779748 65.2923 0.7797 68.9087 0.877174 72.6178C0.974649 76.6979 1.26717 80.8706 4.38635 84.0234C9.55249 89.2162 19.4948 89.7725 26.6104 90.4216C41.4265 91.8125 56.5351 90.3289 71.3512 89.7725C86.8496 89.2162 102.251 88.5671 117.749 88.0107C179.645 85.6925 241.541 82.6325 303.438 81.2415C338.529 80.4997 373.619 79.8506 408.71 79.1088C413.389 79.0161 417.678 76.0488 418.945 71.6905C422.844 57.874 424.598 43.223 423.819 28.8501Z" fill="#10D7BF"/>
</svg>
