<svg width="469" height="44" viewBox="0 0 469 44" fill="none" xmlns="http://www.w3.org/2000/svg">
<path fill-rule="evenodd" clip-rule="evenodd" d="M73.6925 8.42977C198.359 0.849459 324.963 -2.8773 449.478 4.49045C452.231 4.65334 457.702 5.05869 461.808 5.46075C463.835 5.65928 465.609 5.8643 466.541 6.04819C466.761 6.09168 467.029 6.15141 467.256 6.23854L467.262 6.24087C467.337 6.26968 467.634 6.38291 467.89 6.64431C468.038 6.79651 468.316 7.14623 468.33 7.67934C468.344 8.2451 468.056 8.63396 467.857 8.8246C467.555 9.11525 467.201 9.21114 467.123 9.23229L467.115 9.23442C466.975 9.27318 466.833 9.29757 466.714 9.31455C466.469 9.34935 466.161 9.37429 465.804 9.39337C449.804 10.2467 433.739 10.07 417.73 9.89385C410.185 9.81085 402.652 9.72798 395.145 9.75317C288.028 10.1126 180.911 10.7685 73.793 11.4292C65.2762 11.9472 56.7681 12.4832 48.2699 13.0349C64.2663 12.9957 80.267 12.9312 96.2701 12.8666C157.507 12.6196 218.781 12.3723 279.994 13.5495C287.556 13.6949 295.124 13.9109 302.689 14.2663C303.677 14.3127 305.032 14.3187 306.567 14.3256C306.878 14.327 307.196 14.3284 307.52 14.3302C309.417 14.3407 311.486 14.3644 313.289 14.478C314.19 14.5348 315.049 14.6154 315.801 14.7331C316.529 14.8472 317.256 15.0103 317.839 15.272C318.31 15.4831 319.327 16.0531 319.358 17.2684C319.373 17.8305 319.15 18.2908 318.919 18.6157C318.689 18.9397 318.391 19.2166 318.082 19.4554C314.359 22.3321 309.882 23.5554 305.394 24.2394C303.147 24.582 300.853 24.7948 298.623 24.9993L298.494 25.0111C296.294 25.2128 294.159 25.4086 292.108 25.7136C276.886 27.9774 264.723 29.2561 251.445 30.2069C255.63 30.2042 259.843 30.2013 264.057 30.1985C280.098 30.1878 296.139 30.1771 310.576 30.1691C332.231 30.1571 350.278 30.1511 359.302 30.1601C361.558 30.1624 363.252 30.1656 364.298 30.1698C364.818 30.172 365.185 30.1744 365.381 30.1772C365.43 30.1779 365.474 30.1787 365.51 30.1798C365.526 30.1802 365.55 30.181 365.574 30.1823C365.588 30.183 365.617 30.185 365.635 30.1865C365.67 30.1899 365.796 30.209 365.887 30.2299C366.644 30.6999 366.753 32.5208 365.912 33.1266C365.813 33.1507 365.678 33.1724 365.642 33.1761C365.597 33.1803 365.557 33.1819 365.545 33.1824L365.544 33.1824C365.508 33.1839 365.464 33.1849 365.42 33.1858C364.728 33.1992 361.1 33.2173 353.892 33.2413C351.871 33.248 349.849 33.2546 347.828 33.2611C273.075 33.503 198.261 33.7451 124.218 43.9578C123.398 44.071 122.641 43.4975 122.527 42.6769C122.414 41.8562 122.988 41.0992 123.808 40.986C151.19 37.2092 178.674 34.7923 206.207 33.2338C196.395 33.2385 187.668 33.2413 180.647 33.2413H135.99C135.99 33.2413 135.99 31.7413 135.99 30.2413H138.798C168.559 30.2413 198.334 30.0635 228.025 28.574C252.229 27.3597 268.322 26.218 291.667 22.7462C293.803 22.4286 296.01 22.2262 298.183 22.0271L298.349 22.0118C300.591 21.8062 302.797 21.6006 304.942 21.2737C308.852 20.6777 312.417 19.6962 315.383 17.7044C315.368 17.7019 315.352 17.6995 315.337 17.697C314.711 17.599 313.953 17.5257 313.1 17.472C311.394 17.3645 309.403 17.3407 307.504 17.3302C307.192 17.3284 306.883 17.3271 306.577 17.3257C305.043 17.319 303.606 17.3127 302.548 17.263C295.019 16.9093 287.481 16.6941 279.936 16.549C218.76 15.3725 157.542 15.6195 96.3199 15.8665C70.8155 15.9694 45.3104 16.0723 19.8072 16.0723C17.9634 16.0723 14.896 16.1177 11.8146 16.1632C10.2662 16.1861 8.71421 16.2091 7.3123 16.2263C5.23501 16.2519 3.46811 16.2653 2.56669 16.2454C2.34731 16.2405 2.13931 16.233 1.983 16.2188C1.98132 16.2187 1.97927 16.2185 1.97685 16.2183C1.93025 16.2142 1.74831 16.1984 1.56263 16.1397C1.50721 16.1222 1.37076 16.0767 1.21696 15.9818C1.1186 15.9212 0.663132 15.6329 0.532052 15.0086C0.374462 14.2579 0.80883 13.7551 0.98698 13.5913C1.16972 13.4233 1.35009 13.3422 1.40933 13.3163C1.61766 13.2251 1.83009 13.193 1.87098 13.1869C1.87329 13.1865 1.87506 13.1863 1.87624 13.1861C1.96489 13.1719 2.06447 13.1597 2.16606 13.1487C2.37232 13.1265 2.65186 13.1025 3.0043 13.0764C9.36171 12.6055 15.7289 12.1701 22.0941 11.7472C20.3015 11.7582 18.5089 11.7691 16.7164 11.78C15.888 11.7851 15.2123 11.1176 15.2072 10.2892C15.2022 9.46081 15.8697 8.78516 16.6981 8.7801C33.9759 8.67475 51.2539 8.56817 68.5319 8.4616C70.2521 8.45099 71.9723 8.44037 73.6925 8.42977ZM135.017 8.05407C221.722 7.52935 308.428 7.04416 395.135 6.75319C402.736 6.72769 410.317 6.81126 417.887 6.8947C425.732 6.98118 433.563 7.06751 441.389 7.03208C339.901 1.41159 237.056 3.05813 135.017 8.05407ZM316.713 18.0628C316.711 18.063 316.699 18.0562 316.678 18.0416C316.704 18.0552 316.714 18.0626 316.713 18.0628ZM2.2535 13.2311C2.22544 13.2285 2.23047 13.2278 2.25748 13.2314C2.25609 13.2313 2.25477 13.2312 2.2535 13.2311ZM2.35685 16.1474C2.32278 16.1546 2.31536 16.154 2.34988 16.1485C2.35181 16.1481 2.35413 16.1478 2.35685 16.1474Z" fill="#0BD1EC"/>
</svg>
