<svg width="389" height="369" viewBox="0 0 389 369" fill="none" xmlns="http://www.w3.org/2000/svg">
<g filter="url(#filter0_dddddd_102_2)">
<rect x="80" width="228.178" height="228.178" rx="57" fill="#EBE9E9"/>
</g>
<g filter="url(#filter1_i_102_2)">
<path fill-rule="evenodd" clip-rule="evenodd" d="M219.112 124.318C217.759 123.642 211.123 120.381 209.888 119.927C208.653 119.477 207.754 119.254 206.85 120.608C205.951 121.952 203.366 124.995 202.581 125.894C201.79 126.798 201.005 126.907 199.656 126.235C198.307 125.554 193.956 124.132 188.801 119.536C184.791 115.957 182.08 111.538 181.294 110.185C180.508 108.836 181.208 108.105 181.884 107.432C182.493 106.828 183.233 105.856 183.91 105.071C184.587 104.281 184.809 103.717 185.259 102.814C185.713 101.914 185.486 101.129 185.145 100.452C184.809 99.7752 182.111 93.1307 180.985 90.4285C179.89 87.7988 178.778 88.1576 177.951 88.1122C177.161 88.0759 176.262 88.0668 175.362 88.0668C174.463 88.0668 173.001 88.4029 171.765 89.7563C170.526 91.1052 167.042 94.3706 167.042 101.015C167.042 107.655 171.874 114.072 172.551 114.976C173.228 115.875 182.066 129.509 195.605 135.355C198.829 136.744 201.341 137.575 203.298 138.193C206.532 139.224 209.475 139.079 211.8 138.729C214.389 138.343 219.784 135.464 220.911 132.312C222.033 129.16 222.033 126.457 221.696 125.894C221.36 125.331 220.461 124.995 219.108 124.318H219.112ZM194.487 157.94H194.469C186.428 157.942 178.534 155.78 171.616 151.682L169.981 150.71L152.986 155.17L157.523 138.602L156.455 136.903C151.96 129.747 149.581 121.465 149.593 113.014C149.602 88.2621 169.74 68.1243 194.506 68.1243C206.496 68.1243 217.768 72.8022 226.243 81.2861C230.423 85.4489 233.736 90.3992 235.99 95.8507C238.245 101.302 239.396 107.147 239.377 113.046C239.368 137.798 219.23 157.94 194.487 157.94ZM232.692 74.8415C227.688 69.8044 221.734 65.8105 215.175 63.0913C208.616 60.372 201.583 58.9814 194.483 59.0001C164.717 59.0001 140.482 83.2299 140.473 113.01C140.469 122.529 142.953 131.821 147.681 140.01L140.019 168L168.65 160.488C176.57 164.803 185.445 167.064 194.465 167.065H194.487C224.253 167.065 248.488 142.835 248.497 113.05C248.519 105.953 247.133 98.9218 244.42 92.3634C241.708 85.8049 237.721 79.8494 232.692 74.8415Z" fill="#289E42"/>
</g>
<defs>
<filter id="filter0_dddddd_102_2" x="0" y="0" width="388.178" height="408.178" filterUnits="userSpaceOnUse" color-interpolation-filters="sRGB">
<feFlood flood-opacity="0" result="BackgroundImageFix"/>
<feColorMatrix in="SourceAlpha" type="matrix" values="0 0 0 0 0 0 0 0 0 0 0 0 0 0 0 0 0 0 127 0" result="hardAlpha"/>
<feOffset dy="2.76726"/>
<feGaussianBlur stdDeviation="1.1069"/>
<feColorMatrix type="matrix" values="0 0 0 0 0 0 0 0 0 0 0 0 0 0 0 0 0 0 0.0196802 0"/>
<feBlend mode="normal" in2="BackgroundImageFix" result="effect1_dropShadow_102_2"/>
<feColorMatrix in="SourceAlpha" type="matrix" values="0 0 0 0 0 0 0 0 0 0 0 0 0 0 0 0 0 0 127 0" result="hardAlpha"/>
<feOffset dy="6.6501"/>
<feGaussianBlur stdDeviation="2.66004"/>
<feColorMatrix type="matrix" values="0 0 0 0 0 0 0 0 0 0 0 0 0 0 0 0 0 0 0.0282725 0"/>
<feBlend mode="normal" in2="effect1_dropShadow_102_2" result="effect2_dropShadow_102_2"/>
<feColorMatrix in="SourceAlpha" type="matrix" values="0 0 0 0 0 0 0 0 0 0 0 0 0 0 0 0 0 0 127 0" result="hardAlpha"/>
<feOffset dy="12.5216"/>
<feGaussianBlur stdDeviation="5.00862"/>
<feColorMatrix type="matrix" values="0 0 0 0 0 0 0 0 0 0 0 0 0 0 0 0 0 0 0.035 0"/>
<feBlend mode="normal" in2="effect2_dropShadow_102_2" result="effect3_dropShadow_102_2"/>
<feColorMatrix in="SourceAlpha" type="matrix" values="0 0 0 0 0 0 0 0 0 0 0 0 0 0 0 0 0 0 127 0" result="hardAlpha"/>
<feOffset dy="22.3363"/>
<feGaussianBlur stdDeviation="8.93452"/>
<feColorMatrix type="matrix" values="0 0 0 0 0 0 0 0 0 0 0 0 0 0 0 0 0 0 0.0417275 0"/>
<feBlend mode="normal" in2="effect3_dropShadow_102_2" result="effect4_dropShadow_102_2"/>
<feColorMatrix in="SourceAlpha" type="matrix" values="0 0 0 0 0 0 0 0 0 0 0 0 0 0 0 0 0 0 127 0" result="hardAlpha"/>
<feOffset dy="41.7776"/>
<feGaussianBlur stdDeviation="16.711"/>
<feColorMatrix type="matrix" values="0 0 0 0 0 0 0 0 0 0 0 0 0 0 0 0 0 0 0.0503198 0"/>
<feBlend mode="normal" in2="effect4_dropShadow_102_2" result="effect5_dropShadow_102_2"/>
<feColorMatrix in="SourceAlpha" type="matrix" values="0 0 0 0 0 0 0 0 0 0 0 0 0 0 0 0 0 0 127 0" result="hardAlpha"/>
<feOffset dy="100"/>
<feGaussianBlur stdDeviation="40"/>
<feColorMatrix type="matrix" values="0 0 0 0 0 0 0 0 0 0 0 0 0 0 0 0 0 0 0.07 0"/>
<feBlend mode="normal" in2="effect5_dropShadow_102_2" result="effect6_dropShadow_102_2"/>
<feBlend mode="normal" in="SourceGraphic" in2="effect6_dropShadow_102_2" result="shape"/>
</filter>
<filter id="filter1_i_102_2" x="140.019" y="58.9999" width="108.478" height="113" filterUnits="userSpaceOnUse" color-interpolation-filters="sRGB">
<feFlood flood-opacity="0" result="BackgroundImageFix"/>
<feBlend mode="normal" in="SourceGraphic" in2="BackgroundImageFix" result="shape"/>
<feColorMatrix in="SourceAlpha" type="matrix" values="0 0 0 0 0 0 0 0 0 0 0 0 0 0 0 0 0 0 127 0" result="hardAlpha"/>
<feOffset dy="4"/>
<feGaussianBlur stdDeviation="7.5"/>
<feComposite in2="hardAlpha" operator="arithmetic" k2="-1" k3="1"/>
<feColorMatrix type="matrix" values="0 0 0 0 0 0 0 0 0 0 0 0 0 0 0 0 0 0 0.2 0"/>
<feBlend mode="normal" in2="shape" result="effect1_innerShadow_102_2"/>
</filter>
</defs>
</svg>
