<svg width="15" height="15" viewBox="0 0 15 15" fill="none" xmlns="http://www.w3.org/2000/svg">
<path d="M14.0101 11.59L9.56011 7.14L14.0101 2.68999C14.5701 2.12999 14.5701 1.21001 14.0101 0.650011C13.4501 0.090011 12.5301 0.090011 11.9701 0.650011L7.52011 5.09999L3.07012 0.650011C2.51012 0.090011 1.59011 0.090011 1.03011 0.650011C0.470107 1.21001 0.470107 2.12999 1.03011 2.68999L5.4801 7.14L1.03011 11.59C0.470107 12.15 0.470107 13.07 1.03011 13.63C1.59011 14.19 2.51012 14.19 3.07012 13.63L7.52011 9.18001L11.9701 13.63C12.5301 14.19 13.4501 14.19 14.0101 13.63C14.5801 13.07 14.5801 12.16 14.0101 11.59Z" fill="#DA5077"/>
</svg>
