<svg width="261" height="261" viewBox="0 0 261 261" fill="none" xmlns="http://www.w3.org/2000/svg">
<g filter="url(#filter0_d_33_2316)">
<path d="M40.724 100.188C40.724 70.0181 40.724 54.9332 50.0966 45.5606C59.4692 36.188 74.5541 36.188 104.724 36.188H156.724C186.894 36.188 201.979 36.188 211.351 45.5606C220.724 54.9332 220.724 70.0181 220.724 100.188V152.188C220.724 182.358 220.724 197.443 211.351 206.815C201.979 216.188 186.894 216.188 156.724 216.188H104.724C74.5541 216.188 59.4692 216.188 50.0966 206.815C40.724 197.443 40.724 182.358 40.724 152.188V100.188Z" fill="white"/>
<path d="M50.0966 206.815L49.3895 207.523L50.0966 206.815ZM211.351 206.815L210.644 206.108L211.351 206.815ZM211.351 45.5606L212.059 44.8535L211.351 45.5606ZM104.724 37.188H156.724V35.188H104.724V37.188ZM219.724 100.188V152.188H221.724V100.188H219.724ZM156.724 215.188H104.724V217.188H156.724V215.188ZM41.724 152.188V100.188H39.724V152.188H41.724ZM104.724 215.188C89.6108 215.188 78.3765 215.186 69.7445 214.025C61.1414 212.869 55.2732 210.578 50.8037 206.108L49.3895 207.523C54.2925 212.426 60.6531 214.821 69.4781 216.007C78.2742 217.19 89.6673 217.188 104.724 217.188V215.188ZM39.724 152.188C39.724 167.245 39.7219 178.638 40.9045 187.434C42.091 196.259 44.4864 202.619 49.3895 207.523L50.8037 206.108C46.3342 201.639 44.0433 195.771 42.8867 187.167C41.7261 178.536 41.724 167.301 41.724 152.188H39.724ZM219.724 152.188C219.724 167.301 219.722 178.536 218.561 187.167C217.405 195.771 215.114 201.639 210.644 206.108L212.059 207.523C216.962 202.619 219.357 196.259 220.544 187.434C221.726 178.638 221.724 167.245 221.724 152.188H219.724ZM156.724 217.188C171.781 217.188 183.174 217.19 191.97 216.007C200.795 214.821 207.155 212.426 212.059 207.523L210.644 206.108C206.175 210.578 200.307 212.869 191.703 214.025C183.072 215.186 171.837 215.188 156.724 215.188V217.188ZM156.724 37.188C171.837 37.188 183.072 37.1901 191.703 38.3506C200.307 39.5073 206.175 41.7982 210.644 46.2677L212.059 44.8535C207.155 39.9504 200.795 37.555 191.97 36.3685C183.174 35.1859 171.781 35.188 156.724 35.188V37.188ZM221.724 100.188C221.724 85.1313 221.726 73.7382 220.544 64.942C219.357 56.1171 216.962 49.7565 212.059 44.8535L210.644 46.2677C215.114 50.7372 217.405 56.6054 218.561 65.2085C219.722 73.8405 219.724 85.0748 219.724 100.188H221.724ZM104.724 35.188C89.6673 35.188 78.2742 35.1859 69.4781 36.3685C60.6531 37.555 54.2925 39.9504 49.3895 44.8535L50.8037 46.2677C55.2732 41.7982 61.1414 39.5073 69.7445 38.3506C78.3765 37.1901 89.6108 37.188 104.724 37.188V35.188ZM41.724 100.188C41.724 85.0748 41.7261 73.8405 42.8867 65.2085C44.0433 56.6054 46.3342 50.7372 50.8037 46.2677L49.3895 44.8535C44.4864 49.7565 42.091 56.1171 40.9045 64.942C39.7219 73.7382 39.724 85.1313 39.724 100.188H41.724Z" fill="#D9D9D9"/>
</g>
<path fill-rule="evenodd" clip-rule="evenodd" d="M81 80.5765H118.123L81 170.988V80.5765ZM143.413 80.5765H181V169.826L143.413 80.5765ZM131.194 115.147L151.689 169.364H139.005L130.265 152.195H116.344L131.194 115.147Z" fill="#CC2229"/>
<defs>
<filter id="filter0_d_33_2316" x="0.723999" y="0.187988" width="260" height="260" filterUnits="userSpaceOnUse" color-interpolation-filters="sRGB">
<feFlood flood-opacity="0" result="BackgroundImageFix"/>
<feColorMatrix in="SourceAlpha" type="matrix" values="0 0 0 0 0 0 0 0 0 0 0 0 0 0 0 0 0 0 127 0" result="hardAlpha"/>
<feOffset dy="4"/>
<feGaussianBlur stdDeviation="20"/>
<feComposite in2="hardAlpha" operator="out"/>
<feColorMatrix type="matrix" values="0 0 0 0 0.0367917 0 0 0 0 0.0348958 0 0 0 0 0.0484375 0 0 0 0.1 0"/>
<feBlend mode="normal" in2="BackgroundImageFix" result="effect1_dropShadow_33_2316"/>
<feBlend mode="normal" in="SourceGraphic" in2="effect1_dropShadow_33_2316" result="shape"/>
</filter>
</defs>
</svg>
