<svg width="261" height="261" viewBox="0 0 261 261" fill="none" xmlns="http://www.w3.org/2000/svg">
<g filter="url(#filter0_d_22_666)">
<path d="M40.724 100.891C40.724 70.721 40.724 55.636 50.0966 46.2635C59.4692 36.8909 74.5541 36.8909 104.724 36.8909H156.724C186.894 36.8909 201.979 36.8909 211.351 46.2635C220.724 55.636 220.724 70.721 220.724 100.891V152.891C220.724 183.061 220.724 198.146 211.351 207.518C201.979 216.891 186.894 216.891 156.724 216.891H104.724C74.5541 216.891 59.4692 216.891 50.0966 207.518C40.724 198.146 40.724 183.061 40.724 152.891V100.891Z" fill="white"/>
<path d="M50.0966 207.518L49.3895 208.225L50.0966 207.518ZM211.351 207.518L210.644 206.811L211.351 207.518ZM211.351 46.2635L212.059 45.5563L211.351 46.2635ZM104.724 37.8909H156.724V35.8909H104.724V37.8909ZM219.724 100.891V152.891H221.724V100.891H219.724ZM156.724 215.891H104.724V217.891H156.724V215.891ZM41.724 152.891V100.891H39.724V152.891H41.724ZM104.724 215.891C89.6108 215.891 78.3765 215.889 69.7445 214.728C61.1414 213.572 55.2732 211.281 50.8037 206.811L49.3895 208.225C54.2925 213.128 60.6531 215.524 69.4781 216.71C78.2742 217.893 89.6673 217.891 104.724 217.891V215.891ZM39.724 152.891C39.724 167.948 39.7219 179.341 40.9045 188.137C42.091 196.962 44.4864 203.322 49.3895 208.225L50.8037 206.811C46.3342 202.342 44.0433 196.473 42.8867 187.87C41.7261 179.238 41.724 168.004 41.724 152.891H39.724ZM219.724 152.891C219.724 168.004 219.722 179.238 218.561 187.87C217.405 196.473 215.114 202.342 210.644 206.811L212.059 208.225C216.962 203.322 219.357 196.962 220.544 188.137C221.726 179.341 221.724 167.948 221.724 152.891H219.724ZM156.724 217.891C171.781 217.891 183.174 217.893 191.97 216.71C200.795 215.524 207.155 213.128 212.059 208.225L210.644 206.811C206.175 211.281 200.307 213.572 191.703 214.728C183.072 215.889 171.837 215.891 156.724 215.891V217.891ZM156.724 37.8909C171.837 37.8909 183.072 37.893 191.703 39.0535C200.307 40.2102 206.175 42.501 210.644 46.9706L212.059 45.5563C207.155 40.6533 200.795 38.2578 191.97 37.0714C183.174 35.8887 171.781 35.8909 156.724 35.8909V37.8909ZM221.724 100.891C221.724 85.8342 221.726 74.4411 220.544 65.6449C219.357 56.82 216.962 50.4594 212.059 45.5563L210.644 46.9706C215.114 51.4401 217.405 57.3083 218.561 65.9114C219.722 74.5433 219.724 85.7777 219.724 100.891H221.724ZM104.724 35.8909C89.6673 35.8909 78.2742 35.8887 69.4781 37.0714C60.6531 38.2578 54.2925 40.6533 49.3895 45.5563L50.8037 46.9706C55.2732 42.501 61.1414 40.2102 69.7445 39.0535C78.3765 37.893 89.6108 37.8909 104.724 37.8909V35.8909ZM41.724 100.891C41.724 85.7777 41.7261 74.5433 42.8867 65.9114C44.0433 57.3083 46.3342 51.4401 50.8037 46.9706L49.3895 45.5563C44.4864 50.4594 42.091 56.82 40.9045 65.6449C39.7219 74.4411 39.724 85.8342 39.724 100.891H41.724Z" fill="#D9D9D9"/>
</g>
<path d="M85.1666 81.9017H176.833V171.069H85.1666V81.9017Z" fill="url(#paint0_radial_22_666)"/>
<path d="M85.1666 81.9017H176.833V171.068H85.1666V81.9017ZM81 175.235H181V77.7351H81V175.235ZM151.75 124.735C153.875 124.735 154.625 124.735 154.833 124.652C154.833 124.36 154.916 124.152 154.916 123.943C154.916 121.693 153.833 117.527 149.5 117.527C145.5 117.527 143.792 121.027 143.375 124.735H151.75ZM143.292 130.443C143.375 136.068 146.042 139.86 152.375 139.86C154.833 139.86 156.958 139.527 159.167 138.569C159.458 138.444 159.667 138.485 159.667 138.86V144.069C159.667 144.485 159.542 144.694 159.25 144.902C157.042 145.985 154.292 146.485 150.875 146.485C139.875 146.485 135.75 138.36 135.75 129.319C135.75 119.485 140.834 111.444 149.792 111.444C158.875 111.444 162.042 119.069 162.042 125.277C162.042 127.277 161.917 128.902 161.709 129.694C161.625 130.027 161.5 130.152 161.167 130.236C160.334 130.361 157.875 130.527 154.209 130.527H143.292V130.443ZM120.959 126.193C119.792 121.568 116.958 111.485 115.917 106.61H115.833C114.958 111.485 112.667 119.735 110.958 126.193H120.959ZM109.25 132.944L105.958 145.402C105.875 145.735 105.75 145.86 105.333 145.86H99.2082C98.7916 145.86 98.7081 145.735 98.7916 145.235L110.625 103.86C110.833 103.11 110.958 102.527 111.041 100.444C111.041 100.152 111.166 100.027 111.375 100.027H120.125C120.416 100.027 120.541 100.11 120.625 100.444L133.875 145.319C133.958 145.652 133.875 145.86 133.541 145.86H126.667C126.333 145.86 126.125 145.735 126.041 145.444L122.625 132.944H109.25V132.944Z" fill="#D8A1FF"/>
<defs>
<filter id="filter0_d_22_666" x="0.723999" y="0.890869" width="260" height="260" filterUnits="userSpaceOnUse" color-interpolation-filters="sRGB">
<feFlood flood-opacity="0" result="BackgroundImageFix"/>
<feColorMatrix in="SourceAlpha" type="matrix" values="0 0 0 0 0 0 0 0 0 0 0 0 0 0 0 0 0 0 127 0" result="hardAlpha"/>
<feOffset dy="4"/>
<feGaussianBlur stdDeviation="20"/>
<feComposite in2="hardAlpha" operator="out"/>
<feColorMatrix type="matrix" values="0 0 0 0 0.0367917 0 0 0 0 0.0348958 0 0 0 0 0.0484375 0 0 0 0.1 0"/>
<feBlend mode="normal" in2="BackgroundImageFix" result="effect1_dropShadow_22_666"/>
<feBlend mode="normal" in="SourceGraphic" in2="effect1_dropShadow_22_666" result="shape"/>
</filter>
<radialGradient id="paint0_radial_22_666" cx="0" cy="0" r="1" gradientUnits="userSpaceOnUse" gradientTransform="translate(115.357 101.884) scale(69.6666 67.4501)">
<stop stop-color="#442F55" stop-opacity="0.98"/>
<stop offset="1" stop-color="#12002C"/>
</radialGradient>
</defs>
</svg>
