<svg width="261" height="260" viewBox="0 0 261 260" fill="none" xmlns="http://www.w3.org/2000/svg">
<g filter="url(#filter0_d_20_1673)">
<path d="M40.724 100C40.724 69.8301 40.724 54.7452 50.0966 45.3726C59.4692 36 74.5541 36 104.724 36H156.724C186.894 36 201.979 36 211.351 45.3726C220.724 54.7452 220.724 69.8301 220.724 100V152C220.724 182.17 220.724 197.255 211.351 206.627C201.979 216 186.894 216 156.724 216H104.724C74.5541 216 59.4692 216 50.0966 206.627C40.724 197.255 40.724 182.17 40.724 152V100Z" fill="white"/>
<path d="M50.0966 206.627L49.3895 207.335L50.0966 206.627ZM211.351 206.627L210.644 205.92L211.351 206.627ZM211.351 45.3726L212.059 44.6655L211.351 45.3726ZM104.724 37H156.724V35H104.724V37ZM219.724 100V152H221.724V100H219.724ZM156.724 215H104.724V217H156.724V215ZM41.724 152V100H39.724V152H41.724ZM104.724 215C89.6108 215 78.3765 214.998 69.7445 213.837C61.1414 212.681 55.2732 210.39 50.8037 205.92L49.3895 207.335C54.2925 212.238 60.6531 214.633 69.4781 215.82C78.2742 217.002 89.6673 217 104.724 217V215ZM39.724 152C39.724 167.057 39.7219 178.45 40.9045 187.246C42.091 196.071 44.4864 202.431 49.3895 207.335L50.8037 205.92C46.3342 201.451 44.0433 195.583 42.8867 186.979C41.7261 178.348 41.724 167.113 41.724 152H39.724ZM219.724 152C219.724 167.113 219.722 178.348 218.561 186.979C217.405 195.583 215.114 201.451 210.644 205.92L212.059 207.335C216.962 202.431 219.357 196.071 220.544 187.246C221.726 178.45 221.724 167.057 221.724 152H219.724ZM156.724 217C171.781 217 183.174 217.002 191.97 215.82C200.795 214.633 207.155 212.238 212.059 207.335L210.644 205.92C206.175 210.39 200.307 212.681 191.703 213.837C183.072 214.998 171.837 215 156.724 215V217ZM156.724 37C171.837 37 183.072 37.0021 191.703 38.1627C200.307 39.3193 206.175 41.6102 210.644 46.0797L212.059 44.6655C207.155 39.7624 200.795 37.367 191.97 36.1805C183.174 34.9979 171.781 35 156.724 35V37ZM221.724 100C221.724 84.9433 221.726 73.5502 220.544 64.7541C219.357 55.9291 216.962 49.5685 212.059 44.6655L210.644 46.0797C215.114 50.5492 217.405 56.4174 218.561 65.0205C219.722 73.6525 219.724 84.8868 219.724 100H221.724ZM104.724 35C89.6673 35 78.2742 34.9979 69.4781 36.1805C60.6531 37.367 54.2925 39.7624 49.3895 44.6655L50.8037 46.0797C55.2732 41.6102 61.1414 39.3193 69.7445 38.1627C78.3765 37.0021 89.6108 37 104.724 37V35ZM41.724 100C41.724 84.8868 41.7261 73.6525 42.8867 65.0205C44.0433 56.4174 46.3342 50.5492 50.8037 46.0797L49.3895 44.6655C44.4864 49.5685 42.091 55.9291 40.9045 64.7541C39.7219 73.5502 39.724 84.9433 39.724 100H41.724Z" fill="#D9D9D9"/>
</g>
<path d="M125.587 85.5252L88.3036 100.952C86.2303 101.81 86.2518 104.756 88.3381 105.583L125.777 120.429C129.066 121.734 132.729 121.734 136.019 120.429L173.458 105.582C175.543 104.756 175.566 101.811 173.492 100.953L136.21 85.5246C132.808 84.1171 128.987 84.1171 125.586 85.5246" fill="#FCB400"/>
<path d="M134.219 128.536V165.625C134.219 167.389 135.998 168.597 137.638 167.947L179.356 151.754C179.821 151.57 180.22 151.25 180.502 150.836C180.783 150.422 180.933 149.933 180.933 149.432V112.344C180.933 110.579 179.154 109.372 177.514 110.022L135.796 126.214C135.331 126.399 134.932 126.719 134.651 127.133C134.37 127.547 134.22 128.036 134.219 128.536" fill="#18BFFF"/>
<path d="M124.478 130.45L112.097 136.428L110.84 137.035L84.7042 149.558C83.048 150.357 80.9329 149.15 80.9329 147.309V112.499C80.9329 111.833 81.2743 111.258 81.7321 110.826C81.92 110.639 82.1331 110.479 82.3652 110.351C82.9892 109.976 83.88 109.876 84.6375 110.176L124.27 125.879C126.284 126.678 126.442 129.501 124.478 130.45" fill="#F82B60"/>
<path d="M124.478 130.45L112.097 136.428L81.7321 110.825C81.92 110.638 82.1331 110.479 82.3652 110.351C82.9892 109.976 83.88 109.876 84.6375 110.176L124.27 125.879C126.284 126.678 126.442 129.501 124.478 130.45" fill="black" fill-opacity="0.25"/>
<defs>
<filter id="filter0_d_20_1673" x="0.723999" y="0" width="260" height="260" filterUnits="userSpaceOnUse" color-interpolation-filters="sRGB">
<feFlood flood-opacity="0" result="BackgroundImageFix"/>
<feColorMatrix in="SourceAlpha" type="matrix" values="0 0 0 0 0 0 0 0 0 0 0 0 0 0 0 0 0 0 127 0" result="hardAlpha"/>
<feOffset dy="4"/>
<feGaussianBlur stdDeviation="20"/>
<feComposite in2="hardAlpha" operator="out"/>
<feColorMatrix type="matrix" values="0 0 0 0 0.0367917 0 0 0 0 0.0348958 0 0 0 0 0.0484375 0 0 0 0.1 0"/>
<feBlend mode="normal" in2="BackgroundImageFix" result="effect1_dropShadow_20_1673"/>
<feBlend mode="normal" in="SourceGraphic" in2="effect1_dropShadow_20_1673" result="shape"/>
</filter>
</defs>
</svg>
