<svg width="261" height="261" viewBox="0 0 261 261" fill="none" xmlns="http://www.w3.org/2000/svg">
<g filter="url(#filter0_d_33_2416)">
<path d="M40.2761 100.188C40.2761 70.0181 40.2761 54.9332 49.6487 45.5606C59.0213 36.188 74.1062 36.188 104.276 36.188H156.276C186.446 36.188 201.531 36.188 210.904 45.5606C220.276 54.9332 220.276 70.0181 220.276 100.188V152.188C220.276 182.358 220.276 197.443 210.904 206.815C201.531 216.188 186.446 216.188 156.276 216.188H104.276C74.1062 216.188 59.0213 216.188 49.6487 206.815C40.2761 197.443 40.2761 182.358 40.2761 152.188V100.188Z" fill="white"/>
<path d="M49.6487 206.815L48.9416 207.523L49.6487 206.815ZM210.904 206.815L210.196 206.108L210.904 206.815ZM210.904 45.5606L211.611 44.8535L210.904 45.5606ZM104.276 37.188H156.276V35.188H104.276V37.188ZM219.276 100.188V152.188H221.276V100.188H219.276ZM156.276 215.188H104.276V217.188H156.276V215.188ZM41.2761 152.188V100.188H39.2761V152.188H41.2761ZM104.276 215.188C89.1629 215.188 77.9286 215.186 69.2967 214.025C60.6935 212.869 54.8253 210.578 50.3558 206.108L48.9416 207.523C53.8447 212.426 60.2052 214.821 69.0302 216.007C77.8263 217.19 89.2194 217.188 104.276 217.188V215.188ZM39.2761 152.188C39.2761 167.245 39.274 178.638 40.4566 187.434C41.6431 196.259 44.0385 202.619 48.9416 207.523L50.3558 206.108C45.8863 201.639 43.5954 195.771 42.4388 187.167C41.2782 178.536 41.2761 167.301 41.2761 152.188H39.2761ZM219.276 152.188C219.276 167.301 219.274 178.536 218.113 187.167C216.957 195.771 214.666 201.639 210.196 206.108L211.611 207.523C216.514 202.619 218.909 196.259 220.096 187.434C221.278 178.638 221.276 167.245 221.276 152.188H219.276ZM156.276 217.188C171.333 217.188 182.726 217.19 191.522 216.007C200.347 214.821 206.708 212.426 211.611 207.523L210.196 206.108C205.727 210.578 199.859 212.869 191.256 214.025C182.624 215.186 171.389 215.188 156.276 215.188V217.188ZM156.276 37.188C171.389 37.188 182.624 37.1901 191.256 38.3506C199.859 39.5073 205.727 41.7982 210.196 46.2677L211.611 44.8535C206.708 39.9504 200.347 37.555 191.522 36.3685C182.726 35.1859 171.333 35.188 156.276 35.188V37.188ZM221.276 100.188C221.276 85.1313 221.278 73.7382 220.096 64.942C218.909 56.1171 216.514 49.7565 211.611 44.8535L210.196 46.2677C214.666 50.7372 216.957 56.6054 218.113 65.2085C219.274 73.8405 219.276 85.0748 219.276 100.188H221.276ZM104.276 35.188C89.2194 35.188 77.8263 35.1859 69.0302 36.3685C60.2052 37.555 53.8447 39.9504 48.9416 44.8535L50.3558 46.2677C54.8253 41.7982 60.6935 39.5073 69.2967 38.3506C77.9286 37.1901 89.1629 37.188 104.276 37.188V35.188ZM41.2761 100.188C41.2761 85.0748 41.2782 73.8405 42.4388 65.2085C43.5954 56.6054 45.8863 50.7372 50.3558 46.2677L48.9416 44.8535C44.0385 49.7565 41.6431 56.1171 40.4566 64.942C39.274 73.7382 39.2761 85.1313 39.2761 100.188H41.2761Z" fill="#D9D9D9"/>
</g>
<path fill-rule="evenodd" clip-rule="evenodd" d="M107.795 165.047L95.3585 160.584V142.356L107.795 146.594V165.047ZM110.076 165.047L122.512 160.585V142.356L110.076 146.594V165.047ZM96.6365 140.993L109.223 137.449L120.894 141.213L109.223 145.175L96.6365 140.993ZM92.9884 139.581L80.5521 135.12V116.89L92.9884 121.128V139.581ZM95.2697 139.581L107.707 135.12V116.89L95.2697 121.128V139.581ZM81.8301 115.526L94.4175 111.983L106.089 115.747L94.4175 119.709L81.8301 115.527V115.526ZM122.008 139.581L109.571 135.12V116.89L122.008 121.128V139.581ZM124.289 139.581L136.726 135.12V116.89L124.289 121.128V139.581ZM110.85 115.526L123.437 111.983L135.107 115.747L123.437 119.709L110.85 115.527V115.526ZM136.814 114.114L124.377 109.654V91.4243L136.814 95.6608V114.114ZM139.096 114.114L151.532 109.654V91.4243L139.095 95.6608V114.114H139.096ZM125.656 90.0608L138.243 86.5173L149.914 90.2799L138.243 94.2433L125.656 90.0608ZM165.835 114.114L153.397 109.654V91.4243L165.835 95.6608V114.114ZM168.115 114.114L180.552 109.654V91.4243L168.115 95.6608V114.114ZM154.675 90.0608L167.263 86.5173L178.933 90.2799L167.263 94.2425L154.675 90.06" fill="#FF9900"/>
<defs>
<filter id="filter0_d_33_2416" x="0.276123" y="0.187988" width="260" height="260" filterUnits="userSpaceOnUse" color-interpolation-filters="sRGB">
<feFlood flood-opacity="0" result="BackgroundImageFix"/>
<feColorMatrix in="SourceAlpha" type="matrix" values="0 0 0 0 0 0 0 0 0 0 0 0 0 0 0 0 0 0 127 0" result="hardAlpha"/>
<feOffset dy="4"/>
<feGaussianBlur stdDeviation="20"/>
<feComposite in2="hardAlpha" operator="out"/>
<feColorMatrix type="matrix" values="0 0 0 0 0.0367917 0 0 0 0 0.0348958 0 0 0 0 0.0484375 0 0 0 0.1 0"/>
<feBlend mode="normal" in2="BackgroundImageFix" result="effect1_dropShadow_33_2416"/>
<feBlend mode="normal" in="SourceGraphic" in2="effect1_dropShadow_33_2416" result="shape"/>
</filter>
</defs>
</svg>
