<svg width="260" height="261" viewBox="0 0 260 261" fill="none" xmlns="http://www.w3.org/2000/svg">
<g filter="url(#filter0_d_22_670)">
<path d="M40.0001 100.594C40.0001 70.424 40.0001 55.339 49.3727 45.9665C58.7453 36.5939 73.8302 36.5939 104 36.5939H156C186.17 36.5939 201.255 36.5939 210.628 45.9665C220 55.339 220 70.424 220 100.594V152.594C220 182.764 220 197.849 210.628 207.221C201.255 216.594 186.17 216.594 156 216.594H104C73.8302 216.594 58.7453 216.594 49.3727 207.221C40.0001 197.849 40.0001 182.764 40.0001 152.594V100.594Z" fill="white"/>
<path d="M49.3727 207.221L48.6656 207.928L49.3727 207.221ZM210.628 207.221L209.92 206.514L210.628 207.221ZM210.628 45.9665L211.335 45.2593L210.628 45.9665ZM104 37.5939H156V35.5939H104V37.5939ZM219 100.594V152.594H221V100.594H219ZM156 215.594H104V217.594H156V215.594ZM41.0001 152.594V100.594H39.0001V152.594H41.0001ZM104 215.594C88.8869 215.594 77.6526 215.592 69.0207 214.431C60.4175 213.275 54.5493 210.984 50.0798 206.514L48.6656 207.928C53.5687 212.831 59.9292 215.227 68.7542 216.413C77.5503 217.596 88.9434 217.594 104 217.594V215.594ZM39.0001 152.594C39.0001 167.651 38.998 179.044 40.1806 187.84C41.3671 196.665 43.7625 203.025 48.6656 207.928L50.0798 206.514C45.6103 202.045 43.3194 196.176 42.1628 187.573C41.0022 178.941 41.0001 167.707 41.0001 152.594H39.0001ZM219 152.594C219 167.707 218.998 178.941 217.837 187.573C216.681 196.176 214.39 202.045 209.92 206.514L211.335 207.928C216.238 203.025 218.633 196.665 219.82 187.84C221.002 179.044 221 167.651 221 152.594H219ZM156 217.594C171.057 217.594 182.45 217.596 191.246 216.413C200.071 215.227 206.432 212.831 211.335 207.928L209.92 206.514C205.451 210.984 199.583 213.275 190.98 214.431C182.348 215.592 171.113 215.594 156 215.594V217.594ZM156 37.5939C171.113 37.5939 182.348 37.596 190.98 38.7565C199.583 39.9132 205.451 42.204 209.92 46.6736L211.335 45.2593C206.432 40.3563 200.071 37.9608 191.246 36.7744C182.45 35.5917 171.057 35.5939 156 35.5939V37.5939ZM221 100.594C221 85.5372 221.002 74.1441 219.82 65.3479C218.633 56.523 216.238 50.1624 211.335 45.2593L209.92 46.6736C214.39 51.1431 216.681 57.0113 217.837 65.6144C218.998 74.2463 219 85.4807 219 100.594H221ZM104 35.5939C88.9434 35.5939 77.5503 35.5917 68.7542 36.7744C59.9292 37.9608 53.5687 40.3563 48.6656 45.2593L50.0798 46.6736C54.5493 42.204 60.4175 39.9132 69.0207 38.7565C77.6526 37.596 88.8869 37.5939 104 37.5939V35.5939ZM41.0001 100.594C41.0001 85.4807 41.0022 74.2463 42.1628 65.6144C43.3194 57.0113 45.6103 51.1431 50.0798 46.6736L48.6656 45.2593C43.7625 50.1624 41.3671 56.523 40.1806 65.3479C38.998 74.1441 39.0001 85.5372 39.0001 100.594H41.0001Z" fill="#D9D9D9"/>
</g>
<path d="M82.7874 92.7627L129.306 76.1881L177.078 92.468L169.343 154.015L129.306 176.188L89.8961 154.31L82.7874 92.7627Z" fill="#E23237"/>
<path d="M177.078 92.468L129.306 76.1881V176.188L169.343 154.052L177.078 92.468Z" fill="#B52E31"/>
<path d="M129.38 87.8641L100.393 152.358L111.222 152.173L117.041 137.624H143.045L149.417 152.358L159.767 152.542L129.38 87.8641ZM129.454 108.527L139.251 129.006H120.835L129.454 108.527Z" fill="white"/>
<defs>
<filter id="filter0_d_22_670" x="0.00012207" y="0.593872" width="260" height="260" filterUnits="userSpaceOnUse" color-interpolation-filters="sRGB">
<feFlood flood-opacity="0" result="BackgroundImageFix"/>
<feColorMatrix in="SourceAlpha" type="matrix" values="0 0 0 0 0 0 0 0 0 0 0 0 0 0 0 0 0 0 127 0" result="hardAlpha"/>
<feOffset dy="4"/>
<feGaussianBlur stdDeviation="20"/>
<feComposite in2="hardAlpha" operator="out"/>
<feColorMatrix type="matrix" values="0 0 0 0 0.0367917 0 0 0 0 0.0348958 0 0 0 0 0.0484375 0 0 0 0.1 0"/>
<feBlend mode="normal" in2="BackgroundImageFix" result="effect1_dropShadow_22_670"/>
<feBlend mode="normal" in="SourceGraphic" in2="effect1_dropShadow_22_670" result="shape"/>
</filter>
</defs>
</svg>
