<svg width="261" height="260" viewBox="0 0 261 260" fill="none" xmlns="http://www.w3.org/2000/svg">
<g filter="url(#filter0_d_20_1677)">
<path d="M40.724 100C40.724 69.8301 40.724 54.7452 50.0966 45.3726C59.4692 36 74.5541 36 104.724 36H156.724C186.894 36 201.979 36 211.351 45.3726C220.724 54.7452 220.724 69.8301 220.724 100V152C220.724 182.17 220.724 197.255 211.351 206.627C201.979 216 186.894 216 156.724 216H104.724C74.5541 216 59.4692 216 50.0966 206.627C40.724 197.255 40.724 182.17 40.724 152V100Z" fill="white"/>
<path d="M50.0966 206.627L49.3895 207.335L50.0966 206.627ZM211.351 206.627L210.644 205.92L211.351 206.627ZM211.351 45.3726L212.059 44.6655L211.351 45.3726ZM104.724 37H156.724V35H104.724V37ZM219.724 100V152H221.724V100H219.724ZM156.724 215H104.724V217H156.724V215ZM41.724 152V100H39.724V152H41.724ZM104.724 215C89.6108 215 78.3765 214.998 69.7445 213.837C61.1414 212.681 55.2732 210.39 50.8037 205.92L49.3895 207.335C54.2925 212.238 60.6531 214.633 69.4781 215.82C78.2742 217.002 89.6673 217 104.724 217V215ZM39.724 152C39.724 167.057 39.7219 178.45 40.9045 187.246C42.091 196.071 44.4864 202.431 49.3895 207.335L50.8037 205.92C46.3342 201.451 44.0433 195.583 42.8867 186.979C41.7261 178.348 41.724 167.113 41.724 152H39.724ZM219.724 152C219.724 167.113 219.722 178.348 218.561 186.979C217.405 195.583 215.114 201.451 210.644 205.92L212.059 207.335C216.962 202.431 219.357 196.071 220.544 187.246C221.726 178.45 221.724 167.057 221.724 152H219.724ZM156.724 217C171.781 217 183.174 217.002 191.97 215.82C200.795 214.633 207.155 212.238 212.059 207.335L210.644 205.92C206.175 210.39 200.307 212.681 191.703 213.837C183.072 214.998 171.837 215 156.724 215V217ZM156.724 37C171.837 37 183.072 37.0021 191.703 38.1627C200.307 39.3193 206.175 41.6102 210.644 46.0797L212.059 44.6655C207.155 39.7624 200.795 37.367 191.97 36.1805C183.174 34.9979 171.781 35 156.724 35V37ZM221.724 100C221.724 84.9433 221.726 73.5502 220.544 64.7541C219.357 55.9291 216.962 49.5685 212.059 44.6655L210.644 46.0797C215.114 50.5492 217.405 56.4174 218.561 65.0205C219.722 73.6525 219.724 84.8868 219.724 100H221.724ZM104.724 35C89.6673 35 78.2742 34.9979 69.4781 36.1805C60.6531 37.367 54.2925 39.7624 49.3895 44.6655L50.8037 46.0797C55.2732 41.6102 61.1414 39.3193 69.7445 38.1627C78.3765 37.0021 89.6108 37 104.724 37V35ZM41.724 100C41.724 84.8868 41.7261 73.6525 42.8867 65.0205C44.0433 56.4174 46.3342 50.5492 50.8037 46.0797L49.3895 44.6655C44.4864 49.5685 42.091 55.9291 40.9045 64.7541C39.7219 73.5502 39.724 84.9433 39.724 100H41.724Z" fill="#D9D9D9"/>
</g>
<path fill-rule="evenodd" clip-rule="evenodd" d="M101.427 85.7639C95.7212 85.7639 91.4991 90.7581 91.6882 96.1741C91.8696 101.377 91.6339 108.116 89.9374 113.612C88.2348 119.123 85.3575 122.616 80.6567 123.064V128.125C85.3575 128.574 88.2348 132.065 89.9372 137.577C91.6339 143.072 91.8694 149.811 91.688 155.015C91.4989 160.43 95.721 165.425 101.428 165.425H159.894C165.6 165.425 169.821 160.431 169.632 155.015C169.451 149.811 169.686 143.072 171.383 137.577C173.085 132.065 175.956 128.573 180.657 128.125V123.064C175.956 122.615 173.086 119.124 171.383 113.612C169.686 108.117 169.451 101.377 169.632 96.1741C169.821 90.7588 165.6 85.7639 159.894 85.7639H101.426H101.427ZM148.453 134.8C148.453 142.258 142.891 146.781 133.659 146.781H117.945C117.495 146.781 117.064 146.602 116.746 146.284C116.428 145.967 116.25 145.536 116.25 145.086V106.103C116.25 105.653 116.428 105.222 116.746 104.904C117.064 104.587 117.495 104.408 117.945 104.408H133.57C141.267 104.408 146.319 108.578 146.319 114.979C146.319 119.472 142.921 123.495 138.591 124.199V124.434C144.485 125.08 148.453 129.162 148.453 134.8ZM131.946 109.781H122.986V122.437H130.532C136.366 122.437 139.583 120.088 139.583 115.889C139.583 111.954 136.817 109.781 131.946 109.781ZM122.986 127.459V141.406H132.275C138.35 141.406 141.567 138.969 141.567 134.389C141.567 129.808 138.259 127.458 131.885 127.458H122.986V127.459Z" fill="#7952B3"/>
<defs>
<filter id="filter0_d_20_1677" x="0.723999" y="0" width="260" height="260" filterUnits="userSpaceOnUse" color-interpolation-filters="sRGB">
<feFlood flood-opacity="0" result="BackgroundImageFix"/>
<feColorMatrix in="SourceAlpha" type="matrix" values="0 0 0 0 0 0 0 0 0 0 0 0 0 0 0 0 0 0 127 0" result="hardAlpha"/>
<feOffset dy="4"/>
<feGaussianBlur stdDeviation="20"/>
<feComposite in2="hardAlpha" operator="out"/>
<feColorMatrix type="matrix" values="0 0 0 0 0.0367917 0 0 0 0 0.0348958 0 0 0 0 0.0484375 0 0 0 0.1 0"/>
<feBlend mode="normal" in2="BackgroundImageFix" result="effect1_dropShadow_20_1677"/>
<feBlend mode="normal" in="SourceGraphic" in2="effect1_dropShadow_20_1677" result="shape"/>
</filter>
</defs>
</svg>
