<svg width="261" height="261" viewBox="0 0 261 261" fill="none" xmlns="http://www.w3.org/2000/svg">
<g filter="url(#filter0_d_22_655)">
<path d="M40.724 100.594C40.724 70.424 40.724 55.339 50.0966 45.9665C59.4692 36.5939 74.5541 36.5939 104.724 36.5939H156.724C186.894 36.5939 201.979 36.5939 211.351 45.9665C220.724 55.339 220.724 70.424 220.724 100.594V152.594C220.724 182.764 220.724 197.849 211.351 207.221C201.979 216.594 186.894 216.594 156.724 216.594H104.724C74.5541 216.594 59.4692 216.594 50.0966 207.221C40.724 197.849 40.724 182.764 40.724 152.594V100.594Z" fill="white"/>
<path d="M50.0966 207.221L49.3895 207.928L50.0966 207.221ZM211.351 207.221L210.644 206.514L211.351 207.221ZM211.351 45.9665L212.059 45.2593L211.351 45.9665ZM104.724 37.5939H156.724V35.5939H104.724V37.5939ZM219.724 100.594V152.594H221.724V100.594H219.724ZM156.724 215.594H104.724V217.594H156.724V215.594ZM41.724 152.594V100.594H39.724V152.594H41.724ZM104.724 215.594C89.6108 215.594 78.3765 215.592 69.7445 214.431C61.1414 213.275 55.2732 210.984 50.8037 206.514L49.3895 207.928C54.2925 212.831 60.6531 215.227 69.4781 216.413C78.2742 217.596 89.6673 217.594 104.724 217.594V215.594ZM39.724 152.594C39.724 167.651 39.7219 179.044 40.9045 187.84C42.091 196.665 44.4864 203.025 49.3895 207.928L50.8037 206.514C46.3342 202.045 44.0433 196.176 42.8867 187.573C41.7261 178.941 41.724 167.707 41.724 152.594H39.724ZM219.724 152.594C219.724 167.707 219.722 178.941 218.561 187.573C217.405 196.176 215.114 202.045 210.644 206.514L212.059 207.928C216.962 203.025 219.357 196.665 220.544 187.84C221.726 179.044 221.724 167.651 221.724 152.594H219.724ZM156.724 217.594C171.781 217.594 183.174 217.596 191.97 216.413C200.795 215.227 207.155 212.831 212.059 207.928L210.644 206.514C206.175 210.984 200.307 213.275 191.703 214.431C183.072 215.592 171.837 215.594 156.724 215.594V217.594ZM156.724 37.5939C171.837 37.5939 183.072 37.596 191.703 38.7565C200.307 39.9132 206.175 42.204 210.644 46.6736L212.059 45.2593C207.155 40.3563 200.795 37.9608 191.97 36.7744C183.174 35.5917 171.781 35.5939 156.724 35.5939V37.5939ZM221.724 100.594C221.724 85.5372 221.726 74.1441 220.544 65.3479C219.357 56.523 216.962 50.1624 212.059 45.2593L210.644 46.6736C215.114 51.1431 217.405 57.0113 218.561 65.6144C219.722 74.2463 219.724 85.4807 219.724 100.594H221.724ZM104.724 35.5939C89.6673 35.5939 78.2742 35.5917 69.4781 36.7744C60.6531 37.9608 54.2925 40.3563 49.3895 45.2593L50.8037 46.6736C55.2732 42.204 61.1414 39.9132 69.7445 38.7565C78.3765 37.596 89.6108 37.5939 104.724 37.5939V35.5939ZM41.724 100.594C41.724 85.4807 41.7261 74.2463 42.8867 65.6144C44.0433 57.0113 46.3342 51.1431 50.8037 46.6736L49.3895 45.2593C44.4864 50.1624 42.091 56.523 40.9045 65.3479C39.7219 74.1441 39.724 85.5372 39.724 100.594H41.724Z" fill="#D9D9D9"/>
</g>
<path d="M80.8284 163.294C80.8284 170.416 86.6014 176.188 93.7225 176.188H167.934C175.056 176.188 180.828 170.415 180.828 163.294V89.0826C180.828 81.9604 175.055 76.1881 167.934 76.1881H93.7229C86.6006 76.1881 80.8284 81.9612 80.8284 89.0823V163.294V163.294Z" fill="#563D7C"/>
<path d="M122.296 120.422V106.26H134.762C135.949 106.26 137.094 106.359 138.196 106.557C139.298 106.755 140.274 107.108 141.122 107.617C141.969 108.126 142.648 108.833 143.157 109.737C143.666 110.642 143.92 111.801 143.92 113.214C143.92 115.758 143.157 117.595 141.63 118.726C140.104 119.856 138.154 120.422 135.779 120.422H122.296ZM108.983 95.9147V156.462H138.323C141.037 156.462 143.68 156.122 146.252 155.444C148.825 154.765 151.114 153.72 153.121 152.306C155.128 150.893 156.725 149.07 157.912 146.837C159.1 144.604 159.693 141.961 159.693 138.908C159.693 135.12 158.774 131.884 156.937 129.199C155.1 126.513 152.315 124.633 148.584 123.559C151.298 122.259 153.347 120.591 154.732 118.556C156.117 116.521 156.81 113.977 156.81 110.924C156.81 108.097 156.343 105.723 155.411 103.801C154.478 101.879 153.163 100.339 151.467 99.1795C149.771 98.0205 147.736 97.1865 145.362 96.678C142.987 96.169 140.359 95.9147 137.475 95.9147H108.983ZM122.296 146.116V129.495H136.797C139.68 129.495 141.998 130.159 143.751 131.488C145.503 132.817 146.38 135.035 146.38 138.145C146.38 139.728 146.111 141.028 145.574 142.046C145.037 143.063 144.316 143.869 143.411 144.462C142.507 145.056 141.461 145.48 140.274 145.735C139.086 145.989 137.843 146.116 136.542 146.116H122.296Z" fill="white"/>
<defs>
<filter id="filter0_d_22_655" x="0.723999" y="0.593872" width="260" height="260" filterUnits="userSpaceOnUse" color-interpolation-filters="sRGB">
<feFlood flood-opacity="0" result="BackgroundImageFix"/>
<feColorMatrix in="SourceAlpha" type="matrix" values="0 0 0 0 0 0 0 0 0 0 0 0 0 0 0 0 0 0 127 0" result="hardAlpha"/>
<feOffset dy="4"/>
<feGaussianBlur stdDeviation="20"/>
<feComposite in2="hardAlpha" operator="out"/>
<feColorMatrix type="matrix" values="0 0 0 0 0.0367917 0 0 0 0 0.0348958 0 0 0 0 0.0484375 0 0 0 0.1 0"/>
<feBlend mode="normal" in2="BackgroundImageFix" result="effect1_dropShadow_22_655"/>
<feBlend mode="normal" in="SourceGraphic" in2="effect1_dropShadow_22_655" result="shape"/>
</filter>
</defs>
</svg>
