<svg width="261" height="261" viewBox="0 0 261 261" fill="none" xmlns="http://www.w3.org/2000/svg">
<g filter="url(#filter0_d_33_2214)">
<path d="M40.209 100.594C40.209 70.4241 40.209 55.3392 49.5816 45.9666C58.9542 36.594 74.0391 36.594 104.209 36.594H156.209C186.379 36.594 201.464 36.594 210.836 45.9666C220.209 55.3392 220.209 70.4241 220.209 100.594V152.594C220.209 182.764 220.209 197.849 210.836 207.221C201.464 216.594 186.379 216.594 156.209 216.594H104.209C74.0391 216.594 58.9542 216.594 49.5816 207.221C40.209 197.849 40.209 182.764 40.209 152.594V100.594Z" fill="white"/>
<path d="M49.5816 207.221L48.8745 207.929L49.5816 207.221ZM210.836 207.221L210.129 206.514L210.836 207.221ZM210.836 45.9666L211.544 45.2595L210.836 45.9666ZM104.209 37.594H156.209V35.594H104.209V37.594ZM219.209 100.594V152.594H221.209V100.594H219.209ZM156.209 215.594H104.209V217.594H156.209V215.594ZM41.209 152.594V100.594H39.209V152.594H41.209ZM104.209 215.594C89.0958 215.594 77.8615 215.592 69.2295 214.431C60.6264 213.275 54.7582 210.984 50.2887 206.514L48.8745 207.929C53.7775 212.832 60.1381 215.227 68.963 216.413C77.7592 217.596 89.1523 217.594 104.209 217.594V215.594ZM39.209 152.594C39.209 167.651 39.2069 179.044 40.3895 187.84C41.576 196.665 43.9714 203.025 48.8745 207.929L50.2887 206.514C45.8192 202.045 43.5283 196.177 42.3716 187.573C41.2111 178.942 41.209 167.707 41.209 152.594H39.209ZM219.209 152.594C219.209 167.707 219.207 178.942 218.046 187.573C216.89 196.177 214.599 202.045 210.129 206.514L211.544 207.929C216.447 203.025 218.842 196.665 220.028 187.84C221.211 179.044 221.209 167.651 221.209 152.594H219.209ZM156.209 217.594C171.266 217.594 182.659 217.596 191.455 216.413C200.28 215.227 206.64 212.832 211.544 207.929L210.129 206.514C205.66 210.984 199.792 213.275 191.188 214.431C182.557 215.592 171.322 215.594 156.209 215.594V217.594ZM156.209 37.594C171.322 37.594 182.557 37.5961 191.188 38.7566C199.792 39.9133 205.66 42.2042 210.129 46.6737L211.544 45.2595C206.64 40.3564 200.28 37.961 191.455 36.7745C182.659 35.5919 171.266 35.594 156.209 35.594V37.594ZM221.209 100.594C221.209 85.5373 221.211 74.1442 220.028 65.348C218.842 56.5231 216.447 50.1625 211.544 45.2595L210.129 46.6737C214.599 51.1432 216.89 57.0114 218.046 65.6145C219.207 74.2465 219.209 85.4808 219.209 100.594H221.209ZM104.209 35.594C89.1523 35.594 77.7592 35.5919 68.963 36.7745C60.1381 37.961 53.7775 40.3564 48.8745 45.2595L50.2887 46.6737C54.7582 42.2042 60.6264 39.9133 69.2295 38.7566C77.8615 37.5961 89.0958 37.594 104.209 37.594V35.594ZM41.209 100.594C41.209 85.4808 41.2111 74.2465 42.3716 65.6145C43.5283 57.0114 45.8192 51.1432 50.2887 46.6737L48.8745 45.2595C43.9714 50.1625 41.576 56.5231 40.3895 65.348C39.2069 74.1442 39.209 85.5373 39.209 100.594H41.209Z" fill="#D9D9D9"/>
</g>
<path d="M96.2145 144.938L102.465 101.188L127.464 76.1882L158.714 107.438L139.964 126.188L164.964 151.188L127.465 176.188L96.2145 144.938Z" fill="#00D1B2"/>
<defs>
<filter id="filter0_d_33_2214" x="0.208984" y="0.593994" width="260" height="260" filterUnits="userSpaceOnUse" color-interpolation-filters="sRGB">
<feFlood flood-opacity="0" result="BackgroundImageFix"/>
<feColorMatrix in="SourceAlpha" type="matrix" values="0 0 0 0 0 0 0 0 0 0 0 0 0 0 0 0 0 0 127 0" result="hardAlpha"/>
<feOffset dy="4"/>
<feGaussianBlur stdDeviation="20"/>
<feComposite in2="hardAlpha" operator="out"/>
<feColorMatrix type="matrix" values="0 0 0 0 0.0367917 0 0 0 0 0.0348958 0 0 0 0 0.0484375 0 0 0 0.1 0"/>
<feBlend mode="normal" in2="BackgroundImageFix" result="effect1_dropShadow_33_2214"/>
<feBlend mode="normal" in="SourceGraphic" in2="effect1_dropShadow_33_2214" result="shape"/>
</filter>
</defs>
</svg>
