<svg width="261" height="260" viewBox="0 0 261 260" fill="none" xmlns="http://www.w3.org/2000/svg">
<g filter="url(#filter0_d_25_403)">
<path d="M40.9329 100C40.9329 69.8301 40.9329 54.7452 50.3054 45.3726C59.678 36 74.763 36 104.933 36H156.933C187.103 36 202.188 36 211.56 45.3726C220.933 54.7452 220.933 69.8301 220.933 100V152C220.933 182.17 220.933 197.255 211.56 206.627C202.188 216 187.103 216 156.933 216H104.933C74.763 216 59.678 216 50.3054 206.627C40.9329 197.255 40.9329 182.17 40.9329 152V100Z" fill="white"/>
<path d="M50.3054 206.627L49.5983 207.335L50.3054 206.627ZM211.56 206.627L210.853 205.92L211.56 206.627ZM211.56 45.3726L212.267 44.6655L211.56 45.3726ZM104.933 37H156.933V35H104.933V37ZM219.933 100V152H221.933V100H219.933ZM156.933 215H104.933V217H156.933V215ZM41.9329 152V100H39.9329V152H41.9329ZM104.933 215C89.8196 215 78.5853 214.998 69.9534 213.837C61.3503 212.681 55.4821 210.39 51.0126 205.92L49.5983 207.335C54.5014 212.238 60.862 214.633 69.6869 215.82C78.4831 217.002 89.8762 217 104.933 217V215ZM39.9329 152C39.9329 167.057 39.9307 178.45 41.1134 187.246C42.2998 196.071 44.6953 202.431 49.5983 207.335L51.0126 205.92C46.543 201.451 44.2522 195.583 43.0955 186.979C41.935 178.348 41.9329 167.113 41.9329 152H39.9329ZM219.933 152C219.933 167.113 219.931 178.348 218.77 186.979C217.614 195.583 215.323 201.451 210.853 205.92L212.267 207.335C217.17 202.431 219.566 196.071 220.752 187.246C221.935 178.45 221.933 167.057 221.933 152H219.933ZM156.933 217C171.99 217 183.383 217.002 192.179 215.82C201.004 214.633 207.364 212.238 212.267 207.335L210.853 205.92C206.384 210.39 200.515 212.681 191.912 213.837C183.28 214.998 172.046 215 156.933 215V217ZM156.933 37C172.046 37 183.28 37.0021 191.912 38.1627C200.515 39.3193 206.384 41.6102 210.853 46.0797L212.267 44.6655C207.364 39.7624 201.004 37.367 192.179 36.1805C183.383 34.9979 171.99 35 156.933 35V37ZM221.933 100C221.933 84.9433 221.935 73.5502 220.752 64.7541C219.566 55.9291 217.17 49.5685 212.267 44.6655L210.853 46.0797C215.323 50.5492 217.614 56.4174 218.77 65.0205C219.931 73.6525 219.933 84.8868 219.933 100H221.933ZM104.933 35C89.8762 35 78.4831 34.9979 69.6869 36.1805C60.862 37.367 54.5014 39.7624 49.5983 44.6655L51.0126 46.0797C55.4821 41.6102 61.3503 39.3193 69.9534 38.1627C78.5853 37.0021 89.8196 37 104.933 37V35ZM41.9329 100C41.9329 84.8868 41.935 73.6525 43.0955 65.0205C44.2522 56.4174 46.543 50.5492 51.0126 46.0797L49.5983 44.6655C44.6953 49.5685 42.2998 55.9291 41.1134 64.7541C39.9307 73.5502 39.9329 84.9433 39.9329 100H41.9329Z" fill="#D9D9D9"/>
</g>
<path d="M175.082 105.197C175.081 103.532 174.725 102.061 174.005 100.799C173.298 99.5566 172.239 98.516 170.818 97.6932C159.089 90.9305 147.35 84.1885 135.625 77.419C132.464 75.5942 129.4 75.661 126.262 77.5121C121.594 80.2648 98.2215 93.6554 91.2569 97.6894C88.3886 99.3502 86.993 101.891 86.9923 105.194C86.9878 118.794 86.9923 132.394 86.9878 145.994C86.9878 147.623 87.3294 149.065 88.0178 150.309C88.7254 151.588 89.7995 152.657 91.2531 153.499C98.2181 157.533 121.593 170.922 126.261 173.676C129.4 175.528 132.464 175.594 135.626 173.769C147.351 166.999 159.092 160.257 170.822 153.494C172.275 152.653 173.349 151.583 174.057 150.305C174.744 149.062 175.087 147.619 175.087 145.99C175.087 145.99 175.087 118.797 175.082 105.197Z" fill="#A179DC"/>
<path d="M131.172 125.461L88.0178 150.309C88.7255 151.588 89.7996 152.657 91.2532 153.499C98.2182 157.533 121.594 170.922 126.261 173.676C129.4 175.528 132.464 175.594 135.626 173.769C147.351 166.999 159.092 160.257 170.822 153.494C172.275 152.653 173.349 151.583 174.057 150.305L131.172 125.461Z" fill="#280068"/>
<path d="M175.082 105.197C175.082 103.532 174.726 102.061 174.005 100.799L131.172 125.462L174.057 150.305C174.745 149.062 175.086 147.619 175.087 145.99C175.087 145.99 175.087 118.797 175.082 105.197Z" fill="#390091"/>
<path d="M156.58 116.173V120.817H161.224V116.173H163.546V120.817H168.191V123.14H163.546V127.784H168.191V130.106H163.546V134.75H161.224V130.106H156.58V134.75H154.257V130.106H149.613V127.784H154.257V123.14H149.613V120.817H154.257V116.173H156.58ZM161.224 123.139H156.58V127.784H161.224V123.139Z" fill="white"/>
<path d="M131.267 92.8478C143.381 92.8478 153.957 99.4267 159.622 109.206L159.567 109.112L145.314 117.318C142.506 112.564 137.358 109.355 131.453 109.289L131.266 109.288C122.261 109.288 114.96 116.589 114.96 125.594C114.957 128.432 115.699 131.222 117.111 133.684C119.922 138.591 125.206 141.9 131.267 141.9C137.366 141.9 142.679 138.549 145.476 133.59L145.408 133.708L159.639 141.953C154.036 151.649 143.605 158.208 131.631 158.339L131.267 158.341C119.114 158.341 108.508 151.721 102.857 141.89C100.098 137.091 98.52 131.527 98.52 125.594C98.52 107.509 113.181 92.8474 131.266 92.8474L131.267 92.8478Z" fill="white"/>
<defs>
<filter id="filter0_d_25_403" x="0.932861" y="0" width="260" height="260" filterUnits="userSpaceOnUse" color-interpolation-filters="sRGB">
<feFlood flood-opacity="0" result="BackgroundImageFix"/>
<feColorMatrix in="SourceAlpha" type="matrix" values="0 0 0 0 0 0 0 0 0 0 0 0 0 0 0 0 0 0 127 0" result="hardAlpha"/>
<feOffset dy="4"/>
<feGaussianBlur stdDeviation="20"/>
<feComposite in2="hardAlpha" operator="out"/>
<feColorMatrix type="matrix" values="0 0 0 0 0.0367917 0 0 0 0 0.0348958 0 0 0 0 0.0484375 0 0 0 0.1 0"/>
<feBlend mode="normal" in2="BackgroundImageFix" result="effect1_dropShadow_25_403"/>
<feBlend mode="normal" in="SourceGraphic" in2="effect1_dropShadow_25_403" result="shape"/>
</filter>
</defs>
</svg>
