<svg width="261" height="260" viewBox="0 0 261 260" fill="none" xmlns="http://www.w3.org/2000/svg">
<g filter="url(#filter0_d_25_417)">
<path d="M40.9329 100C40.9329 69.8301 40.9329 54.7452 50.3054 45.3726C59.678 36 74.763 36 104.933 36H156.933C187.103 36 202.188 36 211.56 45.3726C220.933 54.7452 220.933 69.8301 220.933 100V152C220.933 182.17 220.933 197.255 211.56 206.627C202.188 216 187.103 216 156.933 216H104.933C74.763 216 59.678 216 50.3054 206.627C40.9329 197.255 40.9329 182.17 40.9329 152V100Z" fill="white"/>
<path d="M50.3054 206.627L49.5983 207.335L50.3054 206.627ZM211.56 206.627L210.853 205.92L211.56 206.627ZM211.56 45.3726L212.267 44.6655L211.56 45.3726ZM104.933 37H156.933V35H104.933V37ZM219.933 100V152H221.933V100H219.933ZM156.933 215H104.933V217H156.933V215ZM41.9329 152V100H39.9329V152H41.9329ZM104.933 215C89.8196 215 78.5853 214.998 69.9534 213.837C61.3503 212.681 55.4821 210.39 51.0126 205.92L49.5983 207.335C54.5014 212.238 60.862 214.633 69.6869 215.82C78.4831 217.002 89.8762 217 104.933 217V215ZM39.9329 152C39.9329 167.057 39.9307 178.45 41.1134 187.246C42.2998 196.071 44.6953 202.431 49.5983 207.335L51.0126 205.92C46.543 201.451 44.2522 195.583 43.0955 186.979C41.935 178.348 41.9329 167.113 41.9329 152H39.9329ZM219.933 152C219.933 167.113 219.931 178.348 218.77 186.979C217.614 195.583 215.323 201.451 210.853 205.92L212.267 207.335C217.17 202.431 219.566 196.071 220.752 187.246C221.935 178.45 221.933 167.057 221.933 152H219.933ZM156.933 217C171.99 217 183.383 217.002 192.179 215.82C201.004 214.633 207.364 212.238 212.267 207.335L210.853 205.92C206.384 210.39 200.515 212.681 191.912 213.837C183.28 214.998 172.046 215 156.933 215V217ZM156.933 37C172.046 37 183.28 37.0021 191.912 38.1627C200.515 39.3193 206.384 41.6102 210.853 46.0797L212.267 44.6655C207.364 39.7624 201.004 37.367 192.179 36.1805C183.383 34.9979 171.99 35 156.933 35V37ZM221.933 100C221.933 84.9433 221.935 73.5502 220.752 64.7541C219.566 55.9291 217.17 49.5685 212.267 44.6655L210.853 46.0797C215.323 50.5492 217.614 56.4174 218.77 65.0205C219.931 73.6525 219.933 84.8868 219.933 100H221.933ZM104.933 35C89.8762 35 78.4831 34.9979 69.6869 36.1805C60.862 37.367 54.5014 39.7624 49.5983 44.6655L51.0126 46.0797C55.4821 41.6102 61.3503 39.3193 69.9534 38.1627C78.5853 37.0021 89.8196 37 104.933 37V35ZM41.9329 100C41.9329 84.8868 41.935 73.6525 43.0955 65.0205C44.2522 56.4174 46.543 50.5492 51.0126 46.0797L49.5983 44.6655C44.6953 49.5685 42.2998 55.9291 41.1134 64.7541C39.9307 73.5502 39.9329 84.9433 39.9329 100H41.9329Z" fill="#D9D9D9"/>
</g>
<path d="M174.88 105.008C174.879 103.331 174.52 101.849 173.795 100.577C173.083 99.3268 172.016 98.2786 170.585 97.4499C158.772 90.6384 146.947 83.8478 135.138 77.0294C131.954 75.1914 128.867 75.2584 125.707 77.1228C121.005 79.8957 97.4643 93.3829 90.4493 97.4461C87.5604 99.1185 86.1546 101.678 86.1539 105.005C86.1494 118.703 86.1539 132.401 86.1494 146.099C86.1501 147.74 86.4935 149.193 87.1868 150.445C87.8996 151.734 88.9814 152.811 90.4455 153.658C97.4608 157.721 121.005 171.207 125.706 173.981C128.867 175.846 131.954 175.913 135.139 174.074C146.949 167.256 158.774 160.465 170.589 153.654C172.053 152.807 173.134 151.729 173.847 150.442C174.54 149.189 174.884 147.736 174.884 146.096C174.884 146.096 174.884 118.706 174.88 105.008Z" fill="#5C8DBC"/>
<path d="M130.653 125.419L87.1868 150.445C87.8995 151.734 88.9814 152.811 90.4455 153.658C97.4607 157.721 121.005 171.208 125.706 173.981C128.867 175.847 131.954 175.913 135.139 174.075C146.949 167.256 158.774 160.466 170.589 153.654C172.053 152.807 173.135 151.729 173.847 150.442L130.653 125.419Z" fill="#1A4674"/>
<path d="M117.779 132.832C120.308 137.247 125.063 140.225 130.517 140.225C136.005 140.225 140.787 137.209 143.303 132.747L130.653 125.419L117.779 132.832Z" fill="#1A4674"/>
<path d="M174.88 105.008C174.879 103.331 174.52 101.849 173.795 100.577L130.653 125.419L173.847 150.442C174.54 149.189 174.884 147.736 174.884 146.096C174.884 146.096 174.884 118.707 174.88 105.008Z" fill="#1B598E"/>
<path d="M172.505 127.207H169.129V130.583H165.753V127.207H162.378V123.832H165.753V120.457H169.129V123.832H172.505V127.207ZM160.188 127.207H156.813V130.583H153.438V127.207H150.062V123.832H153.438V120.457H156.813V123.832H160.188V127.207Z" fill="white"/>
<path d="M143.303 132.747C140.787 137.209 136.005 140.225 130.517 140.225C125.063 140.225 120.308 137.247 117.779 132.832C116.508 130.616 115.841 128.106 115.843 125.552C115.843 117.448 122.413 110.879 130.517 110.879C135.936 110.879 140.666 113.82 143.208 118.19L156.033 110.805C150.935 102.005 141.418 96.0847 130.517 96.0847C114.242 96.0847 101.049 109.278 101.049 125.552C101.049 130.891 102.47 135.898 104.952 140.216C110.037 149.063 119.581 155.019 130.517 155.019C141.472 155.019 151.032 149.039 156.109 140.166L143.303 132.747Z" fill="white"/>
<defs>
<filter id="filter0_d_25_417" x="0.932861" y="0" width="260" height="260" filterUnits="userSpaceOnUse" color-interpolation-filters="sRGB">
<feFlood flood-opacity="0" result="BackgroundImageFix"/>
<feColorMatrix in="SourceAlpha" type="matrix" values="0 0 0 0 0 0 0 0 0 0 0 0 0 0 0 0 0 0 127 0" result="hardAlpha"/>
<feOffset dy="4"/>
<feGaussianBlur stdDeviation="20"/>
<feComposite in2="hardAlpha" operator="out"/>
<feColorMatrix type="matrix" values="0 0 0 0 0.0367917 0 0 0 0 0.0348958 0 0 0 0 0.0484375 0 0 0 0.1 0"/>
<feBlend mode="normal" in2="BackgroundImageFix" result="effect1_dropShadow_25_417"/>
<feBlend mode="normal" in="SourceGraphic" in2="effect1_dropShadow_25_417" result="shape"/>
</filter>
</defs>
</svg>
