<svg width="261" height="261" viewBox="0 0 261 261" fill="none" xmlns="http://www.w3.org/2000/svg">
<g filter="url(#filter0_d_22_678)">
<path d="M40.9329 100.703C40.9329 70.533 40.9329 55.448 50.3054 46.0755C59.678 36.7029 74.763 36.7029 104.933 36.7029H156.933C187.103 36.7029 202.188 36.7029 211.56 46.0755C220.933 55.448 220.933 70.533 220.933 100.703V152.703C220.933 182.873 220.933 197.958 211.56 207.33C202.188 216.703 187.103 216.703 156.933 216.703H104.933C74.763 216.703 59.678 216.703 50.3054 207.33C40.9329 197.958 40.9329 182.873 40.9329 152.703V100.703Z" fill="white"/>
<path d="M50.3054 207.33L49.5983 208.037L50.3054 207.33ZM211.56 207.33L210.853 206.623L211.56 207.33ZM211.56 46.0755L212.267 45.3684L211.56 46.0755ZM104.933 37.7029H156.933V35.7029H104.933V37.7029ZM219.933 100.703V152.703H221.933V100.703H219.933ZM156.933 215.703H104.933V217.703H156.933V215.703ZM41.9329 152.703V100.703H39.9329V152.703H41.9329ZM104.933 215.703C89.8196 215.703 78.5853 215.701 69.9534 214.54C61.3503 213.384 55.4821 211.093 51.0126 206.623L49.5983 208.037C54.5014 212.94 60.862 215.336 69.6869 216.522C78.4831 217.705 89.8762 217.703 104.933 217.703V215.703ZM39.9329 152.703C39.9329 167.76 39.9307 179.153 41.1134 187.949C42.2998 196.774 44.6953 203.134 49.5983 208.037L51.0126 206.623C46.543 202.154 44.2522 196.285 43.0955 187.682C41.935 179.05 41.9329 167.816 41.9329 152.703H39.9329ZM219.933 152.703C219.933 167.816 219.931 179.05 218.77 187.682C217.614 196.285 215.323 202.154 210.853 206.623L212.267 208.037C217.17 203.134 219.566 196.774 220.752 187.949C221.935 179.153 221.933 167.76 221.933 152.703H219.933ZM156.933 217.703C171.99 217.703 183.383 217.705 192.179 216.522C201.004 215.336 207.364 212.94 212.267 208.037L210.853 206.623C206.384 211.093 200.515 213.384 191.912 214.54C183.28 215.701 172.046 215.703 156.933 215.703V217.703ZM156.933 37.7029C172.046 37.7029 183.28 37.705 191.912 38.8655C200.515 40.0222 206.384 42.313 210.853 46.7826L212.267 45.3684C207.364 40.4653 201.004 38.0699 192.179 36.8834C183.383 35.7008 171.99 35.7029 156.933 35.7029V37.7029ZM221.933 100.703C221.933 85.6462 221.935 74.2531 220.752 65.4569C219.566 56.632 217.17 50.2714 212.267 45.3684L210.853 46.7826C215.323 51.2521 217.614 57.1203 218.77 65.7234C219.931 74.3554 219.933 85.5897 219.933 100.703H221.933ZM104.933 35.7029C89.8762 35.7029 78.4831 35.7008 69.6869 36.8834C60.862 38.0699 54.5014 40.4653 49.5983 45.3684L51.0126 46.7826C55.4821 42.313 61.3503 40.0222 69.9534 38.8655C78.5853 37.705 89.8196 37.7029 104.933 37.7029V35.7029ZM41.9329 100.703C41.9329 85.5897 41.935 74.3554 43.0955 65.7234C44.2522 57.1203 46.543 51.2521 51.0126 46.7826L49.5983 45.3684C44.6953 50.2714 42.2998 56.632 41.1134 65.4569C39.9307 74.2531 39.9329 85.6462 39.9329 100.703H41.9329Z" fill="#D9D9D9"/>
</g>
<path d="M130.46 76.3061C130.46 76.3061 159.829 74.9841 175.394 104.5H127.962C127.962 104.5 119.004 104.205 111.368 115.073C109.166 119.626 106.817 124.325 109.46 133.575C105.642 127.115 89.1948 98.4797 89.1948 98.4797C89.1948 98.4797 100.797 77.4803 130.46 76.3061Z" fill="#C6352E"/>
<path d="M173.865 151.246C173.865 151.246 160.322 177.338 126.977 176.056C131.091 168.936 150.699 134.982 150.699 134.982C150.699 134.982 155.432 127.372 149.843 115.325C147.001 111.141 144.107 106.756 134.774 104.418C142.28 104.344 175.3 104.423 175.3 104.423C175.3 104.423 187.682 124.971 173.865 151.246Z" fill="#F4D911"/>
<path d="M87.2633 151.444C87.2633 151.444 71.4392 126.666 89.2246 98.4316C93.3344 105.555 112.932 139.514 112.932 139.514C112.932 139.514 117.154 147.419 130.383 148.602C135.426 148.234 140.671 147.921 147.362 141.008C143.673 147.544 127.093 176.102 127.093 176.102C127.093 176.102 103.107 176.549 87.2633 151.444Z" fill="#81B354"/>
<path d="M126.977 176.297L133.649 148.456C133.649 148.456 140.985 147.884 147.132 141.137C143.316 147.85 126.977 176.297 126.977 176.297Z" fill="#7BAA50"/>
<path d="M108.115 126.609C108.115 114.336 118.063 104.386 130.337 104.386C142.611 104.386 152.56 114.335 152.56 126.609C152.56 138.883 142.611 148.832 130.337 148.832C118.063 148.832 108.115 138.883 108.115 126.609Z" fill="white"/>
<path d="M111.834 126.609C111.834 116.39 120.118 108.106 130.337 108.106C140.555 108.106 148.84 116.39 148.84 126.609C148.84 136.827 140.555 145.112 130.337 145.112C120.118 145.112 111.834 136.827 111.834 126.609Z" fill="url(#paint0_linear_22_678)"/>
<path d="M175.3 104.423L147.827 112.478C147.827 112.478 143.685 106.398 134.774 104.418C142.495 104.392 175.3 104.423 175.3 104.423Z" fill="#E7CE12"/>
<path d="M108.926 132.576C105.065 125.89 89.1958 98.479 89.1958 98.479L109.547 118.611C109.547 118.611 107.456 122.913 108.249 129.058L108.926 132.576Z" fill="#BC332C"/>
<defs>
<filter id="filter0_d_22_678" x="0.932861" y="0.702881" width="260" height="260" filterUnits="userSpaceOnUse" color-interpolation-filters="sRGB">
<feFlood flood-opacity="0" result="BackgroundImageFix"/>
<feColorMatrix in="SourceAlpha" type="matrix" values="0 0 0 0 0 0 0 0 0 0 0 0 0 0 0 0 0 0 127 0" result="hardAlpha"/>
<feOffset dy="4"/>
<feGaussianBlur stdDeviation="20"/>
<feComposite in2="hardAlpha" operator="out"/>
<feColorMatrix type="matrix" values="0 0 0 0 0.0367917 0 0 0 0 0.0348958 0 0 0 0 0.0484375 0 0 0 0.1 0"/>
<feBlend mode="normal" in2="BackgroundImageFix" result="effect1_dropShadow_22_678"/>
<feBlend mode="normal" in="SourceGraphic" in2="effect1_dropShadow_22_678" result="shape"/>
</filter>
<linearGradient id="paint0_linear_22_678" x1="130.337" y1="108.368" x2="130.337" y2="144.005" gradientUnits="userSpaceOnUse">
<stop stop-color="#A2C0E6"/>
<stop offset="1" stop-color="#406CB1"/>
</linearGradient>
</defs>
</svg>
