<svg width="261" height="261" viewBox="0 0 261 261" fill="none" xmlns="http://www.w3.org/2000/svg">
<g filter="url(#filter0_d_33_2189)">
<path d="M40.7611 100.891C40.7611 70.721 40.7611 55.636 50.1337 46.2635C59.5063 36.8909 74.5912 36.8909 104.761 36.8909H156.761C186.931 36.8909 202.016 36.8909 211.389 46.2635C220.761 55.636 220.761 70.721 220.761 100.891V152.891C220.761 183.061 220.761 198.146 211.389 207.518C202.016 216.891 186.931 216.891 156.761 216.891H104.761C74.5912 216.891 59.5063 216.891 50.1337 207.518C40.7611 198.146 40.7611 183.061 40.7611 152.891V100.891Z" fill="white"/>
<path d="M50.1337 207.518L49.4266 208.225L50.1337 207.518ZM211.389 207.518L210.681 206.811L211.389 207.518ZM211.389 46.2635L212.096 45.5563L211.389 46.2635ZM104.761 37.8909H156.761V35.8909H104.761V37.8909ZM219.761 100.891V152.891H221.761V100.891H219.761ZM156.761 215.891H104.761V217.891H156.761V215.891ZM41.7611 152.891V100.891H39.7611V152.891H41.7611ZM104.761 215.891C89.6479 215.891 78.4136 215.889 69.7817 214.728C61.1785 213.572 55.3103 211.281 50.8408 206.811L49.4266 208.225C54.3296 213.128 60.6902 215.524 69.5152 216.71C78.3113 217.893 89.7044 217.891 104.761 217.891V215.891ZM39.7611 152.891C39.7611 167.948 39.759 179.341 40.9416 188.137C42.1281 196.962 44.5235 203.322 49.4266 208.225L50.8408 206.811C46.3713 202.342 44.0804 196.473 42.9238 187.87C41.7632 179.238 41.7611 168.004 41.7611 152.891H39.7611ZM219.761 152.891C219.761 168.004 219.759 179.238 218.598 187.87C217.442 196.473 215.151 202.342 210.681 206.811L212.096 208.225C216.999 203.322 219.394 196.962 220.581 188.137C221.763 179.341 221.761 167.948 221.761 152.891H219.761ZM156.761 217.891C171.818 217.891 183.211 217.893 192.007 216.71C200.832 215.524 207.193 213.128 212.096 208.225L210.681 206.811C206.212 211.281 200.344 213.572 191.741 214.728C183.109 215.889 171.874 215.891 156.761 215.891V217.891ZM156.761 37.8909C171.874 37.8909 183.109 37.893 191.741 39.0535C200.344 40.2102 206.212 42.501 210.681 46.9706L212.096 45.5563C207.193 40.6533 200.832 38.2578 192.007 37.0714C183.211 35.8887 171.818 35.8909 156.761 35.8909V37.8909ZM221.761 100.891C221.761 85.8342 221.763 74.4411 220.581 65.6449C219.394 56.82 216.999 50.4594 212.096 45.5563L210.681 46.9706C215.151 51.4401 217.442 57.3083 218.598 65.9114C219.759 74.5433 219.761 85.7777 219.761 100.891H221.761ZM104.761 35.8909C89.7044 35.8909 78.3113 35.8887 69.5152 37.0714C60.6902 38.2578 54.3296 40.6533 49.4266 45.5563L50.8408 46.9706C55.3103 42.501 61.1785 40.2102 69.7817 39.0535C78.4136 37.893 89.6479 37.8909 104.761 37.8909V35.8909ZM41.7611 100.891C41.7611 85.7777 41.7632 74.5433 42.9238 65.9114C44.0804 57.3083 46.3713 51.4401 50.8408 46.9706L49.4266 45.5563C44.5235 50.4594 42.1281 56.82 40.9416 65.6449C39.759 74.4411 39.7611 85.8342 39.7611 100.891H41.7611Z" fill="#D9D9D9"/>
</g>
<path fill-rule="evenodd" clip-rule="evenodd" d="M131.042 176.485V157.106C151.554 157.106 167.478 136.763 159.6 115.173C158.154 111.207 155.857 107.605 152.872 104.619C149.887 101.634 146.285 99.3368 142.319 97.8896C120.729 90.0704 100.386 105.936 100.386 126.448H81.0631C81.0631 93.7553 112.683 68.2556 146.965 78.9634C161.925 83.6694 173.881 95.5667 178.529 110.529C189.238 144.865 163.795 176.485 131.042 176.485Z" fill="#0080FF"/>
<path fill-rule="evenodd" clip-rule="evenodd" d="M111.833 157.162H131.098V137.896H111.835L111.833 157.162ZM96.9864 172.008H111.831V157.164H96.9864V172.008ZM84.5756 157.164H96.9864V144.751H84.5756V157.164Z" fill="#0080FF"/>
<defs>
<filter id="filter0_d_33_2189" x="0.761108" y="0.890869" width="260" height="260" filterUnits="userSpaceOnUse" color-interpolation-filters="sRGB">
<feFlood flood-opacity="0" result="BackgroundImageFix"/>
<feColorMatrix in="SourceAlpha" type="matrix" values="0 0 0 0 0 0 0 0 0 0 0 0 0 0 0 0 0 0 127 0" result="hardAlpha"/>
<feOffset dy="4"/>
<feGaussianBlur stdDeviation="20"/>
<feComposite in2="hardAlpha" operator="out"/>
<feColorMatrix type="matrix" values="0 0 0 0 0.0367917 0 0 0 0 0.0348958 0 0 0 0 0.0484375 0 0 0 0.1 0"/>
<feBlend mode="normal" in2="BackgroundImageFix" result="effect1_dropShadow_33_2189"/>
<feBlend mode="normal" in="SourceGraphic" in2="effect1_dropShadow_33_2189" result="shape"/>
</filter>
</defs>
</svg>
