<svg width="261" height="261" viewBox="0 0 261 261" fill="none" xmlns="http://www.w3.org/2000/svg">
<g filter="url(#filter0_d_22_660)">
<path d="M40.9329 100.406C40.9329 70.2359 40.9329 55.1509 50.3054 45.7783C59.678 36.4058 74.763 36.4058 104.933 36.4058H156.933C187.103 36.4058 202.188 36.4058 211.56 45.7783C220.933 55.1509 220.933 70.2359 220.933 100.406V152.406C220.933 182.576 220.933 197.661 211.56 207.033C202.188 216.406 187.103 216.406 156.933 216.406H104.933C74.763 216.406 59.678 216.406 50.3054 207.033C40.9329 197.661 40.9329 182.576 40.9329 152.406V100.406Z" fill="white"/>
<path d="M50.3054 207.033L49.5983 207.74L50.3054 207.033ZM211.56 207.033L210.853 206.326L211.56 207.033ZM211.56 45.7783L212.267 45.0712L211.56 45.7783ZM104.933 37.4058H156.933V35.4058H104.933V37.4058ZM219.933 100.406V152.406H221.933V100.406H219.933ZM156.933 215.406H104.933V217.406H156.933V215.406ZM41.9329 152.406V100.406H39.9329V152.406H41.9329ZM104.933 215.406C89.8196 215.406 78.5853 215.404 69.9534 214.243C61.3503 213.086 55.4821 210.796 51.0126 206.326L49.5983 207.74C54.5014 212.643 60.862 215.039 69.6869 216.225C78.4831 217.408 89.8762 217.406 104.933 217.406V215.406ZM39.9329 152.406C39.9329 167.462 39.9307 178.856 41.1134 187.652C42.2998 196.477 44.6953 202.837 49.5983 207.74L51.0126 206.326C46.543 201.857 44.2522 195.988 43.0955 187.385C41.935 178.753 41.9329 167.519 41.9329 152.406H39.9329ZM219.933 152.406C219.933 167.519 219.931 178.753 218.77 187.385C217.614 195.988 215.323 201.857 210.853 206.326L212.267 207.74C217.17 202.837 219.566 196.477 220.752 187.652C221.935 178.856 221.933 167.462 221.933 152.406H219.933ZM156.933 217.406C171.99 217.406 183.383 217.408 192.179 216.225C201.004 215.039 207.364 212.643 212.267 207.74L210.853 206.326C206.384 210.796 200.515 213.086 191.912 214.243C183.28 215.404 172.046 215.406 156.933 215.406V217.406ZM156.933 37.4058C172.046 37.4058 183.28 37.4079 191.912 38.5684C200.515 39.7251 206.384 42.0159 210.853 46.4855L212.267 45.0712C207.364 40.1682 201.004 37.7727 192.179 36.5863C183.383 35.4036 171.99 35.4058 156.933 35.4058V37.4058ZM221.933 100.406C221.933 85.3491 221.935 73.956 220.752 65.1598C219.566 56.3349 217.17 49.9743 212.267 45.0712L210.853 46.4855C215.323 50.955 217.614 56.8232 218.77 65.4263C219.931 74.0582 219.933 85.2925 219.933 100.406H221.933ZM104.933 35.4058C89.8762 35.4058 78.4831 35.4036 69.6869 36.5863C60.862 37.7727 54.5014 40.1682 49.5983 45.0712L51.0126 46.4855C55.4821 42.0159 61.3503 39.7251 69.9534 38.5684C78.5853 37.4079 89.8196 37.4058 104.933 37.4058V35.4058ZM41.9329 100.406C41.9329 85.2925 41.935 74.0582 43.0955 65.4263C44.2522 56.8232 46.543 50.955 51.0126 46.4855L49.5983 45.0712C44.6953 49.9743 42.2998 56.3349 41.1134 65.1598C39.9307 73.956 39.9329 85.3491 39.9329 100.406H41.9329Z" fill="#D9D9D9"/>
</g>
<path d="M110.94 113.55L129.913 102.596C130.146 102.462 130.411 102.391 130.68 102.391C130.95 102.391 131.214 102.462 131.448 102.596L150.42 113.55C150.654 113.685 150.848 113.879 150.982 114.112C151.117 114.345 151.188 114.61 151.188 114.88V136.787C151.188 137.335 150.895 137.842 150.42 138.117L131.448 149.071C131.214 149.205 130.95 149.276 130.68 149.276C130.411 149.276 130.146 149.205 129.913 149.071L110.94 138.117C110.707 137.982 110.513 137.788 110.378 137.555C110.243 137.321 110.172 137.057 110.172 136.787V114.879C110.173 114.331 110.465 113.824 110.94 113.55" fill="#8080F2"/>
<path d="M179.867 124.038L157.174 84.5588C156.349 83.1315 154.827 82.0784 153.178 82.0784H107.792C106.143 82.0784 104.62 83.1315 103.796 84.5588L81.1032 123.951C80.2789 125.379 80.2789 127.181 81.1032 128.609L103.796 167.764C104.62 169.192 106.143 169.922 107.792 169.922H153.178C154.826 169.922 156.349 169.214 157.173 167.786L179.866 128.566C180.691 127.139 180.691 125.466 179.866 124.038H179.867ZM161.076 143.023C161.076 143.603 160.726 144.14 160.223 144.43L131.317 161.107C131.068 161.25 130.787 161.325 130.5 161.325C130.213 161.325 129.931 161.25 129.682 161.107L100.754 144.43C100.251 144.14 99.8993 143.603 99.8993 143.022V109.667C99.8993 109.087 100.246 108.55 100.749 108.26L129.654 91.5823C129.902 91.4395 130.184 91.3643 130.471 91.3643C130.758 91.3643 131.04 91.4395 131.288 91.5823L160.218 108.26C160.722 108.55 161.076 109.087 161.076 109.667V143.022V143.023Z" fill="#4B32C3"/>
<defs>
<filter id="filter0_d_22_660" x="0.932861" y="0.405762" width="260" height="260" filterUnits="userSpaceOnUse" color-interpolation-filters="sRGB">
<feFlood flood-opacity="0" result="BackgroundImageFix"/>
<feColorMatrix in="SourceAlpha" type="matrix" values="0 0 0 0 0 0 0 0 0 0 0 0 0 0 0 0 0 0 127 0" result="hardAlpha"/>
<feOffset dy="4"/>
<feGaussianBlur stdDeviation="20"/>
<feComposite in2="hardAlpha" operator="out"/>
<feColorMatrix type="matrix" values="0 0 0 0 0.0367917 0 0 0 0 0.0348958 0 0 0 0 0.0484375 0 0 0 0.1 0"/>
<feBlend mode="normal" in2="BackgroundImageFix" result="effect1_dropShadow_22_660"/>
<feBlend mode="normal" in="SourceGraphic" in2="effect1_dropShadow_22_660" result="shape"/>
</filter>
</defs>
</svg>
