<svg width="261" height="261" viewBox="0 0 261 261" fill="none" xmlns="http://www.w3.org/2000/svg">
<g filter="url(#filter0_d_22_659)">
<path d="M40.9329 100.703C40.9329 70.533 40.9329 55.448 50.3054 46.0755C59.678 36.7029 74.763 36.7029 104.933 36.7029H156.933C187.103 36.7029 202.188 36.7029 211.56 46.0755C220.933 55.448 220.933 70.533 220.933 100.703V152.703C220.933 182.873 220.933 197.958 211.56 207.33C202.188 216.703 187.103 216.703 156.933 216.703H104.933C74.763 216.703 59.678 216.703 50.3054 207.33C40.9329 197.958 40.9329 182.873 40.9329 152.703V100.703Z" fill="white"/>
<path d="M50.3054 207.33L49.5983 208.037L50.3054 207.33ZM211.56 207.33L210.853 206.623L211.56 207.33ZM211.56 46.0755L212.267 45.3684L211.56 46.0755ZM104.933 37.7029H156.933V35.7029H104.933V37.7029ZM219.933 100.703V152.703H221.933V100.703H219.933ZM156.933 215.703H104.933V217.703H156.933V215.703ZM41.9329 152.703V100.703H39.9329V152.703H41.9329ZM104.933 215.703C89.8196 215.703 78.5853 215.701 69.9534 214.54C61.3503 213.384 55.4821 211.093 51.0126 206.623L49.5983 208.037C54.5014 212.94 60.862 215.336 69.6869 216.522C78.4831 217.705 89.8762 217.703 104.933 217.703V215.703ZM39.9329 152.703C39.9329 167.76 39.9307 179.153 41.1134 187.949C42.2998 196.774 44.6953 203.134 49.5983 208.037L51.0126 206.623C46.543 202.154 44.2522 196.285 43.0955 187.682C41.935 179.05 41.9329 167.816 41.9329 152.703H39.9329ZM219.933 152.703C219.933 167.816 219.931 179.05 218.77 187.682C217.614 196.285 215.323 202.154 210.853 206.623L212.267 208.037C217.17 203.134 219.566 196.774 220.752 187.949C221.935 179.153 221.933 167.76 221.933 152.703H219.933ZM156.933 217.703C171.99 217.703 183.383 217.705 192.179 216.522C201.004 215.336 207.364 212.94 212.267 208.037L210.853 206.623C206.384 211.093 200.515 213.384 191.912 214.54C183.28 215.701 172.046 215.703 156.933 215.703V217.703ZM156.933 37.7029C172.046 37.7029 183.28 37.705 191.912 38.8655C200.515 40.0222 206.384 42.313 210.853 46.7826L212.267 45.3684C207.364 40.4653 201.004 38.0699 192.179 36.8834C183.383 35.7008 171.99 35.7029 156.933 35.7029V37.7029ZM221.933 100.703C221.933 85.6462 221.935 74.2531 220.752 65.4569C219.566 56.632 217.17 50.2714 212.267 45.3684L210.853 46.7826C215.323 51.2521 217.614 57.1203 218.77 65.7234C219.931 74.3554 219.933 85.5897 219.933 100.703H221.933ZM104.933 35.7029C89.8762 35.7029 78.4831 35.7008 69.6869 36.8834C60.862 38.0699 54.5014 40.4653 49.5983 45.3684L51.0126 46.7826C55.4821 42.313 61.3503 40.0222 69.9534 38.8655C78.5853 37.705 89.8196 37.7029 104.933 37.7029V35.7029ZM41.9329 100.703C41.9329 85.5897 41.935 74.3554 43.0955 65.7234C44.2522 57.1203 46.543 51.2521 51.0126 46.7826L49.5983 45.3684C44.6953 50.2714 42.2998 56.632 41.1134 65.4569C39.9307 74.2531 39.9329 85.6462 39.9329 100.703H41.9329Z" fill="#D9D9D9"/>
</g>
<path d="M110.119 122.516C109.66 121.917 108.982 121.524 108.234 121.423C107.487 121.322 106.729 121.522 106.128 121.978C105.775 122.257 105.489 122.613 105.294 123.019L80.7937 172.034C80.4467 172.729 80.3897 173.533 80.6352 174.269C80.8808 175.006 81.4088 175.615 82.1032 175.962C82.509 176.168 82.9578 176.274 83.4126 176.272H117.548C118.095 176.286 118.634 176.141 119.099 175.853C119.564 175.565 119.935 175.148 120.167 174.653C127.534 159.436 123.068 136.3 110.119 122.516Z" fill="url(#paint0_linear_22_659)"/>
<path d="M128.127 77.9113C122.019 87.3101 118.46 98.1352 117.798 109.325C117.136 120.514 119.394 131.684 124.35 141.737L140.808 174.653C141.051 175.139 141.425 175.548 141.888 175.834C142.35 176.12 142.883 176.272 143.427 176.272H177.556C177.941 176.273 178.322 176.198 178.678 176.051C179.034 175.904 179.357 175.689 179.629 175.416C179.901 175.144 180.117 174.821 180.264 174.465C180.411 174.109 180.486 173.728 180.485 173.343C180.485 172.889 180.381 172.441 180.182 172.034L133.11 77.8975C132.887 77.4258 132.534 77.0272 132.093 76.7481C131.652 76.469 131.141 76.3208 130.619 76.3208C130.097 76.3208 129.585 76.469 129.144 76.7481C128.703 77.0272 128.351 77.4258 128.127 77.8975V77.9113Z" fill="#2684FF"/>
<defs>
<filter id="filter0_d_22_659" x="0.932861" y="0.702881" width="260" height="260" filterUnits="userSpaceOnUse" color-interpolation-filters="sRGB">
<feFlood flood-opacity="0" result="BackgroundImageFix"/>
<feColorMatrix in="SourceAlpha" type="matrix" values="0 0 0 0 0 0 0 0 0 0 0 0 0 0 0 0 0 0 127 0" result="hardAlpha"/>
<feOffset dy="4"/>
<feGaussianBlur stdDeviation="20"/>
<feComposite in2="hardAlpha" operator="out"/>
<feColorMatrix type="matrix" values="0 0 0 0 0.0367917 0 0 0 0 0.0348958 0 0 0 0 0.0484375 0 0 0 0.1 0"/>
<feBlend mode="normal" in2="BackgroundImageFix" result="effect1_dropShadow_22_659"/>
<feBlend mode="normal" in="SourceGraphic" in2="effect1_dropShadow_22_659" result="shape"/>
</filter>
<linearGradient id="paint0_linear_22_659" x1="123.606" y1="130.007" x2="97.7339" y2="174.818" gradientUnits="userSpaceOnUse">
<stop stop-color="#0052CC"/>
<stop offset="0.92" stop-color="#2684FF"/>
</linearGradient>
</defs>
</svg>
