<svg width="260" height="260" viewBox="0 0 260 260" fill="none" xmlns="http://www.w3.org/2000/svg">
<g filter="url(#filter0_d_102_12)">
<path d="M40 100C40 69.8301 40 54.7452 49.3726 45.3726C58.7452 36 73.8301 36 104 36H156C186.17 36 201.255 36 210.627 45.3726C220 54.7452 220 69.8301 220 100V152C220 182.17 220 197.255 210.627 206.627C201.255 216 186.17 216 156 216H104C73.8301 216 58.7452 216 49.3726 206.627C40 197.255 40 182.17 40 152V100Z" fill="white"/>
<path d="M49.3726 206.627L48.6655 207.335L49.3726 206.627ZM210.627 206.627L209.92 205.92L210.627 206.627ZM210.627 45.3726L211.335 44.6655L210.627 45.3726ZM104 37H156V35H104V37ZM219 100V152H221V100H219ZM156 215H104V217H156V215ZM41 152V100H39V152H41ZM104 215C88.8868 215 77.6525 214.998 69.0205 213.837C60.4174 212.681 54.5492 210.39 50.0797 205.92L48.6655 207.335C53.5685 212.238 59.9291 214.633 68.7541 215.82C77.5502 217.002 88.9433 217 104 217V215ZM39 152C39 167.057 38.9979 178.45 40.1805 187.246C41.367 196.071 43.7624 202.431 48.6655 207.335L50.0797 205.92C45.6102 201.451 43.3193 195.583 42.1627 186.979C41.0021 178.348 41 167.113 41 152H39ZM219 152C219 167.113 218.998 178.348 217.837 186.979C216.681 195.583 214.39 201.451 209.92 205.92L211.335 207.335C216.238 202.431 218.633 196.071 219.82 187.246C221.002 178.45 221 167.057 221 152H219ZM156 217C171.057 217 182.45 217.002 191.246 215.82C200.071 214.633 206.431 212.238 211.335 207.335L209.92 205.92C205.451 210.39 199.583 212.681 190.979 213.837C182.348 214.998 171.113 215 156 215V217ZM156 37C171.113 37 182.348 37.0021 190.979 38.1627C199.583 39.3193 205.451 41.6102 209.92 46.0797L211.335 44.6655C206.431 39.7624 200.071 37.367 191.246 36.1805C182.45 34.9979 171.057 35 156 35V37ZM221 100C221 84.9433 221.002 73.5502 219.82 64.7541C218.633 55.9291 216.238 49.5685 211.335 44.6655L209.92 46.0797C214.39 50.5492 216.681 56.4174 217.837 65.0205C218.998 73.6525 219 84.8868 219 100H221ZM104 35C88.9433 35 77.5502 34.9979 68.7541 36.1805C59.9291 37.367 53.5685 39.7624 48.6655 44.6655L50.0797 46.0797C54.5492 41.6102 60.4174 39.3193 69.0205 38.1627C77.6525 37.0021 88.8868 37 104 37V35ZM41 100C41 84.8868 41.0021 73.6525 42.1627 65.0205C43.3193 56.4174 45.6102 50.5492 50.0797 46.0797L48.6655 44.6655C43.7624 49.5685 41.367 55.9291 40.1805 64.7541C38.9979 73.5502 39 84.9433 39 100H41Z" fill="#D9D9D9"/>
</g>
<path d="M113.803 154.222C110.642 151.837 107.269 149.552 104.965 146.332C100.114 140.654 96.3806 134.081 93.8281 127.173C92.2845 122.68 91.7564 117.864 89.7657 113.546C87.6859 110.409 90.1239 106.982 93.707 105.985C95.3011 105.69 98.1059 104.247 94.7203 105.28C91.6842 107.415 91.3917 103.34 94.5043 103.082C96.6286 102.812 97.4107 101.145 96.6834 99.6444C94.4023 98.2174 102.213 96.6519 98.2823 94.5232C94.1906 90.2884 104.008 89.4734 101.585 94.2833C101.006 97.9816 108.448 93.6041 106.72 97.8754C108.476 99.927 113.292 98.3433 113.171 101.22C115.728 101.388 116.606 103.45 119.004 103.609C121.493 104.686 126 105.534 126.846 108.221C124.378 110.094 118.667 104.353 118.391 109.537C119.137 117.197 118.947 125.087 121.868 132.381C123.25 136.797 126.602 140.274 129.627 143.714C132.523 147.082 136.445 149.455 140.444 151.451C143.95 153.037 147.731 154.088 151.553 154.749C153.103 153.612 155.84 149.386 158.257 151.166C158.373 153.171 153.459 155.355 158.026 155.133C160.71 154.356 162.569 157.121 164.778 154.626C166.814 156.938 173.237 153.151 171.79 157.876C169.831 159.087 166.975 158.355 165.014 160.022C161.781 158.473 159.207 161.407 155.626 161.037C151.651 161.72 147.605 161.994 143.576 162C136.963 161.5 130.211 161.289 123.92 159.081C120.376 158.093 116.918 156.158 113.803 154.222ZM119.387 156.544C122.847 157.977 126.231 159.489 130.024 159.947C136.041 160.748 142.255 161.984 148.292 160.858C145.56 159.675 142.734 161.317 140.012 160.012C136.747 160.685 133.243 159.839 129.922 159.422C126.148 157.811 122.074 156.703 118.54 154.608C114.121 153.061 120.823 156.593 122.016 156.879C124.777 158.381 118.98 156.109 118.162 155.484C115.849 154.24 115.554 154.5 117.933 155.763C118.412 156.032 118.885 156.314 119.387 156.544ZM112.802 152.081C116.156 153.273 112.788 149.82 111.253 150.02C110.572 148.887 108.651 148.172 110.006 147.564C107.57 148.375 107.454 144.48 106.309 145.037C103.731 144.257 105.306 141.491 102.234 139.792C101.954 138.003 99.1833 136.452 98.3013 133.754C97.9111 132.372 95.1697 128.405 96.8533 132.097C98.2861 135.651 100.807 138.696 102.906 141.736C104.534 144.63 106.459 147.658 109.425 149.463C110.426 150.384 111.391 151.793 112.802 152.081ZM103.144 141.91C103.26 141.424 103.756 142.961 103.144 141.91V141.91ZM116.82 153.508C117.562 153.189 115.751 153.106 116.82 153.508V153.508ZM118.639 154.145C118.451 153.266 117.808 154.637 118.639 154.145V154.145ZM120.918 155.056C122.002 154.065 119.246 154.431 120.918 155.056V155.056ZM124.824 157.143C125.483 156.21 122.714 156.792 124.824 157.143V157.143ZM117.325 152.13C119.008 151.085 115.147 152.116 117.325 152.13V152.13ZM119.033 152.948C118.985 152.396 118.425 153.195 119.033 152.948V152.948ZM127.575 158.06C128.949 158.892 135.596 159.882 131.434 158.402C130.736 158.542 123.717 156.497 127.575 158.06ZM114.015 147.932C113.882 147.379 111.882 147.32 114.015 147.932V147.932ZM117.99 150.156C119.027 149.463 115.843 149.621 117.99 150.156V150.156ZM121.336 152.122C122.822 151.585 118.928 151.583 121.336 152.122V152.122ZM112.395 146.243C114.007 147.427 118.896 146.395 114.863 145.535C113.029 144.598 108.895 143.956 111.713 146.101L112.395 146.243ZM123.602 152.801C124.274 151.705 120.787 152.175 123.602 152.801V152.801ZM120.197 150.207C124.136 151.274 116.884 147.816 119.224 149.812L119.744 150.038L120.197 150.207ZM127.024 153.99C130.755 154.025 123.653 153.497 127.024 153.99V153.99ZM110.96 144.173C110.814 143.506 110.04 144.228 110.96 144.173V144.173ZM133.336 157.385C133.435 156.182 132.118 158.282 133.336 157.385V157.385ZM117.329 147.912C117.102 147.277 116.163 147.885 117.329 147.912V147.912ZM111.314 143.754C113.456 143.63 108.38 142.85 111.314 143.754V143.754ZM104.188 139.338C103.921 138.353 101.858 137.568 104.188 139.338V139.338ZM122.894 150.721C122.502 150.292 122.709 150.815 122.894 150.721V150.721ZM134.535 157.573C134.5 156.916 133.901 157.82 134.535 157.573V157.573ZM121.864 149.701C122.074 148.855 120.036 149.444 121.864 149.701V149.701ZM113.19 144.429C114.785 144.266 110.636 143.396 113.19 144.429V144.429ZM127.862 153.171C130.346 152.228 125.441 152.712 127.862 153.171V153.171ZM120.231 148.205C123.093 148.558 116.824 146.336 119.602 148.005L120.231 148.205ZM130.179 154.07C132.852 152.539 131.97 157.658 134.714 154.503C137.419 152.608 132.377 156.845 135.71 154.84C138.123 153.293 141.684 155.574 143.934 156.316C145.551 156.241 147.125 157.658 148.784 156.796C151.977 155.97 142.539 155.572 145.013 154.11C142.091 154.926 139.933 153.138 138.496 151.343C135.218 150.617 131.429 149.011 129.793 146.228C129.125 145.186 130.755 146.377 129.216 144.669C127.243 142.986 126.257 141.072 124.932 139.025C123.348 138.216 123.161 135.832 123.002 138.946C123.015 136.98 121.09 135.657 120.619 136.206C120.611 134.313 122.68 135.262 121.232 133.862C120.921 131.9 119.894 129.855 119.587 127.639C119.108 126.571 119.519 124.284 117.95 126.701C117.38 129.257 117.761 123.562 118.65 125.439C119.816 123.524 118.23 123.749 118.166 124.014C118.925 122.398 118.648 120.104 117.967 120.979C118.372 119.265 118.607 114.672 117.363 115.487C118.117 113.694 118.794 107.286 115.516 109.73C114.189 109.748 111.889 110.192 110.803 110.71C114.21 112.511 110.46 111.361 109.071 111.074C108.891 112.741 107.517 112.021 105.8 112.037C108.543 112.363 104.464 114.727 102.893 113.808C100.85 114.744 104.655 117.081 102.934 117.805C103.146 118.893 99.8042 117.411 100.065 119.928C98.0826 119.126 99.7938 122.912 100.786 121.631C104.159 122.508 103.16 124.502 103.245 126.398C102.696 127.502 100.531 123.802 102.764 123.973C101.002 121.23 100.816 122.981 99.3526 124.256C99.0134 124.347 103.084 126.069 100.529 126.919C102.777 127.253 102.842 129.139 103.3 130.333C104.651 131.682 104.373 128.842 105.991 130.465C104.967 129.019 100.572 126.392 104.11 127.234C104.091 125.781 103.47 124.608 104.555 124.636C105.63 122.772 103.43 129.235 105.851 126.864C106.521 126.584 106.688 124.998 107.893 127.015C109.641 128.666 108.524 129.86 106.057 128.348C106.497 129.785 109.357 130.297 108.819 132.544C109.389 134.52 110.186 133.792 110.882 133.679C111.426 135.598 111.736 134.187 111.762 133.272C114.257 133.785 113.672 135.199 114.454 136.187C116.173 136.931 111.993 131.143 114.944 134.447C118.049 137.137 116.11 138.259 113.322 137.828C115.086 137.692 115.654 140.115 117.861 140.03C119.873 140.949 121.236 144.474 117.768 143.006C116.566 141.965 112.306 140.682 115.786 142.66C118.995 144.087 121.548 144.939 124.645 146.731C126.861 148.247 127.819 149.985 128.658 150.329C126.795 151.183 123.045 149.648 125.83 149.178C124.092 148.875 122.137 148.032 123.801 150.107C125.217 151.242 128.815 151.122 129.462 151.25C128.915 152.405 127.976 152.496 129.483 152.586C127.802 153.446 130.024 153.58 130.179 154.07ZM126.74 144.757C125.716 143.73 125.451 141.809 126.557 143.479C127.126 143.699 128.375 146.621 126.74 144.757ZM137.94 151.579C138.579 151.539 137.959 152.044 137.94 151.579V151.579ZM125.125 142.24C125.084 140.688 125.493 143.437 125.125 142.24V142.24ZM124.011 140.804C122.723 138.42 125.633 141.479 124.011 140.804V140.804ZM110.519 131.876C111.276 131.682 110.892 133.115 110.519 131.876V131.876ZM121.258 137.456C121.722 135.783 121.802 138.859 121.258 137.456V137.456ZM113.672 132.398C113.138 131.475 114.789 133.264 113.672 132.398V132.398ZM120.18 134.398C118.961 131.78 121.045 132.967 120.452 134.827L120.18 134.398ZM108.955 127.22C108.41 126.36 107.509 123.839 107.799 123.069C108.06 124.323 110.579 128.464 109.033 124.785C107.327 121.7 111.075 125.784 111.461 126.555C111.641 127.32 110.407 126.346 111.242 128.141C109.718 126.098 110.343 129.269 108.955 127.22ZM105.486 124.927C105.628 122.928 106.279 126.297 105.486 124.927V124.927ZM107.046 125.443C107.791 123.935 108.308 127.545 107.046 125.443V125.443ZM103.292 122.658C102.001 121.426 101.065 120.292 103.353 121.893C104.233 121.926 101.394 119.314 103.565 121.064C105.846 121.463 104.691 124.652 103.292 122.658ZM105.264 122.609C106.014 121.896 105.662 123.311 105.264 122.609V122.609ZM106.478 122.981C105.34 120.938 107.858 123.839 106.478 122.981V122.981ZM104.066 120.771C100.311 117.565 108.783 122.446 104.679 121.365L104.066 120.771ZM114.825 126.764C113.199 125.831 114.392 120.188 114.948 124.047C116.528 123.556 114.861 126.041 116.038 126.016C115.854 127.584 115.325 128.147 114.825 126.764ZM118.804 129.021C118.963 127.32 119.139 130.184 118.804 129.021V129.021ZM118.114 128.364C118.292 127.639 118.13 129.22 118.114 128.364V128.364ZM104.801 119.718C102.389 116.526 111.812 122.946 106.347 120.527C105.776 120.383 105.088 120.332 104.801 119.718ZM112.465 123.613C112.237 120.926 112.974 124.059 112.465 123.613V123.613ZM118.283 127.193C118.732 125.663 118.317 128.206 118.283 127.193V127.193ZM105.172 118.5C106.606 118.206 111.113 120.913 106.974 119.273C106.515 118.785 105.533 119.007 105.172 118.5ZM117.483 124.384C117.636 121.635 118.34 122.743 117.49 124.778L117.483 124.384ZM106.239 117.543C106.824 116.721 104.687 113.829 106.546 116.506C107.35 117.118 108.872 117.531 107.528 117.789C109.641 119.576 107.013 118.273 106.239 117.543ZM116.875 123.526C117.278 120.395 117.232 125.36 116.875 123.526V123.526ZM105.018 114.652C105.465 114.469 105.255 115.223 105.018 114.652V114.652ZM107.793 116.236C108.507 114.798 109.109 117.838 107.793 116.236V116.236ZM115.618 120.409C115.611 119.859 115.766 121.212 115.618 120.409V120.409ZM115.164 119.448C114.079 116.878 116.175 120.808 115.164 119.448V119.448ZM114.498 117.762C114.316 116.701 115.118 119.096 114.498 117.762V117.762ZM115.584 116.071C114.838 114.812 116.525 110.521 116.714 113.182C115.927 115.256 116.487 116.415 117.034 113.633C118.048 111.446 116.816 117.954 115.584 116.071ZM116.699 109.69C117.024 109.307 116.771 110.151 116.699 109.69V109.69ZM114.836 144.887C114.395 144.517 114.893 145.121 114.836 144.887V144.887ZM118.673 146.747C120.808 147.274 120.797 146.429 118.868 146.177C117.831 145.253 114.556 144.271 117.488 146.064C117.681 146.536 118.294 146.523 118.673 146.747ZM111.096 141.92C112.27 142.762 115.525 144.303 112.771 142.242C113.699 141.207 110.994 140.656 111.891 139.963C109.608 138.623 110.089 138.743 111.69 138.786C108.946 137.608 112.086 137.698 111.938 137.094C110.88 136.895 106.682 135.305 109.152 137.224C106.642 135.998 108.554 137.682 107.795 137.505C105.227 136.834 110.08 139.38 107.388 138.747C108.859 139.865 111.35 141.614 108.009 139.93C107.57 140.538 110.401 141.459 111.096 141.92ZM115.109 144.132C119.988 145.639 112.715 142.288 115.109 144.132V144.132ZM135.653 156.066C135.716 155.137 134.987 156.859 135.653 156.066V156.066ZM137.764 156.918C138.89 155.873 137.811 158.585 139.63 156.662C139.649 155.285 139.575 154.472 137.54 156.145C136.978 156.444 136.728 157.711 137.764 156.918ZM104.246 136.733C103.9 135.429 101.823 135.435 104.246 136.733V136.733ZM106.499 138.149C105.662 136.818 103.512 136.944 106.499 138.149V138.149ZM119.328 145.567C120.581 146.635 125.08 146.35 120.848 145.7C120.223 144.811 116.871 145.025 119.328 145.567ZM136.961 156.011C138.888 154.46 135.093 156.703 136.961 156.011V156.011ZM140.97 158.652C140.982 158.154 140.139 158.87 140.97 158.652V158.652ZM140.976 157.955C143.111 155.788 138.909 158.083 140.976 157.955V157.955ZM98.6997 132.28C96.881 129.792 97.5697 128.673 95.8145 126.64C95.4813 125.085 92.8039 121.56 94.43 125.294C95.9181 127.48 96.3594 130.863 98.6997 132.28ZM140.306 157.266C144.235 154.832 138.695 156.206 140.306 157.266V157.266ZM143.304 158.392C145.272 156.773 142.06 158.054 143.304 158.392V158.392ZM103.578 133.981C104.14 133.178 102.124 133.878 103.578 133.981V133.981ZM142.679 157.623C144.582 156.446 142.24 156.627 142.333 157.731L142.679 157.623ZM116.839 142.006C116.773 141.209 115.832 142.073 116.839 142.006V142.006ZM118.435 142.886C117.927 141.902 117.655 143.041 118.435 142.886V142.886ZM145.734 158.418C148.174 156.731 144.256 158.095 145.223 158.74L145.734 158.418ZM144.799 157.985C146.787 156.389 142.702 158.693 144.799 157.985V157.985ZM149.573 161.032C150.907 160.177 147.951 160.756 149.573 161.032V161.032ZM104.801 133.402C106.588 133.786 111.948 137.624 108.787 133.669C107.168 133.209 108.138 129.413 106.487 130.084C107.596 131.861 107.398 132.615 105.07 131.497C102.147 130.127 103.427 132.174 104 132.74C103.22 132.91 105.03 133.388 104.801 133.402ZM96.6541 127.232C96.9738 125.961 93.7049 120.247 95.1105 124.368C95.6169 125.232 95.5643 126.868 96.6541 127.232ZM111.609 136.073C110.687 135.336 111.564 135.968 111.609 136.073V136.073ZM113.875 136.58C113.875 135.234 111.369 136.033 113.875 136.58V136.58ZM133.528 148.459C133.153 147.539 132.047 148.438 133.528 148.459V148.459ZM134.472 149.119C134.332 148.605 133.927 149.219 134.472 149.119V149.119ZM142.261 153.825C143.01 153.295 141.326 153.757 142.261 153.825V153.825ZM100.722 128.228C102.866 127.433 98.4262 127.661 100.722 128.228V128.228ZM131.798 147.001C131.773 145.671 130.431 147.332 131.798 147.001V147.001ZM99.8764 126.335C101.252 125.89 98.602 126.043 99.8764 126.335V126.335ZM103.87 128.191C103.847 127.755 103.449 128.358 103.87 128.191V128.191ZM152.601 156.847C154.371 156.503 158.405 157.711 159.056 156.398C156.906 156.347 151.621 154.942 151.371 156.731L151.842 156.802L152.601 156.847ZM105.14 128.498C105.172 127.151 104.045 128.448 105.14 128.498V128.498ZM94.6378 121.511C94.1608 118.944 92.8229 121.123 94.6378 121.511V121.511ZM97.1415 122.115C97.1735 121.29 94.8495 121.373 97.1415 122.115V122.115ZM98.5727 122.79C98.1591 122.469 98.2503 123.195 98.5727 122.79V122.79ZM107.581 128.33C108.005 127.955 106.576 128.053 107.581 128.33V128.33ZM97.6207 121.269C97.377 119.33 94.7181 120.979 97.6207 121.269V121.269ZM92.4837 118.073C92.4115 117.179 91.9833 118.411 92.4837 118.073V118.073ZM93.2489 117.521C93.1241 116.459 92.5917 117.654 93.2489 117.521V117.521ZM97.4682 119.936C99.2533 119.265 94.2177 118.545 97.1035 119.81L97.4682 119.936ZM153.956 153.395C155.098 152.391 152.505 153.084 153.956 153.395V153.395ZM160.78 156.786C161.238 155.489 159.626 156.957 160.78 156.786V156.786ZM97.9003 117.815C98.0891 116.559 96.4842 118.065 97.9003 117.815V117.815ZM91.8943 113.957C91.5719 112.184 91.6164 109.071 94.7013 110.123C90.5841 110.907 97.5529 115.032 96.6731 111.775C98.405 111.857 100.061 110.793 99.1512 112.405C102.565 112.046 104.929 109.208 108.225 109.606C110.792 109.279 113.6 109.033 116.366 108.041C118.641 107.884 120.831 105.536 119.585 104.143C116.483 103.891 113.235 104.263 109.807 104.918C106.008 105.674 102.556 107.113 98.7231 107.732C94.9852 108.214 99.4737 109.057 98.4028 109.246C96.4544 109.895 100.728 110.332 98.1505 111.017C96.5586 110.726 94.9005 110.202 95.5811 108.591C92.0023 109.039 88.856 110.462 91.6842 113.955L91.8943 113.957ZM100.521 109.744C101.359 106.78 105.016 112.184 101.895 110.139C101.524 109.87 100.909 109.653 100.521 109.744ZM100.684 108.307C101.895 107.443 101.327 108.793 100.684 108.307V108.307ZM102.221 108.331C102.332 106.967 105.743 109.053 102.783 108.821L102.221 108.331ZM104.324 107.52C105.094 106.658 104.547 108.284 104.324 107.52V107.52ZM104.863 107.175C106.143 105.701 112.107 106.233 107.742 107.03C106.572 106.184 105.675 107.528 104.863 107.175ZM112.648 106.024C112.455 101.996 116.517 107.453 112.648 106.024V106.024ZM114.857 106.012C115.665 103.983 117.992 105.197 115.232 105.603C115.291 105.821 115.15 106.652 114.857 106.012ZM97.0291 116.774C99.4416 115.357 94.4679 115.545 97.0291 116.774V116.774ZM98.8142 117.248C99.6603 116.386 96.9738 116.898 98.8142 117.248V117.248ZM93.5567 113.672C94.9347 112.656 91.9241 113.286 93.5567 113.672V113.672ZM164.808 156.416C164.848 155.236 163.754 156.946 164.808 156.416V156.416ZM157.568 151.677C157.774 150.321 156.637 151.795 157.568 151.677V151.677ZM166.799 156.873C168.726 156.879 172.639 156.297 168.446 156.3C167.787 156.398 164.611 156.377 166.799 156.873ZM100.383 116.416C101.944 116.315 102.823 114.768 100.08 114.855C95.8291 114.434 103.83 116.252 99.535 115.731C98.9586 116.097 100.349 116.518 100.383 116.416ZM101.757 117.084C101.594 116.124 101.273 117.594 101.757 117.084V117.084ZM103.387 112.916C104.064 112.111 102.45 112.7 103.387 112.916V112.916ZM98.1971 104.599C100.983 103.692 104.791 102.671 106.105 105.046C104.768 103.503 105.565 101.982 106.828 104.241C108.616 106.524 109.51 103.202 108.348 102.436C109.673 104.013 111.178 104.759 109.234 102.536C111.348 100.098 105.005 102.855 103.563 102.826C102.87 103.125 96.4017 104.408 98.1971 104.599ZM99.8297 101.602C101.418 100.454 105.323 102.287 102.817 100.459C102.571 100.252 97.3304 101.846 99.8297 101.602ZM105.62 101.832C107.477 101.877 104.819 99.4368 107.032 100.543C106.669 99.4045 104.454 99.1911 103.371 98.7357C102.758 99.7766 104.617 101.846 105.62 101.832ZM100.845 96.7919C101.488 95.9566 99.7173 97.2171 100.845 96.7919V96.7919ZM103.211 97.3347C106.207 96.9548 102.448 96.0986 102.607 97.3045L103.211 97.3347ZM98.7931 94.021C96.6834 91.3803 102.76 94.4645 100.616 91.6993C98.812 90.3233 97.0802 93.2508 98.7931 94.021ZM125.856 107.998C126.823 106.355 121.864 105.782 125.205 107.416C125.512 107.514 125.443 108.112 125.856 107.998Z" fill="black"/>
<defs>
<filter id="filter0_d_102_12" x="0" y="0" width="260" height="260" filterUnits="userSpaceOnUse" color-interpolation-filters="sRGB">
<feFlood flood-opacity="0" result="BackgroundImageFix"/>
<feColorMatrix in="SourceAlpha" type="matrix" values="0 0 0 0 0 0 0 0 0 0 0 0 0 0 0 0 0 0 127 0" result="hardAlpha"/>
<feOffset dy="4"/>
<feGaussianBlur stdDeviation="20"/>
<feComposite in2="hardAlpha" operator="out"/>
<feColorMatrix type="matrix" values="0 0 0 0 0.0367917 0 0 0 0 0.0348958 0 0 0 0 0.0484375 0 0 0 0.1 0"/>
<feBlend mode="normal" in2="BackgroundImageFix" result="effect1_dropShadow_102_12"/>
<feBlend mode="normal" in="SourceGraphic" in2="effect1_dropShadow_102_12" result="shape"/>
</filter>
</defs>
</svg>
