<svg width="261" height="260" viewBox="0 0 261 260" fill="none" xmlns="http://www.w3.org/2000/svg">
<g filter="url(#filter0_d_25_406)">
<path d="M40.209 100C40.209 69.8301 40.209 54.7452 49.5816 45.3726C58.9542 36 74.0391 36 104.209 36H156.209C186.379 36 201.464 36 210.836 45.3726C220.209 54.7452 220.209 69.8301 220.209 100V152C220.209 182.17 220.209 197.255 210.836 206.627C201.464 216 186.379 216 156.209 216H104.209C74.0391 216 58.9542 216 49.5816 206.627C40.209 197.255 40.209 182.17 40.209 152V100Z" fill="white"/>
<path d="M49.5816 206.627L48.8745 207.335L49.5816 206.627ZM210.836 206.627L210.129 205.92L210.836 206.627ZM210.836 45.3726L211.544 44.6655L210.836 45.3726ZM104.209 37H156.209V35H104.209V37ZM219.209 100V152H221.209V100H219.209ZM156.209 215H104.209V217H156.209V215ZM41.209 152V100H39.209V152H41.209ZM104.209 215C89.0958 215 77.8615 214.998 69.2295 213.837C60.6264 212.681 54.7582 210.39 50.2887 205.92L48.8745 207.335C53.7775 212.238 60.1381 214.633 68.963 215.82C77.7592 217.002 89.1523 217 104.209 217V215ZM39.209 152C39.209 167.057 39.2069 178.45 40.3895 187.246C41.576 196.071 43.9714 202.431 48.8745 207.335L50.2887 205.92C45.8192 201.451 43.5283 195.583 42.3716 186.979C41.2111 178.348 41.209 167.113 41.209 152H39.209ZM219.209 152C219.209 167.113 219.207 178.348 218.046 186.979C216.89 195.583 214.599 201.451 210.129 205.92L211.544 207.335C216.447 202.431 218.842 196.071 220.028 187.246C221.211 178.45 221.209 167.057 221.209 152H219.209ZM156.209 217C171.266 217 182.659 217.002 191.455 215.82C200.28 214.633 206.64 212.238 211.544 207.335L210.129 205.92C205.66 210.39 199.792 212.681 191.188 213.837C182.557 214.998 171.322 215 156.209 215V217ZM156.209 37C171.322 37 182.557 37.0021 191.188 38.1627C199.792 39.3193 205.66 41.6102 210.129 46.0797L211.544 44.6655C206.64 39.7624 200.28 37.367 191.455 36.1805C182.659 34.9979 171.266 35 156.209 35V37ZM221.209 100C221.209 84.9433 221.211 73.5502 220.028 64.7541C218.842 55.9291 216.447 49.5685 211.544 44.6655L210.129 46.0797C214.599 50.5492 216.89 56.4174 218.046 65.0205C219.207 73.6525 219.209 84.8868 219.209 100H221.209ZM104.209 35C89.1523 35 77.7592 34.9979 68.963 36.1805C60.1381 37.367 53.7775 39.7624 48.8745 44.6655L50.2887 46.0797C54.7582 41.6102 60.6264 39.3193 69.2295 38.1627C77.8615 37.0021 89.0958 37 104.209 37V35ZM41.209 100C41.209 84.8868 41.2111 73.6525 42.3716 65.0205C43.5283 56.4174 45.8192 50.5492 50.2887 46.0797L48.8745 44.6655C43.9714 49.5685 41.576 55.9291 40.3895 64.7541C39.2069 73.5502 39.209 84.9433 39.209 100H41.209Z" fill="#D9D9D9"/>
</g>
<path d="M105.144 140.989L89.7446 125.59L139.745 75.5942H170.538L105.144 140.989ZM170.538 121.73H139.745L128.21 133.265L143.609 148.664" fill="#42A5F5" fill-opacity="0.8"/>
<path d="M128.209 164.059L139.745 175.594H170.538L143.608 148.664" fill="#0D47A1"/>
<path d="M112.847 148.672L128.222 133.294L143.597 148.668L128.222 164.047L112.847 148.672Z" fill="#42A5F5"/>
<path d="M128.222 164.047L143.596 148.672L145.742 150.819L130.368 166.193L128.222 164.047Z" fill="url(#paint0_linear_25_406)"/>
<path d="M128.209 164.059L151.057 156.166L143.608 148.66" fill="url(#paint1_linear_25_406)"/>
<defs>
<filter id="filter0_d_25_406" x="0.208984" y="0" width="260" height="260" filterUnits="userSpaceOnUse" color-interpolation-filters="sRGB">
<feFlood flood-opacity="0" result="BackgroundImageFix"/>
<feColorMatrix in="SourceAlpha" type="matrix" values="0 0 0 0 0 0 0 0 0 0 0 0 0 0 0 0 0 0 127 0" result="hardAlpha"/>
<feOffset dy="4"/>
<feGaussianBlur stdDeviation="20"/>
<feComposite in2="hardAlpha" operator="out"/>
<feColorMatrix type="matrix" values="0 0 0 0 0.0367917 0 0 0 0 0.0348958 0 0 0 0 0.0484375 0 0 0 0.1 0"/>
<feBlend mode="normal" in2="BackgroundImageFix" result="effect1_dropShadow_25_406"/>
<feBlend mode="normal" in="SourceGraphic" in2="effect1_dropShadow_25_406" result="shape"/>
</filter>
<linearGradient id="paint0_linear_25_406" x1="135.912" y1="156.357" x2="138.058" y2="158.503" gradientUnits="userSpaceOnUse">
<stop offset="0.2" stop-opacity="0.15"/>
<stop offset="0.85" stop-color="#616161" stop-opacity="0.01"/>
</linearGradient>
<linearGradient id="paint1_linear_25_406" x1="128.215" y1="156.36" x2="151.062" y2="156.36" gradientUnits="userSpaceOnUse">
<stop offset="0.2" stop-opacity="0.55"/>
<stop offset="0.85" stop-color="#616161" stop-opacity="0.01"/>
</linearGradient>
</defs>
</svg>
