<svg width="261" height="261" viewBox="0 0 261 261" fill="none" xmlns="http://www.w3.org/2000/svg">
<g filter="url(#filter0_d_22_662)">
<path d="M40.724 100.594C40.724 70.424 40.724 55.339 50.0966 45.9665C59.4692 36.5939 74.5541 36.5939 104.724 36.5939H156.724C186.894 36.5939 201.979 36.5939 211.351 45.9665C220.724 55.339 220.724 70.424 220.724 100.594V152.594C220.724 182.764 220.724 197.849 211.351 207.221C201.979 216.594 186.894 216.594 156.724 216.594H104.724C74.5541 216.594 59.4692 216.594 50.0966 207.221C40.724 197.849 40.724 182.764 40.724 152.594V100.594Z" fill="white"/>
<path d="M50.0966 207.221L49.3895 207.928L50.0966 207.221ZM211.351 207.221L210.644 206.514L211.351 207.221ZM211.351 45.9665L212.059 45.2593L211.351 45.9665ZM104.724 37.5939H156.724V35.5939H104.724V37.5939ZM219.724 100.594V152.594H221.724V100.594H219.724ZM156.724 215.594H104.724V217.594H156.724V215.594ZM41.724 152.594V100.594H39.724V152.594H41.724ZM104.724 215.594C89.6108 215.594 78.3765 215.592 69.7445 214.431C61.1414 213.275 55.2732 210.984 50.8037 206.514L49.3895 207.928C54.2925 212.831 60.6531 215.227 69.4781 216.413C78.2742 217.596 89.6673 217.594 104.724 217.594V215.594ZM39.724 152.594C39.724 167.651 39.7219 179.044 40.9045 187.84C42.091 196.665 44.4864 203.025 49.3895 207.928L50.8037 206.514C46.3342 202.045 44.0433 196.176 42.8867 187.573C41.7261 178.941 41.724 167.707 41.724 152.594H39.724ZM219.724 152.594C219.724 167.707 219.722 178.941 218.561 187.573C217.405 196.176 215.114 202.045 210.644 206.514L212.059 207.928C216.962 203.025 219.357 196.665 220.544 187.84C221.726 179.044 221.724 167.651 221.724 152.594H219.724ZM156.724 217.594C171.781 217.594 183.174 217.596 191.97 216.413C200.795 215.227 207.155 212.831 212.059 207.928L210.644 206.514C206.175 210.984 200.307 213.275 191.703 214.431C183.072 215.592 171.837 215.594 156.724 215.594V217.594ZM156.724 37.5939C171.837 37.5939 183.072 37.596 191.703 38.7565C200.307 39.9132 206.175 42.204 210.644 46.6736L212.059 45.2593C207.155 40.3563 200.795 37.9608 191.97 36.7744C183.174 35.5917 171.781 35.5939 156.724 35.5939V37.5939ZM221.724 100.594C221.724 85.5372 221.726 74.1441 220.544 65.3479C219.357 56.523 216.962 50.1624 212.059 45.2593L210.644 46.6736C215.114 51.1431 217.405 57.0113 218.561 65.6144C219.722 74.2463 219.724 85.4807 219.724 100.594H221.724ZM104.724 35.5939C89.6673 35.5939 78.2742 35.5917 69.4781 36.7744C60.6531 37.9608 54.2925 40.3563 49.3895 45.2593L50.8037 46.6736C55.2732 42.204 61.1414 39.9132 69.7445 38.7565C78.3765 37.596 89.6108 37.5939 104.724 37.5939V35.5939ZM41.724 100.594C41.724 85.4807 41.7261 74.2463 42.8867 65.6144C44.0433 57.0113 46.3342 51.1431 50.8037 46.6736L49.3895 45.2593C44.4864 50.1624 42.091 56.523 40.9045 65.3479C39.7219 74.1441 39.724 85.5372 39.724 100.594H41.724Z" fill="#D9D9D9"/>
</g>
<path d="M130.276 77.4224C102.666 77.4224 80.2761 99.8078 80.2761 127.423C80.2761 149.514 94.6027 168.256 114.469 174.868C116.968 175.331 117.886 173.783 117.886 172.463C117.886 171.27 117.839 167.331 117.818 163.153C103.907 166.178 100.972 157.254 100.972 157.254C98.6978 151.475 95.4207 149.938 95.4207 149.938C90.8844 146.835 95.7626 146.898 95.7626 146.898C100.784 147.251 103.427 152.051 103.427 152.051C107.887 159.695 115.124 157.485 117.978 156.208C118.426 152.976 119.722 150.77 121.152 149.522C110.046 148.257 98.3716 143.97 98.3716 124.811C98.3716 119.353 100.325 114.892 103.524 111.391C103.004 110.131 101.293 105.046 104.008 98.1585C104.008 98.1585 108.207 96.8146 117.761 103.284C121.75 102.176 126.027 101.62 130.276 101.602C134.526 101.62 138.806 102.176 142.802 103.284C152.346 96.8146 156.539 98.1585 156.539 98.1585C159.26 105.046 157.548 110.131 157.029 111.391C160.234 114.892 162.174 119.352 162.174 124.811C162.174 144.015 150.478 148.244 139.344 149.482C141.137 151.033 142.735 154.077 142.735 158.741C142.735 165.431 142.677 170.816 142.677 172.463C142.677 173.793 143.577 175.352 146.112 174.861C165.968 168.242 180.276 149.507 180.276 127.423C180.276 99.8078 157.89 77.4224 130.276 77.4224Z" fill="#161614"/>
<path d="M99.0028 148.649C98.893 148.897 98.5016 148.972 98.1459 148.801C97.7832 148.638 97.5793 148.299 97.6969 148.05C97.8048 147.794 98.1961 147.723 98.5581 147.895C98.9216 148.058 99.1286 148.399 99.0028 148.649ZM101.462 150.843C101.224 151.064 100.758 150.962 100.441 150.612C100.114 150.264 100.053 149.798 100.295 149.573C100.541 149.352 100.993 149.456 101.321 149.805C101.648 150.157 101.711 150.62 101.462 150.844L101.462 150.843ZM103.15 153.651C102.843 153.864 102.342 153.664 102.032 153.22C101.726 152.775 101.726 152.242 102.039 152.028C102.35 151.815 102.843 152.007 103.157 152.448C103.463 152.9 103.463 153.433 103.149 153.651L103.15 153.651ZM106.003 156.903C105.729 157.205 105.145 157.124 104.718 156.712C104.281 156.309 104.159 155.736 104.434 155.434C104.711 155.131 105.298 155.217 105.729 155.626C106.163 156.028 106.295 156.604 106.003 156.903H106.003ZM109.691 158.001C109.57 158.392 109.008 158.571 108.442 158.404C107.876 158.233 107.506 157.774 107.62 157.378C107.738 156.984 108.302 156.799 108.873 156.977C109.438 157.147 109.809 157.603 109.691 158.001H109.691ZM113.888 158.467C113.902 158.879 113.422 159.221 112.827 159.229C112.229 159.241 111.746 158.908 111.74 158.502C111.74 158.086 112.209 157.747 112.807 157.737C113.401 157.725 113.888 158.057 113.888 158.467ZM118.011 158.309C118.083 158.711 117.669 159.124 117.079 159.234C116.499 159.34 115.961 159.092 115.887 158.693C115.815 158.28 116.236 157.867 116.816 157.76C117.407 157.658 117.936 157.9 118.011 158.309Z" fill="#161614"/>
<defs>
<filter id="filter0_d_22_662" x="0.723999" y="0.593872" width="260" height="260" filterUnits="userSpaceOnUse" color-interpolation-filters="sRGB">
<feFlood flood-opacity="0" result="BackgroundImageFix"/>
<feColorMatrix in="SourceAlpha" type="matrix" values="0 0 0 0 0 0 0 0 0 0 0 0 0 0 0 0 0 0 127 0" result="hardAlpha"/>
<feOffset dy="4"/>
<feGaussianBlur stdDeviation="20"/>
<feComposite in2="hardAlpha" operator="out"/>
<feColorMatrix type="matrix" values="0 0 0 0 0.0367917 0 0 0 0 0.0348958 0 0 0 0 0.0484375 0 0 0 0.1 0"/>
<feBlend mode="normal" in2="BackgroundImageFix" result="effect1_dropShadow_22_662"/>
<feBlend mode="normal" in="SourceGraphic" in2="effect1_dropShadow_22_662" result="shape"/>
</filter>
</defs>
</svg>
