<svg width="261" height="261" viewBox="0 0 261 261" fill="none" xmlns="http://www.w3.org/2000/svg">
<g filter="url(#filter0_d_22_661)">
<path d="M40.724 100.891C40.724 70.721 40.724 55.636 50.0966 46.2635C59.4692 36.8909 74.5541 36.8909 104.724 36.8909H156.724C186.894 36.8909 201.979 36.8909 211.351 46.2635C220.724 55.636 220.724 70.721 220.724 100.891V152.891C220.724 183.061 220.724 198.146 211.351 207.518C201.979 216.891 186.894 216.891 156.724 216.891H104.724C74.5541 216.891 59.4692 216.891 50.0966 207.518C40.724 198.146 40.724 183.061 40.724 152.891V100.891Z" fill="white"/>
<path d="M50.0966 207.518L49.3895 208.225L50.0966 207.518ZM211.351 207.518L210.644 206.811L211.351 207.518ZM211.351 46.2635L212.059 45.5563L211.351 46.2635ZM104.724 37.8909H156.724V35.8909H104.724V37.8909ZM219.724 100.891V152.891H221.724V100.891H219.724ZM156.724 215.891H104.724V217.891H156.724V215.891ZM41.724 152.891V100.891H39.724V152.891H41.724ZM104.724 215.891C89.6108 215.891 78.3765 215.889 69.7445 214.728C61.1414 213.572 55.2732 211.281 50.8037 206.811L49.3895 208.225C54.2925 213.128 60.6531 215.524 69.4781 216.71C78.2742 217.893 89.6673 217.891 104.724 217.891V215.891ZM39.724 152.891C39.724 167.948 39.7219 179.341 40.9045 188.137C42.091 196.962 44.4864 203.322 49.3895 208.225L50.8037 206.811C46.3342 202.342 44.0433 196.473 42.8867 187.87C41.7261 179.238 41.724 168.004 41.724 152.891H39.724ZM219.724 152.891C219.724 168.004 219.722 179.238 218.561 187.87C217.405 196.473 215.114 202.342 210.644 206.811L212.059 208.225C216.962 203.322 219.357 196.962 220.544 188.137C221.726 179.341 221.724 167.948 221.724 152.891H219.724ZM156.724 217.891C171.781 217.891 183.174 217.893 191.97 216.71C200.795 215.524 207.155 213.128 212.059 208.225L210.644 206.811C206.175 211.281 200.307 213.572 191.703 214.728C183.072 215.889 171.837 215.891 156.724 215.891V217.891ZM156.724 37.8909C171.837 37.8909 183.072 37.893 191.703 39.0535C200.307 40.2102 206.175 42.501 210.644 46.9706L212.059 45.5563C207.155 40.6533 200.795 38.2578 191.97 37.0714C183.174 35.8887 171.781 35.8909 156.724 35.8909V37.8909ZM221.724 100.891C221.724 85.8342 221.726 74.4411 220.544 65.6449C219.357 56.82 216.962 50.4594 212.059 45.5563L210.644 46.9706C215.114 51.4401 217.405 57.3083 218.561 65.9114C219.722 74.5433 219.724 85.7777 219.724 100.891H221.724ZM104.724 35.8909C89.6673 35.8909 78.2742 35.8887 69.4781 37.0714C60.6531 38.2578 54.2925 40.6533 49.3895 45.5563L50.8037 46.9706C55.2732 42.501 61.1414 40.2102 69.7445 39.0535C78.3765 37.893 89.6108 37.8909 104.724 37.8909V35.8909ZM41.724 100.891C41.724 85.7777 41.7261 74.5433 42.8867 65.9114C44.0433 57.3083 46.3342 51.4401 50.8037 46.9706L49.3895 45.5563C44.4864 50.4594 42.091 56.82 40.9045 65.6449C39.7219 74.4411 39.724 85.8342 39.724 100.891H41.724Z" fill="#D9D9D9"/>
</g>
<path d="M87.8228 119.117C87.6281 119.117 87.5794 119.02 87.6768 118.874L88.6992 117.559C88.7966 117.413 89.04 117.316 89.2348 117.316H106.617C106.811 117.316 106.86 117.462 106.763 117.608L105.935 118.874C105.838 119.02 105.594 119.166 105.448 119.166L87.8228 119.117ZM80.4709 123.596C80.2761 123.596 80.2274 123.499 80.3248 123.353L81.3473 122.038C81.4446 121.892 81.6881 121.795 81.8828 121.795H104.085C104.28 121.795 104.377 121.941 104.328 122.087L103.939 123.256C103.89 123.45 103.695 123.548 103.501 123.548L80.4709 123.596ZM92.2535 128.076C92.0587 128.076 92.01 127.93 92.1074 127.784L92.7891 126.566C92.8864 126.42 93.0812 126.274 93.2759 126.274H103.014C103.208 126.274 103.306 126.42 103.306 126.615L103.208 127.784C103.208 127.978 103.014 128.124 102.868 128.124L92.2535 128.076ZM142.792 118.241C139.725 119.02 137.631 119.604 134.612 120.383C133.882 120.578 133.833 120.626 133.2 119.896C132.47 119.068 131.935 118.533 130.912 118.046C127.845 116.537 124.875 116.975 122.099 118.776C118.789 120.919 117.085 124.083 117.133 128.027C117.182 131.922 119.86 135.136 123.706 135.671C127.017 136.109 129.792 134.941 131.983 132.458C132.421 131.922 132.811 131.338 133.298 130.656H123.901C122.879 130.656 122.635 130.023 122.976 129.196C123.609 127.686 124.777 125.154 125.459 123.889C125.605 123.596 125.946 123.11 126.676 123.11H144.399C144.301 124.424 144.301 125.739 144.107 127.053C143.571 130.559 142.257 133.772 140.114 136.596C136.609 141.222 132.032 144.094 126.238 144.873C121.467 145.506 117.036 144.581 113.141 141.66C109.538 138.933 107.493 135.33 106.957 130.851C106.324 125.544 107.882 120.773 111.096 116.585C114.553 112.057 119.129 109.185 124.729 108.162C129.305 107.335 133.687 107.87 137.631 110.548C140.212 112.252 142.062 114.589 143.279 117.413C143.571 117.851 143.376 118.095 142.792 118.241Z" fill="#00ACD7"/>
<path d="M158.908 145.165C154.477 145.068 150.436 143.802 147.028 140.881C144.155 138.398 142.354 135.233 141.77 131.484C140.893 125.982 142.403 121.113 145.713 116.78C149.268 112.106 153.552 109.672 159.346 108.649C164.312 107.773 168.986 108.26 173.222 111.132C177.069 113.761 179.454 117.316 180.087 121.99C180.915 128.563 179.016 133.918 174.488 138.495C171.275 141.757 167.331 143.802 162.803 144.727C161.488 144.971 160.174 145.019 158.908 145.165ZM170.496 125.495C170.447 124.862 170.447 124.375 170.35 123.889C169.473 119.068 165.043 116.342 160.417 117.413C155.889 118.435 152.968 121.308 151.897 125.885C151.02 129.682 152.871 133.529 156.376 135.087C159.054 136.255 161.732 136.109 164.312 134.795C168.159 132.799 170.252 129.682 170.496 125.495Z" fill="#00ACD7"/>
<defs>
<filter id="filter0_d_22_661" x="0.723999" y="0.890869" width="260" height="260" filterUnits="userSpaceOnUse" color-interpolation-filters="sRGB">
<feFlood flood-opacity="0" result="BackgroundImageFix"/>
<feColorMatrix in="SourceAlpha" type="matrix" values="0 0 0 0 0 0 0 0 0 0 0 0 0 0 0 0 0 0 127 0" result="hardAlpha"/>
<feOffset dy="4"/>
<feGaussianBlur stdDeviation="20"/>
<feComposite in2="hardAlpha" operator="out"/>
<feColorMatrix type="matrix" values="0 0 0 0 0.0367917 0 0 0 0 0.0348958 0 0 0 0 0.0484375 0 0 0 0.1 0"/>
<feBlend mode="normal" in2="BackgroundImageFix" result="effect1_dropShadow_22_661"/>
<feBlend mode="normal" in="SourceGraphic" in2="effect1_dropShadow_22_661" result="shape"/>
</filter>
</defs>
</svg>
