<svg width="261" height="261" viewBox="0 0 261 261" fill="none" xmlns="http://www.w3.org/2000/svg">
<g filter="url(#filter0_d_25_407)">
<path d="M40.209 100.703C40.209 70.533 40.209 55.448 49.5816 46.0755C58.9542 36.7029 74.0391 36.7029 104.209 36.7029H156.209C186.379 36.7029 201.464 36.7029 210.836 46.0755C220.209 55.448 220.209 70.533 220.209 100.703V152.703C220.209 182.873 220.209 197.958 210.836 207.33C201.464 216.703 186.379 216.703 156.209 216.703H104.209C74.0391 216.703 58.9542 216.703 49.5816 207.33C40.209 197.958 40.209 182.873 40.209 152.703V100.703Z" fill="white"/>
<path d="M49.5816 207.33L48.8745 208.037L49.5816 207.33ZM210.836 207.33L210.129 206.623L210.836 207.33ZM210.836 46.0755L211.544 45.3684L210.836 46.0755ZM104.209 37.7029H156.209V35.7029H104.209V37.7029ZM219.209 100.703V152.703H221.209V100.703H219.209ZM156.209 215.703H104.209V217.703H156.209V215.703ZM41.209 152.703V100.703H39.209V152.703H41.209ZM104.209 215.703C89.0958 215.703 77.8615 215.701 69.2295 214.54C60.6264 213.384 54.7582 211.093 50.2887 206.623L48.8745 208.037C53.7775 212.94 60.1381 215.336 68.963 216.522C77.7592 217.705 89.1523 217.703 104.209 217.703V215.703ZM39.209 152.703C39.209 167.76 39.2069 179.153 40.3895 187.949C41.576 196.774 43.9714 203.134 48.8745 208.037L50.2887 206.623C45.8192 202.154 43.5283 196.285 42.3716 187.682C41.2111 179.05 41.209 167.816 41.209 152.703H39.209ZM219.209 152.703C219.209 167.816 219.207 179.05 218.046 187.682C216.89 196.285 214.599 202.154 210.129 206.623L211.544 208.037C216.447 203.134 218.842 196.774 220.028 187.949C221.211 179.153 221.209 167.76 221.209 152.703H219.209ZM156.209 217.703C171.266 217.703 182.659 217.705 191.455 216.522C200.28 215.336 206.64 212.94 211.544 208.037L210.129 206.623C205.66 211.093 199.792 213.384 191.188 214.54C182.557 215.701 171.322 215.703 156.209 215.703V217.703ZM156.209 37.7029C171.322 37.7029 182.557 37.705 191.188 38.8655C199.792 40.0222 205.66 42.313 210.129 46.7826L211.544 45.3684C206.64 40.4653 200.28 38.0699 191.455 36.8834C182.659 35.7008 171.266 35.7029 156.209 35.7029V37.7029ZM221.209 100.703C221.209 85.6462 221.211 74.2531 220.028 65.4569C218.842 56.632 216.447 50.2714 211.544 45.3684L210.129 46.7826C214.599 51.2521 216.89 57.1203 218.046 65.7234C219.207 74.3554 219.209 85.5897 219.209 100.703H221.209ZM104.209 35.7029C89.1523 35.7029 77.7592 35.7008 68.963 36.8834C60.1381 38.0699 53.7775 40.4653 48.8745 45.3684L50.2887 46.7826C54.7582 42.313 60.6264 40.0222 69.2295 38.8655C77.8615 37.705 89.0958 37.7029 104.209 37.7029V35.7029ZM41.209 100.703C41.209 85.5897 41.2111 74.3554 42.3716 65.7234C43.5283 57.1203 45.8192 51.2521 50.2887 46.7826L48.8745 45.3684C43.9714 50.2714 41.576 56.632 40.3895 65.4569C39.2069 74.2531 39.209 85.6462 39.209 100.703H41.209Z" fill="#D9D9D9"/>
</g>
<g clip-path="url(#clip0_25_407)">
<path d="M146.859 103.835H150.65L161.453 93.0324L161.984 88.4488C141.884 70.7083 111.2 72.6199 93.4599 92.7199C88.5273 98.3035 84.949 104.944 83.001 112.132C84.2042 111.638 85.5376 111.559 86.7928 111.903L108.393 108.341C108.393 108.341 109.492 106.523 110.06 106.637C119.67 96.0847 135.842 94.8554 146.937 103.835H146.859Z" fill="#EA4335"/>
<path d="M176.839 112.132C174.355 102.991 169.261 94.7721 162.172 88.4854L147.015 103.642C153.416 108.872 157.062 116.752 156.906 125.019V127.711C164.359 127.711 170.396 133.753 170.396 141.202C170.396 148.655 164.354 154.692 156.906 154.692H129.92L127.227 157.421V173.604L129.92 176.297H156.906C172.375 176.417 186.1 166.39 190.694 151.619C195.278 136.842 189.652 120.8 176.839 112.132Z" fill="#4285F4"/>
<path d="M102.898 176.146H129.884V154.546H102.898C100.976 154.546 99.0747 154.134 97.3246 153.332L93.5328 154.504L82.6572 165.307L81.7092 169.099C87.8085 173.703 95.2516 176.177 102.898 176.146Z" fill="#34A853"/>
<path d="M102.898 106.07C87.9076 106.158 74.6308 115.758 69.8493 129.961C65.0678 144.165 69.8337 159.843 81.7145 168.979L97.3664 153.327C90.5744 150.259 87.5586 142.269 90.6265 135.477C93.6943 128.685 101.684 125.669 108.476 128.737C111.466 130.092 113.862 132.488 115.216 135.477L130.868 119.825C124.206 111.122 113.857 106.033 102.898 106.07Z" fill="#FBBC05"/>
</g>
<defs>
<filter id="filter0_d_25_407" x="0.208984" y="0.702881" width="260" height="260" filterUnits="userSpaceOnUse" color-interpolation-filters="sRGB">
<feFlood flood-opacity="0" result="BackgroundImageFix"/>
<feColorMatrix in="SourceAlpha" type="matrix" values="0 0 0 0 0 0 0 0 0 0 0 0 0 0 0 0 0 0 127 0" result="hardAlpha"/>
<feOffset dy="4"/>
<feGaussianBlur stdDeviation="20"/>
<feComposite in2="hardAlpha" operator="out"/>
<feColorMatrix type="matrix" values="0 0 0 0 0.0367917 0 0 0 0 0.0348958 0 0 0 0 0.0484375 0 0 0 0.1 0"/>
<feBlend mode="normal" in2="BackgroundImageFix" result="effect1_dropShadow_25_407"/>
<feBlend mode="normal" in="SourceGraphic" in2="effect1_dropShadow_25_407" result="shape"/>
</filter>
<clipPath id="clip0_25_407">
<rect width="124.262" height="100" fill="white" transform="translate(68.0107 76.2971)"/>
</clipPath>
</defs>
</svg>
