<svg width="261" height="261" viewBox="0 0 261 261" fill="none" xmlns="http://www.w3.org/2000/svg">
<g filter="url(#filter0_d_22_665)">
<path d="M40.9329 100.703C40.9329 70.533 40.9329 55.448 50.3054 46.0755C59.678 36.7029 74.763 36.7029 104.933 36.7029H156.933C187.103 36.7029 202.188 36.7029 211.56 46.0755C220.933 55.448 220.933 70.533 220.933 100.703V152.703C220.933 182.873 220.933 197.958 211.56 207.33C202.188 216.703 187.103 216.703 156.933 216.703H104.933C74.763 216.703 59.678 216.703 50.3054 207.33C40.9329 197.958 40.9329 182.873 40.9329 152.703V100.703Z" fill="white"/>
<path d="M50.3054 207.33L49.5983 208.037L50.3054 207.33ZM211.56 207.33L210.853 206.623L211.56 207.33ZM211.56 46.0755L212.267 45.3684L211.56 46.0755ZM104.933 37.7029H156.933V35.7029H104.933V37.7029ZM219.933 100.703V152.703H221.933V100.703H219.933ZM156.933 215.703H104.933V217.703H156.933V215.703ZM41.9329 152.703V100.703H39.9329V152.703H41.9329ZM104.933 215.703C89.8196 215.703 78.5853 215.701 69.9534 214.54C61.3503 213.384 55.4821 211.093 51.0126 206.623L49.5983 208.037C54.5014 212.94 60.862 215.336 69.6869 216.522C78.4831 217.705 89.8762 217.703 104.933 217.703V215.703ZM39.9329 152.703C39.9329 167.76 39.9307 179.153 41.1134 187.949C42.2998 196.774 44.6953 203.134 49.5983 208.037L51.0126 206.623C46.543 202.154 44.2522 196.285 43.0955 187.682C41.935 179.05 41.9329 167.816 41.9329 152.703H39.9329ZM219.933 152.703C219.933 167.816 219.931 179.05 218.77 187.682C217.614 196.285 215.323 202.154 210.853 206.623L212.267 208.037C217.17 203.134 219.566 196.774 220.752 187.949C221.935 179.153 221.933 167.76 221.933 152.703H219.933ZM156.933 217.703C171.99 217.703 183.383 217.705 192.179 216.522C201.004 215.336 207.364 212.94 212.267 208.037L210.853 206.623C206.384 211.093 200.515 213.384 191.912 214.54C183.28 215.701 172.046 215.703 156.933 215.703V217.703ZM156.933 37.7029C172.046 37.7029 183.28 37.705 191.912 38.8655C200.515 40.0222 206.384 42.313 210.853 46.7826L212.267 45.3684C207.364 40.4653 201.004 38.0699 192.179 36.8834C183.383 35.7008 171.99 35.7029 156.933 35.7029V37.7029ZM221.933 100.703C221.933 85.6462 221.935 74.2531 220.752 65.4569C219.566 56.632 217.17 50.2714 212.267 45.3684L210.853 46.7826C215.323 51.2521 217.614 57.1203 218.77 65.7234C219.931 74.3554 219.933 85.5897 219.933 100.703H221.933ZM104.933 35.7029C89.8762 35.7029 78.4831 35.7008 69.6869 36.8834C60.862 38.0699 54.5014 40.4653 49.5983 45.3684L51.0126 46.7826C55.4821 42.313 61.3503 40.0222 69.9534 38.8655C78.5853 37.705 89.8196 37.7029 104.933 37.7029V35.7029ZM41.9329 100.703C41.9329 85.5897 41.935 74.3554 43.0955 65.7234C44.2522 57.1203 46.543 51.2521 51.0126 46.7826L49.5983 45.3684C44.6953 50.2714 42.2998 56.632 41.1134 65.4569C39.9307 74.2531 39.9329 85.6462 39.9329 100.703H41.9329Z" fill="#D9D9D9"/>
</g>
<path fill-rule="evenodd" clip-rule="evenodd" d="M139.57 87.7463L160.104 99.6028C160.697 98.9755 161.378 98.4371 162.124 98.0043C166.383 95.556 171.815 97.0097 174.289 101.269C176.737 105.528 175.283 110.959 171.025 113.433C170.283 113.86 169.485 114.178 168.653 114.377V138.099C169.476 138.299 170.266 138.615 170.999 139.037C175.283 141.511 176.737 146.943 174.263 151.202C171.815 155.46 166.358 156.914 162.099 154.466C161.274 153.993 160.53 153.389 159.898 152.679L139.488 164.463C139.787 165.368 139.938 166.315 139.937 167.268C139.937 172.164 135.959 176.168 131.037 176.168C126.115 176.168 122.137 172.19 122.137 167.268C122.137 166.393 122.263 165.548 122.497 164.75L101.968 152.897C101.382 153.512 100.711 154.04 99.9758 154.466C95.6915 156.914 90.2594 155.46 87.811 151.202C85.363 146.943 86.8167 141.511 91.0753 139.037C91.8089 138.615 92.5989 138.299 93.4216 138.099V114.377C92.5898 114.178 91.7911 113.86 91.0499 113.433C86.791 110.985 85.3373 105.528 87.7857 101.269C90.234 97.0097 95.6911 95.556 99.9501 98.0043C100.693 98.4348 101.37 98.9698 101.96 99.5927L122.501 87.7332C122.259 86.9113 122.136 86.0589 122.137 85.2022C122.137 80.2808 126.115 76.302 131.037 76.302C135.959 76.302 139.937 80.2804 139.937 85.2022C139.937 86.0868 139.809 86.9405 139.57 87.7463ZM137.43 91.3995L158.014 103.284C157.686 104.429 157.592 105.629 157.738 106.812C157.883 107.995 158.265 109.136 158.86 110.169C160.113 112.348 162.154 113.793 164.42 114.357V138.108C164.304 138.136 164.189 138.167 164.075 138.199L137.191 91.6373C137.272 91.5595 137.352 91.4803 137.43 91.3998V91.3995ZM124.889 91.6425L98.0055 138.204C97.8892 138.17 97.7723 138.139 97.6548 138.11V114.357C99.9202 113.793 101.961 112.348 103.214 110.169C103.811 109.134 104.193 107.991 104.338 106.805C104.483 105.62 104.387 104.418 104.057 103.27L124.635 91.3897C124.718 91.4755 124.802 91.5599 124.889 91.6421V91.6425ZM133.524 93.7516L160.401 140.303C159.786 140.89 159.258 141.563 158.834 142.301C158.412 143.035 158.096 143.825 157.896 144.648H104.179C103.979 143.825 103.663 143.035 103.24 142.301C102.815 141.568 102.288 140.899 101.676 140.314L128.558 93.7537C129.364 93.9858 130.199 94.1031 131.037 94.1023C131.901 94.1023 132.735 93.9801 133.524 93.7516ZM137.619 161.272L158.069 149.465C158.008 149.272 157.953 149.077 157.905 148.881H104.167C104.139 148.996 104.108 149.111 104.075 149.225L124.625 161.09C125.455 160.227 126.451 159.541 127.553 159.074C128.655 158.606 129.84 158.366 131.037 158.368C132.276 158.366 133.502 158.623 134.636 159.123C135.769 159.623 136.786 160.355 137.619 161.272Z" fill="#E535AB"/>
<defs>
<filter id="filter0_d_22_665" x="0.932861" y="0.702881" width="260" height="260" filterUnits="userSpaceOnUse" color-interpolation-filters="sRGB">
<feFlood flood-opacity="0" result="BackgroundImageFix"/>
<feColorMatrix in="SourceAlpha" type="matrix" values="0 0 0 0 0 0 0 0 0 0 0 0 0 0 0 0 0 0 127 0" result="hardAlpha"/>
<feOffset dy="4"/>
<feGaussianBlur stdDeviation="20"/>
<feComposite in2="hardAlpha" operator="out"/>
<feColorMatrix type="matrix" values="0 0 0 0 0.0367917 0 0 0 0 0.0348958 0 0 0 0 0.0484375 0 0 0 0.1 0"/>
<feBlend mode="normal" in2="BackgroundImageFix" result="effect1_dropShadow_22_665"/>
<feBlend mode="normal" in="SourceGraphic" in2="effect1_dropShadow_22_665" result="shape"/>
</filter>
</defs>
</svg>
