<svg width="260" height="261" viewBox="0 0 260 261" fill="none" xmlns="http://www.w3.org/2000/svg">
<g filter="url(#filter0_d_33_2369)">
<path d="M40.0001 100.188C40.0001 70.0181 40.0001 54.9332 49.3727 45.5606C58.7453 36.188 73.8302 36.188 104 36.188H156C186.17 36.188 201.255 36.188 210.628 45.5606C220 54.9332 220 70.0181 220 100.188V152.188C220 182.358 220 197.443 210.628 206.815C201.255 216.188 186.17 216.188 156 216.188H104C73.8302 216.188 58.7453 216.188 49.3727 206.815C40.0001 197.443 40.0001 182.358 40.0001 152.188V100.188Z" fill="white"/>
<path d="M49.3727 206.815L48.6656 207.523L49.3727 206.815ZM210.628 206.815L209.92 206.108L210.628 206.815ZM210.628 45.5606L211.335 44.8535L210.628 45.5606ZM104 37.188H156V35.188H104V37.188ZM219 100.188V152.188H221V100.188H219ZM156 215.188H104V217.188H156V215.188ZM41.0001 152.188V100.188H39.0001V152.188H41.0001ZM104 215.188C88.8869 215.188 77.6526 215.186 69.0207 214.025C60.4175 212.869 54.5493 210.578 50.0798 206.108L48.6656 207.523C53.5687 212.426 59.9292 214.821 68.7542 216.007C77.5503 217.19 88.9434 217.188 104 217.188V215.188ZM39.0001 152.188C39.0001 167.245 38.998 178.638 40.1806 187.434C41.3671 196.259 43.7625 202.619 48.6656 207.523L50.0798 206.108C45.6103 201.639 43.3194 195.771 42.1628 187.167C41.0022 178.536 41.0001 167.301 41.0001 152.188H39.0001ZM219 152.188C219 167.301 218.998 178.536 217.837 187.167C216.681 195.771 214.39 201.639 209.92 206.108L211.335 207.523C216.238 202.619 218.633 196.259 219.82 187.434C221.002 178.638 221 167.245 221 152.188H219ZM156 217.188C171.057 217.188 182.45 217.19 191.246 216.007C200.071 214.821 206.432 212.426 211.335 207.523L209.92 206.108C205.451 210.578 199.583 212.869 190.98 214.025C182.348 215.186 171.113 215.188 156 215.188V217.188ZM156 37.188C171.113 37.188 182.348 37.1901 190.98 38.3506C199.583 39.5073 205.451 41.7982 209.92 46.2677L211.335 44.8535C206.432 39.9504 200.071 37.555 191.246 36.3685C182.45 35.1859 171.057 35.188 156 35.188V37.188ZM221 100.188C221 85.1313 221.002 73.7382 219.82 64.942C218.633 56.1171 216.238 49.7565 211.335 44.8535L209.92 46.2677C214.39 50.7372 216.681 56.6054 217.837 65.2085C218.998 73.8405 219 85.0748 219 100.188H221ZM104 35.188C88.9434 35.188 77.5503 35.1859 68.7542 36.3685C59.9292 37.555 53.5687 39.9504 48.6656 44.8535L50.0798 46.2677C54.5493 41.7982 60.4175 39.5073 69.0207 38.3506C77.6526 37.1901 88.8869 37.188 104 37.188V35.188ZM41.0001 100.188C41.0001 85.0748 41.0022 73.8405 42.1628 65.2085C43.3194 56.6054 45.6103 50.7372 50.0798 46.2677L48.6656 44.8535C43.7625 49.7565 41.3671 56.1171 40.1806 64.942C38.998 73.7382 39.0001 85.1313 39.0001 100.188H41.0001Z" fill="#D9D9D9"/>
</g>
<g clip-path="url(#clip0_33_2369)">
<path d="M80.2761 75.7822H180.276V175.782H80.2761V75.7822Z" fill="#6762A5"/>
<path d="M136.976 154.578V123.082C136.976 123.082 139.024 115.546 111.74 126.166C111.692 126.302 111.692 97.0382 111.692 97.0382L120.608 96.9822V115.73C120.608 115.73 145.568 105.898 145.568 123.186V154.578H136.976ZM142.056 108.33H132.6C136.004 104.17 139.084 97.0382 139.084 97.0382H148.86C148.864 97.0382 147.188 101.686 142.056 108.33ZM111.852 154.526V136.59L120.82 145.558L111.852 154.526Z" fill="white"/>
</g>
<defs>
<filter id="filter0_d_33_2369" x="0.00012207" y="0.187988" width="260" height="260" filterUnits="userSpaceOnUse" color-interpolation-filters="sRGB">
<feFlood flood-opacity="0" result="BackgroundImageFix"/>
<feColorMatrix in="SourceAlpha" type="matrix" values="0 0 0 0 0 0 0 0 0 0 0 0 0 0 0 0 0 0 127 0" result="hardAlpha"/>
<feOffset dy="4"/>
<feGaussianBlur stdDeviation="20"/>
<feComposite in2="hardAlpha" operator="out"/>
<feColorMatrix type="matrix" values="0 0 0 0 0.0367917 0 0 0 0 0.0348958 0 0 0 0 0.0484375 0 0 0 0.1 0"/>
<feBlend mode="normal" in2="BackgroundImageFix" result="effect1_dropShadow_33_2369"/>
<feBlend mode="normal" in="SourceGraphic" in2="effect1_dropShadow_33_2369" result="shape"/>
</filter>
<clipPath id="clip0_33_2369">
<rect width="100" height="100" fill="white" transform="translate(80.2761 75.7822)"/>
</clipPath>
</defs>
</svg>
