<svg width="261" height="261" viewBox="0 0 261 261" fill="none" xmlns="http://www.w3.org/2000/svg">
<g filter="url(#filter0_d_22_669)">
<path d="M40.724 100.594C40.724 70.424 40.724 55.339 50.0966 45.9665C59.4692 36.5939 74.5541 36.5939 104.724 36.5939H156.724C186.894 36.5939 201.979 36.5939 211.351 45.9665C220.724 55.339 220.724 70.424 220.724 100.594V152.594C220.724 182.764 220.724 197.849 211.351 207.221C201.979 216.594 186.894 216.594 156.724 216.594H104.724C74.5541 216.594 59.4692 216.594 50.0966 207.221C40.724 197.849 40.724 182.764 40.724 152.594V100.594Z" fill="white"/>
<path d="M50.0966 207.221L49.3895 207.928L50.0966 207.221ZM211.351 207.221L210.644 206.514L211.351 207.221ZM211.351 45.9665L212.059 45.2593L211.351 45.9665ZM104.724 37.5939H156.724V35.5939H104.724V37.5939ZM219.724 100.594V152.594H221.724V100.594H219.724ZM156.724 215.594H104.724V217.594H156.724V215.594ZM41.724 152.594V100.594H39.724V152.594H41.724ZM104.724 215.594C89.6108 215.594 78.3765 215.592 69.7445 214.431C61.1414 213.275 55.2732 210.984 50.8037 206.514L49.3895 207.928C54.2925 212.831 60.6531 215.227 69.4781 216.413C78.2742 217.596 89.6673 217.594 104.724 217.594V215.594ZM39.724 152.594C39.724 167.651 39.7219 179.044 40.9045 187.84C42.091 196.665 44.4864 203.025 49.3895 207.928L50.8037 206.514C46.3342 202.045 44.0433 196.176 42.8867 187.573C41.7261 178.941 41.724 167.707 41.724 152.594H39.724ZM219.724 152.594C219.724 167.707 219.722 178.941 218.561 187.573C217.405 196.176 215.114 202.045 210.644 206.514L212.059 207.928C216.962 203.025 219.357 196.665 220.544 187.84C221.726 179.044 221.724 167.651 221.724 152.594H219.724ZM156.724 217.594C171.781 217.594 183.174 217.596 191.97 216.413C200.795 215.227 207.155 212.831 212.059 207.928L210.644 206.514C206.175 210.984 200.307 213.275 191.703 214.431C183.072 215.592 171.837 215.594 156.724 215.594V217.594ZM156.724 37.5939C171.837 37.5939 183.072 37.596 191.703 38.7565C200.307 39.9132 206.175 42.204 210.644 46.6736L212.059 45.2593C207.155 40.3563 200.795 37.9608 191.97 36.7744C183.174 35.5917 171.781 35.5939 156.724 35.5939V37.5939ZM221.724 100.594C221.724 85.5372 221.726 74.1441 220.544 65.3479C219.357 56.523 216.962 50.1624 212.059 45.2593L210.644 46.6736C215.114 51.1431 217.405 57.0113 218.561 65.6144C219.722 74.2463 219.724 85.4807 219.724 100.594H221.724ZM104.724 35.5939C89.6673 35.5939 78.2742 35.5917 69.4781 36.7744C60.6531 37.9608 54.2925 40.3563 49.3895 45.2593L50.8037 46.6736C55.2732 42.204 61.1414 39.9132 69.7445 38.7565C78.3765 37.596 89.6108 37.5939 104.724 37.5939V35.5939ZM41.724 100.594C41.724 85.4807 41.7261 74.2463 42.8867 65.6144C44.0433 57.0113 46.3342 51.1431 50.8037 46.6736L49.3895 45.2593C44.4864 50.1624 42.091 56.523 40.9045 65.3479C39.7219 74.1441 39.724 85.5372 39.724 100.594H41.724Z" fill="#D9D9D9"/>
</g>
<path d="M85.1666 81.6046H176.833V170.772H85.1666V81.6046Z" fill="url(#paint0_radial_22_669)"/>
<path d="M85.1666 81.6046H176.834V170.771H85.1666V81.6046ZM81 174.938H181V77.438H81V174.938ZM144.25 117.938C143.625 117.646 142.792 117.521 141.792 117.521C136.417 117.521 132.667 121.646 132.667 128.521C132.667 136.355 136.5 139.521 141.292 139.521C142.333 139.521 143.417 139.396 144.25 139.021V117.938ZM142.042 111.146C142.917 111.146 143.417 111.146 144.25 111.23V100.146C144.25 99.8547 144.458 99.7297 144.666 99.7297H151.417C151.75 99.7297 151.833 99.8547 151.833 100.063V139.022C151.833 140.188 151.833 141.646 152.041 143.23C152.041 143.521 151.958 143.563 151.667 143.73C148.083 145.438 144.292 146.188 140.75 146.188C131.542 146.188 124.958 140.48 124.958 128.855C124.917 118.896 131.5 111.146 142.042 111.146ZM117.584 145.022C117.584 145.438 117.5 145.563 117.042 145.563H110.625C110.208 145.563 110.083 145.355 110.083 145.022V100.271C110.083 99.8547 110.292 99.7295 110.625 99.7295H117.083C117.417 99.7295 117.584 99.8545 117.584 100.23V145.022Z" fill="#FF408C"/>
<defs>
<filter id="filter0_d_22_669" x="0.723999" y="0.593872" width="260" height="260" filterUnits="userSpaceOnUse" color-interpolation-filters="sRGB">
<feFlood flood-opacity="0" result="BackgroundImageFix"/>
<feColorMatrix in="SourceAlpha" type="matrix" values="0 0 0 0 0 0 0 0 0 0 0 0 0 0 0 0 0 0 127 0" result="hardAlpha"/>
<feOffset dy="4"/>
<feGaussianBlur stdDeviation="20"/>
<feComposite in2="hardAlpha" operator="out"/>
<feColorMatrix type="matrix" values="0 0 0 0 0.0367917 0 0 0 0 0.0348958 0 0 0 0 0.0484375 0 0 0 0.1 0"/>
<feBlend mode="normal" in2="BackgroundImageFix" result="effect1_dropShadow_22_669"/>
<feBlend mode="normal" in="SourceGraphic" in2="effect1_dropShadow_22_669" result="shape"/>
</filter>
<radialGradient id="paint0_radial_22_669" cx="0" cy="0" r="1" gradientUnits="userSpaceOnUse" gradientTransform="translate(115.357 101.587) scale(69.6668 67.4502)">
<stop stop-color="#4B2B36" stop-opacity="0.98"/>
<stop offset="1" stop-color="#250012"/>
</radialGradient>
</defs>
</svg>
