<svg width="261" height="261" viewBox="0 0 261 261" fill="none" xmlns="http://www.w3.org/2000/svg">
<g filter="url(#filter0_d_22_675)">
<path d="M40.9329 100.406C40.9329 70.2359 40.9329 55.1509 50.3054 45.7783C59.678 36.4058 74.763 36.4058 104.933 36.4058H156.933C187.103 36.4058 202.188 36.4058 211.56 45.7783C220.933 55.1509 220.933 70.2359 220.933 100.406V152.406C220.933 182.576 220.933 197.661 211.56 207.033C202.188 216.406 187.103 216.406 156.933 216.406H104.933C74.763 216.406 59.678 216.406 50.3054 207.033C40.9329 197.661 40.9329 182.576 40.9329 152.406V100.406Z" fill="white"/>
<path d="M50.3054 207.033L49.5983 207.74L50.3054 207.033ZM211.56 207.033L210.853 206.326L211.56 207.033ZM211.56 45.7783L212.267 45.0712L211.56 45.7783ZM104.933 37.4058H156.933V35.4058H104.933V37.4058ZM219.933 100.406V152.406H221.933V100.406H219.933ZM156.933 215.406H104.933V217.406H156.933V215.406ZM41.9329 152.406V100.406H39.9329V152.406H41.9329ZM104.933 215.406C89.8196 215.406 78.5853 215.404 69.9534 214.243C61.3503 213.086 55.4821 210.796 51.0126 206.326L49.5983 207.74C54.5014 212.643 60.862 215.039 69.6869 216.225C78.4831 217.408 89.8762 217.406 104.933 217.406V215.406ZM39.9329 152.406C39.9329 167.462 39.9307 178.856 41.1134 187.652C42.2998 196.477 44.6953 202.837 49.5983 207.74L51.0126 206.326C46.543 201.857 44.2522 195.988 43.0955 187.385C41.935 178.753 41.9329 167.519 41.9329 152.406H39.9329ZM219.933 152.406C219.933 167.519 219.931 178.753 218.77 187.385C217.614 195.988 215.323 201.857 210.853 206.326L212.267 207.74C217.17 202.837 219.566 196.477 220.752 187.652C221.935 178.856 221.933 167.462 221.933 152.406H219.933ZM156.933 217.406C171.99 217.406 183.383 217.408 192.179 216.225C201.004 215.039 207.364 212.643 212.267 207.74L210.853 206.326C206.384 210.796 200.515 213.086 191.912 214.243C183.28 215.404 172.046 215.406 156.933 215.406V217.406ZM156.933 37.4058C172.046 37.4058 183.28 37.4079 191.912 38.5684C200.515 39.7251 206.384 42.0159 210.853 46.4855L212.267 45.0712C207.364 40.1682 201.004 37.7727 192.179 36.5863C183.383 35.4036 171.99 35.4058 156.933 35.4058V37.4058ZM221.933 100.406C221.933 85.3491 221.935 73.956 220.752 65.1598C219.566 56.3349 217.17 49.9743 212.267 45.0712L210.853 46.4855C215.323 50.955 217.614 56.8232 218.77 65.4263C219.931 74.0582 219.933 85.2925 219.933 100.406H221.933ZM104.933 35.4058C89.8762 35.4058 78.4831 35.4036 69.6869 36.5863C60.862 37.7727 54.5014 40.1682 49.5983 45.0712L51.0126 46.4855C55.4821 42.0159 61.3503 39.7251 69.9534 38.5684C78.5853 37.4079 89.8196 37.4058 104.933 37.4058V35.4058ZM41.9329 100.406C41.9329 85.2925 41.935 74.0582 43.0955 65.4263C44.2522 56.8232 46.543 50.955 51.0126 46.4855L49.5983 45.0712C44.6953 49.9743 42.2998 56.3349 41.1134 65.1598C39.9307 73.956 39.9329 85.3491 39.9329 100.406H41.9329Z" fill="#D9D9D9"/>
</g>
<path d="M180.866 128.185C180.866 120.279 178.822 112.853 175.237 106.399C190.515 71.823 158.868 76.8871 157.106 77.232C150.401 78.5441 144.198 80.6503 138.476 83.3207C137.633 83.273 136.783 83.2468 135.928 83.2468C114.575 83.2468 96.7006 98.1406 92.1259 118.107C103.381 105.48 111.257 100.386 115.974 98.3476C115.226 99.0167 114.487 99.6961 113.759 100.386C113.517 100.614 113.285 100.845 113.047 101.074C112.569 101.531 112.096 101.993 111.626 102.459C111.349 102.735 111.079 103.013 110.806 103.292C110.393 103.71 109.984 104.131 109.577 104.555C109.29 104.856 109.011 105.157 108.729 105.459C108.353 105.86 107.98 106.264 107.61 106.671C107.325 106.986 107.044 107.301 106.763 107.617C106.131 108.329 105.506 109.048 104.89 109.773C104.569 110.153 104.25 110.534 103.933 110.917C103.654 111.254 103.376 111.591 103.103 111.928C102.81 112.29 102.519 112.654 102.23 113.02C101.951 113.372 101.671 113.723 101.398 114.075C101.138 114.41 100.886 114.744 100.631 115.078C100.344 115.455 100.055 115.833 99.7756 116.208C99.5756 116.477 99.3838 116.743 99.1873 117.011C97.494 119.321 95.8722 121.682 94.3244 124.092C94.3205 124.098 94.3166 124.103 94.3138 124.109C93.9352 124.7 93.5608 125.293 93.1908 125.889C93.1713 125.921 93.1509 125.953 93.1314 125.985C92.7732 126.563 92.4192 127.144 92.0693 127.727L92.0326 127.787C91.1553 129.248 90.304 130.725 89.4791 132.216C85.4318 139.55 83.4615 144.675 83.3763 144.979C70.5958 190.67 110.484 171.375 116.05 168.495C122.044 171.456 128.79 173.122 135.928 173.122C155.468 173.122 172.092 160.65 178.281 143.232H154.669C151.175 149.134 144.449 153.132 136.722 153.132C125.4 153.132 116.222 144.554 116.222 133.972H180.496C180.739 132.077 180.866 130.146 180.866 128.185ZM172.471 83.9632C176.341 86.5753 179.444 90.6769 174.114 104.491C169.002 96.2687 161.31 89.8191 152.169 86.2742C156.327 84.266 166.626 80.0179 172.471 83.9632ZM90.2326 168.403C87.0802 165.171 86.5232 157.298 93.4787 142.952C96.9885 153.044 103.993 161.5 113.046 166.866C108.544 169.345 96.5904 174.925 90.2326 168.403ZM116.123 121.684C116.482 111.399 125.433 103.164 136.43 103.164C147.428 103.164 156.379 111.399 156.738 121.684H116.123Z" fill="#1EBBEE"/>
<defs>
<filter id="filter0_d_22_675" x="0.932861" y="0.405762" width="260" height="260" filterUnits="userSpaceOnUse" color-interpolation-filters="sRGB">
<feFlood flood-opacity="0" result="BackgroundImageFix"/>
<feColorMatrix in="SourceAlpha" type="matrix" values="0 0 0 0 0 0 0 0 0 0 0 0 0 0 0 0 0 0 127 0" result="hardAlpha"/>
<feOffset dy="4"/>
<feGaussianBlur stdDeviation="20"/>
<feComposite in2="hardAlpha" operator="out"/>
<feColorMatrix type="matrix" values="0 0 0 0 0.0367917 0 0 0 0 0.0348958 0 0 0 0 0.0484375 0 0 0 0.1 0"/>
<feBlend mode="normal" in2="BackgroundImageFix" result="effect1_dropShadow_22_675"/>
<feBlend mode="normal" in="SourceGraphic" in2="effect1_dropShadow_22_675" result="shape"/>
</filter>
</defs>
</svg>
