<svg width="261" height="261" viewBox="0 0 261 261" fill="none" xmlns="http://www.w3.org/2000/svg">
<g filter="url(#filter0_d_31_41)">
<path d="M40.6567 100.594C40.6567 70.4241 40.6567 55.3392 50.0293 45.9666C59.4019 36.594 74.4869 36.594 104.657 36.594H156.657C186.827 36.594 201.912 36.594 211.284 45.9666C220.657 55.3392 220.657 70.4241 220.657 100.594V152.594C220.657 182.764 220.657 197.849 211.284 207.221C201.912 216.594 186.827 216.594 156.657 216.594H104.657C74.4868 216.594 59.4019 216.594 50.0293 207.221C40.6567 197.849 40.6567 182.764 40.6567 152.594V100.594Z" fill="white"/>
<path d="M50.0293 207.221L49.3222 207.929L50.0293 207.221ZM211.284 207.221L210.577 206.514L211.284 207.221ZM211.284 45.9666L211.991 45.2595L211.284 45.9666ZM104.657 37.594H156.657V35.594H104.657V37.594ZM219.657 100.594V152.594H221.657V100.594H219.657ZM156.657 215.594H104.657V217.594H156.657V215.594ZM41.6567 152.594V100.594H39.6567V152.594H41.6567ZM104.657 215.594C89.5435 215.594 78.3092 215.592 69.6773 214.431C61.0741 213.275 55.206 210.984 50.7364 206.514L49.3222 207.929C54.2253 212.832 60.5859 215.227 69.4108 216.413C78.207 217.596 89.6001 217.594 104.657 217.594V215.594ZM39.6567 152.594C39.6567 167.651 39.6546 179.044 40.8372 187.84C42.0237 196.665 44.4192 203.025 49.3222 207.929L50.7364 206.514C46.2669 202.045 43.9761 196.177 42.8194 187.573C41.6589 178.942 41.6567 167.707 41.6567 152.594H39.6567ZM219.657 152.594C219.657 167.707 219.655 178.942 218.494 187.573C217.337 196.177 215.047 202.045 210.577 206.514L211.991 207.929C216.894 203.025 219.29 196.665 220.476 187.84C221.659 179.044 221.657 167.651 221.657 152.594H219.657ZM156.657 217.594C171.713 217.594 183.107 217.596 191.903 216.413C200.728 215.227 207.088 212.832 211.991 207.929L210.577 206.514C206.108 210.984 200.239 213.275 191.636 214.431C183.004 215.592 171.77 215.594 156.657 215.594V217.594ZM156.657 37.594C171.77 37.594 183.004 37.5961 191.636 38.7566C200.239 39.9133 206.108 42.2042 210.577 46.6737L211.991 45.2595C207.088 40.3564 200.728 37.961 191.903 36.7745C183.107 35.5919 171.713 35.594 156.657 35.594V37.594ZM221.657 100.594C221.657 85.5373 221.659 74.1442 220.476 65.348C219.29 56.5231 216.894 50.1625 211.991 45.2595L210.577 46.6737C215.047 51.1432 217.337 57.0114 218.494 65.6145C219.655 74.2465 219.657 85.4808 219.657 100.594H221.657ZM104.657 35.594C89.6001 35.594 78.207 35.5919 69.4108 36.7745C60.5859 37.961 54.2253 40.3564 49.3222 45.2595L50.7364 46.6737C55.206 42.2042 61.0741 39.9133 69.6773 38.7566C78.3092 37.5961 89.5435 37.594 104.657 37.594V35.594ZM41.6567 100.594C41.6567 85.4808 41.6589 74.2465 42.8194 65.6145C43.9761 57.0114 46.2669 51.1432 50.7364 46.6737L49.3222 45.2595C44.4192 50.1625 42.0237 56.5231 40.8372 65.348C39.6546 74.1442 39.6567 85.5373 39.6567 100.594H41.6567Z" fill="#D9D9D9"/>
</g>
<path d="M131.037 173.646C157.247 173.646 178.495 152.399 178.495 126.188C178.495 99.9782 157.247 78.7307 131.037 78.7307C104.827 78.7307 83.5793 99.9782 83.5793 126.188C83.5793 152.399 104.827 173.646 131.037 173.646Z" fill="white"/>
<path d="M131.037 76.1882C103.423 76.1882 81.0372 98.574 81.0372 126.188C81.0372 153.803 103.423 176.188 131.037 176.188C158.652 176.188 181.037 153.803 181.037 126.188C181.037 98.574 158.652 76.1882 131.037 76.1882ZM131.037 81.273C155.843 81.273 175.953 101.382 175.953 126.188C175.953 150.994 155.843 171.104 131.037 171.104C106.231 171.104 86.122 150.994 86.122 126.188C86.122 101.382 106.231 81.273 131.037 81.273Z" fill="#4000BF"/>
<path fill-rule="evenodd" clip-rule="evenodd" d="M131.602 90.5952C151.26 90.5952 167.196 106.531 167.196 126.189C167.196 145.846 151.26 161.782 131.602 161.782C111.945 161.782 96.0092 145.846 96.0092 126.189C96.0092 121.384 96.9609 116.802 98.6863 112.621C101.205 116.052 105.268 118.279 109.851 118.279C117.496 118.279 123.693 112.082 123.693 104.437C123.693 99.8542 121.466 95.7916 118.035 93.2724C122.216 91.547 126.798 90.5952 131.602 90.5952Z" fill="url(#paint0_linear_31_41)"/>
<defs>
<filter id="filter0_d_31_41" x="0.656738" y="0.593994" width="260" height="260" filterUnits="userSpaceOnUse" color-interpolation-filters="sRGB">
<feFlood flood-opacity="0" result="BackgroundImageFix"/>
<feColorMatrix in="SourceAlpha" type="matrix" values="0 0 0 0 0 0 0 0 0 0 0 0 0 0 0 0 0 0 127 0" result="hardAlpha"/>
<feOffset dy="4"/>
<feGaussianBlur stdDeviation="20"/>
<feComposite in2="hardAlpha" operator="out"/>
<feColorMatrix type="matrix" values="0 0 0 0 0.0367917 0 0 0 0 0.0348958 0 0 0 0 0.0484375 0 0 0 0.1 0"/>
<feBlend mode="normal" in2="BackgroundImageFix" result="effect1_dropShadow_31_41"/>
<feBlend mode="normal" in="SourceGraphic" in2="effect1_dropShadow_31_41" result="shape"/>
</filter>
<linearGradient id="paint0_linear_31_41" x1="131.602" y1="161.782" x2="131.602" y2="90.5952" gradientUnits="userSpaceOnUse">
<stop stop-color="#7400E1"/>
<stop offset="1" stop-color="#4000BF"/>
</linearGradient>
</defs>
</svg>
