<svg width="261" height="261" viewBox="0 0 261 261" fill="none" xmlns="http://www.w3.org/2000/svg">
<g filter="url(#filter0_d_33_2414)">
<path d="M40.8285 100.188C40.8285 70.0181 40.8285 54.9332 50.2011 45.5606C59.5737 36.188 74.6586 36.188 104.828 36.188H156.828C186.998 36.188 202.083 36.188 211.456 45.5606C220.828 54.9332 220.828 70.0181 220.828 100.188V152.188C220.828 182.358 220.828 197.443 211.456 206.815C202.083 216.188 186.998 216.188 156.828 216.188H104.828C74.6586 216.188 59.5737 216.188 50.2011 206.815C40.8285 197.443 40.8285 182.358 40.8285 152.188V100.188Z" fill="white"/>
<path d="M50.2011 206.815L49.494 207.523L50.2011 206.815ZM211.456 206.815L210.749 206.108L211.456 206.815ZM211.456 45.5606L212.163 44.8535L211.456 45.5606ZM104.828 37.188H156.828V35.188H104.828V37.188ZM219.828 100.188V152.188H221.828V100.188H219.828ZM156.828 215.188H104.828V217.188H156.828V215.188ZM41.8285 152.188V100.188H39.8285V152.188H41.8285ZM104.828 215.188C89.7153 215.188 78.481 215.186 69.849 214.025C61.2459 212.869 55.3777 210.578 50.9082 206.108L49.494 207.523C54.397 212.426 60.7576 214.821 69.5825 216.007C78.3787 217.19 89.7718 217.188 104.828 217.188V215.188ZM39.8285 152.188C39.8285 167.245 39.8264 178.638 41.009 187.434C42.1955 196.259 44.5909 202.619 49.494 207.523L50.9082 206.108C46.4387 201.639 44.1478 195.771 42.9911 187.167C41.8306 178.536 41.8285 167.301 41.8285 152.188H39.8285ZM219.828 152.188C219.828 167.301 219.826 178.536 218.666 187.167C217.509 195.771 215.218 201.639 210.749 206.108L212.163 207.523C217.066 202.619 219.462 196.259 220.648 187.434C221.831 178.638 221.828 167.245 221.828 152.188H219.828ZM156.828 217.188C171.885 217.188 183.278 217.19 192.074 216.007C200.899 214.821 207.26 212.426 212.163 207.523L210.749 206.108C206.279 210.578 200.411 212.869 191.808 214.025C183.176 215.186 171.942 215.188 156.828 215.188V217.188ZM156.828 37.188C171.942 37.188 183.176 37.1901 191.808 38.3506C200.411 39.5073 206.279 41.7982 210.749 46.2677L212.163 44.8535C207.26 39.9504 200.899 37.555 192.074 36.3685C183.278 35.1859 171.885 35.188 156.828 35.188V37.188ZM221.828 100.188C221.828 85.1313 221.831 73.7382 220.648 64.942C219.462 56.1171 217.066 49.7565 212.163 44.8535L210.749 46.2677C215.218 50.7372 217.509 56.6054 218.666 65.2085C219.826 73.8405 219.828 85.0748 219.828 100.188H221.828ZM104.828 35.188C89.7718 35.188 78.3787 35.1859 69.5825 36.3685C60.7576 37.555 54.397 39.9504 49.494 44.8535L50.9082 46.2677C55.3777 41.7982 61.2459 39.5073 69.849 38.3506C78.481 37.1901 89.7153 37.188 104.828 37.188V35.188ZM41.8285 100.188C41.8285 85.0748 41.8306 73.8405 42.9911 65.2085C44.1478 56.6054 46.4387 50.7372 50.9082 46.2677L49.494 44.8535C44.5909 49.7565 42.1955 56.1171 41.009 64.942C39.8264 73.7382 39.8285 85.1313 39.8285 100.188H41.8285Z" fill="#D9D9D9"/>
</g>
<path fill-rule="evenodd" clip-rule="evenodd" d="M176.207 104.082L176.615 105.034C179.608 111.633 181.104 118.571 181.104 125.782C181.104 153.333 158.655 175.782 131.104 175.782C103.553 175.782 81.1045 153.333 81.1045 125.782C81.1045 98.2312 103.553 75.7822 131.104 75.7822C139.2 75.7822 146.887 77.687 153.962 81.2244L154.914 81.7006L154.098 82.3809C152.057 84.0135 150.492 86.0543 149.472 88.4353L149.2 89.1156L148.588 88.8434C143.077 86.2584 137.227 84.8979 131.104 84.8979C108.519 84.8979 90.2201 103.197 90.2201 125.782C90.2201 148.367 108.519 166.667 131.104 166.667C153.689 166.667 171.989 148.299 171.989 125.782C171.989 120.408 170.969 115.102 168.859 110.136L168.588 109.456L169.268 109.183C171.649 108.299 173.825 106.803 175.526 104.898L176.207 104.082ZM163.825 105.034C169.574 105.034 174.234 100.374 174.234 94.6259C174.234 88.8776 169.574 84.2177 163.825 84.2177C158.077 84.2177 153.417 88.8776 153.417 94.6259C153.417 100.374 158.077 105.034 163.825 105.034ZM131.104 102.993C118.519 102.993 108.315 113.197 108.315 125.783C108.315 138.368 118.519 148.572 131.104 148.572C143.689 148.572 153.893 138.368 153.893 125.783C153.893 113.197 143.689 102.993 131.104 102.993Z" fill="#3880FF"/>
<defs>
<filter id="filter0_d_33_2414" x="0.828491" y="0.187988" width="260" height="260" filterUnits="userSpaceOnUse" color-interpolation-filters="sRGB">
<feFlood flood-opacity="0" result="BackgroundImageFix"/>
<feColorMatrix in="SourceAlpha" type="matrix" values="0 0 0 0 0 0 0 0 0 0 0 0 0 0 0 0 0 0 127 0" result="hardAlpha"/>
<feOffset dy="4"/>
<feGaussianBlur stdDeviation="20"/>
<feComposite in2="hardAlpha" operator="out"/>
<feColorMatrix type="matrix" values="0 0 0 0 0.0367917 0 0 0 0 0.0348958 0 0 0 0 0.0484375 0 0 0 0.1 0"/>
<feBlend mode="normal" in2="BackgroundImageFix" result="effect1_dropShadow_33_2414"/>
<feBlend mode="normal" in="SourceGraphic" in2="effect1_dropShadow_33_2414" result="shape"/>
</filter>
</defs>
</svg>
