<svg width="261" height="261" viewBox="0 0 261 261" fill="none" xmlns="http://www.w3.org/2000/svg">
<g filter="url(#filter0_d_25_414)">
<path d="M40.9329 100.594C40.9329 70.4241 40.9329 55.3392 50.3054 45.9666C59.678 36.594 74.763 36.594 104.933 36.594H156.933C187.103 36.594 202.188 36.594 211.56 45.9666C220.933 55.3392 220.933 70.4241 220.933 100.594V152.594C220.933 182.764 220.933 197.849 211.56 207.221C202.188 216.594 187.103 216.594 156.933 216.594H104.933C74.763 216.594 59.678 216.594 50.3054 207.221C40.9329 197.849 40.9329 182.764 40.9329 152.594V100.594Z" fill="white"/>
<path d="M50.3054 207.221L49.5983 207.929L50.3054 207.221ZM211.56 207.221L210.853 206.514L211.56 207.221ZM211.56 45.9666L212.267 45.2595L211.56 45.9666ZM104.933 37.594H156.933V35.594H104.933V37.594ZM219.933 100.594V152.594H221.933V100.594H219.933ZM156.933 215.594H104.933V217.594H156.933V215.594ZM41.9329 152.594V100.594H39.9329V152.594H41.9329ZM104.933 215.594C89.8196 215.594 78.5853 215.592 69.9534 214.431C61.3503 213.275 55.4821 210.984 51.0126 206.514L49.5983 207.929C54.5014 212.832 60.862 215.227 69.6869 216.413C78.4831 217.596 89.8762 217.594 104.933 217.594V215.594ZM39.9329 152.594C39.9329 167.651 39.9307 179.044 41.1134 187.84C42.2998 196.665 44.6953 203.025 49.5983 207.929L51.0126 206.514C46.543 202.045 44.2522 196.177 43.0955 187.573C41.935 178.942 41.9329 167.707 41.9329 152.594H39.9329ZM219.933 152.594C219.933 167.707 219.931 178.942 218.77 187.573C217.614 196.177 215.323 202.045 210.853 206.514L212.267 207.929C217.17 203.025 219.566 196.665 220.752 187.84C221.935 179.044 221.933 167.651 221.933 152.594H219.933ZM156.933 217.594C171.99 217.594 183.383 217.596 192.179 216.413C201.004 215.227 207.364 212.832 212.267 207.929L210.853 206.514C206.384 210.984 200.515 213.275 191.912 214.431C183.28 215.592 172.046 215.594 156.933 215.594V217.594ZM156.933 37.594C172.046 37.594 183.28 37.5961 191.912 38.7566C200.515 39.9133 206.384 42.2042 210.853 46.6737L212.267 45.2595C207.364 40.3564 201.004 37.961 192.179 36.7745C183.383 35.5919 171.99 35.594 156.933 35.594V37.594ZM221.933 100.594C221.933 85.5373 221.935 74.1442 220.752 65.348C219.566 56.5231 217.17 50.1625 212.267 45.2595L210.853 46.6737C215.323 51.1432 217.614 57.0114 218.77 65.6145C219.931 74.2465 219.933 85.4808 219.933 100.594H221.933ZM104.933 35.594C89.8762 35.594 78.4831 35.5919 69.6869 36.7745C60.862 37.961 54.5014 40.3564 49.5983 45.2595L51.0126 46.6737C55.4821 42.2042 61.3503 39.9133 69.9534 38.7566C78.5853 37.5961 89.8196 37.594 104.933 37.594V35.594ZM41.9329 100.594C41.9329 85.4808 41.935 74.2465 43.0955 65.6145C44.2522 57.0114 46.543 51.1432 51.0126 46.6737L49.5983 45.2595C44.6953 50.1625 42.2998 56.5231 41.1134 65.348C39.9307 74.1442 39.9329 85.5373 39.9329 100.594H41.9329Z" fill="#D9D9D9"/>
</g>
<path d="M178.619 99.004C178.654 99.1365 178.673 99.2732 178.673 99.4104V120.745C178.673 121.018 178.601 121.287 178.463 121.524C178.326 121.761 178.129 121.958 177.891 122.094L159.985 132.403V152.837C159.985 153.393 159.69 153.907 159.207 154.187L121.83 175.703C121.744 175.752 121.651 175.783 121.558 175.816C121.523 175.828 121.49 175.849 121.453 175.859C121.191 175.928 120.917 175.928 120.656 175.859C120.613 175.847 120.574 175.824 120.533 175.808C120.447 175.777 120.358 175.75 120.276 175.703L82.9067 154.187C82.6693 154.05 82.472 153.854 82.3348 153.617C82.1975 153.38 82.1252 153.111 82.125 152.837V88.8347C82.125 88.6947 82.1444 88.5586 82.1794 88.4264C82.1911 88.3817 82.2183 88.3408 82.2339 88.2961C82.2631 88.2145 82.2903 88.1308 82.3331 88.055C82.3622 88.0045 82.405 87.9636 82.44 87.917C82.4847 87.8547 82.5255 87.7906 82.578 87.7361C82.6228 87.6914 82.6811 87.6584 82.7317 87.6195C82.788 87.5728 82.8386 87.5222 82.9028 87.4853H82.9047L101.591 76.7268C101.827 76.5907 102.095 76.519 102.368 76.519C102.641 76.519 102.909 76.5907 103.146 76.7268L121.832 87.4853H121.836C121.898 87.5242 121.95 87.5728 122.007 87.6175C122.057 87.6564 122.114 87.6914 122.159 87.7342C122.213 87.7906 122.252 87.8547 122.299 87.917C122.332 87.9636 122.376 88.0045 122.404 88.055C122.448 88.1328 122.474 88.2145 122.505 88.2961C122.52 88.3408 122.547 88.3817 122.559 88.4283C122.595 88.5609 122.613 88.6975 122.614 88.8347V128.81L138.184 119.844V99.4085C138.184 99.2724 138.204 99.1343 138.239 99.004C138.252 98.9574 138.278 98.9165 138.293 98.8718C138.324 98.7901 138.352 98.7065 138.394 98.6307C138.424 98.5801 138.466 98.5393 138.499 98.4926C138.546 98.4304 138.585 98.3663 138.639 98.3118C138.684 98.2671 138.741 98.234 138.791 98.1951C138.849 98.1485 138.9 98.0979 138.962 98.061H138.964L157.652 87.3025C157.888 87.1662 158.157 87.0944 158.43 87.0944C158.703 87.0944 158.971 87.1662 159.207 87.3025L177.893 98.061C177.959 98.0999 178.01 98.1485 178.068 98.1932C178.117 98.2321 178.173 98.2671 178.218 98.3099C178.272 98.3663 178.311 98.4304 178.358 98.4926C178.393 98.5393 178.436 98.5801 178.463 98.6307C178.508 98.7065 178.533 98.7901 178.564 98.8718C178.582 98.9165 178.607 98.9574 178.619 99.004ZM175.558 119.844V102.103L169.019 105.868L159.985 111.069V128.81L175.56 119.844H175.558ZM156.872 151.937V134.184L147.986 139.259L122.612 153.741V171.661L156.872 151.937ZM85.24 91.5277V151.937L119.497 171.659V153.743L101.6 143.615L101.594 143.611L101.587 143.607C101.526 143.572 101.476 143.521 101.419 143.479C101.371 143.44 101.314 143.409 101.272 143.366L101.268 143.36C101.217 143.311 101.182 143.251 101.139 143.197C101.101 143.144 101.054 143.1 101.023 143.045L101.021 143.039C100.986 142.981 100.964 142.911 100.939 142.845C100.914 142.786 100.881 142.732 100.865 142.67V142.668C100.846 142.594 100.842 142.516 100.834 142.44C100.826 142.382 100.811 142.324 100.811 142.265V100.493L91.779 95.2902L85.24 91.5297V91.5277ZM102.37 79.8729L86.8013 88.8347L102.366 97.7965L117.933 88.8328L102.366 79.8729H102.37ZM110.467 135.802L119.499 130.603V91.5277L112.96 95.2921L103.926 100.493V139.568L110.467 135.802ZM158.43 90.4486L142.863 99.4104L158.43 108.372L173.995 99.4085L158.43 90.4486ZM156.872 111.069L147.838 105.868L141.299 102.103V119.844L150.331 125.044L156.872 128.81V111.069ZM121.052 151.048L143.885 138.013L155.299 131.499L139.744 122.543L121.834 132.854L105.51 142.252L121.052 151.048Z" fill="#FF2D20"/>
<defs>
<filter id="filter0_d_25_414" x="0.932861" y="0.593994" width="260" height="260" filterUnits="userSpaceOnUse" color-interpolation-filters="sRGB">
<feFlood flood-opacity="0" result="BackgroundImageFix"/>
<feColorMatrix in="SourceAlpha" type="matrix" values="0 0 0 0 0 0 0 0 0 0 0 0 0 0 0 0 0 0 127 0" result="hardAlpha"/>
<feOffset dy="4"/>
<feGaussianBlur stdDeviation="20"/>
<feComposite in2="hardAlpha" operator="out"/>
<feColorMatrix type="matrix" values="0 0 0 0 0.0367917 0 0 0 0 0.0348958 0 0 0 0 0.0484375 0 0 0 0.1 0"/>
<feBlend mode="normal" in2="BackgroundImageFix" result="effect1_dropShadow_25_414"/>
<feBlend mode="normal" in="SourceGraphic" in2="effect1_dropShadow_25_414" result="shape"/>
</filter>
</defs>
</svg>
