<svg width="261" height="260" viewBox="0 0 261 260" fill="none" xmlns="http://www.w3.org/2000/svg">
<g filter="url(#filter0_d_25_418)">
<path d="M40.9329 100C40.9329 69.8301 40.9329 54.7452 50.3054 45.3726C59.678 36 74.763 36 104.933 36H156.933C187.103 36 202.188 36 211.56 45.3726C220.933 54.7452 220.933 69.8301 220.933 100V152C220.933 182.17 220.933 197.255 211.56 206.627C202.188 216 187.103 216 156.933 216H104.933C74.763 216 59.678 216 50.3054 206.627C40.9329 197.255 40.9329 182.17 40.9329 152V100Z" fill="white"/>
<path d="M50.3054 206.627L49.5983 207.335L50.3054 206.627ZM211.56 206.627L210.853 205.92L211.56 206.627ZM211.56 45.3726L212.267 44.6655L211.56 45.3726ZM104.933 37H156.933V35H104.933V37ZM219.933 100V152H221.933V100H219.933ZM156.933 215H104.933V217H156.933V215ZM41.9329 152V100H39.9329V152H41.9329ZM104.933 215C89.8196 215 78.5853 214.998 69.9534 213.837C61.3503 212.681 55.4821 210.39 51.0126 205.92L49.5983 207.335C54.5014 212.238 60.862 214.633 69.6869 215.82C78.4831 217.002 89.8762 217 104.933 217V215ZM39.9329 152C39.9329 167.057 39.9307 178.45 41.1134 187.246C42.2998 196.071 44.6953 202.431 49.5983 207.335L51.0126 205.92C46.543 201.451 44.2522 195.583 43.0955 186.979C41.935 178.348 41.9329 167.113 41.9329 152H39.9329ZM219.933 152C219.933 167.113 219.931 178.348 218.77 186.979C217.614 195.583 215.323 201.451 210.853 205.92L212.267 207.335C217.17 202.431 219.566 196.071 220.752 187.246C221.935 178.45 221.933 167.057 221.933 152H219.933ZM156.933 217C171.99 217 183.383 217.002 192.179 215.82C201.004 214.633 207.364 212.238 212.267 207.335L210.853 205.92C206.384 210.39 200.515 212.681 191.912 213.837C183.28 214.998 172.046 215 156.933 215V217ZM156.933 37C172.046 37 183.28 37.0021 191.912 38.1627C200.515 39.3193 206.384 41.6102 210.853 46.0797L212.267 44.6655C207.364 39.7624 201.004 37.367 192.179 36.1805C183.383 34.9979 171.99 35 156.933 35V37ZM221.933 100C221.933 84.9433 221.935 73.5502 220.752 64.7541C219.566 55.9291 217.17 49.5685 212.267 44.6655L210.853 46.0797C215.323 50.5492 217.614 56.4174 218.77 65.0205C219.931 73.6525 219.933 84.8868 219.933 100H221.933ZM104.933 35C89.8762 35 78.4831 34.9979 69.6869 36.1805C60.862 37.367 54.5014 39.7624 49.5983 44.6655L51.0126 46.0797C55.4821 41.6102 61.3503 39.3193 69.9534 38.1627C78.5853 37.0021 89.8196 37 104.933 37V35ZM41.9329 100C41.9329 84.8868 41.935 73.6525 43.0955 65.0205C44.2522 56.4174 46.543 50.5492 51.0126 46.0797L49.5983 44.6655C44.6953 49.5685 42.2998 55.9291 41.1134 64.7541C39.9307 73.5502 39.9329 84.9433 39.9329 100H41.9329Z" fill="#D9D9D9"/>
</g>
<path d="M168.237 129.819C168.237 130.669 168.646 131.343 169.792 131.343C171.141 131.343 172.577 130.375 172.663 128.178C172.034 128.077 171.399 128.02 170.762 128.005C169.409 128.004 168.237 128.384 168.237 129.819Z" fill="black"/>
<path d="M81.2089 109.559V141.629H181.209V109.559H81.2089ZM109.518 133.746H103.986V126.303C103.986 124.018 103.224 123.138 101.731 123.138C99.9142 123.138 99.1814 124.428 99.1814 126.274V130.878H100.931V133.749H95.3995V126.303C95.3995 124.018 94.639 123.138 93.1439 123.138C91.3273 123.138 90.5944 124.428 90.5944 126.274V130.878H93.1076V133.749H85.0495V130.878H86.8073V123.403H84.906V120.532H90.5875V122.523C91.3791 121.118 92.7567 120.267 94.601 120.267C96.5023 120.267 98.2636 121.176 98.9083 123.11C99.6411 121.353 101.135 120.267 103.216 120.267C105.589 120.267 107.758 121.703 107.758 124.839V130.878H109.516L109.518 133.746ZM117.927 134.038C113.854 134.038 111.04 131.547 111.04 127.328C111.04 123.46 113.384 120.265 118.127 120.265C122.87 120.265 125.189 123.46 125.189 127.152C125.193 131.372 122.146 134.039 117.927 134.039V134.038ZM138.965 133.746H127.419L127.039 131.753L134.298 123.401H130.167L129.582 125.453L126.856 125.16L127.324 120.53H138.939L139.231 122.523L131.903 130.878H136.174L136.789 128.826L139.778 129.119L138.965 133.746ZM146.114 133.746H142.158V128.999H146.114V133.746ZM146.114 125.276H142.158V120.532H146.114V125.276ZM148.188 133.746L153.908 113.594H157.629L151.915 133.746H148.188ZM155.866 133.746L161.582 113.594H165.304L159.593 133.746H155.866ZM175.557 134.038C173.799 134.038 172.833 133.011 172.656 131.4C171.894 132.748 170.546 134.038 168.408 134.038C166.507 134.038 164.336 133.011 164.336 130.258C164.336 127.005 167.471 126.244 170.489 126.244C171.214 126.238 171.938 126.277 172.658 126.362V125.923C172.658 124.574 172.629 122.964 170.489 122.964C169.697 122.964 169.082 123.022 168.467 123.344L167.977 125.219L164.96 124.896L165.546 121.468C167.86 120.53 169.032 120.258 171.201 120.258C174.044 120.258 176.447 121.724 176.447 124.742V130.486C176.447 131.248 176.739 131.512 177.356 131.512C177.545 131.51 177.732 131.48 177.913 131.424L177.942 133.417C177.211 133.815 176.394 134.029 175.562 134.039L175.557 134.038Z" fill="black"/>
<path d="M118.072 123.167C116.138 123.167 114.936 124.602 114.936 127.095C114.936 129.38 115.991 131.137 118.048 131.137C120.011 131.137 121.3 129.556 121.3 127.036C121.295 124.369 119.861 123.167 118.072 123.167Z" fill="black"/>
<defs>
<filter id="filter0_d_25_418" x="0.932861" y="0" width="260" height="260" filterUnits="userSpaceOnUse" color-interpolation-filters="sRGB">
<feFlood flood-opacity="0" result="BackgroundImageFix"/>
<feColorMatrix in="SourceAlpha" type="matrix" values="0 0 0 0 0 0 0 0 0 0 0 0 0 0 0 0 0 0 127 0" result="hardAlpha"/>
<feOffset dy="4"/>
<feGaussianBlur stdDeviation="20"/>
<feComposite in2="hardAlpha" operator="out"/>
<feColorMatrix type="matrix" values="0 0 0 0 0.0367917 0 0 0 0 0.0348958 0 0 0 0 0.0484375 0 0 0 0.1 0"/>
<feBlend mode="normal" in2="BackgroundImageFix" result="effect1_dropShadow_25_418"/>
<feBlend mode="normal" in="SourceGraphic" in2="effect1_dropShadow_25_418" result="shape"/>
</filter>
</defs>
</svg>
