<svg width="261" height="260" viewBox="0 0 261 260" fill="none" xmlns="http://www.w3.org/2000/svg">
<g filter="url(#filter0_d_20_1674)">
<path d="M40.724 100C40.724 69.8301 40.724 54.7452 50.0966 45.3726C59.4692 36 74.5541 36 104.724 36H156.724C186.894 36 201.979 36 211.351 45.3726C220.724 54.7452 220.724 69.8301 220.724 100V152C220.724 182.17 220.724 197.255 211.351 206.627C201.979 216 186.894 216 156.724 216H104.724C74.5541 216 59.4692 216 50.0966 206.627C40.724 197.255 40.724 182.17 40.724 152V100Z" fill="white"/>
<path d="M50.0966 206.627L49.3895 207.335L50.0966 206.627ZM211.351 206.627L210.644 205.92L211.351 206.627ZM211.351 45.3726L212.059 44.6655L211.351 45.3726ZM104.724 37H156.724V35H104.724V37ZM219.724 100V152H221.724V100H219.724ZM156.724 215H104.724V217H156.724V215ZM41.724 152V100H39.724V152H41.724ZM104.724 215C89.6108 215 78.3765 214.998 69.7445 213.837C61.1414 212.681 55.2732 210.39 50.8037 205.92L49.3895 207.335C54.2925 212.238 60.6531 214.633 69.4781 215.82C78.2742 217.002 89.6673 217 104.724 217V215ZM39.724 152C39.724 167.057 39.7219 178.45 40.9045 187.246C42.091 196.071 44.4864 202.431 49.3895 207.335L50.8037 205.92C46.3342 201.451 44.0433 195.583 42.8867 186.979C41.7261 178.348 41.724 167.113 41.724 152H39.724ZM219.724 152C219.724 167.113 219.722 178.348 218.561 186.979C217.405 195.583 215.114 201.451 210.644 205.92L212.059 207.335C216.962 202.431 219.357 196.071 220.544 187.246C221.726 178.45 221.724 167.057 221.724 152H219.724ZM156.724 217C171.781 217 183.174 217.002 191.97 215.82C200.795 214.633 207.155 212.238 212.059 207.335L210.644 205.92C206.175 210.39 200.307 212.681 191.703 213.837C183.072 214.998 171.837 215 156.724 215V217ZM156.724 37C171.837 37 183.072 37.0021 191.703 38.1627C200.307 39.3193 206.175 41.6102 210.644 46.0797L212.059 44.6655C207.155 39.7624 200.795 37.367 191.97 36.1805C183.174 34.9979 171.781 35 156.724 35V37ZM221.724 100C221.724 84.9433 221.726 73.5502 220.544 64.7541C219.357 55.9291 216.962 49.5685 212.059 44.6655L210.644 46.0797C215.114 50.5492 217.405 56.4174 218.561 65.0205C219.722 73.6525 219.724 84.8868 219.724 100H221.724ZM104.724 35C89.6673 35 78.2742 34.9979 69.4781 36.1805C60.6531 37.367 54.2925 39.7624 49.3895 44.6655L50.8037 46.0797C55.2732 41.6102 61.1414 39.3193 69.7445 38.1627C78.3765 37.0021 89.6108 37 104.724 37V35ZM41.724 100C41.724 84.8868 41.7261 73.6525 42.8867 65.0205C44.0433 56.4174 46.3342 50.5492 50.8037 46.0797L49.3895 44.6655C44.4864 49.5685 42.091 55.9291 40.9045 64.7541C39.7219 73.5502 39.724 84.9433 39.724 100H41.724Z" fill="#D9D9D9"/>
</g>
<path d="M140.354 140.717L115.829 135.592C115.727 135.791 115.612 135.983 115.487 136.169L137.814 168.738L139.161 167.392L142.959 143.772C142.317 143.5 141.747 143.083 141.295 142.553C140.843 142.022 140.521 141.394 140.354 140.717V140.717ZM131.408 108.658C130.489 110.067 128.903 111 127.097 111C126.819 111 126.548 110.972 126.283 110.93L115.098 128.43L144.98 115.57C144.97 115.45 144.944 115.338 144.944 115.214C144.944 114.963 144.978 114.719 145.019 114.478L131.408 108.658V108.658ZM132.22 105.469L146.698 111.659C147.16 111.299 147.688 111.032 148.252 110.875L150.631 96.0782L141.565 87.0123L131.361 102.98C131.861 103.72 132.157 104.578 132.22 105.469V105.469ZM162.558 108.005L153.472 98.9172L151.497 111.186C151.998 111.438 152.447 111.78 152.823 112.195L162.558 108.005ZM140.789 137.486C141.144 136.84 141.655 136.294 142.275 135.895C142.895 135.496 143.604 135.259 144.339 135.203L146.948 118.974C146.744 118.838 146.561 118.675 146.381 118.508L116.328 131.442C116.404 131.756 116.458 132.076 116.483 132.409L140.789 137.486ZM165.033 110.481L154.52 115.004L180.458 126.094L180.551 126L165.033 110.481ZM146.247 143.82L143.088 163.462L161.433 145.117L148.219 142.358C147.712 143.021 147.029 143.528 146.247 143.82ZM110.589 138.771C109.925 138.771 109.289 138.656 108.694 138.454L102.6 147.991L100.245 145.638L106.017 136.606C105.874 136.429 105.741 136.245 105.619 136.053L95.1626 140.555L92.6841 138.076L104.129 133.15L83.4378 128.831L80.6077 126L81.503 125.105L105.364 130.086C105.638 129.565 105.99 129.089 106.406 128.673L94.8251 111.781L97.1641 109.442L109.264 127.092C109.698 126.991 110.142 126.939 110.589 126.937C111.099 126.937 111.595 127.009 112.068 127.131L123.39 109.415C122.468 108.459 121.954 107.183 121.954 105.855C121.954 105.448 122.006 105.055 122.095 104.677L107.97 98.6375L110.448 96.1595L123.83 101.883C124.509 101.323 125.32 100.948 126.186 100.793C127.051 100.638 127.942 100.708 128.773 100.997L139.212 84.6592L130.553 76L80.553 126L130.553 176L135.473 171.08L112.979 138.264C112.227 138.598 111.412 138.77 110.589 138.771ZM150.131 119.673L147.477 136.172C147.941 136.545 148.325 137.007 148.606 137.531C148.888 138.055 149.061 138.631 149.116 139.224L164.183 142.369L177.979 128.572L153.077 117.925C152.364 118.874 151.305 119.502 150.131 119.674V119.673Z" fill="#25C7B7"/>
<defs>
<filter id="filter0_d_20_1674" x="0.723999" y="0" width="260" height="260" filterUnits="userSpaceOnUse" color-interpolation-filters="sRGB">
<feFlood flood-opacity="0" result="BackgroundImageFix"/>
<feColorMatrix in="SourceAlpha" type="matrix" values="0 0 0 0 0 0 0 0 0 0 0 0 0 0 0 0 0 0 127 0" result="hardAlpha"/>
<feOffset dy="4"/>
<feGaussianBlur stdDeviation="20"/>
<feComposite in2="hardAlpha" operator="out"/>
<feColorMatrix type="matrix" values="0 0 0 0 0.0367917 0 0 0 0 0.0348958 0 0 0 0 0.0484375 0 0 0 0.1 0"/>
<feBlend mode="normal" in2="BackgroundImageFix" result="effect1_dropShadow_20_1674"/>
<feBlend mode="normal" in="SourceGraphic" in2="effect1_dropShadow_20_1674" result="shape"/>
</filter>
</defs>
</svg>
