<svg width="261" height="261" viewBox="0 0 261 261" fill="none" xmlns="http://www.w3.org/2000/svg">
<g filter="url(#filter0_d_22_673)">
<path d="M40.724 100.891C40.724 70.721 40.724 55.636 50.0966 46.2635C59.4692 36.8909 74.5541 36.8909 104.724 36.8909H156.724C186.894 36.8909 201.979 36.8909 211.351 46.2635C220.724 55.636 220.724 70.721 220.724 100.891V152.891C220.724 183.061 220.724 198.146 211.351 207.518C201.979 216.891 186.894 216.891 156.724 216.891H104.724C74.5541 216.891 59.4692 216.891 50.0966 207.518C40.724 198.146 40.724 183.061 40.724 152.891V100.891Z" fill="white"/>
<path d="M50.0966 207.518L49.3895 208.225L50.0966 207.518ZM211.351 207.518L210.644 206.811L211.351 207.518ZM211.351 46.2635L212.059 45.5563L211.351 46.2635ZM104.724 37.8909H156.724V35.8909H104.724V37.8909ZM219.724 100.891V152.891H221.724V100.891H219.724ZM156.724 215.891H104.724V217.891H156.724V215.891ZM41.724 152.891V100.891H39.724V152.891H41.724ZM104.724 215.891C89.6108 215.891 78.3765 215.889 69.7445 214.728C61.1414 213.572 55.2732 211.281 50.8037 206.811L49.3895 208.225C54.2925 213.128 60.6531 215.524 69.4781 216.71C78.2742 217.893 89.6673 217.891 104.724 217.891V215.891ZM39.724 152.891C39.724 167.948 39.7219 179.341 40.9045 188.137C42.091 196.962 44.4864 203.322 49.3895 208.225L50.8037 206.811C46.3342 202.342 44.0433 196.473 42.8867 187.87C41.7261 179.238 41.724 168.004 41.724 152.891H39.724ZM219.724 152.891C219.724 168.004 219.722 179.238 218.561 187.87C217.405 196.473 215.114 202.342 210.644 206.811L212.059 208.225C216.962 203.322 219.357 196.962 220.544 188.137C221.726 179.341 221.724 167.948 221.724 152.891H219.724ZM156.724 217.891C171.781 217.891 183.174 217.893 191.97 216.71C200.795 215.524 207.155 213.128 212.059 208.225L210.644 206.811C206.175 211.281 200.307 213.572 191.703 214.728C183.072 215.889 171.837 215.891 156.724 215.891V217.891ZM156.724 37.8909C171.837 37.8909 183.072 37.893 191.703 39.0535C200.307 40.2102 206.175 42.501 210.644 46.9706L212.059 45.5563C207.155 40.6533 200.795 38.2578 191.97 37.0714C183.174 35.8887 171.781 35.8909 156.724 35.8909V37.8909ZM221.724 100.891C221.724 85.8342 221.726 74.4411 220.544 65.6449C219.357 56.82 216.962 50.4594 212.059 45.5563L210.644 46.9706C215.114 51.4401 217.405 57.3083 218.561 65.9114C219.722 74.5433 219.724 85.7777 219.724 100.891H221.724ZM104.724 35.8909C89.6673 35.8909 78.2742 35.8887 69.4781 37.0714C60.6531 38.2578 54.2925 40.6533 49.3895 45.5563L50.8037 46.9706C55.2732 42.501 61.1414 40.2102 69.7445 39.0535C78.3765 37.893 89.6108 37.8909 104.724 37.8909V35.8909ZM41.724 100.891C41.724 85.7777 41.7261 74.5433 42.8867 65.9114C44.0433 57.3083 46.3342 51.4401 50.8037 46.9706L49.3895 45.5563C44.4864 50.4594 42.091 56.82 40.9045 65.6449C39.7219 74.4411 39.724 85.8342 39.724 100.891H41.724Z" fill="#D9D9D9"/>
</g>
<path d="M111.056 160.279C110.981 160.151 110.915 160.019 110.857 159.883C110.458 158.98 110.335 157.984 110.504 157.014H86.8635L121.996 96.6445L133.531 116.443L136.874 110.665L126.82 93.3705C126.338 92.4847 125.636 91.731 124.779 91.1783C123.922 90.6255 122.937 90.2913 121.914 90.2063C120.892 90.2516 119.904 90.5759 119.062 91.1423C118.22 91.7087 117.558 92.4945 117.151 93.4102L81.5588 154.512C81.0268 155.375 80.72 156.352 80.6655 157.358C80.611 158.363 80.8105 159.367 81.2463 160.279C81.7936 161.122 82.5716 161.799 83.4923 162.232C84.4129 162.666 85.4394 162.839 86.4557 162.733H116.267C115.25 162.841 114.223 162.668 113.302 162.234C112.381 161.801 111.603 161.123 111.057 160.279H111.056Z" fill="#00C492"/>
<path d="M179.593 154.511L150.345 104.206C149.865 103.311 149.162 102.548 148.301 101.988C147.439 101.428 146.448 101.089 145.417 101.002C144.397 101.045 143.409 101.367 142.568 101.932C141.726 102.497 141.064 103.281 140.657 104.195L136.874 110.664L140.24 116.443L145.448 107.44L174.384 157.013H163.381C163.521 157.832 163.442 158.673 163.151 159.454C163.09 159.627 163.013 159.794 162.921 159.953L162.828 160.136C162.23 160.96 161.433 161.628 160.508 162.081C159.583 162.533 158.559 162.756 157.524 162.73H174.737C175.771 162.757 176.796 162.534 177.721 162.082C178.646 161.629 179.443 160.961 180.04 160.136C180.511 159.251 180.719 158.255 180.64 157.261C180.561 156.267 180.199 155.314 179.593 154.511Z" fill="#008776"/>
<path d="M162.829 160.138L162.923 159.954C163.014 159.795 163.09 159.628 163.151 159.456C163.442 158.675 163.521 157.834 163.381 157.015C163.218 156.131 162.893 155.283 162.421 154.512L140.262 116.443L136.876 110.665L133.51 116.443L111.359 154.512C110.929 155.292 110.64 156.139 110.504 157.015C110.326 157.982 110.438 158.978 110.828 159.884C110.885 160.02 110.952 160.153 111.026 160.281C111.574 161.123 112.352 161.8 113.272 162.233C114.193 162.666 115.219 162.839 116.235 162.733H157.493C158.532 162.763 159.563 162.542 160.494 162.089C161.424 161.637 162.226 160.967 162.828 160.139L162.829 160.138ZM136.874 122.222L157.129 157.013H116.629L136.874 122.222Z" fill="#2D4A5D"/>
<defs>
<filter id="filter0_d_22_673" x="0.723999" y="0.890869" width="260" height="260" filterUnits="userSpaceOnUse" color-interpolation-filters="sRGB">
<feFlood flood-opacity="0" result="BackgroundImageFix"/>
<feColorMatrix in="SourceAlpha" type="matrix" values="0 0 0 0 0 0 0 0 0 0 0 0 0 0 0 0 0 0 127 0" result="hardAlpha"/>
<feOffset dy="4"/>
<feGaussianBlur stdDeviation="20"/>
<feComposite in2="hardAlpha" operator="out"/>
<feColorMatrix type="matrix" values="0 0 0 0 0.0367917 0 0 0 0 0.0348958 0 0 0 0 0.0484375 0 0 0 0.1 0"/>
<feBlend mode="normal" in2="BackgroundImageFix" result="effect1_dropShadow_22_673"/>
<feBlend mode="normal" in="SourceGraphic" in2="effect1_dropShadow_22_673" result="shape"/>
</filter>
</defs>
</svg>
