<svg width="261" height="261" viewBox="0 0 261 261" fill="none" xmlns="http://www.w3.org/2000/svg">
<g filter="url(#filter0_d_22_671)">
<path d="M40.724 100.297C40.724 70.127 40.724 55.042 50.0966 45.6695C59.4692 36.2969 74.5541 36.2969 104.724 36.2969H156.724C186.894 36.2969 201.979 36.2969 211.351 45.6695C220.724 55.042 220.724 70.127 220.724 100.297V152.297C220.724 182.467 220.724 197.552 211.351 206.924C201.979 216.297 186.894 216.297 156.724 216.297H104.724C74.5541 216.297 59.4692 216.297 50.0966 206.924C40.724 197.552 40.724 182.467 40.724 152.297V100.297Z" fill="white"/>
<path d="M50.0966 206.924L49.3895 207.631L50.0966 206.924ZM211.351 206.924L210.644 206.217L211.351 206.924ZM211.351 45.6695L212.059 44.9624L211.351 45.6695ZM104.724 37.2969H156.724V35.2969H104.724V37.2969ZM219.724 100.297V152.297H221.724V100.297H219.724ZM156.724 215.297H104.724V217.297H156.724V215.297ZM41.724 152.297V100.297H39.724V152.297H41.724ZM104.724 215.297C89.6108 215.297 78.3765 215.295 69.7445 214.134C61.1414 212.978 55.2732 210.687 50.8037 206.217L49.3895 207.631C54.2925 212.534 60.6531 214.93 69.4781 216.116C78.2742 217.299 89.6673 217.297 104.724 217.297V215.297ZM39.724 152.297C39.724 167.354 39.7219 178.747 40.9045 187.543C42.091 196.368 44.4864 202.728 49.3895 207.631L50.8037 206.217C46.3342 201.748 44.0433 195.879 42.8867 187.276C41.7261 178.644 41.724 167.41 41.724 152.297H39.724ZM219.724 152.297C219.724 167.41 219.722 178.644 218.561 187.276C217.405 195.879 215.114 201.748 210.644 206.217L212.059 207.631C216.962 202.728 219.357 196.368 220.544 187.543C221.726 178.747 221.724 167.354 221.724 152.297H219.724ZM156.724 217.297C171.781 217.297 183.174 217.299 191.97 216.116C200.795 214.93 207.155 212.534 212.059 207.631L210.644 206.217C206.175 210.687 200.307 212.978 191.703 214.134C183.072 215.295 171.837 215.297 156.724 215.297V217.297ZM156.724 37.2969C171.837 37.2969 183.072 37.299 191.703 38.4595C200.307 39.6162 206.175 41.907 210.644 46.3766L212.059 44.9624C207.155 40.0593 200.795 37.6638 191.97 36.4774C183.174 35.2948 171.781 35.2969 156.724 35.2969V37.2969ZM221.724 100.297C221.724 85.2402 221.726 73.8471 220.544 65.0509C219.357 56.226 216.962 49.8654 212.059 44.9624L210.644 46.3766C215.114 50.8461 217.405 56.7143 218.561 65.3174C219.722 73.9493 219.724 85.1837 219.724 100.297H221.724ZM104.724 35.2969C89.6673 35.2969 78.2742 35.2948 69.4781 36.4774C60.6531 37.6638 54.2925 40.0593 49.3895 44.9624L50.8037 46.3766C55.2732 41.907 61.1414 39.6162 69.7445 38.4595C78.3765 37.299 89.6108 37.2969 104.724 37.2969V35.2969ZM41.724 100.297C41.724 85.1837 41.7261 73.9493 42.8867 65.3174C44.0433 56.7143 46.3342 50.8461 50.8037 46.3766L49.3895 44.9624C44.4864 49.8654 42.091 56.226 40.9045 65.0509C39.7219 73.8471 39.724 85.2402 39.724 100.297H41.724Z" fill="#D9D9D9"/>
</g>
<path fill-rule="evenodd" clip-rule="evenodd" d="M131.104 151.23C158.719 151.23 181.104 139.885 181.104 125.891C181.104 111.897 158.719 100.552 131.104 100.552C103.491 100.552 81.1045 111.897 81.1045 125.891C81.1045 139.885 103.491 151.23 131.104 151.23Z" fill="#6E81B6"/>
<path fill-rule="evenodd" clip-rule="evenodd" d="M141.238 134.081L143.718 121.316C144.278 118.435 143.812 116.287 142.335 114.929C140.904 113.615 138.475 112.976 134.909 112.976H130.613L131.842 106.652C131.865 106.534 131.862 106.413 131.832 106.296C131.803 106.18 131.748 106.072 131.672 105.979C131.596 105.886 131.5 105.812 131.391 105.761C131.283 105.71 131.164 105.683 131.045 105.683H125.116C124.727 105.683 124.393 105.959 124.318 106.341L121.684 119.893C121.445 118.368 120.854 117.057 119.91 115.975C118.171 113.985 115.421 112.976 111.734 112.976H100.244C99.8551 112.976 99.5208 113.252 99.4464 113.634L94.1156 141.064C94.069 141.302 94.1313 141.548 94.2861 141.735C94.4402 141.923 94.67 142.032 94.9136 142.032H100.888C101.278 142.032 101.612 141.755 101.686 141.373L102.976 134.738H107.424C109.757 134.738 111.719 134.485 113.25 133.987C114.815 133.478 116.256 132.615 117.525 131.426C118.551 130.483 119.399 129.428 120.052 128.289L118.987 133.77C118.94 134.008 119.003 134.255 119.157 134.441C119.311 134.629 119.542 134.738 119.785 134.738H125.713C126.102 134.738 126.437 134.461 126.511 134.08L129.437 119.023H133.505C135.238 119.023 135.746 119.368 135.884 119.516C136.01 119.652 136.27 120.129 135.978 121.633L133.62 133.769C133.597 133.887 133.601 134.008 133.63 134.124C133.66 134.24 133.715 134.348 133.791 134.441C133.867 134.533 133.963 134.608 134.071 134.659C134.18 134.71 134.298 134.737 134.418 134.737H140.44C140.629 134.737 140.811 134.672 140.957 134.552C141.102 134.433 141.202 134.266 141.238 134.081ZM113.753 123.534C113.381 125.448 112.679 126.812 111.667 127.59C110.64 128.383 108.996 128.785 106.781 128.785H104.133L106.048 118.931H109.471C111.987 118.931 113 119.468 113.407 119.919C113.971 120.544 114.091 121.795 113.753 123.534ZM166.209 115.975C164.47 113.985 161.72 112.976 158.034 112.976H146.544C146.154 112.976 145.82 113.252 145.746 113.634L140.415 141.064C140.368 141.302 140.43 141.548 140.585 141.735C140.74 141.923 140.97 142.032 141.212 142.032H147.188C147.578 142.032 147.911 141.755 147.986 141.373L149.275 134.738H153.723C156.058 134.738 158.017 134.485 159.549 133.987C161.115 133.478 162.556 132.615 163.825 131.426C164.884 130.453 165.755 129.36 166.415 128.179C167.076 126.998 167.549 125.681 167.825 124.264C168.504 120.769 167.961 117.98 166.209 115.975ZM160.392 123.534C160.019 125.448 159.317 126.812 158.306 127.59C157.278 128.383 155.634 128.785 153.42 128.785H150.771L152.685 118.931H156.11C158.625 118.931 159.638 119.468 160.046 119.919C160.609 120.544 160.729 121.795 160.392 123.534Z" fill="white"/>
<path fill-rule="evenodd" clip-rule="evenodd" d="M109.301 118.118C111.571 118.118 113.084 118.537 113.841 119.375C114.597 120.212 114.777 121.651 114.381 123.69C113.968 125.812 113.172 127.328 111.993 128.236C110.814 129.144 109.02 129.597 106.611 129.597H102.976L105.207 118.118H109.301ZM94.743 141.218H100.718L102.136 133.926H107.254C109.512 133.926 111.37 133.689 112.828 133.214C114.286 132.739 115.612 131.944 116.805 130.828C117.807 129.908 118.617 128.892 119.237 127.782C119.857 126.672 120.297 125.448 120.557 124.109C121.19 120.857 120.713 118.324 119.128 116.51C117.543 114.696 115.021 113.789 111.565 113.789H100.074L94.743 141.218ZM124.946 106.496H130.874L129.457 113.789H134.739C138.06 113.789 140.354 114.368 141.615 115.527C142.876 116.686 143.254 118.565 142.75 121.162L140.27 133.926H134.247L136.605 121.789C136.873 120.408 136.775 119.467 136.309 118.965C135.843 118.463 134.85 118.211 133.334 118.211H128.596L125.543 133.926H119.614L124.946 106.496ZM155.94 118.118C158.21 118.118 159.722 118.537 160.479 119.375C161.235 120.212 161.415 121.651 161.019 123.69C160.607 125.812 159.811 127.328 158.632 128.236C157.453 129.144 155.658 129.597 153.251 129.597H149.616L151.846 118.118H155.94ZM141.38 141.218H147.356L148.773 133.926H153.891C156.15 133.926 158.008 133.689 159.466 133.214C160.924 132.739 162.25 131.944 163.443 130.828C164.444 129.908 165.255 128.892 165.874 127.782C166.494 126.672 166.935 125.448 167.196 124.109C167.828 120.857 167.351 118.324 165.766 116.51C164.18 114.696 161.659 113.789 158.202 113.789H146.712L141.38 141.218Z" fill="black"/>
<defs>
<filter id="filter0_d_22_671" x="0.723999" y="0.296875" width="260" height="260" filterUnits="userSpaceOnUse" color-interpolation-filters="sRGB">
<feFlood flood-opacity="0" result="BackgroundImageFix"/>
<feColorMatrix in="SourceAlpha" type="matrix" values="0 0 0 0 0 0 0 0 0 0 0 0 0 0 0 0 0 0 127 0" result="hardAlpha"/>
<feOffset dy="4"/>
<feGaussianBlur stdDeviation="20"/>
<feComposite in2="hardAlpha" operator="out"/>
<feColorMatrix type="matrix" values="0 0 0 0 0.0367917 0 0 0 0 0.0348958 0 0 0 0 0.0484375 0 0 0 0.1 0"/>
<feBlend mode="normal" in2="BackgroundImageFix" result="effect1_dropShadow_22_671"/>
<feBlend mode="normal" in="SourceGraphic" in2="effect1_dropShadow_22_671" result="shape"/>
</filter>
</defs>
</svg>
