<svg width="261" height="260" viewBox="0 0 261 260" fill="none" xmlns="http://www.w3.org/2000/svg">
<g filter="url(#filter0_d_20_1665)">
<path d="M40.724 100C40.724 69.8301 40.724 54.7452 50.0966 45.3726C59.4692 36 74.5541 36 104.724 36H156.724C186.894 36 201.979 36 211.351 45.3726C220.724 54.7452 220.724 69.8301 220.724 100V152C220.724 182.17 220.724 197.255 211.351 206.627C201.979 216 186.894 216 156.724 216H104.724C74.5541 216 59.4692 216 50.0966 206.627C40.724 197.255 40.724 182.17 40.724 152V100Z" fill="white"/>
<path d="M50.0966 206.627L49.3895 207.335L50.0966 206.627ZM211.351 206.627L210.644 205.92L211.351 206.627ZM211.351 45.3726L212.059 44.6655L211.351 45.3726ZM104.724 37H156.724V35H104.724V37ZM219.724 100V152H221.724V100H219.724ZM156.724 215H104.724V217H156.724V215ZM41.724 152V100H39.724V152H41.724ZM104.724 215C89.6108 215 78.3765 214.998 69.7445 213.837C61.1414 212.681 55.2732 210.39 50.8037 205.92L49.3895 207.335C54.2925 212.238 60.6531 214.633 69.4781 215.82C78.2742 217.002 89.6673 217 104.724 217V215ZM39.724 152C39.724 167.057 39.7219 178.45 40.9045 187.246C42.091 196.071 44.4864 202.431 49.3895 207.335L50.8037 205.92C46.3342 201.451 44.0433 195.583 42.8867 186.979C41.7261 178.348 41.724 167.113 41.724 152H39.724ZM219.724 152C219.724 167.113 219.722 178.348 218.561 186.979C217.405 195.583 215.114 201.451 210.644 205.92L212.059 207.335C216.962 202.431 219.357 196.071 220.544 187.246C221.726 178.45 221.724 167.057 221.724 152H219.724ZM156.724 217C171.781 217 183.174 217.002 191.97 215.82C200.795 214.633 207.155 212.238 212.059 207.335L210.644 205.92C206.175 210.39 200.307 212.681 191.703 213.837C183.072 214.998 171.837 215 156.724 215V217ZM156.724 37C171.837 37 183.072 37.0021 191.703 38.1627C200.307 39.3193 206.175 41.6102 210.644 46.0797L212.059 44.6655C207.155 39.7624 200.795 37.367 191.97 36.1805C183.174 34.9979 171.781 35 156.724 35V37ZM221.724 100C221.724 84.9433 221.726 73.5502 220.544 64.7541C219.357 55.9291 216.962 49.5685 212.059 44.6655L210.644 46.0797C215.114 50.5492 217.405 56.4174 218.561 65.0205C219.722 73.6525 219.724 84.8868 219.724 100H221.724ZM104.724 35C89.6673 35 78.2742 34.9979 69.4781 36.1805C60.6531 37.367 54.2925 39.7624 49.3895 44.6655L50.8037 46.0797C55.2732 41.6102 61.1414 39.3193 69.7445 38.1627C78.3765 37.0021 89.6108 37 104.724 37V35ZM41.724 100C41.724 84.8868 41.7261 73.6525 42.8867 65.0205C44.0433 56.4174 46.3342 50.5492 50.8037 46.0797L49.3895 44.6655C44.4864 49.5685 42.091 55.9291 40.9045 64.7541C39.7219 73.5502 39.724 84.9433 39.724 100H41.724Z" fill="#D9D9D9"/>
</g>
<path d="M80.2761 76.4277H180.276V174.761H80.2761V76.4277Z" fill="url(#paint0_linear_20_1665)"/>
<path d="M88.2291 84.2476H172.324V166.942H88.2291V84.2476Z" fill="url(#paint1_linear_20_1665)"/>
<path d="M104.442 104.142C104.442 104.142 110.765 103.976 115.969 103.976C121.229 103.976 124.979 105.213 127.496 107.388C129.903 109.442 131.525 112.945 131.525 116.932C131.525 120.92 130.294 124.182 128.055 126.476C125.146 129.437 121.755 131.189 115.969 131.431C114.371 131.498 112.892 131.514 112.892 131.514V144.476H104.442L104.442 104.142ZM112.891 124.333C113.809 124.423 114.385 124.38 115.745 124.363C120.278 124.309 123.075 121.553 123.075 117.384C123.075 113.64 120.769 110.565 116.417 110.406C114.683 110.342 112.891 110.406 112.891 110.406V124.333Z" fill="url(#paint2_linear_20_1665)"/>
<path d="M134.75 135.446C136.453 136.491 140.472 138.056 143.211 138.056C146.01 138.056 147.165 137.07 147.165 135.532C147.165 133.992 146.253 132.375 142.784 131.206C136.637 129.113 134.264 126.607 134.325 123.101C134.325 117.437 139.071 113.19 146.435 113.19C149.903 113.19 152.674 114.324 154.498 115.247V122.044C153.158 121.305 149.295 119.654 146.739 119.654C144.486 119.654 143.209 120.578 143.209 122.115C143.209 123.531 144.366 124.27 148.017 125.563C153.676 127.532 156.049 130.424 156.109 134.856C156.109 140.458 151.791 144.912 143.209 144.642C140.264 144.549 137.001 143.385 134.749 142.155L134.75 135.446Z" fill="url(#paint3_linear_20_1665)"/>
<defs>
<filter id="filter0_d_20_1665" x="0.723999" y="0" width="260" height="260" filterUnits="userSpaceOnUse" color-interpolation-filters="sRGB">
<feFlood flood-opacity="0" result="BackgroundImageFix"/>
<feColorMatrix in="SourceAlpha" type="matrix" values="0 0 0 0 0 0 0 0 0 0 0 0 0 0 0 0 0 0 127 0" result="hardAlpha"/>
<feOffset dy="4"/>
<feGaussianBlur stdDeviation="20"/>
<feComposite in2="hardAlpha" operator="out"/>
<feColorMatrix type="matrix" values="0 0 0 0 0.0367917 0 0 0 0 0.0348958 0 0 0 0 0.0484375 0 0 0 0.1 0"/>
<feBlend mode="normal" in2="BackgroundImageFix" result="effect1_dropShadow_20_1665"/>
<feBlend mode="normal" in="SourceGraphic" in2="effect1_dropShadow_20_1665" result="shape"/>
</filter>
<linearGradient id="paint0_linear_20_1665" x1="104.578" y1="71.2924" x2="142.911" y2="152.293" gradientUnits="userSpaceOnUse">
<stop stop-color="#A0CBFF"/>
<stop offset="0.394" stop-color="#A0CBFE"/>
<stop offset="0.583" stop-color="#8EC2FC"/>
<stop offset="0.784" stop-color="#83BCFB"/>
<stop offset="1" stop-color="#7FBAFB"/>
</linearGradient>
<linearGradient id="paint1_linear_20_1665" x1="118.184" y1="85.4129" x2="139.851" y2="157.414" gradientUnits="userSpaceOnUse">
<stop stop-color="#090058"/>
<stop offset="1" stop-color="#070033"/>
</linearGradient>
<linearGradient id="paint2_linear_20_1665" x1="92.6551" y1="75.6024" x2="130.988" y2="156.602" gradientUnits="userSpaceOnUse">
<stop stop-color="#A0CBFF"/>
<stop offset="0.394" stop-color="#A0CBFE"/>
<stop offset="0.583" stop-color="#8EC2FC"/>
<stop offset="0.784" stop-color="#83BCFB"/>
<stop offset="1" stop-color="#7FBAFB"/>
</linearGradient>
<linearGradient id="paint3_linear_20_1665" x1="114.49" y1="65.0261" x2="152.975" y2="146.346" gradientUnits="userSpaceOnUse">
<stop stop-color="#A0CBFF"/>
<stop offset="0.394" stop-color="#A0CBFE"/>
<stop offset="0.583" stop-color="#8EC2FC"/>
<stop offset="0.784" stop-color="#83BCFB"/>
<stop offset="1" stop-color="#7FBAFB"/>
</linearGradient>
</defs>
</svg>
