<svg width="261" height="261" viewBox="0 0 261 261" fill="none" xmlns="http://www.w3.org/2000/svg">
<g filter="url(#filter0_d_33_2297)">
<path d="M40.5894 100.891C40.5894 70.721 40.5894 55.636 49.9619 46.2635C59.3345 36.8909 74.4195 36.8909 104.589 36.8909H156.589C186.759 36.8909 201.844 36.8909 211.217 46.2635C220.589 55.636 220.589 70.721 220.589 100.891V152.891C220.589 183.061 220.589 198.146 211.217 207.518C201.844 216.891 186.759 216.891 156.589 216.891H104.589C74.4195 216.891 59.3345 216.891 49.9619 207.518C40.5894 198.146 40.5894 183.061 40.5894 152.891V100.891Z" fill="white"/>
<path d="M49.9619 207.518L49.2548 208.225L49.9619 207.518ZM211.217 207.518L210.51 206.811L211.217 207.518ZM211.217 46.2635L211.924 45.5563L211.217 46.2635ZM104.589 37.8909H156.589V35.8909H104.589V37.8909ZM219.589 100.891V152.891H221.589V100.891H219.589ZM156.589 215.891H104.589V217.891H156.589V215.891ZM41.5894 152.891V100.891H39.5894V152.891H41.5894ZM104.589 215.891C89.4761 215.891 78.2418 215.889 69.6099 214.728C61.0067 213.572 55.1386 211.281 50.669 206.811L49.2548 208.225C54.1579 213.128 60.5185 215.524 69.3434 216.71C78.1396 217.893 89.5327 217.891 104.589 217.891V215.891ZM39.5894 152.891C39.5894 167.948 39.5872 179.341 40.7698 188.137C41.9563 196.962 44.3518 203.322 49.2548 208.225L50.669 206.811C46.1995 202.342 43.9087 196.473 42.752 187.87C41.5915 179.238 41.5894 168.004 41.5894 152.891H39.5894ZM219.589 152.891C219.589 168.004 219.587 179.238 218.427 187.87C217.27 196.473 214.979 202.342 210.51 206.811L211.924 208.225C216.827 203.322 219.222 196.962 220.409 188.137C221.591 179.341 221.589 167.948 221.589 152.891H219.589ZM156.589 217.891C171.646 217.891 183.039 217.893 191.835 216.71C200.66 215.524 207.021 213.128 211.924 208.225L210.51 206.811C206.04 211.281 200.172 213.572 191.569 214.728C182.937 215.889 171.703 215.891 156.589 215.891V217.891ZM156.589 37.8909C171.703 37.8909 182.937 37.893 191.569 39.0535C200.172 40.2102 206.04 42.501 210.51 46.9706L211.924 45.5563C207.021 40.6533 200.66 38.2578 191.835 37.0714C183.039 35.8887 171.646 35.8909 156.589 35.8909V37.8909ZM221.589 100.891C221.589 85.8342 221.591 74.4411 220.409 65.6449C219.222 56.82 216.827 50.4594 211.924 45.5563L210.51 46.9706C214.979 51.4401 217.27 57.3083 218.427 65.9114C219.587 74.5433 219.589 85.7777 219.589 100.891H221.589ZM104.589 35.8909C89.5327 35.8909 78.1396 35.8887 69.3434 37.0714C60.5185 38.2578 54.1579 40.6533 49.2548 45.5563L50.669 46.9706C55.1386 42.501 61.0067 40.2102 69.6099 39.0535C78.2418 37.893 89.4761 37.8909 104.589 37.8909V35.8909ZM41.5894 100.891C41.5894 85.7777 41.5915 74.5433 42.752 65.9114C43.9087 57.3083 46.1995 51.4401 50.669 46.9706L49.2548 45.5563C44.3518 50.4594 41.9563 56.82 40.7698 65.6449C39.5872 74.4411 39.5894 85.8342 39.5894 100.891H41.5894Z" fill="#D9D9D9"/>
</g>
<path d="M157.769 139.493V144.065H166.028C167.721 144.065 170.626 142.828 170.727 139.367V137.599C170.727 134.644 168.302 132.901 166.028 132.901H161.911V130.779H170.07V126.182H162.24C160.219 126.182 157.516 127.849 157.516 130.956V132.547C157.516 135.654 160.194 137.245 162.24 137.245C167.923 137.271 160.876 137.245 166.129 137.245V139.468L157.769 139.493ZM113.515 138.382C113.515 138.382 117.935 138.003 117.935 132.295C117.935 126.586 112.581 126.056 112.581 126.056H102.932V144.065H107.781V139.721L111.974 144.065H119.148L113.515 138.382ZM111.646 134.694H107.781V130.577H111.671C111.671 130.577 112.757 130.981 112.757 132.623C112.757 134.265 111.646 134.694 111.646 134.694ZM129.908 126.182H124.983C121.472 126.182 120.285 129.365 120.285 130.88V144.065H125.21V140.908H129.832V144.065H134.606V130.88C134.606 127.041 131.121 126.182 129.908 126.182ZM129.832 135.806H125.185V131.436C125.185 131.436 125.185 130.451 126.726 130.451H128.418C129.782 130.451 129.807 131.436 129.807 131.436V135.806H129.832ZM136.854 126.182H141.982V144.065H136.854V126.182ZM149.181 139.443V126.182H144.078V144.065H156.076V139.443H149.181Z" fill="#CC0000"/>
<path d="M72.4946 144.065H92.4492C92.4492 144.065 88.6351 126.662 101.265 119.615C104.018 118.276 112.783 113.275 127.13 123.883C127.584 123.505 128.014 123.201 128.014 123.201C128.014 123.201 114.879 110.092 100.254 111.557C92.9038 112.214 83.8611 118.907 78.5568 127.748C73.2524 136.589 72.4946 144.065 72.4946 144.065Z" fill="#CC0000"/>
<path d="M72.4946 144.065H92.4492C92.4492 144.065 88.6351 126.662 101.265 119.615C104.018 118.276 112.783 113.275 127.13 123.883C127.584 123.505 128.014 123.201 128.014 123.201C128.014 123.201 114.879 110.092 100.254 111.557C92.9038 112.214 83.8611 118.907 78.5568 127.748C73.2524 136.589 72.4946 144.065 72.4946 144.065Z" fill="#CC0000"/>
<path d="M72.4946 144.065H92.4492C92.4492 144.065 88.6351 126.662 101.265 119.615C104.018 118.276 112.783 113.275 127.13 123.883C127.584 123.505 128.014 123.201 128.014 123.201C128.014 123.201 114.879 110.092 100.254 111.557C92.8786 112.214 83.8359 118.907 78.5315 127.748C73.2271 136.589 72.4946 144.065 72.4946 144.065ZM114.071 112.972L114.172 111.279C113.944 111.153 113.313 110.85 111.722 110.395L111.621 112.062C112.454 112.34 113.263 112.643 114.071 112.972Z" fill="#CC0000"/>
<path d="M111.671 118.326L111.57 119.918C112.404 119.943 113.237 120.044 114.071 120.221L114.172 118.655C113.313 118.478 112.48 118.377 111.671 118.326ZM102.325 110.446H102.578L102.073 108.905C101.29 108.905 100.482 108.955 99.648 109.056L100.128 110.547C100.86 110.471 101.593 110.446 102.325 110.446ZM103.538 119.741L104.119 121.484C104.851 121.13 105.584 120.827 106.316 120.6L105.761 118.933C104.902 119.185 104.169 119.463 103.538 119.741ZM92.0703 113.098L90.9337 111.355C90.3022 111.683 89.6455 112.037 88.9635 112.441L90.1254 114.209C90.7821 113.805 91.4136 113.426 92.0703 113.098ZM97.2484 124.464L98.4608 126.283C98.8902 125.652 99.3954 125.071 99.9511 124.49L98.8145 122.772C98.2335 123.302 97.7031 123.883 97.2484 124.464ZM93.5859 132.598L95.6318 134.214C95.7329 133.229 95.9097 132.244 96.1623 131.259L94.3436 129.819C94.0153 130.754 93.7879 131.688 93.5859 132.598ZM82.5225 120.6L80.7291 119.034C80.0724 119.665 79.4409 120.297 78.8599 120.928L80.8049 122.595C81.3353 121.913 81.9163 121.231 82.5225 120.6ZM74.8943 131.891L71.9895 130.83C71.5096 131.916 70.9792 133.179 70.7266 133.861L73.6313 134.922C73.9597 134.063 74.4901 132.825 74.8943 131.891ZM93.207 139.014C93.2575 140.352 93.3838 141.438 93.5101 142.196L96.5412 143.282C96.3138 142.297 96.0865 141.186 95.935 139.999L93.207 139.014Z" fill="#CC0000"/>
<defs>
<filter id="filter0_d_33_2297" x="0.589355" y="0.890869" width="260" height="260" filterUnits="userSpaceOnUse" color-interpolation-filters="sRGB">
<feFlood flood-opacity="0" result="BackgroundImageFix"/>
<feColorMatrix in="SourceAlpha" type="matrix" values="0 0 0 0 0 0 0 0 0 0 0 0 0 0 0 0 0 0 127 0" result="hardAlpha"/>
<feOffset dy="4"/>
<feGaussianBlur stdDeviation="20"/>
<feComposite in2="hardAlpha" operator="out"/>
<feColorMatrix type="matrix" values="0 0 0 0 0.0367917 0 0 0 0 0.0348958 0 0 0 0 0.0484375 0 0 0 0.1 0"/>
<feBlend mode="normal" in2="BackgroundImageFix" result="effect1_dropShadow_33_2297"/>
<feBlend mode="normal" in="SourceGraphic" in2="effect1_dropShadow_33_2297" result="shape"/>
</filter>
</defs>
</svg>
