<svg width="261" height="261" viewBox="0 0 261 261" fill="none" xmlns="http://www.w3.org/2000/svg">
<g filter="url(#filter0_d_33_2188)">
<path d="M40.0374 100.891C40.0374 70.721 40.0374 55.636 49.4099 46.2635C58.7825 36.8909 73.8675 36.8909 104.037 36.8909H156.037C186.207 36.8909 201.292 36.8909 210.665 46.2635C220.037 55.636 220.037 70.721 220.037 100.891V152.891C220.037 183.061 220.037 198.146 210.665 207.518C201.292 216.891 186.207 216.891 156.037 216.891H104.037C73.8675 216.891 58.7825 216.891 49.4099 207.518C40.0374 198.146 40.0374 183.061 40.0374 152.891V100.891Z" fill="white"/>
<path d="M49.4099 207.518L48.7028 208.225L49.4099 207.518ZM210.665 207.518L209.958 206.811L210.665 207.518ZM210.665 46.2635L211.372 45.5563L210.665 46.2635ZM104.037 37.8909H156.037V35.8909H104.037V37.8909ZM219.037 100.891V152.891H221.037V100.891H219.037ZM156.037 215.891H104.037V217.891H156.037V215.891ZM41.0374 152.891V100.891H39.0374V152.891H41.0374ZM104.037 215.891C88.9241 215.891 77.6898 215.889 69.0579 214.728C60.4547 213.572 54.5866 211.281 50.117 206.811L48.7028 208.225C53.6059 213.128 59.9665 215.524 68.7914 216.71C77.5876 217.893 88.9807 217.891 104.037 217.891V215.891ZM39.0374 152.891C39.0374 167.948 39.0352 179.341 40.2178 188.137C41.4043 196.962 43.7998 203.322 48.7028 208.225L50.117 206.811C45.6475 202.342 43.3567 196.473 42.2 187.87C41.0395 179.238 41.0374 168.004 41.0374 152.891H39.0374ZM219.037 152.891C219.037 168.004 219.035 179.238 217.875 187.87C216.718 196.473 214.427 202.342 209.958 206.811L211.372 208.225C216.275 203.322 218.67 196.962 219.857 188.137C221.039 179.341 221.037 167.948 221.037 152.891H219.037ZM156.037 217.891C171.094 217.891 182.487 217.893 191.283 216.71C200.108 215.524 206.469 213.128 211.372 208.225L209.958 206.811C205.488 211.281 199.62 213.572 191.017 214.728C182.385 215.889 171.151 215.891 156.037 215.891V217.891ZM156.037 37.8909C171.151 37.8909 182.385 37.893 191.017 39.0535C199.62 40.2102 205.488 42.501 209.958 46.9706L211.372 45.5563C206.469 40.6533 200.108 38.2578 191.283 37.0714C182.487 35.8887 171.094 35.8909 156.037 35.8909V37.8909ZM221.037 100.891C221.037 85.8342 221.039 74.4411 219.857 65.6449C218.67 56.82 216.275 50.4594 211.372 45.5563L209.958 46.9706C214.427 51.4401 216.718 57.3083 217.875 65.9114C219.035 74.5433 219.037 85.7777 219.037 100.891H221.037ZM104.037 35.8909C88.9807 35.8909 77.5876 35.8887 68.7914 37.0714C59.9665 38.2578 53.6059 40.6533 48.7028 45.5563L50.117 46.9706C54.5866 42.501 60.4547 40.2102 69.0579 39.0535C77.6898 37.893 88.9241 37.8909 104.037 37.8909V35.8909ZM41.0374 100.891C41.0374 85.7777 41.0395 74.5433 42.2 65.9114C43.3567 57.3083 45.6475 51.4401 50.117 46.9706L48.7028 45.5563C43.7998 50.4594 41.4043 56.82 40.2178 65.6449C39.0352 74.4411 39.0374 85.8342 39.0374 100.891H41.0374Z" fill="#D9D9D9"/>
</g>
<path d="M176.395 149.558C171.059 152.339 143.413 163.706 137.528 166.774C131.642 169.843 128.373 169.813 123.723 167.591C119.074 165.368 89.6544 153.485 84.3548 150.951C81.7063 149.686 80.3134 148.617 80.3134 147.608V137.5C80.3134 137.5 118.614 129.162 124.797 126.944C130.98 124.725 133.125 124.645 138.387 126.572C143.65 128.501 175.113 134.177 180.313 136.082L180.311 146.047C180.312 147.046 179.112 148.142 176.395 149.558Z" fill="#912626"/>
<path d="M176.393 139.51C171.057 142.29 143.413 153.657 137.527 156.725C131.642 159.794 128.372 159.764 123.723 157.542C119.074 155.32 89.6552 143.435 84.356 140.903C79.0567 138.37 78.9458 136.627 84.1513 134.588C89.3567 132.549 118.614 121.071 124.798 118.853C130.981 116.635 133.125 116.554 138.387 118.482C143.649 120.41 171.129 131.347 176.329 133.252C181.53 135.158 181.73 136.728 176.393 139.51Z" fill="#C6302B"/>
<path d="M176.395 133.202C171.059 135.985 143.413 147.351 137.528 150.42C131.642 153.488 128.373 153.458 123.723 151.236C119.074 149.014 89.6544 137.129 84.3548 134.596C81.7063 133.331 80.3134 132.263 80.3134 131.254V121.145C80.3134 121.145 118.614 112.807 124.797 110.589C130.98 108.37 133.125 108.29 138.387 110.218C143.65 112.145 175.113 117.821 180.313 119.726L180.311 129.692C180.312 130.691 179.112 131.787 176.395 133.202Z" fill="#912626"/>
<path d="M176.393 123.154C171.057 125.936 143.413 137.302 137.527 140.371C131.642 143.439 128.372 143.409 123.723 141.186C119.074 138.965 89.6552 127.08 84.356 124.548C79.0567 122.016 78.9458 120.272 84.1513 118.233C89.3567 116.195 118.614 104.716 124.798 102.498C130.981 100.28 133.125 100.199 138.387 102.127C143.649 104.054 171.129 114.992 176.329 116.897C181.53 118.803 181.73 120.373 176.393 123.154Z" fill="#C6302B"/>
<path d="M176.395 116.241C171.059 119.022 143.413 130.39 137.528 133.459C131.642 136.527 128.373 136.497 123.723 134.274C119.074 132.053 89.6544 120.168 84.3548 117.636C81.7063 116.369 80.3134 115.301 80.3134 114.293V104.183C80.3134 104.183 118.614 95.8462 124.797 93.6282C130.98 91.4095 133.125 91.3298 138.387 93.2571C143.65 95.1849 175.113 100.86 180.313 102.765L180.311 112.731C180.312 113.729 179.112 114.825 176.395 116.241Z" fill="#912626"/>
<path d="M176.393 106.193C171.057 108.974 143.413 120.342 137.527 123.41C131.642 126.478 128.372 126.447 123.723 124.226C119.074 122.003 89.6551 110.119 84.3563 107.587C79.0567 105.054 78.9461 103.31 84.1512 101.272C89.3567 99.2334 118.614 87.7556 124.798 85.5369C130.98 83.3185 133.125 83.2388 138.387 85.1666C143.649 87.0943 171.129 98.0314 176.329 99.9365C181.53 101.841 181.73 103.412 176.393 106.193Z" fill="#C6302B"/>
<path d="M142.533 96.36L133.936 97.2526L132.011 101.884L128.902 96.7158L118.975 95.8236L126.383 93.1522L124.16 89.0514L131.095 91.7639L137.634 89.6233L135.867 93.8635L142.533 96.36ZM131.498 118.828L115.452 112.173L138.444 108.644L131.498 118.828ZM109.252 98.9342C116.039 98.9342 121.541 101.067 121.541 103.697C121.541 106.329 116.039 108.461 109.252 108.461C102.464 108.461 96.9625 106.328 96.9625 103.697C96.9625 101.067 102.464 98.9342 109.252 98.9342Z" fill="white"/>
<path d="M152.694 97.626L166.302 103.003L152.706 108.376L152.694 97.6256" fill="#621B1C"/>
<path d="M137.64 103.581L152.694 97.626L152.706 108.376L151.23 108.953L137.64 103.581Z" fill="#9A2928"/>
<defs>
<filter id="filter0_d_33_2188" x="0.0373535" y="0.890869" width="260" height="260" filterUnits="userSpaceOnUse" color-interpolation-filters="sRGB">
<feFlood flood-opacity="0" result="BackgroundImageFix"/>
<feColorMatrix in="SourceAlpha" type="matrix" values="0 0 0 0 0 0 0 0 0 0 0 0 0 0 0 0 0 0 127 0" result="hardAlpha"/>
<feOffset dy="4"/>
<feGaussianBlur stdDeviation="20"/>
<feComposite in2="hardAlpha" operator="out"/>
<feColorMatrix type="matrix" values="0 0 0 0 0.0367917 0 0 0 0 0.0348958 0 0 0 0 0.0484375 0 0 0 0.1 0"/>
<feBlend mode="normal" in2="BackgroundImageFix" result="effect1_dropShadow_33_2188"/>
<feBlend mode="normal" in="SourceGraphic" in2="effect1_dropShadow_33_2188" result="shape"/>
</filter>
</defs>
</svg>
