<svg width="261" height="261" viewBox="0 0 261 261" fill="none" xmlns="http://www.w3.org/2000/svg">
<g filter="url(#filter0_d_33_2298)">
<path d="M40.8657 100.891C40.8657 70.721 40.8657 55.636 50.2383 46.2635C59.6109 36.8909 74.6958 36.8909 104.866 36.8909H156.866C187.036 36.8909 202.121 36.8909 211.493 46.2635C220.866 55.636 220.866 70.721 220.866 100.891V152.891C220.866 183.061 220.866 198.146 211.493 207.518C202.121 216.891 187.036 216.891 156.866 216.891H104.866C74.6958 216.891 59.6109 216.891 50.2383 207.518C40.8657 198.146 40.8657 183.061 40.8657 152.891V100.891Z" fill="white"/>
<path d="M50.2383 207.518L49.5312 208.225L50.2383 207.518ZM211.493 207.518L210.786 206.811L211.493 207.518ZM211.493 46.2635L212.2 45.5563L211.493 46.2635ZM104.866 37.8909H156.866V35.8909H104.866V37.8909ZM219.866 100.891V152.891H221.866V100.891H219.866ZM156.866 215.891H104.866V217.891H156.866V215.891ZM41.8657 152.891V100.891H39.8657V152.891H41.8657ZM104.866 215.891C89.7525 215.891 78.5182 215.889 69.8863 214.728C61.2831 213.572 55.4149 211.281 50.9454 206.811L49.5312 208.225C54.4343 213.128 60.7948 215.524 69.6198 216.71C78.4159 217.893 89.809 217.891 104.866 217.891V215.891ZM39.8657 152.891C39.8657 167.948 39.8636 179.341 41.0462 188.137C42.2327 196.962 44.6281 203.322 49.5312 208.225L50.9454 206.811C46.4759 202.342 44.185 196.473 43.0284 187.87C41.8678 179.238 41.8657 168.004 41.8657 152.891H39.8657ZM219.866 152.891C219.866 168.004 219.864 179.238 218.703 187.87C217.546 196.473 215.256 202.342 210.786 206.811L212.2 208.225C217.103 203.322 219.499 196.962 220.685 188.137C221.868 179.341 221.866 167.948 221.866 152.891H219.866ZM156.866 217.891C171.922 217.891 183.316 217.893 192.112 216.71C200.937 215.524 207.297 213.128 212.2 208.225L210.786 206.811C206.317 211.281 200.448 213.572 191.845 214.728C183.213 215.889 171.979 215.891 156.866 215.891V217.891ZM156.866 37.8909C171.979 37.8909 183.213 37.893 191.845 39.0535C200.448 40.2102 206.317 42.501 210.786 46.9706L212.2 45.5563C207.297 40.6533 200.937 38.2578 192.112 37.0714C183.316 35.8887 171.922 35.8909 156.866 35.8909V37.8909ZM221.866 100.891C221.866 85.8342 221.868 74.4411 220.685 65.6449C219.499 56.82 217.103 50.4594 212.2 45.5563L210.786 46.9706C215.256 51.4401 217.546 57.3083 218.703 65.9114C219.864 74.5433 219.866 85.7777 219.866 100.891H221.866ZM104.866 35.8909C89.809 35.8909 78.4159 35.8887 69.6198 37.0714C60.7948 38.2578 54.4343 40.6533 49.5312 45.5563L50.9454 46.9706C55.4149 42.501 61.2831 40.2102 69.8863 39.0535C78.5182 37.893 89.7525 37.8909 104.866 37.8909V35.8909ZM41.8657 100.891C41.8657 85.7777 41.8678 74.5433 43.0284 65.9114C44.185 57.3083 46.4759 51.4401 50.9454 46.9706L49.5312 45.5563C44.6281 50.4594 42.2327 56.82 41.0462 65.6449C39.8636 74.4411 39.8657 85.8342 39.8657 100.891H41.8657Z" fill="#D9D9D9"/>
</g>
<path d="M158.616 142.444L101.522 176.347L175.448 171.33L181.142 96.7872L158.616 142.444L158.616 142.444Z" fill="url(#paint0_linear_33_2298)"/>
<path d="M175.569 171.279L169.215 127.424L151.908 150.278L175.569 171.279V171.279Z" fill="url(#paint1_linear_33_2298)"/>
<path d="M175.655 171.279L129.105 167.625L101.769 176.251L175.655 171.279Z" fill="url(#paint2_linear_33_2298)"/>
<path d="M101.835 176.261L113.464 138.164L87.8743 143.636L101.835 176.26L101.835 176.261Z" fill="url(#paint3_linear_33_2298)"/>
<path d="M151.903 150.403L141.203 108.492L110.582 137.196L151.903 150.404V150.403Z" fill="url(#paint4_linear_33_2298)"/>
<path d="M178.714 109.082L149.769 85.4412L141.708 111.5L178.714 109.082Z" fill="url(#paint5_linear_33_2298)"/>
<path d="M165.178 77.0121L148.154 86.4204L137.413 76.8861L165.178 77.0124V77.0121Z" fill="url(#paint6_linear_33_2298)"/>
<path d="M81.1416 156.415L88.2732 143.408L82.5042 127.913L81.1416 156.415Z" fill="url(#paint7_linear_33_2298)"/>
<path d="M82.1208 127.424L87.9251 143.888L113.146 138.23L141.94 111.469L150.066 85.6581L137.271 76.6237L115.518 84.7647C108.664 91.1395 95.3647 103.753 94.8853 103.989C94.4106 104.232 86.1031 119.934 82.1208 127.424Z" fill="white"/>
<path d="M102.502 97.847C117.356 83.1193 136.505 74.4179 143.853 81.8324C151.198 89.2469 143.409 107.265 128.555 121.988C113.701 136.711 94.7893 145.892 87.4454 138.477C80.0969 131.068 87.6475 112.57 102.502 97.847Z" fill="url(#paint8_linear_33_2298)"/>
<path d="M101.835 176.245L113.373 138.028L151.691 150.338C137.837 163.33 122.428 174.312 101.835 176.245Z" fill="url(#paint9_linear_33_2298)"/>
<path d="M141.991 111.394L151.828 150.358C163.401 138.189 173.788 125.107 178.875 108.926L141.991 111.394H141.991Z" fill="url(#paint10_linear_33_2298)"/>
<path d="M178.775 109.122C182.712 97.2416 183.62 80.1971 165.056 77.0325L149.823 85.4462L178.775 109.122Z" fill="url(#paint11_linear_33_2298)"/>
<path d="M81.1416 156.243C81.687 175.852 95.834 176.145 101.86 176.316L87.9401 143.807L81.1416 156.243Z" fill="#9E1209"/>
<path d="M142.046 111.455C150.939 116.921 168.862 127.898 169.226 128.1C169.79 128.418 176.953 116.022 178.578 109.017L142.046 111.455Z" fill="url(#paint12_radial_33_2298)"/>
<path d="M113.358 138.028L128.782 167.786C137.902 162.84 145.045 156.814 151.585 150.358L113.358 138.028Z" fill="url(#paint13_radial_33_2298)"/>
<path d="M87.8797 143.847L85.6943 169.871C89.8178 175.504 95.4911 175.993 101.441 175.554C97.1362 164.839 88.5357 143.414 87.8797 143.847Z" fill="url(#paint14_linear_33_2298)"/>
<path d="M149.733 85.5117L180.375 89.8118C178.739 82.8823 173.717 78.4104 165.157 77.0125L149.733 85.5117Z" fill="url(#paint15_linear_33_2298)"/>
<defs>
<filter id="filter0_d_33_2298" x="0.865723" y="0.890869" width="260" height="260" filterUnits="userSpaceOnUse" color-interpolation-filters="sRGB">
<feFlood flood-opacity="0" result="BackgroundImageFix"/>
<feColorMatrix in="SourceAlpha" type="matrix" values="0 0 0 0 0 0 0 0 0 0 0 0 0 0 0 0 0 0 127 0" result="hardAlpha"/>
<feOffset dy="4"/>
<feGaussianBlur stdDeviation="20"/>
<feComposite in2="hardAlpha" operator="out"/>
<feColorMatrix type="matrix" values="0 0 0 0 0.0367917 0 0 0 0 0.0348958 0 0 0 0 0.0484375 0 0 0 0.1 0"/>
<feBlend mode="normal" in2="BackgroundImageFix" result="effect1_dropShadow_33_2298"/>
<feBlend mode="normal" in="SourceGraphic" in2="effect1_dropShadow_33_2298" result="shape"/>
</filter>
<linearGradient id="paint0_linear_33_2298" x1="169" y1="185.416" x2="147.928" y2="148.156" gradientUnits="userSpaceOnUse">
<stop stop-color="#FB7655"/>
<stop offset="0.41" stop-color="#E42B1E"/>
<stop offset="0.99" stop-color="#990000"/>
<stop offset="1" stop-color="#990000"/>
</linearGradient>
<linearGradient id="paint1_linear_33_2298" x1="179.509" y1="154.127" x2="149.887" y2="148.341" gradientUnits="userSpaceOnUse">
<stop stop-color="#871101"/>
<stop offset="0.99" stop-color="#911209"/>
<stop offset="1" stop-color="#911209"/>
</linearGradient>
<linearGradient id="paint2_linear_33_2298" x1="157.755" y1="186.544" x2="157.374" y2="167.756" gradientUnits="userSpaceOnUse">
<stop stop-color="#871101"/>
<stop offset="0.99" stop-color="#911209"/>
<stop offset="1" stop-color="#911209"/>
</linearGradient>
<linearGradient id="paint3_linear_33_2298" x1="100.672" y1="140.92" x2="109.48" y2="166.746" gradientUnits="userSpaceOnUse">
<stop stop-color="white"/>
<stop offset="0.23" stop-color="#E57252"/>
<stop offset="0.46" stop-color="#DE3B20"/>
<stop offset="0.99" stop-color="#A60003"/>
<stop offset="1" stop-color="#A60003"/>
</linearGradient>
<linearGradient id="paint4_linear_33_2298" x1="129.662" y1="115.344" x2="131.259" y2="143.296" gradientUnits="userSpaceOnUse">
<stop stop-color="white"/>
<stop offset="0.23" stop-color="#E4714E"/>
<stop offset="0.56" stop-color="#BE1A0D"/>
<stop offset="0.99" stop-color="#A80D00"/>
<stop offset="1" stop-color="#A80D00"/>
</linearGradient>
<linearGradient id="paint5_linear_33_2298" x1="155.388" y1="89.5047" x2="157.723" y2="109.806" gradientUnits="userSpaceOnUse">
<stop stop-color="white"/>
<stop offset="0.18" stop-color="#E46342"/>
<stop offset="0.4" stop-color="#C82410"/>
<stop offset="0.99" stop-color="#A80D00"/>
<stop offset="1" stop-color="#A80D00"/>
</linearGradient>
<linearGradient id="paint6_linear_33_2298" x1="141.191" y1="82.449" x2="144.485" y2="68.484" gradientUnits="userSpaceOnUse">
<stop stop-color="white"/>
<stop offset="0.54" stop-color="#C81F11"/>
<stop offset="0.99" stop-color="#BF0905"/>
<stop offset="1" stop-color="#BF0905"/>
</linearGradient>
<linearGradient id="paint7_linear_33_2298" x1="83.1116" y1="133.937" x2="91.7244" y2="139.336" gradientUnits="userSpaceOnUse">
<stop stop-color="white"/>
<stop offset="0.31" stop-color="#DE4024"/>
<stop offset="0.99" stop-color="#BF190B"/>
<stop offset="1" stop-color="#BF190B"/>
</linearGradient>
<linearGradient id="paint8_linear_33_2298" x1="71.7762" y1="154.908" x2="149.173" y2="75.0954" gradientUnits="userSpaceOnUse">
<stop stop-color="#BD0012"/>
<stop offset="0.07" stop-color="white"/>
<stop offset="0.17" stop-color="white"/>
<stop offset="0.27" stop-color="#C82F1C"/>
<stop offset="0.33" stop-color="#820C01"/>
<stop offset="0.46" stop-color="#A31601"/>
<stop offset="0.72" stop-color="#B31301"/>
<stop offset="0.99" stop-color="#E82609"/>
<stop offset="1" stop-color="#E82609"/>
</linearGradient>
<linearGradient id="paint9_linear_33_2298" x1="131.147" y1="162.948" x2="109.244" y2="153.748" gradientUnits="userSpaceOnUse">
<stop stop-color="#8C0C01"/>
<stop offset="0.54" stop-color="#990C00"/>
<stop offset="0.99" stop-color="#A80D0E"/>
<stop offset="1" stop-color="#A80D0E"/>
</linearGradient>
<linearGradient id="paint10_linear_33_2298" x1="171.247" y1="134.926" x2="148.686" y2="118.901" gradientUnits="userSpaceOnUse">
<stop stop-color="#7E110B"/>
<stop offset="0.99" stop-color="#9E0C00"/>
<stop offset="1" stop-color="#9E0C00"/>
</linearGradient>
<linearGradient id="paint11_linear_33_2298" x1="178.867" y1="100.818" x2="168.257" y2="90.0478" gradientUnits="userSpaceOnUse">
<stop stop-color="#79130D"/>
<stop offset="0.99" stop-color="#9E120B"/>
<stop offset="1" stop-color="#9E120B"/>
</linearGradient>
<radialGradient id="paint12_radial_33_2298" cx="0" cy="0" r="1" gradientUnits="userSpaceOnUse" gradientTransform="translate(153.736 116.692) scale(25.4167 13.2811)">
<stop stop-color="#A80D00"/>
<stop offset="0.99" stop-color="#7E0E08"/>
<stop offset="1" stop-color="#7E0E08"/>
</radialGradient>
<radialGradient id="paint13_radial_33_2298" cx="0" cy="0" r="1" gradientUnits="userSpaceOnUse" gradientTransform="translate(118.537 150.187) scale(33.7877 26.3022)">
<stop stop-color="#A30C00"/>
<stop offset="0.99" stop-color="#800E08"/>
<stop offset="1" stop-color="#800E08"/>
</radialGradient>
<linearGradient id="paint14_linear_33_2298" x1="94.6024" y1="176.223" x2="75.5798" y2="160.433" gradientUnits="userSpaceOnUse">
<stop stop-color="#8B2114"/>
<stop offset="0.43" stop-color="#9E100A"/>
<stop offset="0.99" stop-color="#B3100C"/>
<stop offset="1" stop-color="#B3100C"/>
</linearGradient>
<linearGradient id="paint15_linear_33_2298" x1="159.192" y1="81.5689" x2="164.591" y2="95.2277" gradientUnits="userSpaceOnUse">
<stop stop-color="#B31000"/>
<stop offset="0.44" stop-color="#910F08"/>
<stop offset="0.99" stop-color="#791C12"/>
<stop offset="1" stop-color="#791C12"/>
</linearGradient>
</defs>
</svg>
