<svg width="261" height="261" viewBox="0 0 261 261" fill="none" xmlns="http://www.w3.org/2000/svg">
<g filter="url(#filter0_d_25_405)">
<path d="M40.209 100.297C40.209 70.127 40.209 55.042 49.5816 45.6695C58.9542 36.2969 74.0391 36.2969 104.209 36.2969H156.209C186.379 36.2969 201.464 36.2969 210.836 45.6695C220.209 55.042 220.209 70.127 220.209 100.297V152.297C220.209 182.467 220.209 197.552 210.836 206.924C201.464 216.297 186.379 216.297 156.209 216.297H104.209C74.0391 216.297 58.9542 216.297 49.5816 206.924C40.209 197.552 40.209 182.467 40.209 152.297V100.297Z" fill="white"/>
<path d="M49.5816 206.924L48.8745 207.631L49.5816 206.924ZM210.836 206.924L210.129 206.217L210.836 206.924ZM210.836 45.6695L211.544 44.9624L210.836 45.6695ZM104.209 37.2969H156.209V35.2969H104.209V37.2969ZM219.209 100.297V152.297H221.209V100.297H219.209ZM156.209 215.297H104.209V217.297H156.209V215.297ZM41.209 152.297V100.297H39.209V152.297H41.209ZM104.209 215.297C89.0958 215.297 77.8615 215.295 69.2295 214.134C60.6264 212.978 54.7582 210.687 50.2887 206.217L48.8745 207.631C53.7775 212.534 60.1381 214.93 68.963 216.116C77.7592 217.299 89.1523 217.297 104.209 217.297V215.297ZM39.209 152.297C39.209 167.354 39.2069 178.747 40.3895 187.543C41.576 196.368 43.9714 202.728 48.8745 207.631L50.2887 206.217C45.8192 201.748 43.5283 195.879 42.3716 187.276C41.2111 178.644 41.209 167.41 41.209 152.297H39.209ZM219.209 152.297C219.209 167.41 219.207 178.644 218.046 187.276C216.89 195.879 214.599 201.748 210.129 206.217L211.544 207.631C216.447 202.728 218.842 196.368 220.028 187.543C221.211 178.747 221.209 167.354 221.209 152.297H219.209ZM156.209 217.297C171.266 217.297 182.659 217.299 191.455 216.116C200.28 214.93 206.64 212.534 211.544 207.631L210.129 206.217C205.66 210.687 199.792 212.978 191.188 214.134C182.557 215.295 171.322 215.297 156.209 215.297V217.297ZM156.209 37.2969C171.322 37.2969 182.557 37.299 191.188 38.4595C199.792 39.6162 205.66 41.907 210.129 46.3766L211.544 44.9624C206.64 40.0593 200.28 37.6638 191.455 36.4774C182.659 35.2948 171.266 35.2969 156.209 35.2969V37.2969ZM221.209 100.297C221.209 85.2402 221.211 73.8471 220.028 65.0509C218.842 56.226 216.447 49.8654 211.544 44.9624L210.129 46.3766C214.599 50.8461 216.89 56.7143 218.046 65.3174C219.207 73.9493 219.209 85.1837 219.209 100.297H221.209ZM104.209 35.2969C89.1523 35.2969 77.7592 35.2948 68.963 36.4774C60.1381 37.6638 53.7775 40.0593 48.8745 44.9624L50.2887 46.3766C54.7582 41.907 60.6264 39.6162 69.2295 38.4595C77.8615 37.299 89.0958 37.2969 104.209 37.2969V35.2969ZM41.209 100.297C41.209 85.1837 41.2111 73.9493 42.3716 65.3174C43.5283 56.7143 45.8192 50.8461 50.2887 46.3766L48.8745 44.9624C43.9714 49.8654 41.576 56.226 40.3895 65.0509C39.2069 73.8471 39.209 85.2402 39.209 100.297H41.209Z" fill="#D9D9D9"/>
</g>
<path d="M80.1416 75.8911H180.142V175.891H80.1416V75.8911Z" fill="#34BDB2"/>
<path d="M145.947 109.891C140.667 106.828 135.98 104.419 129.849 104.525C126.341 104.586 123.33 106.493 122.696 109.983C122.107 113.229 124.993 115.03 127.995 116.135C132.974 117.969 137.309 119.905 142.202 121.943C151.096 125.65 155.656 131.653 155.117 139.355C154.431 149.154 148.534 156.183 139.161 158.5C126.913 161.528 115.02 156.916 104.971 150.477C107.507 146.613 110.45 143.975 112.971 140.135C118.776 142.606 123.337 145.945 129.411 146.466C133.693 146.833 138.546 146.629 139.508 141.599C140.375 137.063 136.427 134.631 132.577 133.273C127.993 131.656 123.417 129.679 118.922 127.843C110.612 124.449 107.231 117.81 107.8 109.989C107.8 105.404 111.605 96.1352 120.933 93.2524C135.266 88.8227 143.163 93.3587 153.556 100.038C150.796 103.689 148.674 106.284 145.947 109.891Z" fill="white"/>
<defs>
<filter id="filter0_d_25_405" x="0.208984" y="0.296875" width="260" height="260" filterUnits="userSpaceOnUse" color-interpolation-filters="sRGB">
<feFlood flood-opacity="0" result="BackgroundImageFix"/>
<feColorMatrix in="SourceAlpha" type="matrix" values="0 0 0 0 0 0 0 0 0 0 0 0 0 0 0 0 0 0 127 0" result="hardAlpha"/>
<feOffset dy="4"/>
<feGaussianBlur stdDeviation="20"/>
<feComposite in2="hardAlpha" operator="out"/>
<feColorMatrix type="matrix" values="0 0 0 0 0.0367917 0 0 0 0 0.0348958 0 0 0 0 0.0484375 0 0 0 0.1 0"/>
<feBlend mode="normal" in2="BackgroundImageFix" result="effect1_dropShadow_25_405"/>
<feBlend mode="normal" in="SourceGraphic" in2="effect1_dropShadow_25_405" result="shape"/>
</filter>
</defs>
</svg>
