<svg width="260" height="261" viewBox="0 0 260 261" fill="none" xmlns="http://www.w3.org/2000/svg">
<g filter="url(#filter0_d_22_686)">
<path d="M40.0001 100.891C40.0001 70.721 40.0001 55.636 49.3727 46.2635C58.7453 36.8909 73.8302 36.8909 104 36.8909H156C186.17 36.8909 201.255 36.8909 210.628 46.2635C220 55.636 220 70.721 220 100.891V152.891C220 183.061 220 198.146 210.628 207.518C201.255 216.891 186.17 216.891 156 216.891H104C73.8302 216.891 58.7453 216.891 49.3727 207.518C40.0001 198.146 40.0001 183.061 40.0001 152.891V100.891Z" fill="white"/>
<path d="M49.3727 207.518L48.6656 208.225L49.3727 207.518ZM210.628 207.518L209.92 206.811L210.628 207.518ZM210.628 46.2635L211.335 45.5563L210.628 46.2635ZM104 37.8909H156V35.8909H104V37.8909ZM219 100.891V152.891H221V100.891H219ZM156 215.891H104V217.891H156V215.891ZM41.0001 152.891V100.891H39.0001V152.891H41.0001ZM104 215.891C88.8869 215.891 77.6526 215.889 69.0207 214.728C60.4175 213.572 54.5493 211.281 50.0798 206.811L48.6656 208.225C53.5687 213.128 59.9292 215.524 68.7542 216.71C77.5503 217.893 88.9434 217.891 104 217.891V215.891ZM39.0001 152.891C39.0001 167.948 38.998 179.341 40.1806 188.137C41.3671 196.962 43.7625 203.322 48.6656 208.225L50.0798 206.811C45.6103 202.342 43.3194 196.473 42.1628 187.87C41.0022 179.238 41.0001 168.004 41.0001 152.891H39.0001ZM219 152.891C219 168.004 218.998 179.238 217.837 187.87C216.681 196.473 214.39 202.342 209.92 206.811L211.335 208.225C216.238 203.322 218.633 196.962 219.82 188.137C221.002 179.341 221 167.948 221 152.891H219ZM156 217.891C171.057 217.891 182.45 217.893 191.246 216.71C200.071 215.524 206.432 213.128 211.335 208.225L209.92 206.811C205.451 211.281 199.583 213.572 190.98 214.728C182.348 215.889 171.113 215.891 156 215.891V217.891ZM156 37.8909C171.113 37.8909 182.348 37.893 190.98 39.0535C199.583 40.2102 205.451 42.501 209.92 46.9706L211.335 45.5563C206.432 40.6533 200.071 38.2578 191.246 37.0714C182.45 35.8887 171.057 35.8909 156 35.8909V37.8909ZM221 100.891C221 85.8342 221.002 74.4411 219.82 65.6449C218.633 56.82 216.238 50.4594 211.335 45.5563L209.92 46.9706C214.39 51.4401 216.681 57.3083 217.837 65.9114C218.998 74.5433 219 85.7777 219 100.891H221ZM104 35.8909C88.9434 35.8909 77.5503 35.8887 68.7542 37.0714C59.9292 38.2578 53.5687 40.6533 48.6656 45.5563L50.0798 46.9706C54.5493 42.501 60.4175 40.2102 69.0207 39.0535C77.6526 37.893 88.8869 37.8909 104 37.8909V35.8909ZM41.0001 100.891C41.0001 85.7777 41.0022 74.5433 42.1628 65.9114C43.3194 57.3083 45.6103 51.4401 50.0798 46.9706L48.6656 45.5563C43.7625 50.4594 41.3671 56.82 40.1806 65.6449C38.998 74.4411 39.0001 85.8342 39.0001 100.891H41.0001Z" fill="#D9D9D9"/>
</g>
<path opacity="0.45" d="M145.92 76.4871L129.844 105.06H97.7128L113.777 76.4871H145.92Z" fill="black"/>
<path opacity="0.6" d="M129.844 105.06H161.984L145.922 76.4871H113.777L129.844 105.06Z" fill="black"/>
<path opacity="0.8" d="M113.777 133.621L129.844 105.06L113.777 76.4871L97.7128 105.06L113.777 133.621Z" fill="black"/>
<path opacity="0.45" d="M113.934 176.483L130.01 147.91H162.153L146.077 176.483H113.934Z" fill="black"/>
<path opacity="0.6" d="M130.01 147.91H97.8703L113.934 176.483H146.077L130.01 147.91Z" fill="black"/>
<path opacity="0.8" d="M146.077 119.347L130.01 147.91L146.077 176.483L162.153 147.91L146.077 119.347Z" fill="black"/>
<defs>
<filter id="filter0_d_22_686" x="0.00012207" y="0.890869" width="260" height="260" filterUnits="userSpaceOnUse" color-interpolation-filters="sRGB">
<feFlood flood-opacity="0" result="BackgroundImageFix"/>
<feColorMatrix in="SourceAlpha" type="matrix" values="0 0 0 0 0 0 0 0 0 0 0 0 0 0 0 0 0 0 127 0" result="hardAlpha"/>
<feOffset dy="4"/>
<feGaussianBlur stdDeviation="20"/>
<feComposite in2="hardAlpha" operator="out"/>
<feColorMatrix type="matrix" values="0 0 0 0 0.0367917 0 0 0 0 0.0348958 0 0 0 0 0.0484375 0 0 0 0.1 0"/>
<feBlend mode="normal" in2="BackgroundImageFix" result="effect1_dropShadow_22_686"/>
<feBlend mode="normal" in="SourceGraphic" in2="effect1_dropShadow_22_686" result="shape"/>
</filter>
</defs>
</svg>
