<svg width="261" height="260" viewBox="0 0 261 260" fill="none" xmlns="http://www.w3.org/2000/svg">
<g filter="url(#filter0_d_25_404)">
<path d="M40.9329 100C40.9329 69.8301 40.9329 54.7452 50.3054 45.3726C59.678 36 74.763 36 104.933 36H156.933C187.103 36 202.188 36 211.56 45.3726C220.933 54.7452 220.933 69.8301 220.933 100V152C220.933 182.17 220.933 197.255 211.56 206.627C202.188 216 187.103 216 156.933 216H104.933C74.763 216 59.678 216 50.3054 206.627C40.9329 197.255 40.9329 182.17 40.9329 152V100Z" fill="white"/>
<path d="M50.3054 206.627L49.5983 207.335L50.3054 206.627ZM211.56 206.627L210.853 205.92L211.56 206.627ZM211.56 45.3726L212.267 44.6655L211.56 45.3726ZM104.933 37H156.933V35H104.933V37ZM219.933 100V152H221.933V100H219.933ZM156.933 215H104.933V217H156.933V215ZM41.9329 152V100H39.9329V152H41.9329ZM104.933 215C89.8196 215 78.5853 214.998 69.9534 213.837C61.3503 212.681 55.4821 210.39 51.0126 205.92L49.5983 207.335C54.5014 212.238 60.862 214.633 69.6869 215.82C78.4831 217.002 89.8762 217 104.933 217V215ZM39.9329 152C39.9329 167.057 39.9307 178.45 41.1134 187.246C42.2998 196.071 44.6953 202.431 49.5983 207.335L51.0126 205.92C46.543 201.451 44.2522 195.583 43.0955 186.979C41.935 178.348 41.9329 167.113 41.9329 152H39.9329ZM219.933 152C219.933 167.113 219.931 178.348 218.77 186.979C217.614 195.583 215.323 201.451 210.853 205.92L212.267 207.335C217.17 202.431 219.566 196.071 220.752 187.246C221.935 178.45 221.933 167.057 221.933 152H219.933ZM156.933 217C171.99 217 183.383 217.002 192.179 215.82C201.004 214.633 207.364 212.238 212.267 207.335L210.853 205.92C206.384 210.39 200.515 212.681 191.912 213.837C183.28 214.998 172.046 215 156.933 215V217ZM156.933 37C172.046 37 183.28 37.0021 191.912 38.1627C200.515 39.3193 206.384 41.6102 210.853 46.0797L212.267 44.6655C207.364 39.7624 201.004 37.367 192.179 36.1805C183.383 34.9979 171.99 35 156.933 35V37ZM221.933 100C221.933 84.9433 221.935 73.5502 220.752 64.7541C219.566 55.9291 217.17 49.5685 212.267 44.6655L210.853 46.0797C215.323 50.5492 217.614 56.4174 218.77 65.0205C219.931 73.6525 219.933 84.8868 219.933 100H221.933ZM104.933 35C89.8762 35 78.4831 34.9979 69.6869 36.1805C60.862 37.367 54.5014 39.7624 49.5983 44.6655L51.0126 46.0797C55.4821 41.6102 61.3503 39.3193 69.9534 38.1627C78.5853 37.0021 89.8196 37 104.933 37V35ZM41.9329 100C41.9329 84.8868 41.935 73.6525 43.0955 65.0205C44.2522 56.4174 46.543 50.5492 51.0126 46.0797L49.5983 44.6655C44.6953 49.5685 42.2998 55.9291 41.1134 64.7541C39.9307 73.5502 39.9329 84.9433 39.9329 100H41.9329Z" fill="#D9D9D9"/>
</g>
<path d="M102.703 75.5942H158.072C160.766 75.5942 163.382 76.0239 165.92 76.9224C169.591 78.2505 172.91 80.5942 175.409 83.6411C177.947 86.688 179.626 90.438 180.212 94.3442C180.446 95.7896 180.485 97.2349 180.485 98.6802V152.704C180.485 154.422 180.407 156.18 180.056 157.86C179.275 161.727 177.439 165.36 174.784 168.29C172.168 171.219 168.732 173.407 165.022 174.579C162.758 175.282 160.415 175.594 158.033 175.594C156.979 175.594 102.547 175.594 101.727 175.555C97.7439 175.36 93.8002 174.071 90.4811 171.844C87.2402 169.657 84.585 166.61 82.8669 163.094C81.3831 160.086 80.6412 156.727 80.6412 153.368V97.8208C80.5631 94.5005 81.266 91.2192 82.7107 88.2505C84.3898 84.7349 87.0059 81.6489 90.2469 79.4614C93.5659 77.1958 97.4706 75.8677 101.453 75.6724C101.844 75.5942 102.273 75.5942 102.703 75.5942Z" fill="url(#paint0_linear_25_404)"/>
<path d="M164.827 157.391C164.476 156.844 164.085 156.297 163.656 155.79C162.679 154.618 161.547 153.602 160.297 152.743C158.736 151.688 156.9 151.024 155.026 150.946C153.698 150.868 152.371 151.102 151.121 151.571C149.872 152 148.661 152.625 147.49 153.25C146.123 153.954 144.757 154.657 143.312 155.243C141.594 155.946 139.798 156.493 137.962 156.883C135.659 157.313 133.316 157.469 131.012 157.43C126.834 157.352 122.656 156.727 118.673 155.555C115.159 154.5 111.801 153.055 108.638 151.219C105.866 149.618 103.289 147.782 100.868 145.711C98.8762 143.993 97.041 142.157 95.3229 140.204C94.1515 138.836 93.0191 137.391 91.9649 135.907C91.5353 135.321 91.1449 134.696 90.7934 134.071L80.485 122.938V97.7427C80.485 85.5161 90.3639 75.5942 102.586 75.5942H122.305L136.908 90.438C169.864 112.86 159.204 137.586 159.204 137.586C159.204 137.586 168.575 148.133 164.827 157.391Z" fill="url(#paint1_linear_25_404)"/>
<path d="M136.986 90.438C169.942 112.86 159.282 137.586 159.282 137.586C159.282 137.586 168.653 148.172 164.866 157.43C164.866 157.43 161 150.946 154.518 150.946C148.271 150.946 144.6 157.43 132.027 157.43C104.03 157.43 90.7935 134.032 90.7935 134.032C116.018 150.633 133.238 138.875 133.238 138.875C121.875 132.274 97.7048 100.711 97.7048 100.711C118.751 118.641 127.849 123.368 127.849 123.368C122.422 118.875 107.193 96.9224 107.193 96.9224C119.376 109.266 143.585 126.493 143.585 126.493C150.457 107.43 136.986 90.438 136.986 90.438Z" fill="white"/>
<defs>
<filter id="filter0_d_25_404" x="0.932861" y="0" width="260" height="260" filterUnits="userSpaceOnUse" color-interpolation-filters="sRGB">
<feFlood flood-opacity="0" result="BackgroundImageFix"/>
<feColorMatrix in="SourceAlpha" type="matrix" values="0 0 0 0 0 0 0 0 0 0 0 0 0 0 0 0 0 0 127 0" result="hardAlpha"/>
<feOffset dy="4"/>
<feGaussianBlur stdDeviation="20"/>
<feComposite in2="hardAlpha" operator="out"/>
<feColorMatrix type="matrix" values="0 0 0 0 0.0367917 0 0 0 0 0.0348958 0 0 0 0 0.0484375 0 0 0 0.1 0"/>
<feBlend mode="normal" in2="BackgroundImageFix" result="effect1_dropShadow_25_404"/>
<feBlend mode="normal" in="SourceGraphic" in2="effect1_dropShadow_25_404" result="shape"/>
</filter>
<linearGradient id="paint0_linear_25_404" x1="139.95" y1="72.0259" x2="121.05" y2="179.172" gradientUnits="userSpaceOnUse">
<stop stop-color="#FAAE42"/>
<stop offset="1" stop-color="#EF3E31"/>
</linearGradient>
<linearGradient id="paint1_linear_25_404" x1="131.485" y1="77.2099" x2="117.652" y2="155.629" gradientUnits="userSpaceOnUse">
<stop stop-color="#E39F3A"/>
<stop offset="1" stop-color="#D33929"/>
</linearGradient>
</defs>
</svg>
