<svg width="261" height="261" viewBox="0 0 261 261" fill="none" xmlns="http://www.w3.org/2000/svg">
<g filter="url(#filter0_d_32_366)">
<path d="M40.7612 100.594C40.7612 70.4241 40.7612 55.3392 50.1338 45.9666C59.5064 36.594 74.5913 36.594 104.761 36.594H156.761C186.931 36.594 202.016 36.594 211.389 45.9666C220.761 55.3392 220.761 70.4241 220.761 100.594V152.594C220.761 182.764 220.761 197.849 211.389 207.221C202.016 216.594 186.931 216.594 156.761 216.594H104.761C74.5913 216.594 59.5064 216.594 50.1338 207.221C40.7612 197.849 40.7612 182.764 40.7612 152.594V100.594Z" fill="white"/>
<path d="M50.1338 207.221L49.4267 207.929L50.1338 207.221ZM211.389 207.221L210.682 206.514L211.389 207.221ZM211.389 45.9666L212.096 45.2595L211.389 45.9666ZM104.761 37.594H156.761V35.594H104.761V37.594ZM219.761 100.594V152.594H221.761V100.594H219.761ZM156.761 215.594H104.761V217.594H156.761V215.594ZM41.7612 152.594V100.594H39.7612V152.594H41.7612ZM104.761 215.594C89.648 215.594 78.4137 215.592 69.7818 214.431C61.1786 213.275 55.3104 210.984 50.8409 206.514L49.4267 207.929C54.3298 212.832 60.6903 215.227 69.5153 216.413C78.3115 217.596 89.7046 217.594 104.761 217.594V215.594ZM39.7612 152.594C39.7612 167.651 39.7591 179.044 40.9417 187.84C42.1282 196.665 44.5236 203.025 49.4267 207.929L50.8409 206.514C46.3714 202.045 44.0806 196.177 42.9239 187.573C41.7634 178.942 41.7612 167.707 41.7612 152.594H39.7612ZM219.761 152.594C219.761 167.707 219.759 178.942 218.599 187.573C217.442 196.177 215.151 202.045 210.682 206.514L212.096 207.929C216.999 203.025 219.394 196.665 220.581 187.84C221.763 179.044 221.761 167.651 221.761 152.594H219.761ZM156.761 217.594C171.818 217.594 183.211 217.596 192.007 216.413C200.832 215.227 207.193 212.832 212.096 207.929L210.682 206.514C206.212 210.984 200.344 213.275 191.741 214.431C183.109 215.592 171.874 215.594 156.761 215.594V217.594ZM156.761 37.594C171.874 37.594 183.109 37.5961 191.741 38.7566C200.344 39.9133 206.212 42.2042 210.682 46.6737L212.096 45.2595C207.193 40.3564 200.832 37.961 192.007 36.7745C183.211 35.5919 171.818 35.594 156.761 35.594V37.594ZM221.761 100.594C221.761 85.5373 221.763 74.1442 220.581 65.348C219.394 56.5231 216.999 50.1625 212.096 45.2595L210.682 46.6737C215.151 51.1432 217.442 57.0114 218.599 65.6145C219.759 74.2465 219.761 85.4808 219.761 100.594H221.761ZM104.761 35.594C89.7046 35.594 78.3115 35.5919 69.5153 36.7745C60.6904 37.961 54.3298 40.3564 49.4267 45.2595L50.8409 46.6737C55.3104 42.2042 61.1786 39.9133 69.7818 38.7566C78.4137 37.5961 89.648 37.594 104.761 37.594V35.594ZM41.7612 100.594C41.7612 85.4808 41.7634 74.2465 42.9239 65.6145C44.0806 57.0114 46.3714 51.1432 50.8409 46.6737L49.4267 45.2595C44.5236 50.1625 42.1282 56.5231 40.9417 65.348C39.7591 74.1442 39.7612 85.5373 39.7612 100.594H41.7612Z" fill="#D9D9D9"/>
</g>
<path d="M92.5069 135.924C97.8796 135.924 102.235 131.569 102.235 126.196C102.235 120.823 97.8796 116.468 92.5069 116.468C87.1342 116.468 82.7788 120.823 82.7788 126.196C82.7788 131.569 87.1342 135.924 92.5069 135.924Z" fill="#FF6309"/>
<path d="M162.263 176.188C167.636 176.188 171.992 171.832 171.992 166.459C171.992 161.086 167.636 156.731 162.263 156.731C156.89 156.731 152.535 161.086 152.535 166.459C152.535 171.832 156.89 176.188 162.263 176.188Z" fill="#FFB515"/>
<path d="M162.255 95.6445C167.628 95.6445 171.983 91.289 171.983 85.9163C171.983 80.5437 167.628 76.1882 162.255 76.1882C156.882 76.1882 152.527 80.5437 152.527 85.9163C152.527 91.289 156.882 95.6445 162.255 95.6445Z" fill="#C90016"/>
<path d="M139.01 102.124C151.123 102.124 161.173 111.118 162.838 122.779H179.504C178.746 113.616 174.949 105.076 168.597 98.3407C164.529 100.412 159.527 100.452 155.278 97.9995C151.026 95.5438 148.559 91.1896 148.322 86.626C145.269 85.9149 142.144 85.5565 139.008 85.5579C132.927 85.5579 127.05 86.8851 121.705 89.4025L130.051 103.855C132.899 102.709 135.94 102.121 139.01 102.124Z" fill="#FF6309"/>
<path d="M114.939 126.196C114.939 118.527 118.544 111.685 124.147 107.274L115.805 92.823C113.828 94.2039 111.977 95.7556 110.272 97.4601C105.444 102.288 101.982 108.117 100.077 114.479C103.916 116.965 106.457 121.282 106.457 126.196C106.457 131.109 103.916 135.426 100.077 137.911C101.982 144.273 105.444 150.102 110.272 154.931C111.976 156.635 113.825 158.186 115.8 159.567L124.144 145.114C118.542 140.704 114.939 133.863 114.939 126.196Z" fill="#FFB515"/>
<path d="M162.839 129.601C161.179 141.266 151.127 150.267 139.01 150.267C135.844 150.267 132.818 149.65 130.048 148.534L121.703 162.987C127.046 165.506 132.926 166.834 139.009 166.834C142.187 166.834 145.31 166.467 148.33 165.764C148.563 161.195 151.029 156.833 155.285 154.376C159.535 151.922 164.539 151.96 168.607 154.036C174.953 147.3 178.748 138.761 179.503 129.601H162.839Z" fill="#C90016"/>
<defs>
<filter id="filter0_d_32_366" x="0.76123" y="0.593994" width="260" height="260" filterUnits="userSpaceOnUse" color-interpolation-filters="sRGB">
<feFlood flood-opacity="0" result="BackgroundImageFix"/>
<feColorMatrix in="SourceAlpha" type="matrix" values="0 0 0 0 0 0 0 0 0 0 0 0 0 0 0 0 0 0 127 0" result="hardAlpha"/>
<feOffset dy="4"/>
<feGaussianBlur stdDeviation="20"/>
<feComposite in2="hardAlpha" operator="out"/>
<feColorMatrix type="matrix" values="0 0 0 0 0.0367917 0 0 0 0 0.0348958 0 0 0 0 0.0484375 0 0 0 0.1 0"/>
<feBlend mode="normal" in2="BackgroundImageFix" result="effect1_dropShadow_32_366"/>
<feBlend mode="normal" in="SourceGraphic" in2="effect1_dropShadow_32_366" result="shape"/>
</filter>
</defs>
</svg>
