<svg width="261" height="261" viewBox="0 0 261 261" fill="none" xmlns="http://www.w3.org/2000/svg">
<g filter="url(#filter0_d_22_668)">
<path d="M40.724 100.297C40.724 70.127 40.724 55.042 50.0966 45.6695C59.4692 36.2969 74.5541 36.2969 104.724 36.2969H156.724C186.894 36.2969 201.979 36.2969 211.351 45.6695C220.724 55.042 220.724 70.127 220.724 100.297V152.297C220.724 182.467 220.724 197.552 211.351 206.924C201.979 216.297 186.894 216.297 156.724 216.297H104.724C74.5541 216.297 59.4692 216.297 50.0966 206.924C40.724 197.552 40.724 182.467 40.724 152.297V100.297Z" fill="white"/>
<path d="M50.0966 206.924L49.3895 207.631L50.0966 206.924ZM211.351 206.924L210.644 206.217L211.351 206.924ZM211.351 45.6695L212.059 44.9624L211.351 45.6695ZM104.724 37.2969H156.724V35.2969H104.724V37.2969ZM219.724 100.297V152.297H221.724V100.297H219.724ZM156.724 215.297H104.724V217.297H156.724V215.297ZM41.724 152.297V100.297H39.724V152.297H41.724ZM104.724 215.297C89.6108 215.297 78.3765 215.295 69.7445 214.134C61.1414 212.978 55.2732 210.687 50.8037 206.217L49.3895 207.631C54.2925 212.534 60.6531 214.93 69.4781 216.116C78.2742 217.299 89.6673 217.297 104.724 217.297V215.297ZM39.724 152.297C39.724 167.354 39.7219 178.747 40.9045 187.543C42.091 196.368 44.4864 202.728 49.3895 207.631L50.8037 206.217C46.3342 201.748 44.0433 195.879 42.8867 187.276C41.7261 178.644 41.724 167.41 41.724 152.297H39.724ZM219.724 152.297C219.724 167.41 219.722 178.644 218.561 187.276C217.405 195.879 215.114 201.748 210.644 206.217L212.059 207.631C216.962 202.728 219.357 196.368 220.544 187.543C221.726 178.747 221.724 167.354 221.724 152.297H219.724ZM156.724 217.297C171.781 217.297 183.174 217.299 191.97 216.116C200.795 214.93 207.155 212.534 212.059 207.631L210.644 206.217C206.175 210.687 200.307 212.978 191.703 214.134C183.072 215.295 171.837 215.297 156.724 215.297V217.297ZM156.724 37.2969C171.837 37.2969 183.072 37.299 191.703 38.4595C200.307 39.6162 206.175 41.907 210.644 46.3766L212.059 44.9624C207.155 40.0593 200.795 37.6638 191.97 36.4774C183.174 35.2948 171.781 35.2969 156.724 35.2969V37.2969ZM221.724 100.297C221.724 85.2402 221.726 73.8471 220.544 65.0509C219.357 56.226 216.962 49.8654 212.059 44.9624L210.644 46.3766C215.114 50.8461 217.405 56.7143 218.561 65.3174C219.722 73.9493 219.724 85.1837 219.724 100.297H221.724ZM104.724 35.2969C89.6673 35.2969 78.2742 35.2948 69.4781 36.4774C60.6531 37.6638 54.2925 40.0593 49.3895 44.9624L50.8037 46.3766C55.2732 41.907 61.1414 39.6162 69.7445 38.4595C78.3765 37.299 89.6108 37.2969 104.724 37.2969V35.2969ZM41.724 100.297C41.724 85.1837 41.7261 73.9493 42.8867 65.3174C44.0433 56.7143 46.3342 50.8461 50.8037 46.3766L49.3895 44.9624C44.4864 49.8654 42.091 56.226 40.9045 65.0509C39.7219 73.8471 39.724 85.2402 39.724 100.297H41.724Z" fill="#D9D9D9"/>
</g>
<path d="M179.762 90.6921L133.645 174.586C132.693 176.318 130.246 176.328 129.28 174.604L82.249 90.6999C81.1959 88.8218 82.7748 86.5465 84.8671 86.9273L131.033 95.3218C131.328 95.3753 131.629 95.3748 131.924 95.3202L177.124 86.939C179.21 86.5524 180.796 88.8101 179.762 90.6921Z" fill="url(#paint0_linear_22_668)"/>
<path d="M153.024 75.9157L118.897 82.7189C118.624 82.7733 118.377 82.9183 118.194 83.1311C118.011 83.344 117.903 83.6126 117.887 83.8948L115.788 119.965C115.776 120.163 115.81 120.361 115.887 120.543C115.964 120.725 116.081 120.887 116.23 121.014C116.379 121.142 116.555 121.233 116.744 121.28C116.933 121.326 117.131 121.328 117.321 121.283L126.822 119.052C127.711 118.843 128.515 119.64 128.332 120.55L125.509 134.613C125.319 135.559 126.192 136.368 127.101 136.087L132.97 134.274C133.879 133.993 134.754 134.804 134.561 135.752L130.075 157.841C129.794 159.223 131.601 159.977 132.354 158.792L132.858 158.001L160.667 101.541C161.133 100.595 160.329 99.5174 159.309 99.7179L149.528 101.638C148.609 101.818 147.827 100.948 148.087 100.033L154.47 77.5204C154.73 76.6035 153.945 75.7324 153.025 75.9157H153.024Z" fill="url(#paint1_linear_22_668)"/>
<defs>
<filter id="filter0_d_22_668" x="0.723999" y="0.296875" width="260" height="260" filterUnits="userSpaceOnUse" color-interpolation-filters="sRGB">
<feFlood flood-opacity="0" result="BackgroundImageFix"/>
<feColorMatrix in="SourceAlpha" type="matrix" values="0 0 0 0 0 0 0 0 0 0 0 0 0 0 0 0 0 0 127 0" result="hardAlpha"/>
<feOffset dy="4"/>
<feGaussianBlur stdDeviation="20"/>
<feComposite in2="hardAlpha" operator="out"/>
<feColorMatrix type="matrix" values="0 0 0 0 0.0367917 0 0 0 0 0.0348958 0 0 0 0 0.0484375 0 0 0 0.1 0"/>
<feBlend mode="normal" in2="BackgroundImageFix" result="effect1_dropShadow_22_668"/>
<feBlend mode="normal" in="SourceGraphic" in2="effect1_dropShadow_22_668" result="shape"/>
</filter>
<linearGradient id="paint0_linear_22_668" x1="81.1007" y1="93.6959" x2="131.951" y2="161.579" gradientUnits="userSpaceOnUse">
<stop stop-color="#41D1FF"/>
<stop offset="1" stop-color="#BD34FE"/>
</linearGradient>
<linearGradient id="paint1_linear_22_668" x1="135.312" y1="77.7629" x2="145.894" y2="149.115" gradientUnits="userSpaceOnUse">
<stop stop-color="#FFEA83"/>
<stop offset="0.083" stop-color="#FFDD35"/>
<stop offset="1" stop-color="#FFA800"/>
</linearGradient>
</defs>
</svg>
