<svg width="261" height="261" viewBox="0 0 261 261" fill="none" xmlns="http://www.w3.org/2000/svg">
<g filter="url(#filter0_d_22_664)">
<path d="M40.9329 100.703C40.9329 70.533 40.9329 55.448 50.3054 46.0755C59.678 36.7029 74.763 36.7029 104.933 36.7029H156.933C187.103 36.7029 202.188 36.7029 211.56 46.0755C220.933 55.448 220.933 70.533 220.933 100.703V152.703C220.933 182.873 220.933 197.958 211.56 207.33C202.188 216.703 187.103 216.703 156.933 216.703H104.933C74.763 216.703 59.678 216.703 50.3054 207.33C40.9329 197.958 40.9329 182.873 40.9329 152.703V100.703Z" fill="white"/>
<path d="M50.3054 207.33L49.5983 208.037L50.3054 207.33ZM211.56 207.33L210.853 206.623L211.56 207.33ZM211.56 46.0755L212.267 45.3684L211.56 46.0755ZM104.933 37.7029H156.933V35.7029H104.933V37.7029ZM219.933 100.703V152.703H221.933V100.703H219.933ZM156.933 215.703H104.933V217.703H156.933V215.703ZM41.9329 152.703V100.703H39.9329V152.703H41.9329ZM104.933 215.703C89.8196 215.703 78.5853 215.701 69.9534 214.54C61.3503 213.384 55.4821 211.093 51.0126 206.623L49.5983 208.037C54.5014 212.94 60.862 215.336 69.6869 216.522C78.4831 217.705 89.8762 217.703 104.933 217.703V215.703ZM39.9329 152.703C39.9329 167.76 39.9307 179.153 41.1134 187.949C42.2998 196.774 44.6953 203.134 49.5983 208.037L51.0126 206.623C46.543 202.154 44.2522 196.285 43.0955 187.682C41.935 179.05 41.9329 167.816 41.9329 152.703H39.9329ZM219.933 152.703C219.933 167.816 219.931 179.05 218.77 187.682C217.614 196.285 215.323 202.154 210.853 206.623L212.267 208.037C217.17 203.134 219.566 196.774 220.752 187.949C221.935 179.153 221.933 167.76 221.933 152.703H219.933ZM156.933 217.703C171.99 217.703 183.383 217.705 192.179 216.522C201.004 215.336 207.364 212.94 212.267 208.037L210.853 206.623C206.384 211.093 200.515 213.384 191.912 214.54C183.28 215.701 172.046 215.703 156.933 215.703V217.703ZM156.933 37.7029C172.046 37.7029 183.28 37.705 191.912 38.8655C200.515 40.0222 206.384 42.313 210.853 46.7826L212.267 45.3684C207.364 40.4653 201.004 38.0699 192.179 36.8834C183.383 35.7008 171.99 35.7029 156.933 35.7029V37.7029ZM221.933 100.703C221.933 85.6462 221.935 74.2531 220.752 65.4569C219.566 56.632 217.17 50.2714 212.267 45.3684L210.853 46.7826C215.323 51.2521 217.614 57.1203 218.77 65.7234C219.931 74.3554 219.933 85.5897 219.933 100.703H221.933ZM104.933 35.7029C89.8762 35.7029 78.4831 35.7008 69.6869 36.8834C60.862 38.0699 54.5014 40.4653 49.5983 45.3684L51.0126 46.7826C55.4821 42.313 61.3503 40.0222 69.9534 38.8655C78.5853 37.705 89.8196 37.7029 104.933 37.7029V35.7029ZM41.9329 100.703C41.9329 85.5897 41.935 74.3554 43.0955 65.7234C44.2522 57.1203 46.543 51.2521 51.0126 46.7826L49.5983 45.3684C44.6953 50.2714 42.2998 56.632 41.1134 65.4569C39.9307 74.2531 39.9329 85.6462 39.9329 100.703H41.9329Z" fill="#D9D9D9"/>
</g>
<path d="M177.031 76.2971H128.877C128.877 82.0624 131.167 87.5915 135.243 91.6681C139.32 95.7447 144.849 98.035 150.614 98.035H159.485V106.6C159.493 118.594 169.214 128.316 181.209 128.324V80.4746C181.209 78.1681 179.339 76.2971 177.031 76.2971Z" fill="#2684FF"/>
<path d="M153.205 100.291H105.05C105.058 112.286 114.779 122.007 126.774 122.015H135.645V130.607C135.66 142.602 145.388 152.317 157.382 152.317V104.469C157.382 102.162 155.512 100.291 153.205 100.291V100.291Z" fill="url(#paint0_linear_22_664)"/>
<path d="M129.364 124.271H81.2089C81.2089 136.277 90.9416 146.009 102.947 146.009H111.845V154.573C111.853 166.557 121.558 176.274 133.542 176.297V128.449C133.542 126.142 131.671 124.271 129.364 124.271Z" fill="url(#paint1_linear_22_664)"/>
<defs>
<filter id="filter0_d_22_664" x="0.932861" y="0.702881" width="260" height="260" filterUnits="userSpaceOnUse" color-interpolation-filters="sRGB">
<feFlood flood-opacity="0" result="BackgroundImageFix"/>
<feColorMatrix in="SourceAlpha" type="matrix" values="0 0 0 0 0 0 0 0 0 0 0 0 0 0 0 0 0 0 127 0" result="hardAlpha"/>
<feOffset dy="4"/>
<feGaussianBlur stdDeviation="20"/>
<feComposite in2="hardAlpha" operator="out"/>
<feColorMatrix type="matrix" values="0 0 0 0 0.0367917 0 0 0 0 0.0348958 0 0 0 0 0.0484375 0 0 0 0.1 0"/>
<feBlend mode="normal" in2="BackgroundImageFix" result="effect1_dropShadow_22_664"/>
<feBlend mode="normal" in="SourceGraphic" in2="effect1_dropShadow_22_664" result="shape"/>
</filter>
<linearGradient id="paint0_linear_22_664" x1="156.352" y1="100.375" x2="135.992" y2="121.619" gradientUnits="userSpaceOnUse">
<stop offset="0.18" stop-color="#0052CC"/>
<stop offset="1" stop-color="#2684FF"/>
</linearGradient>
<linearGradient id="paint1_linear_22_664" x1="133.89" y1="124.508" x2="110.338" y2="147.679" gradientUnits="userSpaceOnUse">
<stop offset="0.18" stop-color="#0052CC"/>
<stop offset="1" stop-color="#2684FF"/>
</linearGradient>
</defs>
</svg>
