<svg width="260" height="260" viewBox="0 0 260 260" fill="none" xmlns="http://www.w3.org/2000/svg">
<g filter="url(#filter0_d_22_140)">
<path d="M40.0001 100C40.0001 69.8301 40.0001 54.7452 49.3727 45.3726C58.7453 36 73.8302 36 104 36H156C186.17 36 201.255 36 210.628 45.3726C220 54.7452 220 69.8301 220 100V152C220 182.17 220 197.255 210.628 206.627C201.255 216 186.17 216 156 216H104C73.8302 216 58.7453 216 49.3727 206.627C40.0001 197.255 40.0001 182.17 40.0001 152V100Z" fill="white"/>
<path d="M49.3727 206.627L48.6656 207.335L49.3727 206.627ZM210.628 206.627L209.92 205.92L210.628 206.627ZM210.628 45.3726L211.335 44.6655L210.628 45.3726ZM104 37H156V35H104V37ZM219 100V152H221V100H219ZM156 215H104V217H156V215ZM41.0001 152V100H39.0001V152H41.0001ZM104 215C88.8869 215 77.6526 214.998 69.0207 213.837C60.4175 212.681 54.5493 210.39 50.0798 205.92L48.6656 207.335C53.5687 212.238 59.9292 214.633 68.7542 215.82C77.5503 217.002 88.9434 217 104 217V215ZM39.0001 152C39.0001 167.057 38.998 178.45 40.1806 187.246C41.3671 196.071 43.7625 202.431 48.6656 207.335L50.0798 205.92C45.6103 201.451 43.3194 195.583 42.1628 186.979C41.0022 178.348 41.0001 167.113 41.0001 152H39.0001ZM219 152C219 167.113 218.998 178.348 217.837 186.979C216.681 195.583 214.39 201.451 209.92 205.92L211.335 207.335C216.238 202.431 218.633 196.071 219.82 187.246C221.002 178.45 221 167.057 221 152H219ZM156 217C171.057 217 182.45 217.002 191.246 215.82C200.071 214.633 206.432 212.238 211.335 207.335L209.92 205.92C205.451 210.39 199.583 212.681 190.98 213.837C182.348 214.998 171.113 215 156 215V217ZM156 37C171.113 37 182.348 37.0021 190.98 38.1627C199.583 39.3193 205.451 41.6102 209.92 46.0797L211.335 44.6655C206.432 39.7624 200.071 37.367 191.246 36.1805C182.45 34.9979 171.057 35 156 35V37ZM221 100C221 84.9433 221.002 73.5502 219.82 64.7541C218.633 55.9291 216.238 49.5685 211.335 44.6655L209.92 46.0797C214.39 50.5492 216.681 56.4174 217.837 65.0205C218.998 73.6525 219 84.8868 219 100H221ZM104 35C88.9434 35 77.5503 34.9979 68.7542 36.1805C59.9292 37.367 53.5687 39.7624 48.6656 44.6655L50.0798 46.0797C54.5493 41.6102 60.4175 39.3193 69.0207 38.1627C77.6526 37.0021 88.8869 37 104 37V35ZM41.0001 100C41.0001 84.8868 41.0022 73.6525 42.1628 65.0205C43.3194 56.4174 45.6103 50.5492 50.0798 46.0797L48.6656 44.6655C43.7625 49.5685 41.3671 55.9291 40.1806 64.7541C38.998 73.5502 39.0001 84.9433 39.0001 100H41.0001Z" fill="#D9D9D9"/>
</g>
<path d="M159.933 82.4692H179.933L129.933 168.719L79.9329 82.4692H118.183L129.933 102.469L141.433 82.4692H159.933Z" fill="#41B883"/>
<path d="M79.9329 82.4692L129.933 168.719L179.933 82.4692H159.933L129.933 134.219L99.6829 82.4692H79.9329Z" fill="#41B883"/>
<path d="M99.6829 82.4692L129.933 134.469L159.933 82.4692H141.433L129.933 102.469L118.183 82.4692H99.6829Z" fill="#35495E"/>
<defs>
<filter id="filter0_d_22_140" x="0.00012207" y="0" width="260" height="260" filterUnits="userSpaceOnUse" color-interpolation-filters="sRGB">
<feFlood flood-opacity="0" result="BackgroundImageFix"/>
<feColorMatrix in="SourceAlpha" type="matrix" values="0 0 0 0 0 0 0 0 0 0 0 0 0 0 0 0 0 0 127 0" result="hardAlpha"/>
<feOffset dy="4"/>
<feGaussianBlur stdDeviation="20"/>
<feComposite in2="hardAlpha" operator="out"/>
<feColorMatrix type="matrix" values="0 0 0 0 0.0367917 0 0 0 0 0.0348958 0 0 0 0 0.0484375 0 0 0 0.1 0"/>
<feBlend mode="normal" in2="BackgroundImageFix" result="effect1_dropShadow_22_140"/>
<feBlend mode="normal" in="SourceGraphic" in2="effect1_dropShadow_22_140" result="shape"/>
</filter>
</defs>
</svg>
