<svg width="261" height="261" viewBox="0 0 261 261" fill="none" xmlns="http://www.w3.org/2000/svg">
<g filter="url(#filter0_d_33_2141)">
<path d="M40.9329 100.891C40.9329 70.721 40.9329 55.636 50.3054 46.2635C59.678 36.8909 74.763 36.8909 104.933 36.8909H156.933C187.103 36.8909 202.188 36.8909 211.56 46.2635C220.933 55.636 220.933 70.721 220.933 100.891V152.891C220.933 183.061 220.933 198.146 211.56 207.518C202.188 216.891 187.103 216.891 156.933 216.891H104.933C74.763 216.891 59.678 216.891 50.3054 207.518C40.9329 198.146 40.9329 183.061 40.9329 152.891V100.891Z" fill="white"/>
<path d="M50.3054 207.518L49.5983 208.225L50.3054 207.518ZM211.56 207.518L210.853 206.811L211.56 207.518ZM211.56 46.2635L212.267 45.5563L211.56 46.2635ZM104.933 37.8909H156.933V35.8909H104.933V37.8909ZM219.933 100.891V152.891H221.933V100.891H219.933ZM156.933 215.891H104.933V217.891H156.933V215.891ZM41.9329 152.891V100.891H39.9329V152.891H41.9329ZM104.933 215.891C89.8196 215.891 78.5853 215.889 69.9534 214.728C61.3503 213.572 55.4821 211.281 51.0126 206.811L49.5983 208.225C54.5014 213.128 60.862 215.524 69.6869 216.71C78.4831 217.893 89.8762 217.891 104.933 217.891V215.891ZM39.9329 152.891C39.9329 167.948 39.9307 179.341 41.1134 188.137C42.2998 196.962 44.6953 203.322 49.5983 208.225L51.0126 206.811C46.543 202.342 44.2522 196.473 43.0955 187.87C41.935 179.238 41.9329 168.004 41.9329 152.891H39.9329ZM219.933 152.891C219.933 168.004 219.931 179.238 218.77 187.87C217.614 196.473 215.323 202.342 210.853 206.811L212.267 208.225C217.17 203.322 219.566 196.962 220.752 188.137C221.935 179.341 221.933 167.948 221.933 152.891H219.933ZM156.933 217.891C171.99 217.891 183.383 217.893 192.179 216.71C201.004 215.524 207.364 213.128 212.267 208.225L210.853 206.811C206.384 211.281 200.515 213.572 191.912 214.728C183.28 215.889 172.046 215.891 156.933 215.891V217.891ZM156.933 37.8909C172.046 37.8909 183.28 37.893 191.912 39.0535C200.515 40.2102 206.384 42.501 210.853 46.9706L212.267 45.5563C207.364 40.6533 201.004 38.2578 192.179 37.0714C183.383 35.8887 171.99 35.8909 156.933 35.8909V37.8909ZM221.933 100.891C221.933 85.8342 221.935 74.4411 220.752 65.6449C219.566 56.82 217.17 50.4594 212.267 45.5563L210.853 46.9706C215.323 51.4401 217.614 57.3083 218.77 65.9114C219.931 74.5433 219.933 85.7777 219.933 100.891H221.933ZM104.933 35.8909C89.8762 35.8909 78.4831 35.8887 69.6869 37.0714C60.862 38.2578 54.5014 40.6533 49.5983 45.5563L51.0126 46.9706C55.4821 42.501 61.3503 40.2102 69.9534 39.0535C78.5853 37.893 89.8196 37.8909 104.933 37.8909V35.8909ZM41.9329 100.891C41.9329 85.7777 41.935 74.5433 43.0955 65.9114C44.2522 57.3083 46.543 51.4401 51.0126 46.9706L49.5983 45.5563C44.6953 50.4594 42.2998 56.82 41.1134 65.6449C39.9307 74.4411 39.9329 85.8342 39.9329 100.891H41.9329Z" fill="#D9D9D9"/>
</g>
<path d="M88.3165 126.484C88.3165 143.463 98.1833 158.134 112.491 165.088L92.0301 109.028C89.5774 114.52 88.3119 120.469 88.3165 126.484ZM160.166 124.319C160.166 119.018 158.262 115.347 156.629 112.49C154.454 108.956 152.417 105.964 152.417 102.431C152.417 98.4883 155.407 94.8179 159.619 94.8179C159.809 94.8179 159.99 94.8416 160.176 94.8522C152.544 87.8609 142.377 83.5923 131.21 83.5923C116.225 83.5923 103.041 91.2806 95.3715 102.926C96.3779 102.956 97.3271 102.976 98.1318 102.976C102.618 102.976 109.563 102.432 109.563 102.432C111.875 102.296 112.148 105.692 109.839 105.965C109.839 105.965 107.515 106.239 104.929 106.374L120.549 152.835L129.936 124.683L123.253 106.373C120.943 106.238 118.755 105.964 118.755 105.964C116.443 105.829 116.714 102.295 119.026 102.431C119.026 102.431 126.109 102.976 130.324 102.976C134.81 102.976 141.755 102.431 141.755 102.431C144.069 102.295 144.341 105.691 142.031 105.964C142.031 105.964 139.702 106.238 137.121 106.373L152.622 152.482L156.9 138.185C158.755 132.253 160.166 127.991 160.166 124.319Z" fill="#00749A"/>
<path d="M131.962 130.236L119.093 167.631C123.027 168.791 127.108 169.379 131.21 169.379C136.205 169.379 140.995 168.515 145.454 166.948C145.334 166.761 145.232 166.563 145.148 166.357L131.962 130.236ZM168.847 105.905C169.031 107.271 169.136 108.739 169.136 110.316C169.136 114.668 168.323 119.561 165.874 125.679L152.772 163.56C165.524 156.124 174.101 142.309 174.101 126.484C174.113 119.291 172.305 112.212 168.847 105.905Z" fill="#00749A"/>
<path d="M131.21 76.4851C103.64 76.4851 81.2092 98.9144 81.2092 126.484C81.2092 154.057 103.639 176.486 131.21 176.486C158.778 176.486 181.213 154.057 181.213 126.484C181.212 98.9144 158.778 76.4851 131.21 76.4851ZM131.21 174.193C104.904 174.193 83.5019 152.791 83.5019 126.484C83.5019 100.179 104.904 78.7786 131.21 78.7786C157.514 78.7786 178.915 100.179 178.915 126.484C178.915 152.791 157.513 174.193 131.21 174.193Z" fill="#00749A"/>
<defs>
<filter id="filter0_d_33_2141" x="0.932861" y="0.890869" width="260" height="260" filterUnits="userSpaceOnUse" color-interpolation-filters="sRGB">
<feFlood flood-opacity="0" result="BackgroundImageFix"/>
<feColorMatrix in="SourceAlpha" type="matrix" values="0 0 0 0 0 0 0 0 0 0 0 0 0 0 0 0 0 0 127 0" result="hardAlpha"/>
<feOffset dy="4"/>
<feGaussianBlur stdDeviation="20"/>
<feComposite in2="hardAlpha" operator="out"/>
<feColorMatrix type="matrix" values="0 0 0 0 0.0367917 0 0 0 0 0.0348958 0 0 0 0 0.0484375 0 0 0 0.1 0"/>
<feBlend mode="normal" in2="BackgroundImageFix" result="effect1_dropShadow_33_2141"/>
<feBlend mode="normal" in="SourceGraphic" in2="effect1_dropShadow_33_2141" result="shape"/>
</filter>
</defs>
</svg>
